<?xml version="1.0" encoding="UTF-8"?>
<svg version="1.1" xmlns="http://www.w3.org/2000/svg" width="283" height="236">
<path d="M0,0 L8,1 L12,4 L20,7 L21,8 L58,9 L62,13 L63,16 L64,63 L69,73 L77,103 L83,126 L83,136 L86,150 L87,162 L88,196 L88,212 L78,214 L55,214 L53,213 L49,194 L48,192 L44,214 L19,214 L10,212 L11,200 L16,163 L13,164 L1,165 L-3,167 L-8,172 L-17,175 L-19,178 L-18,194 L-17,199 L-11,201 L-2,204 L3,206 L1,208 L-13,205 L-18,203 L-31,199 L-42,194 L-43,188 L-42,181 L-43,165 L-45,164 L-54,164 L-56,168 L-60,169 L-62,175 L-69,183 L-71,184 L-80,184 L-88,180 L-91,178 L-96,177 L-97,190 L-95,203 L-95,208 L-102,211 L-121,214 L-146,214 L-162,211 L-172,207 L-174,202 L-176,179 L-176,164 L-173,160 L-171,160 L-172,157 L-172,15 L-169,10 L-167,9 L-15,8 L-5,1 Z " fill="#4776A5" transform="translate(182,18)"/>
<path d="M0,0 L144,0 L147,7 L152,11 L160,29 L164,34 L168,36 L177,36 L171,43 L165,50 L157,68 L154,78 L150,77 L135,64 L129,60 L126,52 L123,47 L121,39 L117,41 L116,50 L107,51 L106,57 L106,66 L108,71 L119,74 L123,81 L134,94 L144,103 L151,107 L160,107 L167,103 L169,101 L182,100 L188,120 L187,137 L116,137 L117,130 L123,105 L126,93 L126,90 L112,89 L82,88 L80,99 L76,103 L71,108 L69,111 L63,109 L62,102 L71,97 L71,96 L66,99 L62,100 L60,102 L58,99 L58,90 L53,89 L51,87 L52,80 L59,80 L59,74 L60,72 L66,71 L67,69 L68,74 L66,74 L66,77 L71,76 L73,77 L72,85 L66,85 L67,87 L72,86 L74,77 L70,74 L69,66 L69,59 L65,54 L61,52 L50,52 L36,53 L27,58 L22,66 L21,69 L20,84 L16,93 L16,105 L19,110 L22,112 L20,116 L15,124 L12,135 L1,135 L0,134 Z " fill="#F7FAF9" transform="translate(12,42)"/>
<path d="M0,0 L3,1 L6,11 L10,18 L11,22 L16,25 L26,34 L32,39 L35,40 L36,33 L44,14 L47,10 L49,11 L43,22 L43,34 L40,37 L38,44 L30,40 L16,28 L11,27 L8,22 L5,14 L2,9 L2,2 L-1,4 L0,17 L3,28 L1,28 L0,26 L-2,34 L5,34 L9,29 L11,29 L9,33 L5,38 L6,42 L8,42 L8,44 L11,45 L11,47 L15,49 L17,53 L21,55 L29,60 L40,60 L45,59 L44,51 L47,51 L47,56 L49,60 L67,61 L68,57 L68,48 L60,39 L57,34 L57,29 L54,30 L54,36 L55,41 L50,41 L53,39 L52,37 L52,29 L54,27 L58,28 L58,30 L60,31 L61,35 L66,43 L99,44 L95,21 L95,18 L97,18 L101,41 L102,44 L105,46 L88,46 L70,45 L70,60 L84,63 L90,64 L106,63 L114,59 L119,51 L120,18 L122,18 L128,41 L134,64 L134,74 L137,88 L138,100 L139,134 L139,150 L129,152 L106,152 L104,151 L100,132 L99,130 L95,152 L70,152 L61,150 L62,138 L67,101 L64,102 L52,103 L48,105 L43,110 L34,113 L32,116 L33,132 L34,137 L40,139 L49,142 L54,144 L52,146 L38,143 L33,141 L20,137 L9,132 L8,126 L9,119 L8,103 L6,102 L-3,102 L-5,106 L-9,107 L-11,113 L-18,121 L-20,122 L-29,122 L-37,118 L-40,116 L-45,115 L-47,135 L-49,132 L-50,120 L-52,120 L-55,113 L-57,102 L-55,101 L-51,104 L-46,106 L-43,108 L-43,110 L-39,108 L-37,108 L-32,100 L-31,94 L-38,86 L-42,83 L-42,81 L-38,83 L-29,92 L-28,96 L-26,96 L-19,80 L-20,73 L-21,71 L-25,70 L-23,66 L-18,60 L-15,58 L-8,58 L-5,56 L0,56 L0,60 L-4,61 L-1,68 L-1,75 L-5,82 L-8,102 L-9,105 L-7,104 L-5,99 L68,99 L68,82 L63,64 L63,62 L61,63 L50,64 L44,69 L41,70 L32,70 L21,63 L10,52 L0,39 L0,36 L-11,34 L-13,32 L-14,28 L-14,19 L-12,12 L-3,12 L-3,3 Z M33,43 L36,44 Z " fill="#29537D" transform="translate(131,80)"/>
<path d="M0,0 L3,1 L5,6 L6,53 L11,63 L12,70 L11,103 L6,111 L0,115 L-11,117 L-19,117 L-36,114 L-39,112 L-39,97 L-7,97 L-9,93 L-12,74 L-12,70 L-14,70 L-10,90 L-10,96 L-43,96 L-50,86 L-51,82 L-52,80 L-56,81 L-56,89 L-55,90 L-56,88 L-56,82 L-52,81 L-50,88 L-43,97 L-40,100 L-40,109 L-42,113 L-60,113 L-63,108 L-62,103 L-65,103 L-64,111 L-69,113 L-80,113 L-89,107 L-94,102 L-101,96 L-101,94 L-103,94 L-105,89 L-101,87 L-99,83 L-98,81 L-100,81 L-102,85 L-104,87 L-111,87 L-112,85 L-110,77 L-108,78 L-108,80 L-106,80 L-109,74 L-111,62 L-111,56 L-107,54 L-105,63 L-101,70 L-98,79 L-94,78 L-83,88 L-76,93 L-73,93 L-72,95 L-69,87 L-66,86 L-67,79 L-66,72 L-61,63 L-61,60 L-52,51 L-60,51 L-65,48 L-71,39 L-77,24 L-76,17 L-64,14 L-55,9 L-53,9 L-50,18 L-47,22 L-44,22 L-42,17 L-38,18 L-37,19 L-38,27 L-41,28 L-37,34 L-35,35 L-34,30 L-33,27 L-33,8 L-35,1 Z M-76,95 Z " fill="#4574A1" transform="translate(240,28)"/>
<path d="M0,0 L8,1 L12,4 L20,7 L21,8 L58,9 L58,11 L23,11 L26,18 L26,37 L23,45 L19,43 L17,38 L19,37 L20,29 L16,28 L14,33 L10,32 L5,24 L5,19 L-9,26 L-18,27 L-18,34 L-22,33 L-26,28 L-26,24 L-170,24 L-170,14 L-170,11 L-167,9 L-15,8 L-5,1 Z " fill="#41709E" transform="translate(182,18)"/>
<path d="M0,0 L24,0 L45,2 L50,8 L55,33 L57,45 L57,51 L50,53 L25,53 L9,50 L-1,46 L-3,13 L-3,4 Z " fill="#91BCE0" transform="translate(11,179)"/>
<path d="M0,0 L3,1 L6,11 L10,18 L11,22 L16,25 L26,34 L32,39 L35,40 L36,33 L44,14 L47,10 L49,11 L43,22 L43,34 L40,37 L38,44 L30,40 L16,28 L11,27 L8,22 L5,14 L2,9 L2,2 L-1,4 L0,17 L3,28 L1,28 L0,26 L-2,34 L5,34 L9,29 L11,29 L9,33 L5,38 L6,42 L8,42 L8,44 L11,45 L11,47 L15,49 L17,53 L21,55 L29,60 L40,60 L45,59 L44,51 L47,51 L47,56 L49,60 L67,61 L68,57 L68,48 L60,39 L57,34 L57,29 L54,30 L54,36 L55,41 L50,41 L53,39 L52,37 L52,29 L54,27 L58,28 L58,30 L60,31 L61,35 L66,43 L99,44 L95,21 L95,18 L97,18 L101,41 L102,44 L105,46 L88,46 L70,45 L70,60 L84,63 L90,64 L106,63 L114,59 L119,51 L120,18 L122,18 L128,41 L133,60 L132,70 L127,75 L112,82 L101,84 L80,84 L70,82 L70,91 L69,98 L68,98 L68,82 L63,64 L63,62 L61,63 L50,64 L44,69 L41,70 L32,70 L21,63 L10,52 L0,39 L0,36 L-11,34 L-13,32 L-14,28 L-14,19 L-12,12 L-3,12 L-3,3 Z M33,43 L36,44 Z " fill="#346293" transform="translate(131,80)"/>
<path d="M0,0 L11,0 L17,4 L20,8 L20,20 L22,24 L25,26 L23,38 L22,35 L18,35 L17,37 L16,34 L22,34 L23,26 L16,26 L16,23 L18,23 L17,19 L14,21 L10,21 L9,29 L5,30 L2,29 L2,36 L4,38 L8,39 L9,48 L12,48 L20,45 L23,41 L22,46 L18,49 L13,51 L14,56 L13,59 L2,63 L-6,64 L-15,64 L-22,60 L-24,60 L-32,71 L-35,75 L-34,69 L-29,63 L-29,61 L-34,56 L-35,54 L-35,42 L-31,33 L-30,18 L-26,10 L-22,5 L-14,1 Z " fill="#20456F" transform="translate(62,93)"/>
<path d="M0,0 L144,0 L147,8 L144,9 L144,7 L7,7 L8,129 L13,131 L12,135 L1,135 L0,134 Z " fill="#C1DDF2" transform="translate(12,42)"/>
<path d="M0,0 L43,0 L44,31 L45,36 L21,38 L12,43 L8,49 L1,48 L0,47 Z " fill="#C8E1F7" transform="translate(27,57)"/>
<path d="M0,0 L8,1 L12,4 L20,7 L21,8 L58,9 L58,11 L23,11 L26,18 L26,37 L23,45 L19,43 L17,38 L19,37 L20,29 L16,28 L14,33 L10,32 L5,24 L5,19 L-9,26 L-18,27 L-18,34 L-22,33 L-26,28 L-27,17 L-24,14 L-20,12 L-167,11 L-167,9 L-15,8 L-5,1 Z " fill="#264C74" transform="translate(182,18)"/>
<path d="M0,0 L72,0 L71,4 L71,1 L68,2 L56,3 L52,5 L47,10 L38,13 L36,16 L37,32 L38,37 L44,39 L53,42 L58,44 L56,46 L42,43 L37,41 L24,37 L13,32 L12,26 L13,19 L12,3 L10,2 L0,2 Z " fill="#9CC7ED" transform="translate(127,180)"/>
<path d="M0,0 L35,0 L35,36 L31,34 L22,30 L14,28 L5,27 L-2,24 L-3,18 L-1,13 Z " fill="#F6FAFA" transform="translate(208,42)"/>
<path d="M0,0 L2,0 L5,9 L8,13 L11,13 L13,8 L17,9 L18,10 L17,18 L14,19 L21,30 L20,35 L13,49 L9,47 L5,40 L7,38 L4,40 L-6,40 L-11,35 L-11,33 L-1,34 L1,34 L2,27 L-4,30 L-8,29 L-5,27 L-6,25 L-9,24 L-10,18 L-12,18 L-12,21 L-16,20 L-15,24 L-12,23 L-11,28 L-15,29 L-18,22 L-17,17 L-17,16 L-20,16 L-21,8 L-9,5 Z " fill="#A2C7E8" transform="translate(185,37)"/>
<path d="M0,0 L36,0 L42,1 L40,11 L32,44 L29,53 L27,53 L30,30 L34,23 L34,16 L32,12 L32,9 L36,8 L36,4 L29,6 L26,7 L21,7 L16,12 L11,18 L16,19 L18,24 L17,30 L11,44 L7,44 L5,39 L-5,29 L-5,24 L1,20 L2,16 L-3,16 L-2,8 Z " fill="#EDF7FA" transform="translate(95,132)"/>
<path d="M0,0 L5,1 L7,4 L7,11 L4,16 L0,38 L-3,48 L-7,54 L-10,56 L-18,56 L-25,53 L-29,49 L-23,41 L-20,34 L-16,35 L-14,36 L-13,29 L-8,18 L-8,10 L-9,8 L-9,1 L-7,2 L-7,5 L-2,4 Z " fill="#A9CCEB" transform="translate(121,144)"/>
<path d="M0,0 L5,0 L5,4 L1,5 L4,12 L4,19 L0,26 L-3,46 L-4,49 L-1,48 L0,50 L-4,51 L-6,57 L-13,65 L-15,66 L-24,66 L-32,62 L-35,60 L-40,59 L-42,79 L-44,76 L-45,64 L-47,64 L-50,57 L-52,46 L-50,45 L-46,48 L-41,50 L-38,52 L-38,54 L-34,52 L-32,52 L-27,44 L-26,38 L-33,30 L-37,27 L-37,25 L-33,27 L-24,36 L-23,40 L-21,40 L-14,24 L-15,17 L-16,15 L-20,14 L-18,10 L-13,4 L-10,2 L-3,2 Z M-5,8 L-7,12 L-12,13 L-13,9 L-14,9 L-14,16 L-13,18 L-13,26 L-19,40 L-20,44 L-22,42 L-25,42 L-31,54 L-34,58 L-27,63 L-23,64 L-15,64 L-10,60 L-6,50 L-2,31 L-1,24 L2,19 L2,12 L0,9 Z " fill="#4C6075" transform="translate(126,136)"/>
<path d="M0,0 L3,1 L6,11 L10,18 L11,22 L16,25 L26,34 L32,39 L35,40 L36,33 L44,14 L47,10 L49,11 L43,22 L43,34 L40,37 L38,44 L30,40 L16,28 L11,27 L8,22 L5,14 L2,9 L2,2 L-1,4 L0,17 L3,28 L1,28 L0,26 L-2,34 L5,34 L9,29 L11,29 L9,33 L5,38 L6,42 L8,42 L8,44 L11,45 L14,52 L20,59 L31,67 L28,68 L18,60 L10,52 L0,39 L0,36 L-11,34 L-13,32 L-14,28 L-14,19 L-12,12 L-3,12 L-3,3 Z M33,43 L36,44 Z " fill="#365474" transform="translate(131,80)"/>
<path d="M0,0 L2,1 L2,11 L3,14 L3,26 L1,24 L0,18 L-7,21 L-15,24 L-27,27 L-51,27 L-61,25 L-61,38 L-63,44 L-64,44 L-64,37 L-136,37 L-137,42 L-138,38 L-137,36 L-64,35 L-62,19 L-52,20 L-31,20 L-20,18 L-5,11 L-1,7 Z " fill="#19406E" transform="translate(263,143)"/>
<path d="M0,0 L3,1 L4,3 L4,53 L-7,47 L-14,46 L-14,44 L-16,43 L-7,44 L3,50 L3,14 L-32,14 L-34,6 L-35,1 Z " fill="#41709E" transform="translate(240,28)"/>
<path d="M0,0 L11,3 L22,7 L27,8 L43,8 L51,4 L53,2 L56,2 L56,4 L62,2 L63,6 L60,9 L43,16 L35,17 L14,17 L4,15 L4,24 L3,31 L2,31 L2,10 Z " fill="#4573A0" transform="translate(197,147)"/>
<path d="M0,0 L1,2 L1,145 L12,146 L13,140 L15,138 L14,146 L44,146 L46,150 L50,154 L49,157 L44,151 L23,149 L-1,149 L-3,152 L-2,173 L-2,193 L-4,189 L-6,166 L-6,151 L-3,147 L-1,147 L-2,144 L-2,2 Z " fill="#597A95" transform="translate(12,31)"/>
<path d="M0,0 L2,3 L7,22 L6,32 L3,35 L1,32 L-4,33 L-4,31 L-11,35 L-17,38 L-33,38 L-47,34 L-57,31 L-60,29 L-57,39 L-58,43 L-63,26 L-63,24 L-54,27 L-37,31 L-28,32 L-17,32 L-7,28 L-3,21 L-1,3 Z " fill="#366393" transform="translate(257,118)"/>
<path d="M0,0 L3,0 L5,7 L12,16 L15,19 L15,28 L13,32 L-5,32 L-8,27 L-7,22 L-9,22 L-8,17 L-10,17 L-8,13 L1,12 L-1,7 L-1,1 Z " fill="#A2C8E8" transform="translate(185,109)"/>
<path d="M0,0 L36,0 L42,1 L40,11 L32,44 L29,53 L27,53 L30,30 L34,23 L34,16 L32,12 L32,9 L36,8 L36,4 L29,6 L26,7 L21,7 L16,11 L15,8 L0,6 L0,14 L1,16 L-3,16 L-2,8 Z " fill="#E2EDF4" transform="translate(95,132)"/>
<path d="M0,0 L35,0 L35,36 L31,34 L25,31 L27,30 L27,7 L1,7 L0,10 Z " fill="#B5D3EB" transform="translate(208,42)"/>
<path d="M0,0 L1,0 L1,5 L68,6 L69,12 L-2,12 L-1,5 Z " fill="#C8DFF2" transform="translate(130,167)"/>
<path d="M0,0 L2,1 L2,5 L0,5 L0,8 L5,7 L7,8 L6,16 L0,16 L1,18 L6,17 L7,12 L8,12 L8,25 L6,25 L2,29 L-4,31 L-6,33 L-8,30 L-8,21 L-13,20 L-15,18 L-14,11 L-7,11 L-7,5 L-6,3 L0,2 Z " fill="#A2C9E8" transform="translate(78,111)"/>
<path d="M0,0 L1,3 L7,2 L4,5 L5,11 L6,16 L9,15 L8,11 L6,11 L5,7 L9,8 L9,5 L11,5 L12,11 L17,11 L16,15 L19,15 L23,14 L22,21 L15,22 L10,20 L15,26 L25,26 L32,21 L30,25 L27,28 L32,35 L34,36 L36,31 L41,20 L40,16 L39,13 L42,14 L42,16 L47,17 L49,19 L43,18 L42,24 L37,34 L38,38 L42,42 L38,41 L36,39 L31,38 L32,45 L28,45 L26,40 L29,41 L28,34 L25,31 L25,39 L23,37 L23,34 L16,39 L18,35 L24,29 L16,29 L11,26 L5,17 L-1,2 Z " fill="#365477" transform="translate(164,50)"/>
<path d="M0,0 L30,0 L44,1 L45,5 L37,37 L34,49 L32,49 L34,37 L42,6 L43,3 L1,2 L0,10 L-2,18 L3,18 L2,23 L-3,26 L-4,31 L-9,29 L-14,25 L-18,23 L-15,22 L-13,23 L-11,18 L-6,14 L-3,11 Z " fill="#40556C" transform="translate(94,130)"/>
<path d="M0,0 L5,4 L5,6 L9,8 L17,13 L28,13 L33,12 L32,4 L35,4 L35,9 L37,13 L51,14 L49,16 L38,17 L32,22 L29,23 L20,23 L12,16 L4,9 L0,4 Z " fill="#3A638E" transform="translate(143,127)"/>
<path d="M0,0 L4,2 L13,11 L15,17 L12,17 L11,22 L5,31 L3,34 L-3,34 L-5,54 L-7,51 L-8,39 L-10,39 L-13,32 L-15,21 L-13,20 L-9,23 L-4,25 L-1,27 L-1,29 L3,27 L5,27 L10,19 L11,13 L4,5 L0,2 Z " fill="#325E8C" transform="translate(89,161)"/>
<path d="M0,0 L2,0 L4,9 L8,16 L11,25 L7,31 L5,33 L-2,33 L-3,31 L-1,23 L1,24 L1,26 L3,26 L0,20 L-2,8 L-2,2 Z " fill="#98C1E6" transform="translate(131,82)"/>
<path d="M0,0 L2,3 L7,22 L6,32 L3,35 L1,32 L-4,33 L-4,31 L-6,30 L-3,25 L-1,3 Z " fill="#42709B" transform="translate(257,118)"/>
<path d="M0,0 L2,0 L6,23 L7,26 L10,28 L-7,28 L-25,27 L-25,41 L-28,45 L-32,43 L-28,43 L-27,39 L-27,30 L-35,21 L-38,16 L-38,11 L-41,12 L-41,18 L-40,23 L-45,23 L-42,21 L-43,19 L-43,11 L-41,9 L-37,10 L-37,12 L-35,13 L-34,17 L-29,25 L4,26 L0,3 Z " fill="#1B4571" transform="translate(226,98)"/>
<path d="M0,0 L2,0 L2,2 L12,2 L18,3 L18,1 L21,2 L18,11 L14,19 L11,18 L9,13 L0,4 Z " fill="#EBF1F6" transform="translate(91,158)"/>
<path d="M0,0 L10,1 L34,2 L34,3 L29,4 L10,4 L3,3 L2,5 L1,19 L-1,25 L-2,25 L-2,18 L-74,18 L-75,23 L-76,19 L-75,17 L-2,16 Z " fill="#244568" transform="translate(201,162)"/>
<path d="M0,0 L2,1 L3,7 L4,8 L4,15 L0,22 L-3,42 L-4,45 L-1,44 L0,46 L-4,47 L-6,53 L-13,61 L-15,62 L-24,62 L-32,58 L-35,55 L-32,55 L-27,58 L-23,59 L-15,59 L-10,54 L-7,46 L-3,27 L-2,20 L1,15 L1,8 L0,5 L-4,4 L-1,3 Z " fill="#456381" transform="translate(126,140)"/>
<path d="M0,0 L1,4 L12,3 L14,2 L16,7 L16,11 L12,10 L12,12 L-4,11 L-4,9 L-6,9 L-7,12 L-7,7 L-1,3 Z " fill="#D6DFE5" transform="translate(97,149)"/>
<path d="M0,0 L2,1 L-4,12 L-4,24 L-7,27 L-9,34 L-17,30 L-31,18 L-36,17 L-37,14 L-32,14 L-21,24 L-15,29 L-12,30 L-11,23 L-3,4 Z M-14,33 L-11,34 Z " fill="#4B73A0" transform="translate(178,90)"/>
<path d="M0,0 L20,0 L34,1 L35,5 L27,37 L24,49 L22,49 L24,37 L32,6 L33,3 L-8,2 L-8,1 Z " fill="#636E7A" transform="translate(104,130)"/>
<path d="M0,0 L3,0 L6,6 L3,7 L3,5 L-133,5 L-133,4 L1,4 L1,2 L-1,1 Z " fill="#D7E8F2" transform="translate(153,44)"/>
<path d="M0,0 L6,1 L5,9 L0,21 L-4,22 L-7,19 L-6,14 L-1,4 Z " fill="#92B8DD" transform="translate(207,68)"/>
<path d="M0,0 L1,0 L1,33 L-4,32 L-8,29 L-6,29 L-5,8 L-3,9 L-3,12 L-1,11 Z " fill="#CDE4F6" transform="translate(241,43)"/>
<path d="M0,0 L5,2 L4,5 L-1,10 L-5,13 L-15,13 L-20,8 L-20,6 L-10,7 L-8,7 L-6,2 L-3,2 Z " fill="#AACDEB" transform="translate(194,64)"/>
<path d="M0,0 L3,1 L6,11 L10,18 L11,22 L14,24 L9,24 L5,14 L2,9 L2,2 L-1,4 L-1,16 L-5,16 L-1,18 L-1,20 L-10,19 L-12,17 L-12,12 L-3,12 L-3,3 Z " fill="#596E86" transform="translate(131,80)"/>
<path d="M0,0 L2,0 L3,6 L8,6 L7,10 L10,10 L14,9 L13,16 L6,17 L1,16 L-2,12 L0,8 L-1,6 L-3,6 L-4,2 L0,3 Z " fill="#90B8DC" transform="translate(173,55)"/>
<path d="M0,0 L2,2 L-2,12 L-7,16 L-15,16 L-22,13 L-26,9 L-21,4 L-20,8 L-15,11 L-6,11 L-5,8 L-3,8 L-2,4 Z " fill="#8AB0D5" transform="translate(118,184)"/>
<path d="M0,0 L2,0 L3,5 L1,23 L-4,31 L-14,35 L-25,35 L-38,33 L-54,29 L-56,27 L-50,28 L-32,32 L-12,32 L-4,28 L-1,21 L0,15 Z " fill="#184474" transform="translate(254,116)"/>
<path d="M0,0 L2,1 L2,5 L0,5 L0,8 L5,7 L7,8 L6,16 L0,16 L0,12 L-7,13 L-7,5 L-6,3 L0,2 Z " fill="#A3C5E7" transform="translate(78,111)"/>
<path d="M0,0 L2,2 L1,7 L4,6 L4,4 L7,5 L3,9 L-2,14 L-4,17 L-10,15 L-11,8 L-2,3 Z " fill="#EBF1F3" transform="translate(85,136)"/>
<path d="M0,0 L1,0 L0,8 L30,8 L32,12 L36,16 L35,19 L30,13 L9,11 L-14,10 L-14,9 L-2,8 L-1,2 Z " fill="#375C82" transform="translate(26,169)"/>
<path d="M0,0 L2,0 L2,4 L-1,6 L-2,12 L-9,14 L-9,11 L-12,12 L-14,10 L-20,9 L-21,13 L-21,8 L-9,5 Z M-13,8 Z " fill="#92B8DD" transform="translate(185,37)"/>
<path d="M0,0 L4,5 L2,11 L-2,15 L-9,15 L-10,13 L-8,5 L-6,6 L-6,8 L-4,8 L-3,4 L-2,1 Z " fill="#A4C6E9" transform="translate(138,100)"/>
<path d="M0,0 L1,2 L3,3 L-3,27 L-6,36 L-8,36 L-5,13 L-1,6 Z " fill="#CDE2F5" transform="translate(130,149)"/>
<path d="M0,0 L16,1 L16,5 L19,5 L19,9 L14,9 L12,7 L10,9 L5,8 L5,3 L3,2 L2,4 L-2,4 Z " fill="#46749F" transform="translate(13,28)"/>
<path d="M0,0 L2,0 L0,5 L1,26 L1,46 L-1,42 L-3,19 L-3,4 Z " fill="#5A7FA0" transform="translate(9,178)"/>
<path d="M0,0 L11,1 L11,4 L2,4 L0,3 L0,5 L10,6 L9,9 L2,9 L1,10 L10,10 L9,13 L2,14 L0,12 L-1,2 Z " fill="#748CA5" transform="translate(118,100)"/>
<path d="M0,0 L2,1 Z M-7,1 L0,1 L2,6 L0,13 L-3,12 L-2,16 L1,15 L2,20 L-2,21 L-5,14 L-4,9 L-4,8 L-7,8 Z " fill="#A2C4E6" transform="translate(172,45)"/>
<path d="M0,0 L5,0 L5,4 L2,5 L0,4 L-1,8 L-5,9 L-9,13 L-12,13 L-13,7 L-7,4 L-9,2 L-3,2 Z " fill="#37506F" transform="translate(126,136)"/>
<path d="M0,0 L5,5 L6,8 L4,11 L3,8 L-11,7 L-40,6 L-40,5 L-17,4 L-6,3 L0,4 Z " fill="#E8F1F5" transform="translate(135,124)"/>
<path d="M0,0 L2,1 L2,3 L-9,7 L-17,8 L-28,8 L-35,4 L-34,2 L-28,5 L-19,5 L-9,3 Z " fill="#396390" transform="translate(75,151)"/>
<path d="M0,0 L5,0 L4,9 L2,17 L0,17 L-4,10 L-4,7 L0,6 Z " fill="#E6F1F4" transform="translate(131,134)"/>
<path d="M0,0 L2,3 L-1,15 L-1,20 L-5,18 L-9,11 L-4,7 L-3,3 Z " fill="#94B8D8" transform="translate(199,66)"/>
<path d="M0,0 L1,0 L1,48 L-10,42 L-17,41 L-17,39 L-19,38 L-10,39 L0,45 Z " fill="#294765" transform="translate(243,33)"/>
<path d="M0,0 L1,0 L1,12 L3,16 L6,18 L4,30 L3,27 L-1,27 L-2,29 L-3,26 L3,26 L4,18 L-3,18 L-3,15 L-1,15 L-2,11 L-5,13 L-8,13 L-6,9 L-1,6 Z " fill="#64778B" transform="translate(81,101)"/>
<path d="M0,0 L4,4 L5,11 L2,12 L3,15 L-1,16 L-4,14 L-4,7 L-1,7 L-1,1 Z " fill="#4875A2" transform="translate(189,80)"/>
<path d="M0,0 Z M-2,2 L1,4 L1,15 L-1,20 L-5,18 L-7,13 L-5,12 L-4,9 L-2,9 Z " fill="#1C3960" transform="translate(206,43)"/>
<path d="M0,0 L32,0 L32,30 L31,30 L30,2 L3,2 Z " fill="#CCDEED" transform="translate(38,57)"/>
<path d="M0,0 L3,3 L7,4 L12,3 L17,4 L14,7 L-4,7 L-5,4 L-2,4 Z " fill="#3A6B9A" transform="translate(25,34)"/>
<path d="M0,0 L4,2 L13,11 L15,17 L12,17 L11,22 L5,31 L3,34 L-2,34 L3,30 L10,19 L11,13 L4,5 L0,2 Z " fill="#274E76" transform="translate(89,161)"/>
<path d="M0,0 L5,3 L10,5 L13,7 L13,9 L17,7 L18,10 L14,13 L9,11 L5,7 L3,6 L3,4 L-1,4 Z " fill="#3B6794" transform="translate(75,181)"/>
<path d="M0,0 L2,0 L1,7 L-6,15 L-8,16 L-17,16 L-25,12 L-28,9 L-25,9 L-20,12 L-16,13 L-8,13 L-3,8 Z " fill="#426C91" transform="translate(119,186)"/>
<path d="M0,0 L2,0 L2,7 L1,8 L0,18 L4,20 L2,20 L1,22 L-3,16 L-3,4 Z " fill="#2B415A" transform="translate(30,131)"/>
<path d="M0,0 L2,3 L6,18 L6,24 L3,20 L1,10 L0,20 L-2,20 L-1,3 Z " fill="#38628C" transform="translate(257,118)"/>
<path d="M0,0 L9,0 L9,2 L2,2 L2,11 L-2,13 L-3,20 L-5,20 L-6,22 L-5,16 L-1,5 Z " fill="#3B5D83" transform="translate(213,69)"/>
<path d="M0,0 L5,5 L5,7 L7,7 L14,15 L19,21 L30,29 L27,30 L17,22 L9,14 L0,2 Z " fill="#36506C" transform="translate(132,118)"/>
<path d="M0,0 L5,4 L5,6 L9,8 L17,13 L15,16 L11,15 L4,9 L0,4 Z " fill="#386092" transform="translate(143,127)"/>
<path d="M0,0 L4,1 L4,4 L11,4 L17,7 L13,8 L3,7 L0,4 L-5,4 L-7,5 L-7,1 Z M6,7 Z " fill="#456B96" transform="translate(222,70)"/>
<path d="M0,0 L1,3 L7,2 L4,5 L5,11 L10,21 L15,26 L21,27 L19,29 L14,28 L9,23 L4,15 L-1,2 Z " fill="#566A81" transform="translate(164,50)"/>
<path d="M0,0 L4,1 L4,3 L6,4 L7,8 L12,16 L15,18 L13,20 L6,12 L3,7 L3,2 L0,3 L0,9 L1,14 L-4,14 L-1,12 L-2,10 L-2,2 Z " fill="#2F557C" transform="translate(185,107)"/>
<path d="M0,0 L5,0 L2,9 L-2,10 L-5,7 L-4,2 Z " fill="#9EC1E7" transform="translate(205,80)"/>
<path d="M0,0 L1,4 L-2,5 L-2,7 L3,5 L6,6 L0,11 L-1,13 L-5,11 L-6,6 L-1,1 Z " fill="#A3C2E1" transform="translate(89,145)"/>
<path d="M0,0 L11,0 L12,5 L9,9 L13,10 L8,10 L7,6 L0,2 Z " fill="#D4DEE6" transform="translate(97,141)"/>
<path d="M0,0 L2,1 L4,8 L1,10 L-1,14 L-2,14 L-3,19 L-4,19 L-4,8 Z " fill="#2A4E71" transform="translate(36,103)"/>
<path d="M0,0 L1,0 L3,12 L3,18 L-5,18 L-2,12 Z " fill="#366191" transform="translate(227,106)"/>
<path d="M0,0 L5,0 L16,10 L22,15 L25,16 L26,11 L27,11 L27,16 L23,18 L13,10 L5,3 L1,3 Z " fill="#334B67" transform="translate(141,104)"/>
<path d="M0,0 L4,0 L3,6 L0,8 L-8,8 L-9,4 L-5,3 L-2,3 Z " fill="#B1D1EE" transform="translate(80,132)"/>
<path d="M0,0 L2,0 L3,3 L5,2 L5,7 L-2,10 L-12,11 L-8,9 L-4,9 L-2,3 Z " fill="#5B87B0" transform="translate(82,219)"/>
<path d="M0,0 L1,4 L14,4 L17,6 L0,6 L0,14 L1,16 L-3,16 L-2,8 Z " fill="#BDD0D9" transform="translate(95,132)"/>
<path d="M0,0 L3,2 L2,9 L-2,16 L-4,16 L-2,4 Z " fill="#A0C5E7" transform="translate(201,68)"/>
<path d="M0,0 L4,1 L6,3 L5,8 L3,8 L4,13 L0,14 L1,11 L-1,6 Z " fill="#284F79" transform="translate(73,96)"/>
<path d="M0,0 L16,0 L16,1 L6,2 L2,1 L2,3 L4,3 L4,5 L26,5 L26,6 L0,6 Z " fill="#D2E9F5" transform="translate(209,43)"/>
<path d="M0,0 L7,0 L8,2 L5,3 L9,5 L9,7 L0,6 L-2,4 L-2,1 Z " fill="#7EA4C9" transform="translate(121,93)"/>
<path d="M0,0 L5,1 L7,3 L9,20 L6,19 L6,24 L5,24 L5,8 L4,4 Z " fill="#143963" transform="translate(223,184)"/>
<path d="M0,0 L5,1 L9,3 L6,3 L10,4 L13,4 L16,5 L15,7 L5,7 L0,2 Z " fill="#9EC4E7" transform="translate(174,70)"/>
<path d="M0,0 L2,0 L1,7 L-6,8 L-8,4 Z " fill="#436388" transform="translate(185,64)"/>
<path d="M0,0 L2,0 L1,3 L-8,3 L-13,8 L-16,8 L-16,10 L-20,8 L-16,5 L-11,1 Z " fill="#E5F0F3" transform="translate(192,142)"/>
<path d="M0,0 L2,0 L6,16 L5,20 L5,18 L3,18 L0,6 Z " fill="#2C537F" transform="translate(251,98)"/>
<path d="M0,0 L15,1 L12,4 L-3,4 L-3,1 Z " fill="#F2FAFB" transform="translate(96,154)"/>
<path d="M0,0 L4,1 L2,8 L-2,9 L-4,11 L-4,3 L-3,1 Z " fill="#3D6A95" transform="translate(16,30)"/>
<path d="M0,0 L1,4 L12,4 L12,6 L-4,6 L-4,9 L-6,9 L-7,12 L-7,7 L-1,3 Z " fill="#C5D1DF" transform="translate(97,149)"/>
<path d="M0,0 L4,2 L-1,5 L-3,5 L-5,12 L-10,12 L-8,8 L-3,2 Z " fill="#42536E" transform="translate(116,138)"/>
<path d="M0,0 L2,1 L3,7 L4,8 L4,15 L0,22 L-2,22 L0,17 L1,15 L1,8 L0,5 L-4,4 L-1,3 Z " fill="#5B728A" transform="translate(126,140)"/>
<path d="M0,0 L1,0 L2,14 L-1,23 L-3,23 Z " fill="#B1CEEC" transform="translate(125,162)"/>
<path d="M0,0 L2,0 L3,5 L1,23 L-3,30 L-5,29 L-1,21 L0,15 Z " fill="#143D6D" transform="translate(254,116)"/>
<path d="M0,0 L8,3 L10,3 L9,9 L5,8 L-2,2 Z " fill="#E4ECF1" transform="translate(157,111)"/>
<path d="M0,0 L7,1 L11,6 L11,13 L8,15 L6,14 L6,10 L8,9 L7,4 L0,1 Z " fill="#243B59" transform="translate(70,94)"/>
<path d="M0,0 L1,4 L-2,5 L-4,4 L-5,8 L-9,9 L-11,10 L-15,8 Z " fill="#395479" transform="translate(130,136)"/>
<path d="M0,0 L2,1 L3,5 L12,7 L11,5 L6,3 L10,2 L13,4 L13,11 L11,9 L0,7 L-1,9 Z " fill="#22466C" transform="translate(118,93)"/>
<path d="M0,0 L3,1 L4,4 L8,8 L7,11 L2,5 L-6,4 L-6,3 L-11,2 L-11,1 Z " fill="#3A6691" transform="translate(54,177)"/>
<path d="M0,0 L12,0 L11,3 L5,5 L1,4 Z " fill="#EEF5FA" transform="translate(117,133)"/>
<path d="M0,0 L3,0 L5,6 L3,6 L2,4 L1,7 L-2,6 L-1,4 L-8,4 L-11,3 L-11,1 L0,2 Z " fill="#385B81" transform="translate(129,102)"/>
<path d="M0,0 L2,1 L1,12 L-3,10 L-5,7 L-4,4 Z " fill="#8FB9DD" transform="translate(197,74)"/>
<path d="M0,0 L5,5 L6,8 L4,11 L3,8 L-11,7 L-11,6 L-2,5 Z " fill="#D4E1EA" transform="translate(135,124)"/>
<path d="M0,0 L3,2 L6,0 L7,3 L4,9 L1,8 L-1,3 L-2,1 Z " fill="#D5E4F0" transform="translate(101,168)"/>
<path d="M0,0 L4,4 L5,11 L2,11 L-1,5 Z " fill="#97BBE0" transform="translate(189,80)"/>
<path d="M0,0 L6,1 L3,3 L1,4 L0,7 L-7,6 L-3,2 Z " fill="#2F5578" transform="translate(45,95)"/>
<path d="M0,0 L10,0 L4,7 L1,9 L1,4 Z " fill="#DEE8EE" transform="translate(179,78)"/>
<path d="M0,0 L2,0 L3,9 L2,11 L-1,11 L-2,2 Z " fill="#A6C4E0" transform="translate(131,82)"/>
<path d="M0,0 L2,4 L-2,20 L-4,20 L-2,8 Z " fill="#68798A" transform="translate(130,159)"/>
<path d="M0,0 L2,2 L1,4 L4,5 L5,7 L5,14 L3,14 L0,6 L-2,2 L0,2 Z " fill="#E4EFF1" transform="translate(138,88)"/>
<path d="M0,0 L4,2 L13,11 L15,17 L11,17 L10,11 L2,3 L0,2 Z " fill="#37526F" transform="translate(89,161)"/>
<path d="M0,0 L2,0 L4,4 L4,7 L2,7 L2,16 L1,23 L0,23 Z " fill="#637F9E" transform="translate(199,155)"/>
<path d="M0,0 L4,2 L5,10 L6,19 L4,17 Z " fill="#405771" transform="translate(194,142)"/>
<path d="M0,0 L2,3 L4,0 L4,8 L2,12 L0,11 Z " fill="#18385E" transform="translate(33,113)"/>
<path d="M0,0 L2,0 L2,8 L5,8 L5,10 L1,9 L-1,6 L-3,6 L-4,2 L0,3 Z " fill="#5E82A4" transform="translate(173,55)"/>
<path d="M0,0 L2,0 L1,7 L-6,15 L-10,14 L-4,10 Z " fill="#3D6388" transform="translate(119,186)"/>
<path d="M0,0 L2,1 L-2,7 L-6,7 L-6,3 Z " fill="#A7CCEB" transform="translate(140,106)"/>
<path d="M0,0 L2,1 L-4,12 L-6,17 L-7,13 L-1,1 Z " fill="#3F566F" transform="translate(178,90)"/>
<path d="M0,0 L4,4 L7,11 L7,17 L5,15 L1,4 Z " fill="#3C6189" transform="translate(244,80)"/>
<path d="M0,0 L2,0 L1,4 L-8,4 L-8,1 Z " fill="#385176" transform="translate(171,146)"/>
<path d="M0,0 L1,0 L1,13 L-1,9 L-5,8 L-5,5 L-1,5 Z " fill="#7B90A5" transform="translate(85,123)"/>
<path d="M0,0 L4,2 L4,4 L1,7 L-1,13 L-3,10 Z " fill="#516C89" transform="translate(170,105)"/>
<path d="M0,0 L10,1 L10,4 L1,4 Z " fill="#87AFD7" transform="translate(119,100)"/>
<path d="M0,0 Z M-2,2 L2,3 L4,2 L6,3 L6,6 L0,6 L-1,5 L-3,7 L-3,5 L-6,6 L-6,4 Z " fill="#9FC8E9" transform="translate(186,69)"/>
<path d="M0,0 L3,0 L4,4 L6,4 L6,6 L9,7 L10,12 L6,9 L6,7 L4,7 Z " fill="#335783" transform="translate(133,118)"/>
<path d="M0,0 L2,0 L0,4 L-5,10 L-7,9 L-7,6 L-5,4 Z " fill="#4E7194" transform="translate(185,84)"/>
<path d="M0,0 L9,1 L15,4 L13,6 L9,4 L2,3 L2,1 Z " fill="#385271" transform="translate(224,71)"/>
<path d="M0,0 L1,0 L0,9 L-2,9 L-4,6 L-4,1 L-1,1 Z " fill="#F3FBFC" transform="translate(133,142)"/>
<path d="M0,0 L1,4 L-4,8 L-10,11 L-12,10 L-10,7 L-2,4 Z " fill="#526778" transform="translate(84,134)"/>
<path d="M0,0 L5,0 L6,8 L12,9 L8,11 L6,13 L4,10 L4,1 Z " fill="#91B3D2" transform="translate(66,131)"/>
<path d="M0,0 L14,0 L20,1 L19,4 L19,2 L14,2 L14,4 L11,3 L12,1 L0,1 Z " fill="#B9C5D2" transform="translate(117,132)"/>
<path d="M0,0 L5,1 L3,5 L-5,5 L-4,1 L0,2 Z " fill="#4473A1" transform="translate(18,36)"/>
<path d="M0,0 L3,1 L6,7 L6,14 L5,14 L4,5 L1,4 L-2,4 L-3,1 Z " fill="#183B63" transform="translate(201,27)"/>
<path d="M0,0 L2,4 L4,6 L1,6 L1,8 L-3,7 L-3,4 Z " fill="#8CB4D5" transform="translate(96,188)"/>
<path d="M0,0 L3,1 L3,3 L8,5 L9,8 L12,9 L10,10 L4,6 L0,2 Z " fill="#1B4772" transform="translate(75,184)"/>
<path d="M0,0 L2,0 L3,3 L-3,11 L-6,15 L-5,9 L0,3 Z " fill="#3E5870" transform="translate(33,153)"/>
<path d="M0,0 L2,0 L2,7 L1,8 L1,14 L-1,15 L-1,4 L-1,1 Z " fill="#1C395F" transform="translate(30,131)"/>
<path d="M0,0 L2,1 L-1,8 L-2,18 L-3,18 L-3,5 Z " fill="#DAE5ED" transform="translate(29,127)"/>
<path d="M0,0 L7,4 L8,6 L6,8 L3,6 L3,4 L-1,4 Z " fill="#34628D" transform="translate(75,181)"/>
<path d="M0,0 L4,1 L2,2 L0,8 L-4,10 Z " fill="#96BADD" transform="translate(101,178)"/>
<path d="M0,0 L1,2 L3,3 L1,10 L-4,13 L-2,8 Z " fill="#C9DCEA" transform="translate(130,149)"/>
<path d="M0,0 L3,1 L5,5 L3,8 L0,7 L-1,3 Z " fill="#223A59" transform="translate(71,144)"/>
<path d="M0,0 L4,0 L4,3 L2,3 L2,6 L4,7 L0,8 L-1,1 Z " fill="#DCE7EE" transform="translate(75,143)"/>
<path d="M0,0 L7,0 L8,2 L2,1 L2,3 L4,5 L-1,5 L-2,1 Z " fill="#9CBBDA" transform="translate(121,93)"/>
<path d="M0,0 L8,0 L5,2 L2,2 L1,10 L0,10 Z " fill="#D1E2EF" transform="translate(27,57)"/>
<path d="M0,0 L4,1 L5,3 L2,3 L2,7 L-2,5 Z " fill="#7D9FC2" transform="translate(198,45)"/>
<path d="M0,0 L2,0 L2,9 L1,9 L0,14 L-1,14 L-1,3 Z " fill="#455A75" transform="translate(33,108)"/>
<path d="M0,0 L9,0 L8,3 L1,3 Z " fill="#91B4D9" transform="translate(119,106)"/>
<path d="M0,0 L5,4 L3,11 L1,9 Z M5,3 Z " fill="#88B3D5" transform="translate(130,93)"/>
<path d="M0,0 L3,1 L4,6 L-4,5 L-2,2 L0,2 Z " fill="#D4E9F6" transform="translate(68,87)"/>
<path d="M0,0 L2,2 L0,7 L0,12 L-4,10 L-2,5 Z " fill="#506984" transform="translate(108,169)"/>
<path d="M0,0 L8,0 L5,4 L0,4 Z " fill="#F2F7FA" transform="translate(96,132)"/>
<path d="M0,0 L2,0 L3,6 L0,13 L-1,9 Z " fill="#153761" transform="translate(70,108)"/>
<path d="M0,0 L3,2 L3,7 L0,7 L-1,7 L-1,1 Z " fill="#ABCEF1" transform="translate(201,68)"/>
<path d="M0,0 L7,0 L7,3 L-3,3 L0,2 Z " fill="#B9D8F2" transform="translate(16,174)"/>
<path d="M0,0 L3,0 L4,3 L-2,7 L-3,12 L-5,8 L0,3 Z " fill="#586E88" transform="translate(93,149)"/>
<path d="M0,0 L2,0 L1,4 L-3,7 L-5,6 L-2,1 Z " fill="#2C4769" transform="translate(179,141)"/>
<path d="M0,0 L4,2 L-1,5 L-3,5 L-4,7 L-5,5 Z " fill="#768A9F" transform="translate(116,138)"/>
<path d="M0,0 L4,1 L4,6 L0,5 L-1,1 Z " fill="#B1D1EE" transform="translate(187,116)"/>
<path d="M0,0 L3,3 L7,5 L7,6 L0,6 L-1,4 Z " fill="#91B3D5" transform="translate(129,109)"/>
<path d="M0,0 L1,3 L8,4 L8,6 L2,6 L0,5 Z " fill="#456E94" transform="translate(192,225)"/>
<path d="M0,0 L6,1 L4,2 L5,6 L2,7 L2,3 L0,3 Z " fill="#F5F8FA" transform="translate(95,160)"/>
<path d="M0,0 L1,0 L1,10 L2,12 L-2,12 L-1,4 Z " fill="#C7D3DF" transform="translate(94,136)"/>
<path d="M0,0 L5,0 L5,11 L4,11 L2,1 Z " fill="#1E3D62" transform="translate(65,132)"/>
<path d="M0,0 L3,0 L3,5 L4,7 L2,10 L0,5 Z " fill="#2D547B" transform="translate(175,131)"/>
<path d="M0,0 L2,1 L3,5 L6,6 L6,8 L0,7 L-1,9 Z " fill="#415C78" transform="translate(118,93)"/>
<path d="M0,0 L14,0 L14,1 L5,2 L0,3 Z " fill="#3D6A97" transform="translate(29,29)"/>
<path d="M0,0 L5,1 L7,3 L6,8 L4,4 Z " fill="#16406C" transform="translate(223,184)"/>
<path d="M0,0 L5,0 L4,3 L-4,3 L-4,1 Z " fill="#81A4C7" transform="translate(194,138)"/>
<path d="M0,0 L6,0 L6,2 L4,2 L3,6 L2,4 L0,4 Z " fill="#6E8DAE" transform="translate(64,122)"/>
<path d="M0,0 L5,1 L0,6 L-3,5 L-2,2 L0,2 Z " fill="#93BBDE" transform="translate(70,122)"/>
<path d="M0,0 L2,1 L0,5 L-3,12 L-4,8 Z " fill="#456990" transform="translate(177,94)"/>
<path d="M0,0 L6,2 L5,4 L-5,4 L-5,3 L0,2 Z " fill="#96BADD" transform="translate(184,73)"/>
<path d="M0,0 L2,4 L2,7 L-3,6 L-5,4 L-1,3 Z " fill="#BED9F2" transform="translate(240,69)"/>
<path d="M0,0 L6,2 L6,4 L0,6 Z " fill="#7A9DBE" transform="translate(176,45)"/>
<path d="M0,0 L2,0 L2,4 L-4,5 L-5,3 Z " fill="#8AB1D6" transform="translate(185,37)"/>
<path d="M0,0 L1,0 L2,14 L-1,13 Z " fill="#A9C3DC" transform="translate(125,162)"/>
<path d="M0,0 L7,1 L7,3 L-3,3 Z " fill="#90B9DC" transform="translate(183,138)"/>
<path d="M0,0 L2,0 L1,6 L-3,5 L-4,3 Z " fill="#D1E0EB" transform="translate(165,114)"/>
<path d="M0,0 L2,1 L2,5 L-1,5 L-2,7 L-5,5 L-1,4 Z " fill="#BED5ED" transform="translate(78,111)"/>
<path d="M0,0 L2,1 L1,5 L-4,6 L-2,2 Z " fill="#819AB5" transform="translate(77,108)"/>
<path d="M0,0 L2,0 L3,4 L0,6 L-2,5 L-2,1 Z " fill="#22446B" transform="translate(78,103)"/>
<path d="M0,0 L5,0 L6,3 L1,4 Z " fill="#678AB2" transform="translate(195,88)"/>
<path d="M0,0 L3,1 L4,5 L3,14 L2,14 L1,3 Z " fill="#396186" transform="translate(240,28)"/>
<path d="M0,0 L4,0 L4,5 L0,5 Z " fill="#80AED9" transform="translate(37,33)"/>
<path d="M0,0 L3,2 L0,7 L-2,6 L-3,2 Z " fill="#2D547C" transform="translate(170,24)"/>
<path d="M0,0 L4,2 L6,4 L2,5 L0,9 Z " fill="#5D7EA9" transform="translate(120,182)"/>
<path d="M0,0 L2,1 L2,8 L0,10 L-1,7 Z " fill="#26507A" transform="translate(263,143)"/>
<path d="M0,0 L5,2 L5,6 L1,4 Z " fill="#355C89" transform="translate(190,90)"/>
<path d="M0,0 L4,5 L6,8 L3,8 L1,4 L-1,3 Z " fill="#DDE8EE" transform="translate(169,67)"/>
<path d="M0,0 L3,1 L4,5 L0,4 L-1,6 L-2,1 Z " fill="#A7CCEA" transform="translate(185,41)"/>
<path d="M0,0 L4,0 L4,4 L-1,4 Z " fill="#8FB9E4" transform="translate(28,33)"/>
<path d="M0,0 L2,1 L2,9 L0,6 L0,3 L-2,3 L-2,1 Z " fill="#3B5F85" transform="translate(84,216)"/>
<path d="M0,0 L5,2 L5,5 L3,6 L1,5 Z " fill="#446F9B" transform="translate(78,154)"/>
<path d="M0,0 L2,2 L-2,6 L-4,10 L-5,6 Z " fill="#586B81" transform="translate(86,145)"/>
<path d="M0,0 L2,0 L1,3 L-12,3 L-11,1 Z " fill="#D7E2EC" transform="translate(192,142)"/>
<path d="M0,0 L1,4 L-4,5 L-7,4 Z " fill="#4B617D" transform="translate(130,136)"/>
<path d="M0,0 L2,2 L2,7 L-2,8 Z " fill="#2B4362" transform="translate(32,122)"/>
<path d="M0,0 L4,2 L6,5 L0,4 Z " fill="#54789F" transform="translate(144,106)"/>
<path d="M0,0 L1,3 L7,2 L4,5 L2,5 L1,7 L-1,2 Z " fill="#4F6882" transform="translate(164,50)"/>
<path d="M0,0 L4,0 L4,4 L-1,3 Z " fill="#87B4DF" transform="translate(19,33)"/>
<path d="M0,0 L2,1 L3,9 L-1,5 Z " fill="#98C3E7" transform="translate(59,186)"/>
<path d="M0,0 L4,1 L1,5 L-3,3 L0,2 Z " fill="#9ABBDB" transform="translate(87,153)"/>
<path d="M0,0 L4,4 L7,6 L5,8 L0,3 Z " fill="#30547D" transform="translate(193,119)"/>
<path d="M0,0 L3,2 L-2,6 L-4,3 Z " fill="#7BA0C8" transform="translate(194,74)"/>
</svg>
