<?xml version="1.0" encoding="UTF-8"?>
<svg version="1.1" xmlns="http://www.w3.org/2000/svg" width="329" height="236">
<path d="M0,0 L9,0 L29,4 L53,13 L55,14 L148,14 L173,15 L176,18 L177,51 L178,60 L184,67 L188,75 L191,85 L192,93 L192,106 L189,119 L186,124 L187,133 L188,138 L205,143 L205,189 L202,212 L198,217 L199,232 L196,234 L191,233 L190,232 L189,219 L168,220 L168,231 L165,234 L159,234 L156,232 L155,220 L153,232 L150,234 L146,233 L145,232 L145,222 L146,219 L144,219 L140,232 L112,232 L110,214 L110,207 L106,208 L107,212 L107,232 L100,232 L99,228 L98,209 L92,208 L93,213 L93,231 L88,232 L58,232 L53,213 L53,211 L49,209 L48,205 L50,201 L35,200 L36,210 L35,212 L33,212 L33,232 L18,232 L9,230 L7,200 L4,200 L3,222 L2,230 L1,231 L-38,233 L-41,228 L-43,218 L-46,219 L-46,232 L-50,233 L-54,232 L-56,221 L-57,232 L-66,233 L-68,232 L-68,219 L-89,219 L-91,232 L-93,234 L-99,234 L-99,217 L-103,212 L-107,182 L-109,163 L-109,147 L-104,143 L-90,139 L-85,130 L-92,128 L-95,124 L-95,116 L-97,112 L-96,103 L-88,96 L-85,84 L-80,79 L-72,77 L-65,80 L-61,82 L-59,67 L-86,67 L-88,65 L-88,60 L-82,58 L-81,29 L-79,28 L-73,28 L-72,24 L-65,24 L-63,28 L-58,30 L-58,33 L-53,32 L-51,26 L-39,14 L-25,6 L-8,1 Z M169,113 L169,116 L171,114 Z " fill="#4675A2" transform="translate(124,2)"/>
<path d="M0,0 L9,0 L29,4 L53,13 L55,14 L148,14 L173,15 L176,18 L177,51 L178,60 L184,67 L188,75 L191,85 L192,93 L192,106 L189,119 L186,123 L182,121 L175,117 L170,114 L169,111 L171,104 L171,93 L168,88 L159,83 L156,81 L147,81 L135,88 L130,90 L129,94 L131,100 L135,102 L138,118 L142,124 L147,127 L146,131 L138,147 L135,151 L124,153 L121,140 L117,131 L115,127 L116,120 L116,111 L109,101 L107,98 L104,86 L100,80 L92,76 L84,76 L83,77 L74,79 L69,85 L68,88 L67,110 L66,113 L66,122 L67,129 L62,138 L51,139 L51,146 L50,147 L50,155 L39,154 L30,153 L29,144 L31,138 L38,138 L39,135 L45,133 L48,127 L48,116 L52,108 L52,104 L45,102 L41,89 L35,82 L33,81 L34,77 L39,69 L36,70 L35,75 L31,79 L21,79 L16,75 L21,80 L21,83 L14,82 L11,77 L11,73 L1,75 L-9,78 L-15,83 L-24,98 L-29,112 L-29,126 L-27,131 L-22,133 L-22,144 L-32,146 L-36,148 L-37,150 L-39,150 L-43,136 L-47,131 L-47,129 L-50,128 L-50,127 L-44,125 L-40,121 L-41,122 L-45,125 L-55,125 L-59,122 L-59,124 L-54,126 L-54,133 L-56,135 L-61,134 L-66,128 L-65,121 L-63,113 L-67,112 L-67,106 L-63,105 L-60,108 L-57,103 L-47,101 L-40,96 L-37,102 L-37,105 L-40,105 L-40,107 L-38,107 L-37,110 L-33,102 L-33,94 L-36,89 L-45,84 L-60,82 L-59,67 L-86,67 L-88,65 L-88,60 L-82,58 L-81,29 L-79,28 L-73,28 L-72,24 L-65,24 L-63,28 L-58,30 L-58,33 L-53,32 L-51,26 L-39,14 L-25,6 L-8,1 Z " fill="#B6D6F3" transform="translate(124,2)"/>
<path d="M0,0 L8,2 L11,5 L25,5 L33,8 L40,13 L42,17 L42,25 L38,33 L37,38 L36,38 L36,30 L34,30 L34,28 L37,28 L34,20 L25,26 L17,27 L14,32 L11,29 L8,29 L8,35 L11,36 L10,43 L6,42 L5,47 L-3,50 L-10,56 L-14,65 L-16,68 L-16,65 L-32,69 L-33,72 L-32,85 L-26,134 L-25,137 L-23,138 L7,140 L6,135 L-8,133 L-11,130 L6,132 L6,122 L-4,122 L-4,121 L256,121 L255,112 L251,110 L242,102 L224,101 L226,105 L220,106 L201,107 L187,107 L178,96 L175,93 L175,91 L183,91 L185,93 L179,94 L188,104 L210,104 L223,103 L220,100 L221,87 L219,86 L223,84 L224,86 L232,85 L243,85 L242,83 L241,84 L225,85 L223,78 L223,67 L221,67 L220,77 L215,81 L212,84 L205,84 L203,88 L198,88 L198,84 L196,84 L194,80 L192,79 L191,82 L190,80 L191,73 L190,70 L194,69 L193,77 L197,77 L195,69 L196,65 L198,70 L198,76 L209,73 L219,54 L221,50 L216,48 L212,43 L209,33 L209,25 L205,24 L203,22 L202,14 L205,11 L212,8 L221,3 L230,3 L240,9 L245,13 L246,16 L246,27 L243,38 L252,40 L260,47 L261,56 L262,61 L279,66 L279,112 L276,135 L272,140 L273,155 L270,157 L265,156 L264,155 L263,142 L242,143 L242,154 L239,157 L233,157 L230,155 L229,143 L227,155 L224,157 L220,156 L219,155 L219,145 L220,142 L218,142 L214,155 L186,155 L184,137 L184,130 L180,131 L181,135 L181,155 L174,155 L173,151 L172,132 L166,131 L167,136 L167,154 L162,155 L132,155 L127,136 L127,134 L123,132 L122,128 L124,124 L109,123 L110,133 L109,135 L107,135 L107,155 L92,155 L83,153 L81,123 L78,123 L77,145 L76,153 L75,154 L36,156 L33,151 L31,141 L28,142 L28,155 L24,156 L20,155 L18,144 L17,155 L8,156 L6,155 L6,142 L-15,142 L-17,155 L-19,157 L-25,157 L-25,140 L-29,135 L-33,105 L-35,86 L-35,70 L-30,66 L-16,62 L-11,53 L-18,51 L-21,47 L-21,39 L-23,35 L-22,26 L-14,19 L-11,7 L-6,2 Z " fill="#3F6C98" transform="translate(50,79)"/>
<path d="M0,0 L120,0 L120,74 L118,74 L116,63 L108,58 L102,54 L93,54 L81,61 L76,63 L75,67 L77,73 L81,75 L84,91 L88,97 L93,100 L92,104 L84,120 L81,124 L70,126 L67,113 L63,104 L61,100 L62,93 L62,84 L55,74 L53,71 L50,59 L46,53 L38,49 L30,49 L29,50 L20,52 L15,58 L14,61 L13,75 L1,75 L0,74 Z " fill="#DBEDFA" transform="translate(178,29)"/>
<path d="M0,0 L4,0 L5,4 L3,11 L13,11 L20,12 L21,2 L23,1 L25,14 L28,17 L30,18 L43,19 L46,13 L47,17 L46,20 L44,20 L44,22 L42,22 L42,24 L25,24 L19,23 L19,14 L8,14 L5,13 L6,24 L9,32 L13,34 L28,35 L37,33 L47,33 L47,37 L63,33 L81,27 L84,20 L86,14 L95,14 L94,16 L89,18 L89,24 L91,27 L87,29 L86,36 L90,39 L112,44 L121,43 L135,36 L142,34 L142,31 L140,31 L140,26 L142,26 L141,22 L139,21 L139,15 L145,15 L146,17 L150,19 L151,25 L191,25 L198,20 L201,21 L205,26 L195,26 L204,37 L207,41 L221,41 L246,40 L243,35 L262,36 L273,46 L276,49 L276,56 L26,57 L26,67 L17,67 L10,66 L18,68 L26,69 L27,70 L27,75 L7,75 L-3,74 L-6,72 L-8,62 L-14,14 L-14,7 L-10,3 Z " fill="#4A6D90" transform="translate(30,144)"/>
<path d="M0,0 L8,2 L11,5 L25,5 L33,8 L40,13 L42,17 L42,25 L38,33 L37,38 L36,38 L36,30 L34,30 L34,28 L37,28 L34,20 L25,26 L17,27 L14,32 L11,29 L8,29 L8,35 L11,36 L10,43 L6,42 L5,47 L-3,50 L-10,56 L-14,65 L-16,68 L-16,65 L-32,69 L-33,72 L-32,85 L-26,134 L-25,137 L-23,138 L7,140 L6,135 L-8,133 L-11,130 L6,132 L6,122 L-4,122 L-4,121 L106,121 L106,123 L109,123 L110,133 L109,135 L107,135 L107,155 L92,155 L83,153 L81,123 L78,123 L77,145 L76,153 L75,154 L36,156 L33,151 L31,141 L28,142 L28,155 L24,156 L20,155 L18,144 L17,155 L8,156 L6,155 L6,142 L-15,142 L-17,155 L-19,157 L-25,157 L-25,140 L-29,135 L-33,105 L-35,86 L-35,70 L-30,66 L-16,62 L-11,53 L-18,51 L-21,47 L-21,39 L-23,35 L-22,26 L-14,19 L-11,7 L-6,2 Z " fill="#20446D" transform="translate(50,79)"/>
<path d="M0,0 L9,0 L8,2 L3,4 L3,10 L5,13 L1,15 L0,22 L4,25 L26,30 L35,29 L49,22 L56,20 L56,17 L54,17 L54,12 L56,12 L55,8 L53,7 L53,1 L59,1 L60,3 L64,5 L65,11 L105,11 L112,6 L115,7 L119,12 L109,12 L118,23 L121,27 L135,27 L160,26 L157,21 L176,22 L188,33 L188,34 L-73,34 L-68,29 L-58,21 L-49,19 L-39,19 L-39,23 L-23,19 L-5,13 L-2,6 Z " fill="#CAE4F8" transform="translate(116,158)"/>
<path d="M0,0 L4,2 L7,5 L7,8 L15,8 L17,10 L24,11 L23,16 L18,17 L17,26 L18,31 L14,36 L18,32 L19,30 L29,33 L35,38 L37,36 L42,47 L44,54 L45,66 L41,66 L42,58 L39,59 L40,65 L40,68 L43,69 L44,73 L46,73 L46,77 L52,75 L53,73 L62,72 L63,69 L67,66 L69,56 L71,56 L73,73 L89,72 L90,58 L91,58 L91,74 L70,76 L71,73 L68,75 L69,76 L69,90 L72,93 L58,94 L36,94 L26,83 L26,82 L31,81 L29,77 L26,74 L18,73 L16,67 L16,63 L30,61 L29,57 L29,60 L20,62 L15,62 L13,51 L-14,50 L-8,38 L-2,33 L5,31 L12,27 L10,28 L2,28 L-3,23 L-6,15 L-6,6 L-1,2 Z " fill="#6390BB" transform="translate(202,90)"/>
<path d="M0,0 L8,0 L16,4 L20,9 L23,17 L25,24 L31,33 L33,36 L33,45 L32,49 L30,49 L29,52 L21,46 L13,43 L11,48 L8,51 L1,51 L1,50 L8,48 L11,44 L10,35 L12,30 L17,28 L18,24 L11,24 L9,22 L1,21 L-2,16 L-6,13 L-8,17 L-12,19 L-10,32 L-6,39 L-4,40 L4,40 L8,38 L8,40 L0,44 L-2,47 L-2,45 L-11,49 L-15,54 L-19,62 L5,63 L8,66 L9,75 L18,73 L23,73 L22,64 L24,66 L24,74 L15,76 L10,76 L12,86 L20,86 L18,90 L13,93 L-8,93 L-27,92 L-29,86 L-33,84 L-33,81 L-26,81 L-27,73 L-34,73 L-34,64 L-33,63 L-22,62 L-18,54 L-19,47 L-19,38 L-18,35 L-17,13 L-14,7 L-8,2 L-1,1 Z " fill="#274E78" transform="translate(208,77)"/>
<path d="M0,0 L1,0 L1,8 L123,8 L124,21 L125,25 L125,39 L128,44 L134,52 L138,62 L140,75 L140,88 L137,101 L134,105 L130,103 L123,99 L118,96 L117,93 L120,83 L122,83 L122,9 L2,9 L3,83 L15,84 L15,92 L14,95 L14,104 L15,111 L10,120 L-1,121 L-1,128 L-2,129 L-2,137 L-13,136 L-22,135 L-23,126 L-21,120 L-14,120 L-13,117 L-7,115 L-4,109 L-4,98 L0,90 L0,86 L-6,85 L-2,84 L-1,79 Z " fill="#A9CDEF" transform="translate(176,20)"/>
<path d="M0,0 L2,0 L5,7 L9,9 L14,8 L18,6 L16,11 L18,9 L20,6 L26,7 L32,14 L35,21 L35,27 L16,28 L14,32 L9,31 L5,25 L1,24 L4,30 L4,32 L-2,36 L-16,37 L-13,25 L-18,38 L-25,38 L-25,40 L-5,37 L-4,46 L-3,49 L-15,55 L-26,56 L-31,53 L-31,51 L-34,50 L-35,47 L-37,48 L-36,37 L-32,25 L-25,12 L-21,7 L-13,2 L-8,1 L-1,1 L1,8 L6,12 L6,10 L2,8 L0,4 Z " fill="#98C0E3" transform="translate(132,77)"/>
<path d="M0,0 L1,2 L-1,3 L-5,10 L-7,14 L-3,16 L2,22 L6,35 L13,37 L12,43 L9,49 L9,60 L5,67 L-1,69 L-3,71 L-3,69 L-20,69 L-20,71 L-29,71 L-31,69 L-30,64 L-27,57 L-34,58 L-48,65 L-62,65 L-69,61 L-70,59 L-70,45 L-64,29 L-55,15 L-47,9 L-31,6 L-29,6 L-26,14 L-19,15 L-25,8 L-24,5 L-21,10 L-19,11 L-9,11 L-5,6 L-5,2 Z M-32,8 L-31,15 L-28,18 L-26,18 L-26,20 L-31,16 L-33,9 L-40,9 L-49,12 L-54,17 L-60,25 L-66,38 L-69,50 L-69,56 L-67,55 L-65,59 L-63,59 L-62,62 L-58,64 L-47,63 L-35,57 L-37,45 L-57,48 L-57,46 L-50,46 L-45,33 L-48,45 L-34,44 L-28,40 L-30,35 L-31,32 L-26,34 L-23,39 L-18,40 L-16,36 L3,35 L2,26 L-3,18 L-8,14 L-13,15 L-15,19 L-16,19 L-14,14 L-18,16 L-23,17 L-27,15 L-30,8 Z " fill="#4C7AA6" transform="translate(164,69)"/>
<path d="M0,0 L8,1 L9,9 L-4,10 L-4,16 L-1,17 L-1,21 L-3,21 L-3,26 L-1,26 L-1,29 L-14,35 L-22,39 L-31,40 L-53,35 L-58,31 L-57,24 L-53,21 L-55,19 L-55,13 L-48,9 L-43,10 L-32,6 L-17,7 L-17,6 L-10,6 L1,8 Z " fill="#354F73" transform="translate(173,149)"/>
<path d="M0,0 L6,1 L16,4 L17,5 L17,48 L14,71 L10,76 L11,91 L8,93 L3,92 L2,91 L1,78 L-20,79 L-20,90 L-23,93 L-29,93 L-30,92 L-30,58 L-22,58 L-22,70 L-8,68 L0,65 L4,60 L5,58 L6,48 L7,47 L7,35 L3,11 Z " fill="#92BBE1" transform="translate(312,143)"/>
<path d="M0,0 L96,0 L121,1 L124,4 L124,25 L123,25 L123,12 L1,12 L1,3 L2,1 Z " fill="#98C2E6" transform="translate(176,16)"/>
<path d="M0,0 L264,0 L264,5 L0,5 Z " fill="#95BDE2" transform="translate(42,194)"/>
<path d="M0,0 L7,0 L8,12 L9,11 L9,0 L38,0 L43,9 L47,27 L47,32 L33,32 L27,30 L24,19 L20,20 L20,33 L16,34 L12,33 L10,22 L9,33 L0,34 Z " fill="#32608B" transform="translate(58,201)"/>
<path d="M0,0 L1,4 L-1,8 L23,9 L26,12 L27,21 L36,19 L41,19 L40,10 L42,12 L42,20 L33,22 L28,22 L30,32 L38,32 L36,36 L31,39 L10,39 L-9,38 L-11,32 L-15,30 L-15,27 L-8,27 L-9,19 L-16,19 L-16,10 L-15,9 L-4,8 Z " fill="#28537D" transform="translate(190,131)"/>
<path d="M0,0 L7,2 L6,4 L24,4 L28,6 L31,22 L35,28 L40,31 L39,35 L31,51 L28,55 L17,57 L14,44 L10,35 L8,31 L9,24 L9,15 L2,5 Z " fill="#A2CAED" transform="translate(231,98)"/>
<path d="M0,0 L4,0 L3,5 L3,25 L1,32 L0,43 L0,56 L5,64 L12,67 L26,69 L27,70 L27,75 L7,75 L-3,74 L-6,72 L-8,62 L-14,14 L-14,7 L-10,3 Z " fill="#8FB8DD" transform="translate(30,144)"/>
<path d="M0,0 L30,0 L30,18 L26,18 L25,33 L20,34 L18,32 L18,22 L19,19 L17,19 L13,32 L3,32 L-7,31 L-6,19 L-2,3 Z " fill="#26527D" transform="translate(251,202)"/>
<path d="M0,0 L2,0 L4,17 L20,16 L21,2 L22,2 L22,18 L1,20 L2,17 L-1,19 L0,20 L0,34 L3,37 L-11,38 L-33,38 L-43,27 L-43,26 L-38,25 L-36,24 L-38,16 L-41,15 L-37,10 L-35,11 L-36,12 L-35,19 L-34,13 L-33,13 L-33,19 L-27,20 L-27,22 L-31,22 L-31,24 L-26,23 L-24,17 L-23,21 L-17,19 L-16,17 L-7,16 L-6,13 L-2,10 Z " fill="#29517C" transform="translate(271,146)"/>
<path d="M0,0 L9,0 L19,6 L24,10 L25,13 L25,24 L22,35 L28,36 L28,38 L19,39 L19,42 L24,41 L19,45 L10,54 L8,53 L8,51 L13,48 L17,44 L16,38 L15,37 L15,32 L19,29 L19,25 L15,25 L14,27 L10,25 L8,21 L8,15 L-2,19 L-11,20 L-12,23 L-17,20 L-19,14 L-18,10 L-16,8 L-9,5 Z " fill="#23456E" transform="translate(271,82)"/>
<path d="M0,0 L8,0 L14,4 L23,13 L23,22 L19,25 L17,25 L16,28 L16,23 L8,22 L1,17 L-1,21 L-6,24 L-8,28 L-10,24 L-14,24 L-14,29 L-10,31 L-11,36 L-13,38 L-17,29 L-17,14 L-15,7 L-12,4 L-5,4 L-4,1 Z " fill="#244A73" transform="translate(148,36)"/>
<path d="M0,0 L24,0 L25,10 L24,12 L22,12 L22,32 L7,32 L0,30 L-1,27 L-1,1 Z " fill="#27517B" transform="translate(135,202)"/>
<path d="M0,0 L4,0 L3,7 L-3,26 L-9,29 L-21,33 L-25,33 L-26,25 L-31,21 L-28,10 L-26,7 Z " fill="#97BFE3" transform="translate(115,143)"/>
<path d="M0,0 L3,0 L5,8 L9,12 L10,9 L15,10 L14,15 L10,17 L13,26 L12,30 L6,36 L3,35 L3,30 L3,29 L0,31 L-6,31 L-12,26 L-14,17 L-12,17 L-12,14 L-15,14 L-16,5 L-4,2 Z " fill="#9EC6E8" transform="translate(276,97)"/>
<path d="M0,0 L3,3 L4,9 L1,9 L1,11 L3,11 L4,22 L2,22 L-2,28 L-4,29 L-14,29 L-18,26 L-18,28 L-13,30 L-13,37 L-15,39 L-20,38 L-25,32 L-24,25 L-22,17 L-26,16 L-26,10 L-22,9 L-19,12 L-16,7 L-6,5 Z " fill="#A0C6E6" transform="translate(83,98)"/>
<path d="M0,0 L12,0 L15,9 L14,3 L14,0 L28,0 L27,10 L25,11 L26,12 L27,12 L28,31 L27,32 L10,33 L8,32 L4,9 L0,2 Z " fill="#335F89" transform="translate(98,201)"/>
<path d="M0,0 L6,1 L6,5 L8,5 L8,8 L-5,14 L-13,18 L-22,19 L-44,14 L-49,10 L-48,3 L-46,2 L-43,3 L-41,1 L-34,2 L-21,5 L-16,6 Z " fill="#445F7E" transform="translate(164,170)"/>
<path d="M0,0 L4,2 L11,5 L15,6 L17,16 L11,19 L10,24 L6,28 L-4,28 L-9,24 L-4,29 L-4,32 L-11,31 L-14,26 L-14,22 L-19,23 L-17,22 L-18,19 L-16,19 L-15,17 L-13,19 L-11,14 L-15,13 L-16,12 L-16,7 L-11,6 L-9,10 L-6,5 L-1,2 Z " fill="#9EC2E3" transform="translate(149,53)"/>
<path d="M0,0 L18,0 L18,15 L20,28 L20,33 L4,33 L-1,14 L-1,12 L-5,10 L-6,6 L-4,1 Z " fill="#517FAA" transform="translate(178,201)"/>
<path d="M0,0 L6,0 L2,10 L3,14 L21,15 L21,20 L15,23 L8,24 L-8,24 L-12,23 L-11,16 L-22,19 L-28,19 L-29,17 L-29,11 L-28,10 L-16,8 Z " fill="#91BDE1" transform="translate(132,125)"/>
<path d="M0,0 L4,2 L7,5 L7,8 L15,8 L17,10 L24,11 L23,16 L18,17 L17,26 L18,31 L14,36 L6,36 L6,30 L12,27 L10,28 L2,28 L-3,23 L-6,15 L-6,6 L-1,2 Z " fill="#9EC2E4" transform="translate(202,90)"/>
<path d="M0,0 L22,0 L22,4 L19,5 L19,31 L15,32 L3,32 L2,31 L-1,10 L-1,3 Z " fill="#4E7EAB" transform="translate(197,202)"/>
<path d="M0,0 L14,1 L14,10 L37,10 L40,9 L49,9 L47,11 L53,15 L52,17 L46,13 L46,15 L51,17 L50,19 L47,17 L42,18 L30,20 L23,21 L6,21 L2,17 L0,11 Z " fill="#A3C9EC" transform="translate(35,157)"/>
<path d="M0,0 L2,0 L2,2 L7,4 L15,12 L20,11 L26,5 L28,6 L20,14 L22,18 L32,26 L33,29 L0,29 L-1,28 L-1,1 Z " fill="#B9CDDC" transform="translate(192,35)"/>
<path d="M0,0 L1,0 L1,13 L-2,36 L-6,41 L-5,56 L-8,58 L-13,57 L-14,56 L-15,43 L-36,44 L-36,55 L-39,58 L-45,58 L-46,57 L-46,23 L-38,23 L-37,41 L-12,40 L-6,38 L-4,34 L-1,6 Z " fill="#305172" transform="translate(328,178)"/>
<path d="M0,0 L1,0 L3,13 L6,16 L8,17 L21,18 L24,12 L25,16 L24,19 L22,19 L22,21 L20,21 L20,23 L3,23 L-3,22 L-3,13 L-14,13 L-17,12 L-16,23 L-13,31 L-9,33 L5,34 L0,40 L-6,44 L-18,41 L-21,39 L-22,31 L-20,24 L-20,4 L-18,1 L-17,3 L-19,10 L-9,10 L-2,11 L-1,1 Z " fill="#315983" transform="translate(52,145)"/>
<path d="M0,0 L7,0 L8,12 L13,11 L21,11 L24,15 L24,18 L20,20 L20,33 L16,34 L12,33 L10,22 L9,33 L0,34 Z " fill="#37597A" transform="translate(58,201)"/>
<path d="M0,0 L7,0 L9,4 L14,6 L13,9 L13,7 L7,7 L7,2 L1,3 L-1,7 L-8,6 L-7,35 L-13,37 L-13,40 L67,41 L67,37 L21,37 L21,36 L32,34 L32,36 L41,34 L62,34 L62,29 L42,29 L42,28 L61,28 L60,21 L57,20 L34,19 L34,18 L62,18 L61,25 L65,26 L65,28 L63,28 L63,34 L69,35 L69,43 L-14,43 L-16,41 L-16,36 L-10,34 L-9,5 L-7,4 L-1,4 Z " fill="#A8C7E3" transform="translate(52,26)"/>
<path d="M0,0 L5,2 L15,3 L15,4 L7,5 L7,13 L20,10 L24,10 L23,17 L43,17 L53,15 L55,14 L56,9 L47,9 L47,7 L64,7 L64,9 L58,9 L58,14 L57,15 L57,24 L65,25 L65,26 L57,26 L44,25 L33,29 L29,28 L19,27 L18,29 L20,19 L22,12 L11,15 L5,15 L4,4 L0,2 Z " fill="#244973" transform="translate(97,131)"/>
<path d="M0,0 L1,3 L3,3 L5,10 L11,19 L13,22 L13,31 L12,35 L10,35 L9,38 L1,32 L-7,29 L-9,34 L-12,37 L-19,37 L-19,36 L-12,34 L-9,30 L-10,21 L-8,16 L-3,14 L-3,10 L-6,8 L-3,8 L-3,6 L-1,6 Z " fill="#20416C" transform="translate(228,91)"/>
<path d="M0,0 L110,0 L109,3 L89,3 L89,32 L87,32 L85,2 L82,2 L81,24 L80,30 L79,30 L78,20 L77,20 L76,12 L79,7 L80,1 L66,1 L69,12 L69,18 L67,14 L64,1 L52,1 L57,10 L60,26 L60,33 L62,34 L40,35 L37,30 L34,19 L37,20 L40,31 L45,32 L59,33 L54,10 L50,3 L50,1 L21,1 L21,12 L25,13 L20,13 L19,8 L19,1 L11,1 L11,12 L-4,12 L-7,9 L10,11 L10,1 L0,1 Z " fill="#1B446E" transform="translate(46,200)"/>
<path d="M0,0 L5,1 L10,6 L11,15 L12,20 L29,25 L28,28 L12,23 L16,34 L20,58 L20,70 L18,71 L11,70 L10,67 L8,67 L7,64 L9,58 L11,53 L11,27 L7,16 L2,11 L-6,10 L-6,12 L-12,16 L-10,11 L-7,8 L1,8 L7,12 L9,14 L8,8 L4,3 Z " fill="#406C97" transform="translate(300,120)"/>
<path d="M0,0 L1,0 L2,10 L4,15 L9,17 L9,28 L-1,30 L-5,32 L-6,34 L-8,34 L-12,20 L-16,15 L-16,13 L-19,12 L-19,11 L-13,9 L-9,5 L-7,3 L-6,8 L-1,7 Z " fill="#A8CDEE" transform="translate(93,118)"/>
<path d="M0,0 L1,3 L-3,13 L11,11 L15,8 L17,8 L14,3 L14,0 L19,1 L25,11 L22,11 L23,15 L21,15 L22,18 L19,20 L22,21 L19,28 L18,25 L11,26 L-3,33 L-17,33 L-24,29 L-25,27 L-25,13 L-21,3 L-20,6 L-23,18 L-22,22 L-20,26 L-15,30 L-8,31 L0,29 L7,25 L10,25 L8,22 L8,13 L0,15 L-12,16 L-12,14 L-5,14 L-2,3 Z " fill="#365C81" transform="translate(119,101)"/>
<path d="M0,0 L1,2 L-1,3 L-5,10 L-7,14 L-3,16 L2,22 L6,35 L6,36 L11,37 L11,38 L-7,39 L-14,40 L-17,45 L-18,46 L-21,55 L-24,60 L-25,60 L-24,53 L-26,52 L-25,50 L-24,47 L-22,47 L-23,43 L-21,42 L-27,41 L-27,40 L-21,39 L-18,40 L-16,35 L3,35 L1,26 L-4,18 L-8,15 L-12,15 L-15,20 L-19,21 L-15,16 L-14,14 L-19,18 L-25,17 L-29,13 L-30,8 L-32,8 L-29,16 L-26,18 L-26,20 L-30,18 L-33,14 L-33,9 L-45,11 L-51,15 L-53,15 L-55,19 L-61,29 L-64,35 L-65,31 L-56,16 L-49,10 L-39,7 L-29,6 L-26,14 L-19,15 L-25,8 L-24,5 L-21,10 L-19,11 L-9,11 L-5,6 L-5,2 Z " fill="#4C6E8E" transform="translate(164,69)"/>
<path d="M0,0 L2,1 L1,3 L-8,5 L-9,8 L-8,21 L-2,70 L-1,73 L1,74 L31,76 L30,71 L22,70 L22,69 L31,69 L31,58 L32,58 L32,91 L30,91 L30,78 L9,78 L7,91 L5,93 L-1,93 L-1,76 L-5,71 L-9,41 L-11,22 L-11,6 L-6,2 Z " fill="#335476" transform="translate(26,143)"/>
<path d="M0,0 L15,1 L15,0 L22,0 L27,1 L23,5 L11,9 L20,7 L27,5 L27,11 L6,18 L5,17 L5,12 L7,11 L-7,9 L-16,7 L-17,4 L-14,4 L-9,3 Z " fill="#547DA8" transform="translate(141,155)"/>
<path d="M0,0 L4,5 L6,5 L7,3 L8,6 L7,21 L4,26 L-2,28 L-27,28 L-27,22 L-14,20 L-6,17 L-2,12 L-1,10 Z " fill="#8BB5DB" transform="translate(318,191)"/>
<path d="M0,0 L5,0 L4,4 L7,5 L5,7 L5,14 L4,15 L4,23 L-7,22 L-16,21 L-17,12 L-15,6 L-8,6 L-7,3 Z " fill="#ABCFF0" transform="translate(170,134)"/>
<path d="M0,0 L12,0 L12,11 L8,17 L2,21 L-6,23 L-14,23 L-15,14 L-11,11 L1,12 L1,3 Z " fill="#264F7A" transform="translate(306,190)"/>
<path d="M0,0 L11,0 L11,5 L16,5 L20,6 L24,5 L32,8 L36,12 L22,13 L0,13 L-10,2 L-10,1 L-1,1 Z " fill="#DCE4E8" transform="translate(238,171)"/>
<path d="M0,0 L14,0 L13,10 L11,11 L12,12 L13,12 L14,31 L13,32 L1,32 L4,31 L2,11 Z " fill="#27517B" transform="translate(112,201)"/>
<path d="M0,0 L81,0 L81,4 L1,4 Z " fill="#BDDCF6" transform="translate(38,63)"/>
<path d="M0,0 L96,0 L121,1 L124,4 L124,25 L123,25 L122,12 L121,10 L121,4 L2,4 L2,12 L1,12 L1,3 L2,1 Z " fill="#87ACCF" transform="translate(176,16)"/>
<path d="M0,0 L4,2 L11,5 L15,6 L17,16 L8,19 L5,18 L5,15 L3,17 L-2,17 L-6,11 L-8,10 L-7,6 L-1,2 Z " fill="#6585A7" transform="translate(149,53)"/>
<path d="M0,0 L7,0 L5,8 L1,9 L2,13 L2,33 L-5,33 L-6,29 L-7,10 L-6,8 L-9,6 Z " fill="#3F6080" transform="translate(229,201)"/>
<path d="M0,0 L8,0 L8,34 L7,35 L1,35 L0,34 Z " fill="#90B4D7" transform="translate(282,201)"/>
<path d="M0,0 L11,0 L9,9 L6,20 L4,32 L0,32 L-2,23 L-3,7 L-4,3 Z " fill="#264E7B" transform="translate(238,201)"/>
<path d="M0,0 L16,0 L17,5 L13,13 L13,24 L9,31 L2,32 L-2,29 L-3,26 L-3,19 L1,16 L9,16 L14,6 L14,4 L-3,3 Z " fill="#345D85" transform="translate(160,105)"/>
<path d="M0,0 L3,0 L3,3 L157,3 L157,4 L-92,4 L-92,3 L-4,2 Z " fill="#BFD9ED" transform="translate(147,188)"/>
<path d="M0,0 L78,0 L78,1 L54,2 L46,3 L45,5 L0,5 Z " fill="#99C1E4" transform="translate(42,194)"/>
<path d="M0,0 L6,1 L6,5 L8,5 L8,8 L-5,14 L-13,18 L-17,16 L-18,15 L-18,10 L-11,4 Z " fill="#536B84" transform="translate(164,170)"/>
<path d="M0,0 L66,0 L66,4 L10,4 L8,3 L-1,2 Z " fill="#90BADF" transform="translate(240,195)"/>
<path d="M0,0 L7,0 L7,33 L0,34 Z " fill="#A2C5E7" transform="translate(58,201)"/>
<path d="M0,0 L2,1 L-1,4 L1,5 L1,7 L3,7 L2,13 L-1,13 L-1,10 L-3,11 L-5,17 L-3,17 L-3,19 L3,19 L2,24 L-3,25 L-2,28 L-6,26 L-9,22 L-10,15 L-8,15 L-8,12 L-11,12 L-12,3 Z " fill="#89B0D1" transform="translate(272,99)"/>
<path d="M0,0 L49,0 L48,3 L28,3 L28,32 L26,32 L24,2 L21,2 L20,24 L19,30 L18,30 L17,20 L16,20 L15,12 L18,7 L19,1 L5,1 L8,12 L8,18 L6,14 L3,1 Z " fill="#123761" transform="translate(107,200)"/>
<path d="M0,0 L121,0 L122,13 L123,17 L123,25 L122,25 L121,74 L120,74 L120,1 L0,1 Z " fill="#BFDBF2" transform="translate(178,28)"/>
<path d="M0,0 L4,2 L12,9 L14,11 L13,15 L4,24 L0,24 Z " fill="#D9EDFB" transform="translate(193,38)"/>
<path d="M0,0 L2,2 L-1,11 L-6,14 L-31,22 L-37,22 L-37,18 L-47,19 L-57,21 L-71,20 L-71,19 L-49,17 L-37,15 L-32,14 L-29,15 L-33,13 L-33,11 L-28,13 L-33,8 L-29,9 L-26,11 L-24,10 L-24,17 L-3,10 Z " fill="#4C6E8D" transform="translate(114,159)"/>
<path d="M0,0 L3,0 L6,9 L6,12 L-2,12 L-4,10 L-7,10 L-8,21 L-12,21 L-14,18 L-16,19 L-20,13 L-23,10 L-19,9 L-16,12 L-14,11 L-14,8 L-11,5 L-13,4 L-10,4 L-10,8 L-7,8 L-7,5 L-3,6 Z " fill="#CCE4F3" transform="translate(244,69)"/>
<path d="M0,0 L3,0 L3,2 L7,2 L10,5 L18,5 L22,3 L22,5 L14,9 L12,12 L12,10 L3,14 L-1,19 L-3,21 L-5,12 L-5,3 Z " fill="#1F426C" transform="translate(194,112)"/>
<path d="M0,0 L4,2 L7,5 L7,8 L15,8 L16,10 L12,10 L13,13 L7,14 L5,10 L3,10 L2,17 L7,16 L7,18 L9,18 L8,23 L4,24 L2,20 L0,15 L-3,15 L-4,17 L-4,12 L-6,15 L-6,6 L-1,2 Z " fill="#7FAACD" transform="translate(202,90)"/>
<path d="M0,0 L1,0 L2,8 L3,83 L15,84 L15,85 L0,86 L-6,85 L-2,84 L-1,79 Z " fill="#A2BFDB" transform="translate(176,20)"/>
<path d="M0,0 L2,0 L6,6 L8,7 L21,8 L20,12 L13,17 L1,14 L-2,12 L-3,4 L-1,4 Z " fill="#386996" transform="translate(33,172)"/>
<path d="M0,0 L3,2 L3,7 L-1,17 L-3,28 L-9,30 L-10,26 L-9,15 L-5,7 L-4,1 L-1,1 Z " fill="#B3D4F0" transform="translate(96,97)"/>
<path d="M0,0 L10,0 L15,1 L12,2 L10,7 L8,9 L11,12 L12,17 L8,15 L5,12 L-3,11 L-5,5 L-5,1 Z " fill="#719AC2" transform="translate(223,152)"/>
<path d="M0,0 L18,1 L18,10 L9,10 L-1,9 L-4,5 L-4,3 Z " fill="#315B87" transform="translate(38,201)"/>
<path d="M0,0 L12,0 L12,5 L8,5 L7,20 L2,21 L0,19 L0,5 L-1,1 Z " fill="#547394" transform="translate(269,215)"/>
<path d="M0,0 L5,0 L5,33 L0,33 L-1,1 Z " fill="#B0D4F3" transform="translate(53,28)"/>
<path d="M0,0 L1,0 L3,8 L7,10 L20,11 L23,5 L24,9 L23,12 L21,12 L21,14 L19,14 L19,16 L2,16 L-4,15 L-3,13 L-3,6 Z " fill="#3D6591" transform="translate(53,152)"/>
<path d="M0,0 L11,2 L24,5 L25,12 L1,7 L-2,6 Z " fill="#547CA7" transform="translate(120,162)"/>
<path d="M0,0 L4,0 L4,2 L13,3 L28,5 L27,7 L25,7 L26,12 L29,14 L37,11 L40,12 L27,17 L9,13 L2,12 L6,15 L-1,14 L-3,12 L-1,10 L-1,7 L5,9 L23,13 L23,7 L10,5 L-1,2 L-3,6 L-2,1 Z " fill="#2D4F77" transform="translate(121,160)"/>
<path d="M0,0 L12,0 L12,2 L27,2 L27,3 L9,4 L2,5 L-1,10 L-2,11 L-5,20 L-8,25 L-9,25 L-8,18 L-10,17 L-9,15 L-8,12 L-6,12 L-7,8 L-5,7 L-11,6 L-11,5 L-5,4 L-2,5 Z " fill="#3B6089" transform="translate(148,104)"/>
<path d="M0,0 L2,1 L1,3 L-8,5 L-9,8 L-8,21 L-3,63 L-3,69 L-5,68 L-9,41 L-11,22 L-11,6 L-6,2 Z " fill="#446484" transform="translate(26,143)"/>
<path d="M0,0 L8,0 L5,2 L-6,5 L-10,16 L-8,20 L-5,23 L-7,25 L-11,22 L-11,20 L-23,21 L-21,20 L-21,18 L-19,18 L-18,14 L-17,10 L-11,8 L-10,6 L-8,6 L-6,2 Z " fill="#537697" transform="translate(95,146)"/>
<path d="M0,0 L8,0 L9,2 L6,2 L7,6 L5,6 L6,9 L4,11 L4,13 L-5,14 L-7,11 L-6,4 Z " fill="#99C3E9" transform="translate(135,110)"/>
<path d="M0,0 L5,1 L10,6 L11,15 L12,20 L29,25 L28,28 L12,23 L13,29 L11,27 L7,16 L2,11 L-6,10 L-6,12 L-12,16 L-10,11 L-7,8 L1,8 L7,12 L9,14 L8,8 L4,3 Z " fill="#285078" transform="translate(300,120)"/>
<path d="M0,0 L11,1 L25,4 L26,5 L26,10 L15,8 L1,5 Z " fill="#CCD9E4" transform="translate(119,175)"/>
<path d="M0,0 L26,0 L26,5 L-2,6 L-2,1 Z " fill="#CCE6F8" transform="translate(88,55)"/>
<path d="M0,0 L11,0 L10,2 L3,1 L8,9 L9,12 L0,13 L-10,2 L-10,1 L-1,1 Z " fill="#F1F6F8" transform="translate(238,171)"/>
<path d="M0,0 L9,0 L14,2 L14,9 L13,10 L2,10 L0,11 L1,7 L-1,8 L1,4 L-2,5 L-6,9 L-4,4 Z " fill="#A3C4E2" transform="translate(256,166)"/>
<path d="M0,0 L8,0 L10,2 L4,3 L13,13 L35,13 L48,12 L45,9 L46,0 L47,0 L47,6 L51,7 L49,9 L51,14 L45,15 L26,16 L12,16 L3,5 L0,2 Z " fill="#4F6477" transform="translate(225,170)"/>
<path d="M0,0 L6,0 L4,4 L4,2 L-5,7 L-14,12 L-21,14 L-28,14 L-26,17 L-22,19 L-28,19 L-29,17 L-29,11 L-28,10 L-16,8 Z " fill="#7CA5CC" transform="translate(132,125)"/>
<path d="M0,0 L7,0 L9,4 L14,6 L13,9 L13,7 L7,7 L7,2 L1,3 L-1,7 L-8,6 L-7,35 L-13,37 L-13,42 L12,42 L12,43 L-14,43 L-16,41 L-16,36 L-10,34 L-9,5 L-7,4 L-1,4 Z " fill="#9BB5CE" transform="translate(52,26)"/>
<path d="M0,0 L3,3 L4,9 L1,9 L1,11 L3,11 L4,22 L2,20 L2,16 L-1,16 L-2,20 L-4,19 L-3,13 L-2,12 L-6,10 L-11,10 L-11,8 L-16,8 L-16,7 L-6,5 Z " fill="#94BEE3" transform="translate(83,98)"/>
<path d="M0,0 L1,2 L10,2 L8,6 L3,9 L-18,9 L-36,7 L-36,6 L-1,6 L1,7 Z " fill="#2B4D6F" transform="translate(218,161)"/>
<path d="M0,0 L36,0 L35,4 L6,4 L6,3 L-1,2 Z " fill="#90BBDE" transform="translate(191,195)"/>
<path d="M0,0 L8,2 L11,5 L15,7 L11,8 L7,4 L-4,4 L-9,9 L-11,19 L-20,28 L-20,37 L-18,38 L-19,44 L-21,44 L-22,37 L-23,35 L-22,26 L-14,19 L-11,7 L-6,2 Z " fill="#193554" transform="translate(50,79)"/>
<path d="M0,0 L4,1 L14,9 L14,10 L-8,10 L-6,6 Z " fill="#DEF0FB" transform="translate(208,52)"/>
<path d="M0,0 L2,1 L2,16 L-2,29 L-8,32 L-13,33 L-11,35 L-14,36 L-17,33 L-35,31 L-36,29 L-8,29 L-4,27 L-1,20 Z " fill="#204975" transform="translate(309,148)"/>
<path d="M0,0 L2,0 L2,6 L-19,13 L-20,12 L-20,7 Z " fill="#C8D5E2" transform="translate(166,160)"/>
<path d="M0,0 L1,4 L1,7 L4,8 L6,12 L5,17 L10,18 L10,19 L-1,19 L-1,17 L3,17 L3,15 L-4,14 L-6,15 L-7,7 L-5,4 L-2,4 L-2,1 Z " fill="#42648B" transform="translate(241,151)"/>
<path d="M0,0 L28,0 L27,7 L31,8 L31,10 L29,10 L29,16 L31,16 L31,18 L5,18 L7,16 L28,16 L28,11 L8,11 L8,10 L27,10 L26,3 L23,2 L0,1 Z " fill="#95B9D7" transform="translate(86,44)"/>
<path d="M0,0 L30,0 L30,2 L24,6 L27,8 L26,10 L19,9 L20,14 L20,32 L19,32 L18,27 L18,8 L22,4 L22,2 L0,1 Z " fill="#32587F" transform="translate(197,201)"/>
<path d="M0,0 L51,0 L50,3 L50,1 L21,1 L21,12 L25,13 L20,13 L19,8 L19,1 L11,1 L11,12 L-4,12 L-7,9 L10,11 L10,1 L0,1 Z " fill="#1A3F69" transform="translate(46,200)"/>
<path d="M0,0 L4,0 L4,28 L0,28 Z " fill="#AACEEF" transform="translate(60,33)"/>
<path d="M0,0 L1,2 L5,3 L2,3 L2,6 L5,6 L5,9 L3,9 L6,18 L11,22 L17,22 L23,19 L22,22 L20,22 L21,28 L19,29 L19,24 L14,24 L16,31 L10,33 L8,34 L10,28 L12,24 L7,22 L3,17 L0,7 Z " fill="#2E557E" transform="translate(259,105)"/>
<path d="M0,0 L2,1 L2,15 L1,20 L5,21 L6,19 L7,33 L6,34 L0,34 Z " fill="#AECEED" transform="translate(283,202)"/>
<path d="M0,0 L2,1 L3,17 L4,21 L4,26 L8,26 L10,9 L13,1 L14,4 L10,26 L20,26 L20,27 L2,27 L0,9 Z " fill="#153E68" transform="translate(234,207)"/>
<path d="M0,0 L2,1 L-1,4 L1,5 L1,7 L3,7 L2,13 L-1,13 L-1,10 L-7,13 L-7,7 L-12,8 L-12,3 Z " fill="#94BBDE" transform="translate(272,99)"/>
<path d="M0,0 L1,2 L-3,11 L-5,14 L-18,18 L-20,18 L-21,20 L-24,18 L-25,21 L-26,19 L-25,12 L-26,9 L-22,8 L-23,16 L-19,16 L-21,8 L-20,4 L-18,9 L-18,15 L-7,12 L-1,1 Z " fill="#2A507B" transform="translate(266,140)"/>
<path d="M0,0 L3,0 L2,4 L-17,13 L-19,13 L-19,8 L-10,4 Z " fill="#CDDFEA" transform="translate(165,172)"/>
<path d="M0,0 L7,0 L8,4 L13,4 L13,7 L16,7 L17,11 L6,11 L0,2 Z " fill="#F7FAFB" transform="translate(241,172)"/>
<path d="M0,0 L2,3 L1,7 L-5,13 L-8,12 L-8,7 L-8,6 L-11,8 L-17,8 L-17,7 L-12,6 L-10,3 L-6,1 L-1,1 Z " fill="#93BCE2" transform="translate(287,120)"/>
<path d="M0,0 L4,0 L5,3 L5,24 L1,24 Z " fill="#97BBDC" transform="translate(224,210)"/>
<path d="M0,0 L1,3 L-3,9 L-10,12 L-5,17 L-6,20 L-11,14 L-13,13 L-14,18 L-15,20 L-21,20 L-27,15 L-24,15 L-20,18 L-16,17 L-15,10 L-20,8 L-21,4 L-16,8 L-6,8 L-2,4 Z " fill="#395F82" transform="translate(85,118)"/>
<path d="M0,0 L2,1 L2,5 L5,5 L6,3 L7,1 L12,1 L13,4 L10,7 L8,9 L7,12 L5,12 L4,15 L2,14 L4,9 L0,9 L-3,8 L-2,1 Z " fill="#A8CEED" transform="translate(207,99)"/>
<path d="M0,0 L1,0 L1,13 L-2,36 L-6,41 L-5,56 L-7,56 L-9,40 L-5,36 L-3,26 Z " fill="#2C4D6F" transform="translate(328,178)"/>
<path d="M0,0 L1,4 L-1,8 L23,9 L23,12 L-14,11 L-15,13 L-15,9 L-4,8 Z " fill="#264D76" transform="translate(190,131)"/>
<path d="M0,0 L45,1 L41,3 L2,4 L2,12 L1,12 L1,3 L2,1 Z " fill="#8FB2D3" transform="translate(176,16)"/>
<path d="M0,0 L2,3 L6,11 L8,18 L9,30 L5,30 L6,22 L3,21 L5,21 L0,9 L-1,3 Z " fill="#477097" transform="translate(238,126)"/>
<path d="M0,0 L9,0 L9,7 L5,12 L-2,11 L-2,9 L1,9 L-4,7 L-4,5 L-1,5 L-3,4 L-3,2 L1,2 Z " fill="#8FB7DA" transform="translate(162,123)"/>
<path d="M0,0 L2,0 L6,6 L10,9 L6,10 L7,14 L1,14 L-2,12 L-3,4 L-1,4 Z " fill="#3E6B99" transform="translate(33,172)"/>
<path d="M0,0 L1,3 L-2,15 L-1,19 L1,23 L6,27 L13,28 L17,29 L14,30 L4,30 L-3,26 L-4,24 L-4,10 Z " fill="#5B82A8" transform="translate(98,104)"/>
<path d="M0,0 L23,0 L23,4 L0,4 Z " fill="#C8E6FC" transform="translate(86,47)"/>
<path d="M0,0 L2,1 L8,19 L8,22 L1,22 Z " fill="#B3D5F3" transform="translate(65,39)"/>
<path d="M0,0 L7,1 L7,4 L10,3 L10,6 L7,8 L-3,8 L-6,5 L-6,3 L-1,2 Z " fill="#9ABEDC" transform="translate(72,119)"/>
<path d="M0,0 L16,1 L22,2 L21,5 L0,5 Z " fill="#93BADD" transform="translate(42,194)"/>
<path d="M0,0 L3,1 L1,2 L1,5 L4,5 L8,10 L6,10 L8,13 L12,15 L11,17 L4,17 L0,12 L-1,9 L-1,1 Z " fill="#A8CBEB" transform="translate(198,100)"/>
<path d="M0,0 L4,2 L12,6 L12,9 L14,10 L8,11 L5,10 L3,6 L4,4 L0,4 L0,7 L-6,9 L-6,5 L-1,2 Z " fill="#96B9DF" transform="translate(149,53)"/>
<path d="M0,0 L1,4 L6,5 L5,10 L1,14 L-5,14 L-5,11 L-1,10 L0,8 L-4,8 L-5,4 Z " fill="#A6C9EA" transform="translate(154,67)"/>
<path d="M0,0 L2,0 L2,2 L7,4 L15,12 L20,11 L26,5 L28,6 L20,14 L22,18 L24,21 L20,19 L16,16 L16,14 L12,12 L3,4 L1,3 L1,16 L0,16 Z " fill="#ABC1D0" transform="translate(192,35)"/>
<path d="M0,0 L1,2 L-6,17 L-9,27 L-10,36 L-13,37 L-12,26 L-8,14 L-1,1 Z " fill="#87ADD0" transform="translate(108,88)"/>
<path d="M0,0 L3,0 L5,10 L-4,13 L-7,12 L-5,12 L-5,6 L0,3 Z " fill="#466687" transform="translate(161,59)"/>
<path d="M0,0 L11,0 L11,5 L-6,5 L-6,1 Z " fill="#9CC1E7" transform="translate(45,213)"/>
<path d="M0,0 L1,4 L0,7 L-2,7 L-2,9 L-4,10 L-20,10 L-23,7 L-20,3 L-16,5 L-3,6 Z " fill="#2E5886" transform="translate(76,157)"/>
<path d="M0,0 L8,0 L13,2 L9,4 L-2,4 L-7,5 L-8,7 L-13,10 L-15,10 L-13,6 L-8,2 L-1,1 Z " fill="#3A587A" transform="translate(208,77)"/>
<path d="M0,0 L5,0 L7,15 L1,16 Z " fill="#95B8DD" transform="translate(315,220)"/>
<path d="M0,0 L11,0 L12,2 L10,3 L13,4 L13,6 L9,10 L7,10 L5,6 L-1,4 Z " fill="#2C527A" transform="translate(46,82)"/>
<path d="M0,0 L5,1 L3,6 L1,8 L-7,8 L-7,2 Z " fill="#92BADF" transform="translate(215,118)"/>
<path d="M0,0 L4,1 L3,7 L4,9 L-1,20 L-3,21 L-2,14 L-4,13 L-3,11 L-2,8 L0,8 L-1,4 L1,3 L-5,2 L-5,1 Z " fill="#44668C" transform="translate(142,108)"/>
<path d="M0,0 L5,0 L4,14 L-1,15 L-2,13 Z " fill="#83A6CA" transform="translate(272,221)"/>
<path d="M0,0 L1,0 L3,13 L5,18 L9,20 L23,21 L21,24 L19,23 L7,22 L2,17 L1,14 L-1,14 L-2,20 L-3,20 L-2,11 Z " fill="#254B75" transform="translate(34,158)"/>
<path d="M0,0 L9,0 L8,2 L3,4 L3,10 L5,13 L-2,14 L-4,12 Z " fill="#C2DDF2" transform="translate(116,158)"/>
<path d="M0,0 L8,1 L9,9 L-2,10 L-2,8 L1,8 Z " fill="#597C9F" transform="translate(173,149)"/>
<path d="M0,0 L5,2 L15,3 L15,4 L7,5 L7,13 L20,10 L24,10 L23,17 L21,18 L22,12 L11,15 L5,15 L4,4 L0,2 Z " fill="#33597F" transform="translate(97,131)"/>
<path d="M0,0 L5,0 L3,16 L-3,16 L-2,14 Z " fill="#8FB2D6" transform="translate(28,220)"/>
<path d="M0,0 L7,0 L5,5 L3,7 L-9,7 L-4,2 Z " fill="#8EB1D6" transform="translate(229,201)"/>
<path d="M0,0 L1,0 L1,13 L-7,12 L-11,11 L-15,12 L-16,9 L-18,9 L-16,4 L-12,3 L-13,6 L-11,5 L-12,9 L-1,9 L-1,1 Z " fill="#465F79" transform="translate(270,166)"/>
<path d="M0,0 L5,3 L9,10 L8,14 L2,9 L-5,7 L-3,5 L0,5 L0,3 L-2,1 Z " fill="#46709F" transform="translate(301,121)"/>
<path d="M0,0 L5,0 L5,2 L9,2 L9,9 L-1,9 L0,5 Z " fill="#A4CAE9" transform="translate(186,19)"/>
<path d="M0,0 L29,0 L29,1 L5,1 L4,5 L2,5 L5,8 L4,11 L0,11 Z " fill="#2F5782" transform="translate(67,201)"/>
<path d="M0,0 L4,0 L6,10 L6,15 L1,10 L-3,7 L-2,3 Z " fill="#A5CCED" transform="translate(160,76)"/>
<path d="M0,0 L2,2 L3,11 L0,14 L-2,16 L-5,14 L-4,13 L-6,11 L-5,7 L-1,4 Z " fill="#3A6490" transform="translate(270,152)"/>
<path d="M0,0 L2,1 L1,2 L2,9 L3,3 L4,3 L4,9 L10,10 L10,12 L5,12 L4,16 L1,16 L-1,14 L1,14 L-1,6 L-4,5 Z " fill="#29476C" transform="translate(234,156)"/>
<path d="M0,0 L1,4 L1,18 L2,21 L4,21 L5,18 L8,27 L5,27 L5,25 L-2,28 L-1,3 Z " fill="#436386" transform="translate(192,87)"/>
<path d="M0,0 L1,0 L1,12 L-3,20 L-7,22 L-12,22 L-13,20 L-4,17 Z " fill="#325D8E" transform="translate(308,156)"/>
<path d="M0,0 L4,1 L4,8 L3,9 L-8,9 L-10,10 L-8,6 L-6,4 L-6,6 L-2,4 Z " fill="#97BBDB" transform="translate(266,167)"/>
<path d="M0,0 L1,0 L1,10 L-3,16 L-9,20 L-13,21 L-24,21 L-24,20 L-17,19 L-16,18 L-7,16 L-3,13 Z " fill="#1A436C" transform="translate(317,191)"/>
<path d="M0,0 L16,0 L17,5 L11,18 L9,18 L11,12 L14,6 L14,4 L-3,3 Z " fill="#294D75" transform="translate(160,105)"/>
<path d="M0,0 L12,0 L13,4 L11,5 L0,5 Z " fill="#7BA3CA" transform="translate(67,214)"/>
<path d="M0,0 L7,1 L20,4 L24,6 L20,7 L11,5 L1,5 L1,3 L-2,1 Z " fill="#466B94" transform="translate(123,171)"/>
<path d="M0,0 L4,1 L-5,6 L-16,7 L-21,4 L-19,3 L-11,3 Z " fill="#83ACD3" transform="translate(122,126)"/>
<path d="M0,0 L5,0 L5,13 L3,14 L1,13 L0,8 Z " fill="#98B9D9" transform="translate(71,221)"/>
<path d="M0,0 L3,1 L5,5 L4,10 L9,11 L9,12 L-2,12 L-2,10 L2,10 L2,8 L-3,7 L-3,5 L-1,4 Z " fill="#93B7DE" transform="translate(242,158)"/>
<path d="M0,0 L8,0 L9,2 L6,2 L7,6 L4,6 L3,8 L-4,5 L-4,3 Z " fill="#A8CAEA" transform="translate(135,110)"/>
<path d="M0,0 L5,2 L2,3 L3,7 L9,9 L9,12 L3,12 L-2,8 L-1,1 Z " fill="#415974" transform="translate(117,172)"/>
<path d="M0,0 L0,3 L-7,10 L-7,19 L-5,20 L-6,26 L-8,26 L-9,19 L-10,17 L-9,8 Z " fill="#112B48" transform="translate(37,97)"/>
<path d="M0,0 L8,0 L10,2 L4,3 L13,13 L23,14 L23,15 L12,16 L3,5 L0,2 Z " fill="#6D7C88" transform="translate(225,170)"/>
<path d="M0,0 L4,1 L8,3 L8,8 L4,9 L-1,5 Z " fill="#A9D1EF" transform="translate(61,128)"/>
<path d="M0,0 L6,0 L7,2 L11,4 L10,7 L7,8 L4,4 L4,11 L2,7 L0,6 Z " fill="#BCD7EB" transform="translate(169,159)"/>
<path d="M0,0 L3,1 L7,6 L-3,6 L-3,8 L-11,7 L-7,5 Z " fill="#C8DDF1" transform="translate(228,164)"/>
<path d="M0,0 L1,2 L5,3 L2,3 L2,6 L5,6 L5,9 L3,9 L6,18 L12,23 L10,24 L4,19 L1,11 L0,7 Z " fill="#4D7295" transform="translate(259,105)"/>
<path d="M0,0 L5,0 L6,2 L7,31 L5,31 L3,1 Z " fill="#0C2F52" transform="translate(128,201)"/>
<path d="M0,0 L14,2 L17,4 L14,4 L14,6 L3,4 L-2,3 L-2,1 Z " fill="#9FACB9" transform="translate(127,176)"/>
<path d="M0,0 L11,0 L14,4 L15,9 L11,7 L8,4 L0,3 Z " fill="#6584A7" transform="translate(220,160)"/>
<path d="M0,0 L4,0 L5,9 L5,13 L1,14 L0,11 Z " fill="#9FC2E3" transform="translate(18,161)"/>
<path d="M0,0 L1,0 L3,6 L5,6 L8,2 L11,3 L8,8 L4,13 L2,15 L0,6 Z " fill="#14355D" transform="translate(189,118)"/>
<path d="M0,0 L6,1 L5,6 L3,5 L4,2 L-13,8 L-13,5 Z " fill="#526E8C" transform="translate(164,170)"/>
<path d="M0,0 L5,1 L7,6 L5,10 L4,8 L0,7 L-1,6 L-1,1 Z " fill="#9ABCE1" transform="translate(134,59)"/>
<path d="M0,0 L3,4 L4,4 L4,16 L2,16 L0,18 Z " fill="#16385E" transform="translate(192,92)"/>
<path d="M0,0 L4,5 L6,5 L7,3 L8,6 L8,13 L3,10 L-1,11 Z M4,8 Z " fill="#82ADD3" transform="translate(318,191)"/>
<path d="M0,0 L2,1 L1,3 L-8,5 L-9,8 L-9,22 L-11,22 L-11,6 L-6,2 Z " fill="#3C5770" transform="translate(26,143)"/>
<path d="M0,0 L2,2 L4,8 L3,17 L2,15 L-4,16 L-4,5 L-3,5 L-3,14 L2,13 L0,4 Z " fill="#2D537D" transform="translate(81,140)"/>
<path d="M0,0 L4,1 L6,3 L8,2 L6,6 L4,6 L4,11 L3,8 L-1,7 L-1,1 Z " fill="#7CA1C6" transform="translate(58,107)"/>
<path d="M0,0 L21,0 L20,3 L-2,3 L-2,1 Z " fill="#1C4167" transform="translate(135,200)"/>
<path d="M0,0 L3,0 L3,3 L8,3 L8,4 L-26,4 L-26,3 L-4,2 Z " fill="#B8D6E9" transform="translate(147,188)"/>
<path d="M0,0 L8,0 L12,7 L12,10 L9,7 L4,5 Z " fill="#B6BCC0" transform="translate(228,172)"/>
<path d="M0,0 L5,1 L1,4 L2,7 L-9,5 L-10,2 L-7,2 L-2,1 Z " fill="#4E76A1" transform="translate(134,157)"/>
<path d="M0,0 L2,1 L-1,4 L-3,4 L-5,8 L-11,18 L-14,24 L-15,20 L-6,5 Z " fill="#3F6383" transform="translate(114,80)"/>
<path d="M0,0 L6,0 L5,2 L2,4 L-2,7 L-6,8 L-6,3 Z " fill="#C0D0DC" transform="translate(152,177)"/>
<path d="M0,0 L4,2 L2,2 L0,6 L-1,4 L-2,7 L-5,6 L-6,8 L-8,8 L-9,5 L-6,2 Z " fill="#446D99" transform="translate(254,155)"/>
<path d="M0,0 L17,0 L17,2 L11,2 L11,7 L8,7 L9,2 L0,2 Z " fill="#356086" transform="translate(144,138)"/>
<path d="M0,0 L14,1 L14,10 L13,10 L12,3 L1,3 L1,11 L0,11 Z " fill="#7CA4CD" transform="translate(35,157)"/>
<path d="M0,0 L1,2 L3,2 L4,0 L5,6 L-1,7 L0,5 L-2,6 L-10,6 L-10,5 L-5,4 L-5,2 Z " fill="#90B6DC" transform="translate(214,112)"/>
<path d="M0,0 L1,2 L3,2 L4,13 L2,11 L2,7 L-1,7 L-2,11 L-4,10 L-3,4 L-2,3 L-2,1 Z " fill="#8DAECB" transform="translate(83,107)"/>
<path d="M0,0 L1,0 L2,12 L4,16 L7,17 L6,22 L4,24 L0,15 Z " fill="#3A5A7D" transform="translate(131,50)"/>
<path d="M0,0 L6,1 L5,4 L-1,6 L-1,8 L-5,6 L-6,3 L-1,2 Z " fill="#92BCDF" transform="translate(72,119)"/>
<path d="M0,0 L2,3 L6,19 L6,22 L4,22 L0,7 Z " fill="#22476C" transform="translate(178,212)"/>
<path d="M0,0 L7,2 L7,6 L1,7 L0,4 L-2,4 L-3,1 Z " fill="#487BA9" transform="translate(310,183)"/>
<path d="M0,0 L6,2 L5,5 L1,5 L1,8 L-5,7 L-6,5 L-4,4 L-1,3 Z " fill="#81A5C7" transform="translate(148,73)"/>
<path d="M0,0 L3,0 L4,10 L3,12 L0,11 Z " fill="#A7C3E7" transform="translate(156,202)"/>
<path d="M0,0 L7,2 L6,4 L24,4 L25,6 L3,6 L0,2 Z " fill="#B7D4EE" transform="translate(231,98)"/>
<path d="M0,0 L10,0 L10,4 L18,3 L16,6 L7,6 L7,2 L3,3 L-1,4 L-2,1 Z " fill="#A7C7E1" transform="translate(67,177)"/>
<path d="M0,0 L4,1 L7,3 L9,2 L9,8 L6,10 L3,9 L5,9 L2,6 L0,5 L0,3 L5,5 Z " fill="#385B7E" transform="translate(81,167)"/>
<path d="M0,0 L3,0 L4,5 L6,5 L5,10 L7,10 L7,12 L3,11 L2,5 L-1,5 Z " fill="#7DA2C3" transform="translate(262,106)"/>
<path d="M0,0 L15,0 L11,3 L-1,3 Z " fill="#C7E4F9" transform="translate(81,63)"/>
<path d="M0,0 L2,1 L3,17 L4,20 L3,27 L2,27 L0,9 Z " fill="#0E2F50" transform="translate(234,207)"/>
<path d="M0,0 L3,0 L3,10 L0,10 L-2,8 L-1,3 Z " fill="#9ABDE5" transform="translate(174,202)"/>
<path d="M0,0 L2,4 L10,7 L16,8 L11,15 L10,12 L12,9 L5,8 L1,7 Z " fill="#20476D" transform="translate(30,180)"/>
<path d="M0,0 L5,1 L9,3 L12,2 L13,4 L7,6 L1,6 L2,2 L-1,1 Z " fill="#688BAE" transform="translate(78,173)"/>
<path d="M0,0 L5,1 L10,6 L11,15 L10,18 L8,18 L6,13 L9,14 L8,8 L4,3 Z " fill="#214569" transform="translate(300,120)"/>
<path d="M0,0 L2,4 L2,7 L6,15 L6,21 L4,19 L0,9 L-1,3 Z " fill="#5580A8" transform="translate(238,126)"/>
<path d="M0,0 L2,0 L5,6 L4,8 L2,8 L2,10 L-1,9 L0,7 L-2,7 Z " fill="#A4CAEB" transform="translate(269,109)"/>
<path d="M0,0 L4,3 L5,6 L5,17 L3,18 L2,7 L0,4 Z " fill="#37516F" transform="translate(291,89)"/>
<path d="M0,0 L2,1 L0,4 L1,8 L3,9 L2,12 L-5,6 L-6,1 Z " fill="#325881" transform="translate(301,179)"/>
<path d="M0,0 L4,1 L1,1 L1,3 L9,1 L9,4 L-1,7 L-2,6 L-2,1 Z " fill="#DAE5EE" transform="translate(148,166)"/>
<path d="M0,0 L4,1 L4,6 L3,7 L-2,7 L-2,1 Z " fill="#6D98BE" transform="translate(100,157)"/>
<path d="M0,0 L4,0 L4,3 L6,3 L4,7 L3,8 L-3,8 L-3,5 L1,4 L2,1 Z " fill="#AACEF0" transform="translate(152,73)"/>
<path d="M0,0 L3,1 L3,8 L-3,7 L-3,1 L0,2 Z " fill="#C0D7E6" transform="translate(281,40)"/>
<path d="M0,0 L1,0 L0,10 L-2,17 L-4,17 L-4,7 L-1,4 Z " fill="#123559" transform="translate(266,217)"/>
<path d="M0,0 L11,0 L11,2 L8,2 L8,4 L0,4 Z " fill="#89B5DC" transform="translate(122,195)"/>
<path d="M0,0 L12,2 L10,4 L-2,4 L-4,1 Z " fill="#C1DCF0" transform="translate(130,186)"/>
<path d="M0,0 L11,0 L10,2 L3,1 L8,9 L7,11 L4,8 L4,6 L0,4 L-1,1 Z " fill="#BEC6CC" transform="translate(238,171)"/>
<path d="M0,0 L3,1 L1,3 L-10,7 L-13,6 L-10,3 Z " fill="#3F5879" transform="translate(160,168)"/>
<path d="M0,0 L1,0 L1,8 L-1,13 L-2,20 L0,21 L-3,21 L-4,11 L-2,11 L-1,1 Z " fill="#1E4772" transform="translate(52,145)"/>
<path d="M0,0 L1,2 L-7,6 L-9,9 L-9,7 L-14,7 L-14,5 L-12,3 L-3,2 Z " fill="#274C73" transform="translate(215,115)"/>
<path d="M0,0 L1,2 L3,2 L2,7 L-2,8 L-4,4 L-3,1 Z " fill="#7E9EBC" transform="translate(208,106)"/>
<path d="M0,0 L3,1 L1,2 L1,5 L4,5 L8,10 L6,10 L5,12 L2,9 L0,12 L-1,9 L-1,1 Z " fill="#9CC3E4" transform="translate(198,100)"/>
<path d="M0,0 L3,0 L5,8 L7,12 L5,13 L1,9 L-1,5 L1,5 L2,2 L-2,1 Z " fill="#88B1D6" transform="translate(276,97)"/>
<path d="M0,0 L3,0 L3,5 L-22,5 L-22,4 L0,4 Z " fill="#AECFE9" transform="translate(109,47)"/>
<path d="M0,0 L12,0 L12,3 L0,3 Z " fill="#A2C5E8" transform="translate(268,216)"/>
<path d="M0,0 L2,3 L1,12 L-4,17 L-8,16 L-2,12 L-1,10 Z " fill="#4C7090" transform="translate(171,120)"/>
<path d="M0,0 L3,1 L1,7 L0,9 L6,9 L6,10 L-2,10 L-3,6 Z " fill="#3E688C" transform="translate(136,129)"/>
<path d="M0,0 L3,0 L2,5 L0,4 L-5,7 L-11,7 L-11,6 L-6,5 L-4,2 Z " fill="#84ADD4" transform="translate(281,121)"/>
<path d="M0,0 L1,0 L1,10 L-14,10 L-17,7 L0,9 Z " fill="#244A73" transform="translate(56,202)"/>
<path d="M0,0 L3,1 L2,9 L-2,8 L-3,5 L-2,1 Z " fill="#A3C6E9" transform="translate(80,155)"/>
<path d="M0,0 L1,3 L6,2 L1,6 L-8,15 L-10,14 L-10,12 L-5,9 L-1,5 Z " fill="#244F7A" transform="translate(289,121)"/>
<path d="M0,0 L4,1 L2,6 L1,7 L-4,7 L-2,2 L0,2 Z " fill="#9CC2E7" transform="translate(216,118)"/>
<path d="M0,0 L4,0 L6,5 L3,7 L-1,6 Z " fill="#A1BED9" transform="translate(159,64)"/>
<path d="M0,0 L1,0 L1,6 L3,7 L4,9 L-3,10 L-5,9 L-4,6 L0,6 Z " fill="#3A5371" transform="translate(145,179)"/>
<path d="M0,0 L14,1 L11,3 L-3,4 L0,3 Z " fill="#8AB2D7" transform="translate(63,173)"/>
<path d="M0,0 L0,3 L-4,6 L-12,6 L-11,4 L-6,2 Z " fill="#1B3E67" transform="translate(81,98)"/>
<path d="M0,0 L12,1 L11,3 L-1,3 L-6,2 L-6,1 Z " fill="#86B0DE" transform="translate(268,16)"/>
<path d="M0,0 L1,0 L2,14 L1,19 L0,19 L-1,1 Z " fill="#4C6583" transform="translate(17,164)"/>
<path d="M0,0 L11,0 L12,3 L9,7 L5,2 L0,1 Z " fill="#48719C" transform="translate(163,108)"/>
<path d="M0,0 L1,4 L-1,4 L0,10 L-2,16 L-5,15 L-1,1 Z M1,2 L3,3 Z M-5,16 Z " fill="#294C74" transform="translate(42,85)"/>
<path d="M0,0 L1,0 L2,13 L3,17 L2,22 L0,19 Z " fill="#BBD1E8" transform="translate(298,28)"/>
<path d="M0,0 L8,1 L6,2 L6,4 L8,5 L1,5 Z " fill="#DEEAF2" transform="translate(119,175)"/>
<path d="M0,0 L9,0 L8,2 L3,4 L1,8 L1,5 L-1,5 Z " fill="#AFCAE1" transform="translate(116,158)"/>
<path d="M0,0 L4,1 L-10,8 L-14,7 Z " fill="#3D648D" transform="translate(126,126)"/>
<path d="M0,0 L4,1 L3,9 L2,11 L0,6 L-4,5 L-1,5 Z " fill="#476C93" transform="translate(56,121)"/>
<path d="M0,0 L2,1 L3,7 L-1,9 L-3,8 L-2,1 Z " fill="#9CC5E8" transform="translate(207,99)"/>
<path d="M0,0 L5,1 L1,2 L2,5 L-4,6 L-5,1 Z " fill="#8AB2D4" transform="translate(213,98)"/>
<path d="M0,0 L3,1 L7,14 L6,16 L3,11 Z " fill="#092B4F" transform="translate(80,219)"/>
<path d="M0,0 L7,0 L7,6 L1,5 Z " fill="#83AAD1" transform="translate(58,201)"/>
<path d="M0,0 L5,1 L4,6 L0,6 L-1,1 Z " fill="#658FB8" transform="translate(195,152)"/>
<path d="M0,0 L2,0 L1,6 L-4,8 L-5,4 Z " fill="#9CC3E5" transform="translate(134,127)"/>
<path d="M0,0 L1,4 L3,5 L2,8 L0,8 L-1,11 L-3,5 L-2,1 Z " fill="#21446C" transform="translate(195,86)"/>
<path d="M0,0 L5,1 L0,6 L-3,8 L-9,7 L-5,5 L-1,4 Z " fill="#365C7F" transform="translate(49,181)"/>
<path d="M0,0 L8,5 L7,7 L1,3 L1,5 L6,7 L5,9 L-1,6 L-1,1 Z " fill="#8DB0D0" transform="translate(80,167)"/>
<path d="M0,0 L1,4 L0,5 L5,6 L5,7 L-6,7 L-6,5 L-2,5 L-2,3 L-6,2 L0,2 Z " fill="#7C9BBA" transform="translate(246,163)"/>
<path d="M0,0 L7,2 L8,11 L6,9 L5,3 L-2,3 L0,2 Z " fill="#1D4168" transform="translate(176,147)"/>
<path d="M0,0 L1,3 L4,2 L4,4 L6,4 L5,6 L0,5 L-1,7 L-1,4 L-4,4 L-5,6 L-5,2 L0,2 Z " fill="#ADD1F1" transform="translate(77,106)"/>
<path d="M0,0 L4,0 L4,6 L0,6 L-1,1 Z " fill="#B9CEE0" transform="translate(232,84)"/>
<path d="M0,0 L2,2 L6,12 L5,16 L5,14 L3,13 L4,11 L2,11 L0,3 Z " fill="#98BDDF" transform="translate(72,37)"/>
<path d="M0,0 L1,2 L11,2 L13,6 L15,8 L10,9 L9,5 L10,3 L0,3 Z " fill="#647687" transform="translate(239,168)"/>
<path d="M0,0 L19,1 L19,2 L4,2 L3,5 Z " fill="#B2CCE0" transform="translate(273,179)"/>
<path d="M0,0 L6,2 L20,3 L20,4 L3,4 L0,2 Z " fill="#88AED4" transform="translate(38,174)"/>
<path d="M0,0 L4,0 L4,2 L12,3 L12,4 L2,3 L-1,2 L-3,6 L-2,1 Z " fill="#274C72" transform="translate(121,160)"/>
<path d="M0,0 L7,0 L12,1 L12,2 L6,4 L3,5 L-3,3 Z " fill="#5E85AD" transform="translate(156,155)"/>
<path d="M0,0 L4,1 L5,5 L3,8 L1,8 Z " fill="#B2D0EF" transform="translate(84,144)"/>
<path d="M0,0 L4,0 L3,7 L1,8 L2,2 L-7,4 L-7,2 Z " fill="#4A6F8F" transform="translate(117,141)"/>
<path d="M0,0 L2,3 L0,5 L0,7 L-9,8 L-9,5 L-3,5 L-3,1 Z " fill="#8BB1D7" transform="translate(139,116)"/>
<path d="M0,0 L13,0 L13,1 L4,3 L-1,5 L-1,2 Z " fill="#C1D7E8" transform="translate(265,81)"/>
<path d="M0,0 L1,0 L2,5 L4,7 L2,7 L1,13 L-1,9 L-1,1 Z " fill="#2A537E" transform="translate(238,218)"/>
<path d="M0,0 L2,0 L3,5 L1,6 L0,16 L-1,16 L-1,1 Z " fill="#20466E" transform="translate(237,208)"/>
<path d="M0,0 L2,2 L2,15 L0,13 L-1,5 Z " fill="#3C5984" transform="translate(18,178)"/>
<path d="M0,0 L10,0 L14,2 L13,3 L6,3 L0,1 Z " fill="#406A96" transform="translate(272,175)"/>
<path d="M0,0 L20,1 L20,2 L6,3 L2,3 Z " fill="#274D75" transform="translate(120,148)"/>
<path d="M0,0 L6,1 L7,4 L3,6 L2,9 Z " fill="#8BB3D6" transform="translate(312,143)"/>
<path d="M0,0 L9,0 L9,7 L7,3 L1,2 Z " fill="#98BEE0" transform="translate(162,123)"/>
<path d="M0,0 L5,1 L4,6 L0,8 Z " fill="#82A4C4" transform="translate(286,106)"/>
<path d="M0,0 L5,0 L3,7 L0,6 Z " fill="#A0C3E4" transform="translate(272,221)"/>
<path d="M0,0 L11,1 L11,2 L3,3 L4,5 L0,5 Z " fill="#94BBE2" transform="translate(67,214)"/>
<path d="M0,0 L6,0 L9,4 L3,4 L0,2 Z " fill="#EAF6F8" transform="translate(263,178)"/>
<path d="M0,0 L1,2 L-10,6 L-14,6 L-14,4 Z " fill="#848C91" transform="translate(163,163)"/>
<path d="M0,0 L1,4 L-1,10 L-4,10 L-3,2 Z " fill="#8FB8D9" transform="translate(115,153)"/>
<path d="M0,0 L1,2 L6,4 L6,11 L4,7 L0,5 Z " fill="#89B1D4" transform="translate(64,124)"/>
<path d="M0,0 L5,1 L6,6 L2,8 Z " fill="#183964" transform="translate(289,104)"/>
<path d="M0,0 L4,0 L3,4 L1,3 L0,6 L-4,4 Z " fill="#A3CBEF" transform="translate(274,99)"/>
<path d="M0,0 L5,1 L6,4 L1,2 L1,5 L4,6 L-1,6 L-1,1 Z " fill="#AFCDEC" transform="translate(147,61)"/>
<path d="M0,0 L3,3 L2,8 L-2,9 L-4,7 L-1,5 Z " fill="#ABCEEB" transform="translate(171,53)"/>
<path d="M0,0 L1,0 L1,10 L-5,10 L-3,5 L-1,6 Z " fill="#ABC8E9" transform="translate(30,226)"/>
<path d="M0,0 L3,0 L3,11 L0,10 L-1,2 Z " fill="#1D436B" transform="translate(123,210)"/>
<path d="M0,0 L6,0 L4,4 L3,7 L1,7 Z " fill="#B1D7F8" transform="translate(155,141)"/>
<path d="M0,0 L3,1 L4,7 L1,7 L-1,4 Z " fill="#446A95" transform="translate(306,127)"/>
<path d="M0,0 L6,0 L4,4 L4,2 L1,4 L-4,3 Z " fill="#78A1C8" transform="translate(132,125)"/>
<path d="M0,0 L1,0 L1,10 L-11,10 L-11,9 L-2,8 Z " fill="#C2DFF2" transform="translate(190,94)"/>
<path d="M0,0 L3,3 L1,5 L-1,7 L-4,5 L-2,1 Z " fill="#A5C9EA" transform="translate(145,72)"/>
<path d="M0,0 L3,0 L4,7 L0,8 L1,3 L-1,3 Z " fill="#ADC5D8" transform="translate(244,69)"/>
<path d="M0,0 L5,1 L7,6 L2,5 L-1,1 Z " fill="#7797BC" transform="translate(134,59)"/>
<path d="M0,0 L4,1 L8,0 L6,2 L6,7 L7,9 L4,8 L2,4 L0,3 Z " fill="#4C6C8D" transform="translate(141,60)"/>
<path d="M0,0 L3,1 L-1,4 L-3,7 L-7,5 L-4,2 Z " fill="#455D78" transform="translate(154,181)"/>
<path d="M0,0 L13,0 L13,2 L15,4 L12,5 L9,2 L0,1 Z " fill="#25476D" transform="translate(283,179)"/>
<path d="M0,0 L7,1 L7,4 L-2,4 Z " fill="#2E4A6F" transform="translate(163,167)"/>
<path d="M0,0 L1,0 L1,5 L4,6 L4,10 L2,10 L2,8 L-2,8 L-2,6 L0,6 Z " fill="#415979" transform="translate(168,160)"/>
<path d="M0,0 L6,1 L3,2 L3,4 L-4,4 L-2,3 L-2,1 Z " fill="#99C2E3" transform="translate(114,138)"/>
<path d="M0,0 L1,3 L4,4 L1,7 L-2,6 L-2,1 Z " fill="#8AB3DC" transform="translate(281,126)"/>
<path d="M0,0 L9,0 L8,5 L2,3 Z " fill="#C3D7E7" transform="translate(282,83)"/>
<path d="M0,0 L6,4 L5,6 L-2,5 L-3,3 L1,4 Z " fill="#8EB2D3" transform="translate(140,79)"/>
<path d="M0,0 L4,1 L4,6 L0,7 L-1,5 Z " fill="#9ABCE1" transform="translate(271,229)"/>
<path d="M0,0 L4,1 L5,3 L3,4 L-4,4 Z " fill="#99C1E8" transform="translate(224,204)"/>
<path d="M0,0 L9,0 L9,1 L3,1 L3,3 L-7,3 L-3,1 Z " fill="#ADD0F1" transform="translate(75,166)"/>
<path d="M0,0 L4,2 L2,2 L2,4 L7,4 L7,5 L-4,6 L-2,5 L-2,3 L0,3 Z " fill="#5C80A5" transform="translate(76,161)"/>
<path d="M0,0 L3,1 L2,8 L0,9 L-1,1 Z " fill="#86A7CC" transform="translate(235,157)"/>
<path d="M0,0 L9,1 L9,3 L-1,3 Z " fill="#365A84" transform="translate(290,117)"/>
<path d="M0,0 L6,0 L6,2 L2,6 L0,6 Z " fill="#3F648A" transform="translate(53,86)"/>
<path d="M0,0 L7,0 L7,3 L-1,3 Z " fill="#B9D4E4" transform="translate(243,78)"/>
<path d="M0,0 L5,2 L4,6 L1,5 L1,2 L-2,3 L-2,1 Z " fill="#A7CFF0" transform="translate(180,19)"/>
<path d="M0,0 L10,2 L10,3 L1,3 L-3,1 Z " fill="#D4E1E7" transform="translate(127,179)"/>
<path d="M0,0 L3,0 L2,4 L-3,5 L-2,1 Z " fill="#DBEAF5" transform="translate(165,172)"/>
<path d="M0,0 L2,0 L2,5 L-1,7 L-4,4 L-2,4 L-2,2 L0,2 Z " fill="#475F77" transform="translate(237,166)"/>
<path d="M0,0 L2,0 L2,2 L7,3 L3,5 L0,7 L0,3 L-2,2 Z " fill="#6B90B7" transform="translate(271,163)"/>
<path d="M0,0 L7,2 L4,3 L2,2 L2,4 L6,6 L4,7 L0,4 Z " fill="#234D73" transform="translate(158,130)"/>
<path d="M0,0 L2,0 L2,5 L-2,6 L-4,4 L-2,4 Z " fill="#9CC3E5" transform="translate(67,131)"/>
<path d="M0,0 L2,4 L0,11 L-1,11 L-1,3 L-3,3 L-3,1 Z " fill="#3B5C7B" transform="translate(87,106)"/>
<path d="M0,0 L8,0 L6,4 L4,5 L4,3 L0,4 Z " fill="#A5CCED" transform="translate(261,103)"/>
<path d="M0,0 L7,0 L6,5 L2,4 L2,2 Z " fill="#7EA0C3" transform="translate(219,101)"/>
<path d="M0,0 L2,0 L2,2 L5,1 L5,4 L9,5 L9,7 L5,6 L0,2 Z " fill="#1D4169" transform="translate(205,90)"/>
<path d="M0,0 L6,0 L7,4 L5,6 L3,5 L3,2 L0,2 Z " fill="#93B7D7" transform="translate(153,71)"/>
<path d="M0,0 L4,0 L4,4 L-3,4 Z " fill="#BFD8E5" transform="translate(262,48)"/>
<path d="M0,0 L3,1 L3,4 L-2,5 L-4,4 L-4,2 L0,2 Z " fill="#3D5A78" transform="translate(169,174)"/>
<path d="M0,0 L7,0 L5,5 Z " fill="#E7F2F7" transform="translate(228,172)"/>
<path d="M0,0 L4,1 L10,0 L6,3 L-1,4 Z " fill="#50759F" transform="translate(156,158)"/>
<path d="M0,0 L3,3 L3,5 L7,7 L2,8 L1,4 L-1,3 Z " fill="#9CC2E5" transform="translate(94,128)"/>
<path d="M0,0 L4,1 L3,7 L0,7 L-1,3 Z " fill="#688EAE" transform="translate(271,105)"/>
<path d="M0,0 L2,1 L2,4 L-3,4 L-3,2 L-8,2 L-8,1 Z " fill="#7094B7" transform="translate(75,104)"/>
<path d="M0,0 L4,0 L3,3 L-2,3 L-4,6 L-4,1 Z " fill="#7FA4CB" transform="translate(264,101)"/>
<path d="M0,0 L2,1 L0,5 L-5,7 L-6,5 Z " fill="#82ACD4" transform="translate(83,98)"/>
<path d="M0,0 L10,1 L10,3 L2,3 L2,1 Z " fill="#365A7F" transform="translate(63,84)"/>
<path d="M0,0 L2,1 L3,9 L2,5 L-3,6 L-1,5 L-2,2 L0,2 Z " fill="#96B6D4" transform="translate(133,70)"/>
<path d="M0,0 L3,0 L5,10 L2,9 L2,3 L0,3 Z " fill="#4D6C8C" transform="translate(161,59)"/>
<path d="M0,0 L3,1 L2,4 L-1,8 L-3,8 L-1,2 Z " fill="#A1C8EB" transform="translate(141,63)"/>
<path d="M0,0 L2,0 L2,2 L7,3 L4,6 L1,5 L-1,1 Z " fill="#A8CBEE" transform="translate(153,58)"/>
<path d="M0,0 L6,2 L6,5 L8,6 L4,5 L0,3 Z " fill="#7EA3C8" transform="translate(155,57)"/>
<path d="M0,0 L2,0 L3,3 L8,5 L7,8 L7,6 L1,6 Z " fill="#91B1CC" transform="translate(58,27)"/>
<path d="M0,0 L1,0 L1,13 L-2,12 L-1,9 L-1,1 Z " fill="#264469" transform="translate(270,166)"/>
<path d="M0,0 L4,1 L4,3 L-5,4 L-5,2 Z " fill="#91BCDF" transform="translate(119,115)"/>
<path d="M0,0 L7,0 L7,4 L2,4 L3,1 Z " fill="#B6D9F7" transform="translate(112,63)"/>
<path d="M0,0 L2,1 L0,4 L-7,3 L-5,1 Z " fill="#4D6B85" transform="translate(140,184)"/>
<path d="M0,0 L2,1 L-1,5 L-6,5 L-7,3 Z " fill="#366496" transform="translate(302,173)"/>
<path d="M0,0 L3,1 L3,6 L-1,7 L-1,1 Z " fill="#A5C8EB" transform="translate(20,168)"/>
<path d="M0,0 L7,0 L5,4 L0,2 Z " fill="#58779A" transform="translate(175,159)"/>
<path d="M0,0 L2,4 L1,8 L-1,10 L-2,6 Z " fill="#426C96" transform="translate(37,138)"/>
<path d="M0,0 L2,0 L2,2 L4,2 L4,4 L-2,4 L-2,1 Z " fill="#9FC9EA" transform="translate(73,123)"/>
<path d="M0,0 L5,1 L10,6 L10,8 L7,7 L2,2 Z " fill="#2A517B" transform="translate(300,120)"/>
<path d="M0,0 L5,1 L4,3 L2,3 L1,7 L-1,6 Z " fill="#60819E" transform="translate(80,111)"/>
<path d="M0,0 L4,1 L5,5 L2,6 L0,3 Z " fill="#3E6387" transform="translate(133,101)"/>
<path d="M0,0 L3,1 L-1,6 L-4,3 Z " fill="#A8CCE9" transform="translate(101,92)"/>
<path d="M0,0 L3,0 L1,4 L-3,4 L-2,1 Z " fill="#9EC0E5" transform="translate(145,57)"/>
<path d="M0,0 L1,0 L1,7 L-2,7 L-2,1 Z " fill="#A8CBE8" transform="translate(117,53)"/>
<path d="M0,0 L1,0 L2,8 L-2,8 Z " fill="#1F4A74" transform="translate(240,225)"/>
<path d="M0,0 L2,1 L2,6 L0,6 L-1,8 L-2,1 Z " fill="#4974A0" transform="translate(181,212)"/>
<path d="M0,0 L5,2 L2,3 L1,8 L0,8 L-1,1 Z " fill="#506A85" transform="translate(117,172)"/>
<path d="M0,0 L3,0 L1,4 L-4,4 Z " fill="#3F6793" transform="translate(252,163)"/>
<path d="M0,0 L2,1 L1,2 L1,9 L-1,8 L-1,6 L-4,5 Z " fill="#305377" transform="translate(234,156)"/>
<path d="M0,0 L11,0 L8,2 L0,3 Z " fill="#88AFD9" transform="translate(248,152)"/>
<path d="M0,0 L7,1 L6,4 L-2,2 Z " fill="#405E8C" transform="translate(322,144)"/>
<path d="M0,0 L1,2 L3,2 L2,5 L-3,7 L-1,1 Z " fill="#3A628B" transform="translate(270,132)"/>
<path d="M0,0 L5,0 L6,2 L3,2 L2,6 L0,4 Z " fill="#9CC7E8" transform="translate(58,126)"/>
<path d="M0,0 L7,2 L5,5 L2,5 Z " fill="#C7DFEE" transform="translate(231,98)"/>
<path d="M0,0 L2,4 L1,7 L-5,6 L-1,5 Z " fill="#9EC2E5" transform="translate(175,99)"/>
<path d="M0,0 L3,1 L4,7 L3,5 L0,5 Z " fill="#284867" transform="translate(224,83)"/>
<path d="M0,0 L1,0 L3,8 L1,10 L1,8 L-1,8 Z " fill="#91B9D8" transform="translate(130,78)"/>
<path d="M0,0 L4,1 L5,4 L2,5 L1,8 Z " fill="#20426B" transform="translate(163,56)"/>
<path d="M0,0 L6,0 L7,3 L1,3 Z " fill="#183E66" transform="translate(155,55)"/>
<path d="M0,0 L5,0 L4,4 L0,3 Z " fill="#B6CBDB" transform="translate(274,50)"/>
<path d="M0,0 L2,1 L2,5 L-2,5 L-2,1 Z " fill="#A0C0E2" transform="translate(318,231)"/>
<path d="M0,0 L4,2 L3,5 L-1,4 Z " fill="#1A406A" transform="translate(119,148)"/>
<path d="M0,0 L1,3 L-3,5 L-6,2 Z " fill="#A3C7E6" transform="translate(80,127)"/>
<path d="M0,0 L8,1 L8,3 L0,3 Z " fill="#38638D" transform="translate(161,121)"/>
<path d="M0,0 L5,0 L6,3 L1,4 Z " fill="#46709C" transform="translate(289,120)"/>
<path d="M0,0 L6,1 L5,4 L1,3 Z " fill="#4B7293" transform="translate(72,119)"/>
<path d="M0,0 L2,4 L2,6 L-4,7 L-3,5 L-1,5 L-2,2 L0,2 Z " fill="#84A9D1" transform="translate(217,112)"/>
<path d="M0,0 L2,4 L4,9 L1,9 L1,7 L-1,7 Z " fill="#2D5279" transform="translate(196,105)"/>
<path d="M0,0 L4,0 L4,4 L-1,4 Z " fill="#A9CDF0" transform="translate(170,100)"/>
<path d="M0,0 L2,1 L-1,4 L-3,4 L-4,7 L-6,5 Z " fill="#456889" transform="translate(114,80)"/>
<path d="M0,0 L5,2 L5,3 L-3,3 L-4,1 Z " fill="#233F63" transform="translate(50,79)"/>
<path d="M0,0 L3,0 L4,7 L0,6 L2,1 Z " fill="#AEC7D7" transform="translate(231,73)"/>
<path d="M0,0 L2,2 L0,4 L-6,4 L-6,2 Z " fill="#9EC2E5" transform="translate(155,77)"/>
<path d="M0,0 L5,2 L4,5 L-1,5 Z " fill="#8AA8C8" transform="translate(148,63)"/>
<path d="M0,0 L1,0 L1,7 L3,7 L1,12 L0,12 Z " fill="#193960" transform="translate(132,50)"/>
<path d="M0,0 L1,2 L4,2 L3,6 L0,6 Z " fill="#AEC7D7" transform="translate(278,41)"/>
</svg>
