<?xml version="1.0" encoding="UTF-8"?>
<svg version="1.1" xmlns="http://www.w3.org/2000/svg" width="578" height="432">
<path d="M0,0 L9,0 L15,2 L23,2 L31,0 L38,0 L45,3 L50,8 L52,12 L60,15 L63,19 L65,27 L64,41 L63,49 L66,54 L65,63 L59,68 L54,68 L56,93 L60,95 L66,102 L82,107 L99,115 L110,123 L117,130 L123,138 L131,156 L137,179 L141,204 L141,229 L139,241 L135,251 L129,260 L124,264 L118,267 L114,267 L116,277 L116,287 L114,292 L112,292 L114,307 L118,329 L121,359 L-32,359 L-32,339 L-28,297 L-27,292 L-30,291 L-33,284 L-33,275 L-31,262 L-30,247 L-30,231 L-37,237 L-45,240 L-49,240 L-49,253 L-52,262 L-53,264 L-55,264 L-57,268 L-65,274 L-86,274 L-92,271 L-90,276 L-90,290 L-93,296 L-95,301 L-93,309 L-89,325 L-86,344 L-86,359 L-235,359 L-234,347 L-231,328 L-227,313 L-222,301 L-224,295 L-226,295 L-228,289 L-227,277 L-232,276 L-238,273 L-243,268 L-248,261 L-251,252 L-252,244 L-252,223 L-247,201 L-238,180 L-228,164 L-221,156 L-213,150 L-213,137 L-209,128 L-203,122 L-201,122 L-205,114 L-206,109 L-206,102 L-203,94 L-196,85 L-191,80 L-187,69 L-182,57 L-175,49 L-168,44 L-159,41 L-145,41 L-134,45 L-131,48 L-121,51 L-114,57 L-110,65 L-109,68 L-109,83 L-110,87 L-110,101 L-107,114 L-108,123 L-112,130 L-117,134 L-122,135 L-121,143 L-111,148 L-101,156 L-90,153 L-89,152 L-88,145 L-86,141 L-88,131 L-88,116 L-85,108 L-83,101 L-81,98 L-81,89 L-77,86 L-68,84 L-67,82 L-65,82 L-63,78 L-60,75 L-50,78 L-45,80 L-35,79 L-32,82 L-30,89 L-25,92 L-22,104 L-19,119 L-7,112 L11,105 L17,99 L17,96 L11,93 L3,84 L-1,68 L-3,53 L-6,46 L-7,41 L-7,30 L-11,25 L-12,23 L-12,17 L-9,14 L-7,14 L-7,7 L-2,1 Z M-41,135 L-50,138 L-53,143 L-52,149 L-47,151 L-44,150 L-37,139 L-38,135 Z " fill="#72ABE5" transform="translate(348,73)"/>
<path d="M0,0 L14,0 L25,4 L28,7 L38,10 L45,16 L49,24 L50,27 L50,42 L49,46 L49,60 L52,73 L51,82 L47,89 L42,93 L37,94 L38,102 L48,107 L58,115 L69,112 L70,111 L71,104 L73,100 L71,90 L71,75 L74,67 L76,60 L78,57 L78,48 L82,45 L91,43 L92,41 L94,41 L95,43 L101,43 L101,44 L81,48 L81,61 L78,61 L78,63 L80,65 L77,66 L77,72 L75,71 L73,76 L73,88 L75,96 L75,104 L73,105 L72,113 L94,114 L97,117 L97,122 L105,118 L106,109 L108,113 L106,120 L101,123 L97,124 L92,137 L93,140 L93,155 L92,155 L92,141 L90,141 L87,155 L82,154 L74,150 L68,146 L63,145 L66,151 L75,159 L79,162 L74,161 L60,154 L56,154 L56,159 L54,159 L56,166 L57,169 L55,169 L58,176 L67,182 L69,183 L80,183 L84,182 L81,185 L78,186 L70,186 L66,184 L65,187 L63,185 L61,192 L59,192 L61,212 L66,232 L68,232 L69,235 L69,249 L66,255 L64,260 L66,268 L70,284 L73,303 L73,318 L-76,318 L-75,306 L-72,287 L-68,272 L-63,260 L-65,254 L-67,254 L-69,248 L-68,236 L-73,235 L-79,232 L-84,227 L-89,220 L-92,211 L-93,203 L-93,182 L-88,160 L-79,139 L-69,123 L-62,115 L-54,109 L-54,96 L-50,87 L-44,81 L-42,81 L-46,73 L-47,68 L-47,61 L-44,53 L-37,44 L-32,39 L-28,28 L-23,16 L-16,8 L-9,3 Z " fill="#74ADE7" transform="translate(189,114)"/>
<path d="M0,0 L1,3 L-4,14 L-8,24 L-12,41 L-12,56 L-10,63 L-6,72 L1,80 L5,82 L5,84 L11,84 L13,85 L27,85 L36,82 L45,80 L45,78 L53,73 L55,73 L55,71 L57,71 L57,69 L63,64 L71,52 L78,53 L78,51 L85,45 L86,43 L81,41 L84,39 L94,35 L99,28 L103,29 L100,30 L100,32 L106,32 L109,31 L109,33 L107,34 L99,34 L97,33 L95,37 L89,40 L86,47 L82,51 L83,58 L79,66 L69,82 L65,87 L63,87 L63,89 L60,92 L55,97 L46,104 L42,108 L44,116 L49,116 L52,119 L68,123 L89,126 L105,126 L121,124 L137,120 L142,115 L144,111 L145,98 L146,98 L146,113 L142,120 L144,130 L148,146 L151,165 L151,180 L2,180 L3,168 L6,149 L10,134 L15,122 L13,116 L11,116 L9,110 L10,98 L5,97 L-1,94 L-6,89 L-11,82 L-14,73 L-15,65 L-15,44 L-10,22 L-1,1 Z " fill="#4881BE" transform="translate(111,252)"/>
<path d="M0,0 L2,4 L4,5 L3,8 L4,15 L7,15 L8,18 L22,22 L38,25 L65,27 L88,27 L117,24 L135,21 L141,17 L143,12 L146,11 L146,0 L148,3 L148,13 L146,18 L144,18 L146,33 L150,55 L153,85 L0,85 L0,65 L4,23 L5,18 L2,17 L-1,10 L-1,1 Z " fill="#437DBB" transform="translate(316,347)"/>
<path d="M0,0 L2,1 L7,11 L10,14 L10,17 L14,18 L14,27 L11,45 L7,55 L2,61 L-5,65 L-19,65 L-27,61 L-30,59 L-21,65 L-11,67 L-11,76 L-10,83 L-5,78 L-2,67 L1,62 L6,67 L6,78 L5,80 L7,80 L7,78 L12,79 L21,84 L28,90 L29,97 L24,109 L21,109 L22,116 L11,147 L11,153 L7,154 L7,152 L1,153 L1,150 L5,138 L7,138 L10,127 L9,121 L9,122 L9,128 L5,126 L0,122 L1,123 L7,129 L7,135 L6,137 L4,137 L3,133 L3,136 L3,141 L1,142 L-7,138 L-9,138 L-14,144 L-18,146 L-28,146 L-28,144 L-31,144 L-31,141 L-33,141 L-35,133 L-32,130 L-30,125 L-29,124 L-28,102 L-27,94 L-33,93 L-36,91 L-44,89 L-61,84 L-75,84 L-80,86 L-84,85 L-74,79 L-58,79 L-61,78 L-72,78 L-81,82 L-82,79 L-82,71 L-77,61 L-72,56 L-68,57 L-61,62 L-55,64 L-47,64 L-43,63 L-44,69 L-55,67 L-42,72 L-34,76 L-43,71 L-42,63 L-38,56 L-38,46 L-40,40 L-49,38 L-52,32 L-51,25 L-47,21 L-41,22 L-40,25 L-34,23 L-31,17 L-18,15 L-9,11 L-4,6 Z " fill="#73ADE9" transform="translate(218,140)"/>
<path d="M0,0 L9,0 L15,2 L23,2 L31,0 L38,0 L45,3 L50,8 L52,12 L60,15 L63,19 L65,27 L64,41 L63,49 L66,54 L65,63 L59,68 L54,68 L55,83 L56,97 L57,98 L59,96 L64,102 L64,110 L59,119 L50,129 L44,134 L41,134 L38,128 L36,129 L30,129 L31,122 L30,123 L29,123 L27,117 L27,119 L24,122 L19,133 L17,133 L13,124 L11,117 L11,109 L14,104 L18,101 L20,106 L20,97 L32,95 L35,93 L30,95 L18,95 L12,92 L5,84 L1,71 L-1,61 L-2,61 L-4,51 L-7,41 L-7,30 L-11,25 L-12,23 L-12,17 L-9,14 L-7,14 L-7,7 L-2,1 Z " fill="#AFD4F3" transform="translate(348,73)"/>
<path d="M0,0 L14,0 L25,4 L28,7 L38,10 L45,16 L49,24 L50,27 L50,42 L49,46 L49,60 L52,73 L51,82 L47,89 L42,93 L37,94 L38,102 L48,107 L58,115 L69,112 L70,111 L71,104 L73,100 L71,90 L71,75 L74,67 L76,60 L78,57 L78,48 L82,45 L91,43 L92,41 L94,41 L95,43 L101,43 L101,44 L81,48 L81,61 L78,61 L78,63 L80,65 L77,66 L77,72 L75,71 L73,76 L73,88 L75,96 L75,104 L73,105 L72,113 L94,114 L97,117 L97,122 L105,118 L106,109 L108,113 L106,120 L101,123 L97,124 L92,137 L93,140 L93,155 L92,155 L92,141 L90,141 L87,155 L82,154 L74,150 L68,146 L63,145 L66,151 L75,159 L79,162 L74,161 L60,154 L56,154 L56,159 L54,159 L56,166 L57,169 L55,169 L58,176 L67,182 L69,183 L80,183 L84,182 L81,185 L78,186 L70,186 L66,184 L65,187 L63,185 L61,192 L60,192 L61,184 L62,181 L43,181 L39,178 L40,170 L50,142 L50,135 L46,133 L53,134 L57,123 L56,116 L44,107 L36,104 L36,106 L34,106 L34,93 L30,89 L27,98 L24,105 L19,110 L18,106 L17,97 L18,93 L8,92 L-1,86 L-1,83 L7,89 L10,90 L24,90 L32,85 L37,77 L40,66 L42,53 L42,44 L39,43 L36,38 L31,30 L29,27 L23,36 L14,41 L8,43 L-2,43 L-3,48 L-6,51 L-11,51 L-14,48 L-20,49 L-22,53 L-21,61 L-18,64 L-11,65 L-8,72 L-8,82 L-12,89 L-14,97 L-8,99 L-4,103 L-9,101 L-20,96 L-29,93 L-25,92 L-15,95 L-14,89 L-18,91 L-26,91 L-35,87 L-40,83 L-44,84 L-49,90 L-52,97 L-52,105 L-51,107 L-43,103 L-32,103 L-22,106 L-25,107 L-29,106 L-45,106 L-56,113 L-66,123 L-76,138 L-77,136 L-68,122 L-62,115 L-54,109 L-54,96 L-50,87 L-44,81 L-42,81 L-46,73 L-47,68 L-47,61 L-44,53 L-37,44 L-32,39 L-28,28 L-23,16 L-16,8 L-9,3 Z " fill="#518AC6" transform="translate(189,114)"/>
<path d="M0,0 L7,0 L9,3 L10,9 L15,12 L13,15 L11,15 L12,17 L16,14 L19,24 L22,47 L20,47 L21,49 L10,52 L7,56 L4,55 L4,53 L-29,59 L-33,58 L-29,52 L-33,57 L-35,57 L-38,42 L-36,54 L-35,60 L-16,57 L-10,57 L-12,61 L-16,65 L-18,69 L-26,71 L-17,69 L-13,66 L-11,66 L-11,78 L-17,82 L-20,82 L-22,76 L-23,75 L-47,74 L-45,73 L-45,65 L-42,64 L-45,48 L-45,36 L-42,29 L-41,26 L-40,24 L-40,21 L-37,19 L-37,8 L-32,6 Z " fill="#E2F2FB" transform="translate(306,154)"/>
<path d="M0,0 L2,1 L7,11 L10,14 L10,17 L14,18 L14,27 L11,45 L7,55 L2,61 L-5,65 L-19,65 L-27,61 L-30,59 L-21,65 L-11,67 L-11,76 L-10,82 L-16,89 L-20,88 L-27,81 L-37,74 L-43,71 L-42,63 L-38,56 L-38,46 L-40,40 L-49,38 L-52,32 L-51,25 L-47,21 L-41,22 L-40,25 L-34,23 L-31,17 L-18,15 L-9,11 L-4,6 Z " fill="#B0D5F1" transform="translate(218,140)"/>
<path d="M0,0 L4,2 L9,9 L11,15 L11,30 L10,34 L10,48 L13,61 L12,70 L8,77 L3,81 L-2,82 L-1,90 L9,95 L19,103 L30,100 L31,99 L32,92 L34,88 L32,78 L32,63 L35,55 L37,48 L39,45 L39,36 L43,33 L52,31 L53,29 L55,29 L56,31 L62,31 L62,32 L42,36 L42,49 L39,49 L39,51 L41,53 L38,54 L38,60 L36,59 L34,64 L34,76 L36,84 L36,92 L34,93 L33,101 L55,102 L58,105 L58,110 L66,106 L67,97 L69,101 L67,108 L62,111 L58,112 L53,125 L54,128 L54,143 L53,143 L53,129 L51,129 L48,143 L43,142 L35,138 L29,134 L24,133 L27,139 L36,147 L40,150 L35,149 L21,142 L17,142 L17,147 L15,147 L17,154 L18,157 L16,157 L19,164 L28,170 L30,171 L41,171 L45,170 L42,173 L39,174 L31,174 L27,172 L26,175 L24,173 L22,180 L21,180 L22,172 L23,169 L4,169 L0,166 L1,158 L11,130 L11,123 L7,121 L14,122 L18,111 L17,104 L5,95 L-3,92 L-3,94 L-5,94 L-5,81 L-9,77 L-12,86 L-15,93 L-20,98 L-21,94 L-22,85 L-21,81 L-31,80 L-40,74 L-40,71 L-32,77 L-29,78 L-15,78 L-7,73 L-2,65 L1,54 L2,47 L5,46 L7,47 L7,36 L9,26 L9,16 L3,4 Z " fill="#497AAE" transform="translate(228,126)"/>
<path d="M0,0 L1,3 L-4,14 L-8,24 L-12,41 L-12,56 L-10,63 L-6,72 L1,80 L5,82 L5,84 L11,84 L13,85 L27,85 L36,82 L45,80 L45,78 L53,73 L55,73 L55,71 L57,71 L57,69 L63,64 L71,52 L78,53 L78,51 L85,45 L86,43 L81,41 L84,39 L94,35 L99,28 L103,29 L100,30 L100,32 L106,32 L109,31 L109,33 L107,34 L99,34 L97,33 L95,37 L89,40 L86,47 L82,51 L83,58 L79,66 L69,82 L65,87 L63,87 L63,89 L60,92 L55,97 L46,104 L42,108 L44,116 L49,116 L52,119 L68,123 L93,127 L93,128 L68,128 L39,125 L20,121 L17,121 L13,118 L13,116 L11,116 L9,110 L10,98 L5,97 L-1,94 L-6,89 L-11,82 L-14,73 L-15,65 L-15,44 L-10,22 L-1,1 Z " fill="#5794DA" transform="translate(111,252)"/>
<path d="M0,0 L9,0 L15,2 L23,2 L31,0 L38,0 L45,3 L50,8 L52,12 L60,15 L63,19 L65,27 L64,41 L63,49 L66,54 L65,63 L59,68 L54,68 L54,82 L53,82 L52,77 L52,66 L53,62 L52,59 L53,57 L55,57 L57,53 L61,52 L61,55 L59,55 L60,59 L63,60 L63,53 L61,50 L54,50 L50,54 L48,51 L46,44 L41,39 L40,30 L34,31 L22,35 L1,35 L0,39 L-1,57 L-3,53 L-6,46 L-7,41 L-7,30 L-11,25 L-12,23 L-12,17 L-9,14 L-7,14 L-7,7 L-2,1 Z " fill="#518AC4" transform="translate(348,73)"/>
<path d="M0,0 L17,0 L31,3 L39,6 L41,7 L41,5 L33,3 L34,1 L42,1 L49,6 L59,20 L64,24 L63,32 L61,38 L57,40 L56,43 L52,44 L50,50 L38,49 L30,45 L26,41 L24,41 L28,45 L21,44 L17,40 L17,35 L22,31 L21,31 L15,31 L17,24 L24,20 L17,22 L15,23 L15,18 L20,13 L22,12 L16,10 L5,7 L-1,4 Z " fill="#B4D9F6" transform="translate(320,236)"/>
<path d="M0,0 L14,0 L22,2 L24,3 L25,10 L14,41 L14,47 L10,48 L10,46 L4,47 L4,44 L8,32 L10,32 L13,21 L12,15 L12,16 L12,22 L8,20 L3,16 L4,17 L10,23 L10,29 L9,31 L7,31 L6,27 L6,30 L6,35 L4,36 L-4,32 L-6,32 L-11,38 L-15,40 L-25,40 L-25,38 L-28,38 L-28,35 L-30,35 L-32,27 L-20,13 L-11,4 L-5,1 Z " fill="#B7DBF5" transform="translate(215,246)"/>
<path d="M0,0 L1,4 L-3,12 L-13,28 L-17,33 L-19,33 L-19,35 L-22,38 L-27,43 L-36,50 L-40,54 L-38,62 L-33,62 L-30,65 L-14,69 L11,73 L11,74 L-14,74 L-43,71 L-62,67 L-65,67 L-69,64 L-69,62 L-71,62 L-73,56 L-72,43 L-54,43 L-39,38 L-31,33 L-28,34 L-23,29 L-12,18 L-5,8 L-2,1 Z " fill="#518FD9" transform="translate(193,306)"/>
<path d="M0,0 L5,4 L11,17 L12,21 L12,43 L10,43 L9,49 L1,54 L-2,55 L-9,55 L-16,53 L-16,51 L-21,49 L-21,47 L-23,47 L-27,39 L-29,25 L-27,22 L-23,24 L-15,24 L-7,21 L-2,15 L0,10 Z " fill="#7CB2EA" transform="translate(285,283)"/>
<path d="M0,0 L2,0 L2,27 L-2,37 L-8,42 L-10,43 L-21,43 L-31,37 L-35,32 L-34,27 L-36,24 L-36,18 L-34,18 L-35,13 L-30,12 L-14,20 L-21,14 L-27,7 L-27,4 L-20,5 L-11,11 L-3,14 L-2,5 Z " fill="#B5D9F6" transform="translate(279,255)"/>
<path d="M0,0 L1,0 L1,12 L-1,37 L-2,79 L-4,79 L-5,50 L-12,56 L-20,59 L-24,59 L-24,72 L-27,81 L-28,83 L-30,83 L-32,87 L-40,93 L-61,93 L-67,90 L-67,95 L-69,92 L-74,72 L-75,66 L-75,54 L-74,54 L-71,74 L-69,86 L-62,88 L-62,90 L-43,89 L-43,86 L-40,83 L-30,78 L-28,72 L-26,72 L-27,50 L-32,37 L-33,33 L-30,36 L-28,40 L-19,38 L-16,34 L-14,34 L-14,32 L-12,32 L-11,27 L-7,21 L-3,10 L-1,5 Z " fill="#5690CE" transform="translate(323,254)"/>
<path d="M0,0 L5,5 L5,16 L4,18 L6,18 L6,16 L11,17 L20,22 L27,28 L28,35 L23,47 L13,44 L-4,43 L-6,34 L-5,29 L1,22 L-6,29 L-12,26 L-13,28 L-14,25 L-10,20 L-6,16 L-3,5 Z " fill="#A1CEF3" transform="translate(219,202)"/>
<path d="M0,0 L32,0 L31,7 L26,20 L23,22 L21,27 L18,25 L15,26 L14,28 L8,28 L3,25 L-2,25 L-2,33 L-8,33 L-11,41 L-12,48 L-15,49 L-15,41 L-8,21 L-1,2 Z " fill="#5D96CD" transform="translate(253,233)"/>
<path d="M0,0 L1,0 L2,9 L8,15 L7,17 L4,15 L4,23 L0,31 L-6,36 L-12,38 L-20,38 L-24,36 L-25,41 L-22,54 L-20,60 L-18,60 L-18,62 L-13,64 L-13,66 L0,68 L-2,71 L-2,74 L-19,75 L-21,74 L-21,72 L-26,71 L-28,70 L-32,53 L-34,36 L-32,36 L-31,29 L-29,27 L-28,29 L-25,28 L-23,29 L-15,29 L-10,27 L-4,18 L-1,10 Z " fill="#609CDD" transform="translate(282,270)"/>
<path d="M0,0 L0,3 L-6,9 L-6,11 L5,18 L10,20 L15,20 L16,25 L14,25 L15,27 L4,30 L1,34 L-2,33 L-2,31 L-35,37 L-39,36 L-35,31 L-32,24 L-25,15 L-25,13 L-37,7 L-34,6 L-18,14 L-13,14 L-2,2 Z " fill="#B5D6EF" transform="translate(312,176)"/>
<path d="M0,0 L3,0 L5,8 L0,9 L0,26 L3,41 L22,38 L28,38 L26,42 L22,46 L20,50 L12,52 L21,50 L25,47 L27,47 L27,59 L21,63 L18,63 L16,57 L15,56 L-9,55 L-7,54 L-7,46 L-4,45 L-7,29 L-7,17 L-4,10 L-3,7 L-2,5 L-2,2 Z " fill="#BCDCF6" transform="translate(268,173)"/>
<path d="M0,0 L1,2 L-7,23 L-13,41 L-13,48 L-11,48 L-11,41 L-8,33 L-5,32 L-1,33 L-2,27 L1,24 L6,25 L9,27 L15,28 L17,24 L19,24 L20,22 L21,26 L23,22 L26,20 L31,7 L32,11 L29,20 L30,21 L30,36 L29,36 L29,22 L27,22 L24,36 L19,35 L11,31 L5,27 L0,26 L3,32 L12,40 L16,43 L11,42 L-3,35 L-7,35 L-7,40 L-9,40 L-7,47 L-6,50 L-8,50 L-5,57 L4,63 L6,64 L17,64 L21,63 L18,66 L15,67 L7,67 L3,65 L2,68 L0,66 L-2,73 L-3,73 L-2,65 L-1,62 L-20,62 L-24,59 L-23,51 L-17,35 L-16,38 L-22,55 L-21,56 L-8,19 L-1,1 Z " fill="#3468A1" transform="translate(252,233)"/>
<path d="M0,0 L0,3 L-1,7 L-4,9 L-5,16 L-9,20 L-10,21 L-12,22 L-11,35 L-5,44 L-2,46 L3,47 L5,49 L12,49 L16,47 L19,47 L19,42 L21,36 L20,29 L18,28 L18,30 L15,31 L14,28 L7,26 L8,13 L10,9 L12,10 L10,14 L11,22 L14,25 L21,26 L24,33 L24,43 L20,50 L18,58 L24,60 L28,64 L23,62 L12,57 L3,54 L7,53 L17,56 L18,50 L14,52 L6,52 L-3,48 L-8,44 L-12,45 L-17,51 L-20,58 L-20,66 L-19,68 L-11,64 L0,64 L10,67 L7,68 L3,67 L-13,67 L-24,74 L-34,84 L-44,99 L-45,97 L-36,83 L-30,76 L-22,70 L-22,57 L-18,48 L-12,42 L-10,42 L-14,34 L-15,29 L-15,22 L-12,14 L-5,5 Z " fill="#1E4E87" transform="translate(157,153)"/>
<path d="M0,0 L6,2 L11,10 L19,13 L22,17 L24,25 L23,39 L22,47 L25,52 L24,61 L18,66 L13,66 L13,80 L12,80 L11,75 L11,64 L12,60 L11,57 L12,55 L14,55 L16,51 L20,50 L20,53 L18,53 L19,57 L22,58 L22,51 L20,48 L13,48 L9,52 L7,49 L5,42 L1,38 L2,35 L2,37 L9,38 L11,42 L9,44 L9,46 L19,45 L19,39 L21,33 L19,26 L19,21 L16,24 L14,18 L6,18 L4,9 L1,2 Z " fill="#3F71A4" transform="translate(389,75)"/>
<path d="M0,0 L0,3 L-6,9 L-5,22 L12,22 L15,24 L-5,24 L-17,27 L-21,29 L-24,29 L-23,33 L-29,38 L-29,22 L-27,13 L-21,13 L-20,9 L-16,5 L-9,6 L-6,6 Z " fill="#89BAE6" transform="translate(220,223)"/>
<path d="M0,0 L3,1 L3,3 L5,4 L5,8 L8,9 L6,15 L-1,24 L-9,32 L-14,33 L-18,23 L-18,19 L-21,18 L-19,14 L-7,7 Z " fill="#DFEFF9" transform="translate(403,174)"/>
<path d="M0,0 L2,1 L1,3 L4,5 L4,9 L6,9 L8,6 L9,9 L11,7 L11,19 L15,20 L15,23 L18,22 L18,24 L11,25 L12,29 L14,31 L23,32 L23,35 L18,36 L15,39 L15,41 L17,43 L11,42 L4,35 L0,25 L-2,14 L-2,1 Z " fill="#BCDDF6" transform="translate(350,124)"/>
<path d="M0,0 L1,2 L-1,7 L-1,10 L-4,13 L-5,17 L-3,18 L-3,20 L1,19 L0,23 L12,32 L24,40 L41,48 L56,52 L68,53 L74,53 L74,50 L80,47 L84,45 L85,42 L88,42 L90,38 L92,35 L93,33 L95,33 L97,25 L98,25 L97,33 L92,43 L88,48 L78,54 L74,54 L74,60 L72,57 L72,55 L55,55 L41,51 L25,43 L12,35 L7,33 L7,30 L5,30 L4,33 L1,32 L1,27 L-12,15 L-13,10 L-16,7 L-11,9 L-7,10 Z " fill="#2A65AD" transform="translate(388,286)"/>
<path d="M0,0 L7,3 L9,4 L9,11 L5,25 L-1,36 L-4,39 L-8,38 L-15,33 L-14,29 L-12,31 L-6,22 L-1,8 Z " fill="#D7EDF9" transform="translate(385,258)"/>
<path d="M0,0 L1,2 L8,3 L11,6 L11,8 L13,8 L13,10 L25,12 L27,22 L21,29 L17,28 L10,21 L0,14 L-2,10 L-4,9 L-1,5 Z M3,4 L5,6 L5,4 Z " fill="#ACD4F5" transform="translate(181,200)"/>
<path d="M0,0 L4,1 L25,1 L23,10 L14,35 L14,41 L10,42 L10,40 L4,41 L4,38 L8,26 L10,26 L13,15 L12,9 L6,5 L0,2 Z " fill="#B1D6F5" transform="translate(215,252)"/>
<path d="M0,0 L6,3 L4,6 L2,6 L3,8 L7,5 L10,15 L12,28 L12,33 L7,34 L2,32 L-10,24 L-8,20 L-3,15 L0,10 Z " fill="#C4E3FA" transform="translate(315,163)"/>
<path d="M0,0 L16,0 L28,3 L35,6 L37,9 L48,11 L48,15 L52,14 L50,7 L45,1 L49,3 L55,9 L59,8 L63,5 L61,9 L56,14 L55,17 L49,17 L48,26 L48,41 L52,37 L52,33 L54,33 L55,31 L55,33 L61,29 L63,30 L53,39 L44,49 L44,46 L45,45 L46,23 L47,15 L41,14 L38,12 L30,10 L13,5 L-1,5 L-6,7 L-10,6 Z " fill="#5893D2" transform="translate(144,219)"/>
<path d="M0,0 L6,1 L6,3 L12,5 L19,9 L17,13 L10,23 L4,31 L2,31 L-2,12 L-2,2 Z " fill="#C7E4F9" transform="translate(269,180)"/>
<path d="M0,0 L2,2 L3,11 L12,8 L16,5 L18,6 L15,10 L7,13 L3,13 L3,26 L0,35 L-1,37 L-3,37 L-5,41 L-13,47 L-34,47 L-40,44 L-40,49 L-42,46 L-47,26 L-48,20 L-48,8 L-47,8 L-44,28 L-42,40 L-35,42 L-35,44 L-16,43 L-16,40 L-13,37 L-3,32 L-1,26 L1,26 Z " fill="#5B90C7" transform="translate(296,300)"/>
<path d="M0,0 L2,3 L2,13 L0,18 L-2,18 L0,33 L1,37 L1,47 L-2,46 L-2,35 L-4,34 L-5,24 L-8,23 L-14,25 L-37,28 L-51,29 L-91,29 L-112,28 L-120,25 L-120,24 L-112,24 L-99,26 L-81,27 L-58,27 L-29,24 L-11,21 L-5,17 L-3,12 L0,11 Z " fill="#275E9E" transform="translate(462,347)"/>
<path d="M0,0 L2,0 L3,2 L9,2 L9,3 L-11,7 L-11,20 L-14,20 L-14,22 L-12,24 L-15,25 L-15,31 L-17,30 L-19,35 L-19,47 L-17,55 L-17,63 L-19,64 L-20,72 L2,73 L5,76 L5,81 L13,77 L14,68 L16,72 L14,79 L9,82 L5,83 L3,85 L4,78 L-28,78 L-27,76 L-32,77 L-32,74 L-23,71 L-22,70 L-21,63 L-19,59 L-21,49 L-21,34 L-18,26 L-16,19 L-14,16 L-14,7 L-10,4 L-1,2 Z " fill="#56738D" transform="translate(281,155)"/>
<path d="M0,0 L7,0 L9,3 L9,14 L6,14 L5,14 L3,7 L-8,7 L-9,9 L-22,10 L-32,12 L-32,19 L-33,23 L-35,23 L-37,15 L-37,8 L-32,6 Z " fill="#EAF7FC" transform="translate(306,154)"/>
<path d="M0,0 L6,0 L9,5 L21,11 L21,12 L16,12 L17,14 L21,16 L19,21 L20,25 L13,24 L4,18 L1,14 L2,9 L0,6 Z " fill="#9CC7F1" transform="translate(243,273)"/>
<path d="M0,0 L1,0 L4,23 L4,29 L-2,28 L-13,23 L-37,15 L-37,26 L-38,35 L-43,40 L-41,31 L-38,16 L-41,15 L-41,14 L-33,14 L-9,22 L-7,16 L-4,11 L-2,5 L-1,5 Z " fill="#5890CC" transform="translate(432,246)"/>
<path d="M0,0 L1,4 L-3,12 L-13,28 L-17,33 L-19,33 L-19,35 L-22,38 L-27,43 L-31,46 L-36,44 L-37,41 L-35,37 L-26,33 L-19,25 L-12,18 L-5,8 L-2,1 Z " fill="#5897DC" transform="translate(193,306)"/>
<path d="M0,0 L2,4 L8,13 L10,18 L7,21 L2,32 L0,32 L-4,23 L-6,16 L-6,8 L-3,3 Z " fill="#DFF0F9" transform="translate(365,174)"/>
<path d="M0,0 L3,1 L2,2 L2,12 L6,16 L9,20 L8,25 L5,28 L-2,27 L-8,15 L-8,6 Z " fill="#82B6EB" transform="translate(181,270)"/>
<path d="M0,0 L5,2 L9,5 L10,4 L42,4 L42,5 L13,6 L9,12 L-10,66 L-12,62 L-6,45 L-3,33 L-2,27 L-2,23 L-6,21 L1,22 L5,11 L4,4 Z " fill="#50789D" transform="translate(241,226)"/>
<path d="M0,0 L7,0 L8,5 L4,6 L3,8 L1,7 L-6,8 L-5,11 L-20,14 L-24,12 L-24,5 L-21,3 L-15,3 L-12,3 L-8,2 L-7,6 L-5,6 L-4,1 Z " fill="#BBDDF8" transform="translate(299,164)"/>
<path d="M0,0 L5,5 L5,16 L3,21 L-5,28 L-8,28 L-12,26 L-13,28 L-14,25 L-10,20 L-6,16 L-3,5 Z " fill="#90C2EE" transform="translate(219,202)"/>
<path d="M0,0 L14,0 L25,4 L28,7 L38,10 L39,12 L28,10 L22,5 L17,3 L6,4 L-7,7 L-11,9 L-13,13 L-15,13 L-17,17 L-19,17 L-20,21 L-24,23 L-29,38 L-31,39 L-28,28 L-23,16 L-16,8 L-9,3 Z " fill="#39699E" transform="translate(189,114)"/>
<path d="M0,0 L2,1 L2,14 L-2,20 L-7,24 L-9,25 L-21,25 L-27,20 L-27,17 L-23,18 L-15,18 L-7,14 L-3,9 Z " fill="#89BCEB" transform="translate(282,281)"/>
<path d="M0,0 L7,6 L12,10 L15,24 L15,28 L4,28 L3,17 L-1,3 Z " fill="#356AA9" transform="translate(370,404)"/>
<path d="M0,0 L1,3 L-4,14 L-8,24 L-12,41 L-12,64 L-11,64 L-9,75 L-7,81 L-5,86 L2,92 L5,92 L6,96 L-1,94 L-6,89 L-11,82 L-14,73 L-15,65 L-15,44 L-10,22 L-1,1 Z " fill="#326195" transform="translate(111,252)"/>
<path d="M0,0 L6,2 L16,8 L17,6 L27,15 L28,21 L23,22 L23,18 L16,18 L13,16 L8,11 L-1,5 Z " fill="#7DB6ED" transform="translate(169,212)"/>
<path d="M0,0 L2,1 L0,5 L1,13 L4,16 L11,17 L14,24 L14,34 L10,41 L8,49 L14,51 L18,55 L13,53 L2,48 L-7,45 L-3,44 L7,47 L8,41 L4,43 L-4,43 L-13,39 L-15,37 L-12,37 L-7,38 L-5,40 L2,40 L6,38 L9,38 L9,33 L11,27 L10,20 L8,19 L8,21 L5,22 L4,19 L-3,17 L-2,4 Z " fill="#2C609B" transform="translate(167,162)"/>
<path d="M0,0 L6,2 L3,3 L0,17 L-6,29 L-10,34 L-12,33 L-11,37 L-15,36 L-15,32 L-23,32 L-32,27 L-44,25 L-47,21 L-48,13 L-43,12 L-45,15 L-44,22 L-40,24 L-36,24 L-40,20 L-36,21 L-28,27 L-25,28 L-14,29 L-11,24 L-7,23 L-6,19 L-2,18 L0,8 L1,4 L-3,2 Z " fill="#7BABD1" transform="translate(383,256)"/>
<path d="M0,0 L6,4 L7,9 L15,14 L25,16 L24,21 L17,21 L12,19 L12,17 L10,17 L10,15 L4,13 L0,11 L-1,16 L-4,16 L-3,18 L-1,19 L-1,22 L-7,20 L-6,12 L-2,5 Z M2,13 L4,13 L3,15 Z " fill="#9DC8F2" transform="translate(182,191)"/>
<path d="M0,0 L4,0 L2,5 L-3,9 L-12,13 L-15,14 L-25,14 L-26,19 L-29,22 L-34,22 L-37,19 L-43,19 L-41,16 L-32,15 L-28,9 L-15,8 L-7,6 L-7,8 L-2,6 Z M-7,5 Z " fill="#396FAB" transform="translate(212,143)"/>
<path d="M0,0 L1,0 L5,19 L9,27 L14,32 L19,34 L31,34 L40,31 L37,34 L28,37 L21,37 L22,46 L23,50 L20,47 L18,42 L14,46 L13,49 L13,57 L15,67 L12,63 L11,59 L11,48 L-7,55 L-18,61 L-18,59 L-6,52 L12,45 L18,39 L18,36 L12,33 L4,24 L0,8 Z " fill="#496A85" transform="translate(347,133)"/>
<path d="M0,0 L7,0 L9,3 L9,11 L4,13 L-8,15 L-9,12 L-1,10 L1,10 L4,9 L4,4 L-7,6 L-8,10 L-10,10 L-11,7 L-15,8 L-18,8 L-24,8 L-28,10 L-28,6 L-18,3 L-5,2 Z " fill="#CEE6F9" transform="translate(302,160)"/>
<path d="M0,0 L3,1 L-2,5 L-3,13 L-3,15 L-7,16 L-7,23 L-3,28 L8,32 L20,33 L20,34 L3,34 L2,38 L1,56 L-1,52 L-4,45 L-5,40 L-5,29 L-9,24 L-10,22 L-10,16 L-7,13 L-5,13 L-5,6 Z " fill="#2F5A87" transform="translate(346,74)"/>
<path d="M0,0 L14,0 L22,2 L24,3 L24,7 L21,8 L4,8 L-6,6 L-5,1 Z " fill="#C1E0F4" transform="translate(215,246)"/>
<path d="M0,0 L2,2 L4,6 L7,9 L17,12 L23,14 L22,17 L17,16 L6,16 L-3,20 L-4,17 L-4,9 Z " fill="#5D9BDC" transform="translate(140,202)"/>
<path d="M0,0 L2,0 L2,12 L-4,16 L-7,16 L-9,10 L-10,9 L-31,8 L-31,4 L-21,5 L-10,5 L-1,1 Z " fill="#D3E8F4" transform="translate(293,220)"/>
<path d="M0,0 L0,3 L-3,12 L-6,25 L-15,25 L-13,10 L-3,3 Z " fill="#3B70AD" transform="translate(213,407)"/>
<path d="M0,0 L4,2 L9,9 L11,15 L11,30 L10,34 L10,48 L11,56 L9,53 L8,48 L5,54 L6,57 L7,59 L6,66 L3,66 L2,70 L-1,70 L1,61 L2,51 L3,47 L5,46 L7,47 L7,36 L9,26 L9,16 L3,4 Z " fill="#446C99" transform="translate(228,126)"/>
<path d="M0,0 L16,4 L40,7 L51,8 L91,8 L91,9 L84,10 L45,10 L28,9 L19,9 L18,7 L8,5 L2,4 L-1,10 L-3,10 L-2,3 Z " fill="#195192" transform="translate(128,371)"/>
<path d="M0,0 L9,6 L12,7 L27,8 L31,7 L28,19 L24,25 L20,27 L19,14 L20,10 L10,9 L1,3 Z " fill="#7AAFE3" transform="translate(187,197)"/>
<path d="M0,0 L2,4 L4,14 L4,19 L9,14 L11,13 L9,17 L7,20 L21,18 L37,15 L43,15 L40,17 L32,19 L29,24 L29,30 L31,31 L28,31 L28,28 L22,32 L16,34 L5,34 L5,33 L21,30 L23,26 L25,26 L27,22 L29,19 L11,22 L4,22 L0,7 Z " fill="#7A9BB9" transform="translate(267,192)"/>
<path d="M0,0 L1,2 L3,2 L6,5 L3,15 L2,24 L-2,25 L-2,23 L-8,24 L-8,21 L-4,9 L-2,9 Z " fill="#A6D0F4" transform="translate(227,269)"/>
<path d="M0,0 L2,0 L1,6 L-2,7 L-4,6 L-5,9 L-17,12 L-21,16 L-23,16 L-23,18 L-25,18 L-27,22 L-27,13 L-16,6 Z " fill="#BFE2F9" transform="translate(356,181)"/>
<path d="M0,0 L4,3 L11,3 L11,5 L16,6 L23,9 L35,10 L33,15 L21,14 L13,10 L9,6 L7,6 L11,10 L4,9 L0,5 Z M3,1 L5,2 Z " fill="#8ABAE9" transform="translate(337,271)"/>
<path d="M0,0 L4,2 L10,8 L14,7 L18,4 L16,8 L11,13 L10,16 L4,16 L3,25 L3,40 L7,36 L7,32 L9,32 L10,30 L10,32 L16,28 L18,29 L8,38 L-1,48 L-1,45 L0,44 L1,22 L2,14 L-4,13 L-5,11 L0,12 L2,13 L3,10 L3,14 L7,13 L5,6 Z " fill="#2B5B8E" transform="translate(189,220)"/>
<path d="M0,0 L4,1 L5,10 L6,13 L9,14 L8,16 L5,15 L1,10 L1,6 L-7,7 L-14,9 L-29,9 L-37,7 L-36,5 L-15,5 Z " fill="#93C0ED" transform="translate(385,102)"/>
<path d="M0,0 L5,1 L6,9 L3,17 L-3,17 L-7,14 L-6,7 L-4,7 L-2,2 Z " fill="#96C6F0" transform="translate(264,244)"/>
<path d="M0,0 L16,4 L26,3 L35,3 L31,6 L24,7 L11,7 L11,5 L5,6 L5,4 L-1,8 L-3,11 L-4,17 L-8,18 L-8,25 L-10,24 L-10,17 L-5,16 L-6,9 L-3,4 L0,1 Z " fill="#77AAD8" transform="translate(348,73)"/>
<path d="M0,0 L4,4 L3,10 L0,19 L-2,19 L-4,29 L-9,34 L-18,32 L-19,29 L-17,26 L-5,26 L-5,17 L-6,14 L-4,14 L-3,18 L-1,18 L-1,10 L-8,4 L-10,4 L-11,1 L-5,3 L2,9 Z " fill="#6E9CC7" transform="translate(225,259)"/>
<path d="M0,0 L7,1 L14,7 L19,18 L19,28 L17,38 L16,49 L14,47 L14,33 L16,28 L16,18 L13,19 L13,17 L15,17 L14,12 L11,12 L8,9 L8,5 L5,5 L5,3 L1,2 Z " fill="#7FADDC" transform="translate(219,124)"/>
<path d="M0,0 L6,1 L7,4 L13,3 L14,5 L6,7 L6,14 L3,11 L1,16 L0,18 L-4,14 L-5,6 L-2,1 Z " fill="#8EBCEC" transform="translate(171,161)"/>
<path d="M0,0 L8,0 L12,3 L28,10 L29,12 L25,12 L24,11 L21,13 L16,13 L16,10 L3,7 L-2,8 Z M24,12 Z " fill="#79B2E9" transform="translate(416,178)"/>
<path d="M0,0 L6,2 L11,5 L8,8 L2,8 L1,4 L-4,11 L-14,15 L-18,14 L-21,10 L-20,7 L-17,8 L-9,8 L-3,4 Z " fill="#91C0EC" transform="translate(209,277)"/>
<path d="M0,0 L6,0 L9,5 L21,11 L18,12 L8,8 L6,12 L12,16 L16,18 L14,19 L10,18 L6,20 L1,14 L2,9 L0,6 Z " fill="#7AA6CE" transform="translate(243,273)"/>
<path d="M0,0 L4,1 L-1,3 L-2,10 L-6,12 L-10,17 L-12,17 L-12,19 L-9,20 L-13,23 L-16,25 L-18,29 L-17,32 L-19,34 L-21,28 L-13,14 L-4,1 Z " fill="#B3D7F3" transform="translate(321,205)"/>
<path d="M0,0 L17,0 L31,3 L34,5 L33,9 L28,11 L28,9 L19,8 L17,6 L18,4 L11,3 L-1,2 Z " fill="#C2E2F9" transform="translate(320,236)"/>
<path d="M0,0 L10,3 L15,5 L25,4 L27,7 L18,7 L8,9 L-6,10 L-4,4 Z " fill="#8BA2B0" transform="translate(288,148)"/>
<path d="M0,0 L2,1 L-2,9 L-7,13 L-13,16 L-20,16 L-21,18 L-21,9 L-9,7 L-3,4 Z " fill="#89BAE9" transform="translate(389,161)"/>
<path d="M0,0 L1,2 L-1,7 L-1,10 L-4,13 L-5,17 L-3,18 L-3,20 L1,19 L0,23 L6,28 L4,33 L1,32 L1,27 L-12,15 L-13,10 L-16,7 L-11,9 L-7,10 Z " fill="#4B86C9" transform="translate(388,286)"/>
<path d="M0,0 L2,4 L0,11 L-5,14 L-9,15 L-11,17 L-10,10 L-42,10 L-41,8 L-43,6 L-12,5 L-9,8 L-9,13 L-1,9 Z " fill="#527AA3" transform="translate(295,223)"/>
<path d="M0,0 L4,1 L3,3 L1,3 L2,7 L5,8 L1,16 L-4,16 L-4,30 L-5,30 L-6,25 L-6,14 L-5,10 L-6,7 L-5,5 L-3,5 L-1,1 Z " fill="#7CA7CE" transform="translate(406,125)"/>
<path d="M0,0 L1,0 L2,9 L8,15 L7,17 L4,15 L4,23 L0,31 L-6,36 L-12,38 L-20,38 L-26,34 L-26,31 L-21,35 L-9,35 L-3,31 L1,25 L1,12 L-3,21 L-7,26 L-9,25 L-5,20 L-1,10 Z " fill="#396B9F" transform="translate(282,270)"/>
<path d="M0,0 L2,0 L2,6 L-3,11 L-11,11 L-15,7 L-14,3 L-5,2 Z " fill="#4978A3" transform="translate(375,145)"/>
<path d="M0,0 L5,4 L7,5 L5,9 L1,13 L-1,13 L-1,15 L-3,15 L-5,17 L-5,14 L-8,13 L-11,9 L-11,7 L-8,7 L-7,5 L-7,7 L-3,6 Z " fill="#69A0DB" transform="translate(190,290)"/>
<path d="M0,0 L1,4 L-2,13 L-1,14 L-1,29 L-2,29 L-2,15 L-4,15 L-4,17 L-6,17 L-9,27 L-16,25 L-20,21 L-16,21 L-14,17 L-12,17 L-11,15 L-10,19 L-8,15 L-5,13 Z " fill="#4E85BD" transform="translate(283,240)"/>
<path d="M0,0 L1,0 L1,14 L-2,29 L-6,37 L-9,39 L-10,35 L-7,35 L-8,31 L-6,31 L-6,27 L-4,26 L-2,19 L-7,19 L-4,15 L-6,10 L-4,7 L-1,6 Z M-3,13 L-3,15 L-1,15 L-1,13 Z " fill="#C4E4F9" transform="translate(230,159)"/>
<path d="M0,0 L1,0 L0,8 L-5,18 L-9,23 L-19,29 L-21,29 L-21,27 L-23,27 L-23,25 L-17,22 L-13,20 L-12,17 L-9,17 L-7,13 L-5,10 L-4,8 L-2,8 Z " fill="#508CC8" transform="translate(485,311)"/>
<path d="M0,0 L2,0 L5,8 L5,19 L3,20 L1,24 L-1,26 L-3,27 L-4,21 L-3,18 L0,18 L-1,14 L0,10 L-2,9 L-1,4 Z " fill="#689DD6" transform="translate(234,174)"/>
<path d="M0,0 L17,0 L21,3 L19,4 L23,6 L29,7 L29,9 L22,9 L6,5 L0,2 Z " fill="#B0D5F1" transform="translate(319,238)"/>
<path d="M0,0 L4,0 L4,3 L8,5 L-15,5 L-42,3 L-42,2 L-25,2 Z " fill="#4E89CD" transform="translate(396,370)"/>
<path d="M0,0 L10,5 L13,6 L21,6 L25,5 L24,11 L13,9 L19,11 L18,13 L12,12 L2,8 L0,5 Z " fill="#5C97D9" transform="translate(150,198)"/>
<path d="M0,0 L1,2 L8,3 L10,7 L8,9 L8,11 L18,10 L20,8 L22,13 L24,17 L23,26 L19,30 L17,29 L20,24 L22,24 L20,14 L19,13 L12,13 L8,17 L6,14 L4,7 L0,3 Z " fill="#31659C" transform="translate(390,110)"/>
<path d="M0,0 L4,1 L-7,6 L-17,9 L-25,11 L-29,11 L-28,5 L-12,3 Z " fill="#3C75B4" transform="translate(244,373)"/>
<path d="M0,0 L5,1 L3,2 L3,10 L-3,10 L-6,18 L-7,25 L-10,26 L-10,18 L-5,4 L-1,2 Z " fill="#4D85C0" transform="translate(248,256)"/>
<path d="M0,0 L1,4 L-3,12 L-13,28 L-15,29 L-15,27 L-17,27 L-16,22 L-8,13 L-2,1 Z " fill="#659FDD" transform="translate(193,306)"/>
<path d="M0,0 L3,3 L4,6 L7,2 L6,7 L4,15 L-3,15 L-5,19 L-9,18 L-7,18 L-5,12 L-1,4 L1,4 Z " fill="#446381" transform="translate(374,188)"/>
<path d="M0,0 L1,0 L4,20 L6,32 L13,34 L13,36 L18,37 L34,37 L32,39 L14,39 L8,36 L8,41 L6,38 L1,18 L0,12 Z " fill="#2B5F97" transform="translate(248,308)"/>
<path d="M0,0 L2,1 L0,3 L1,10 L5,12 L9,12 L5,8 L9,9 L17,15 L20,16 L31,17 L33,19 L34,25 L30,24 L30,20 L22,20 L13,15 L1,13 L-2,9 L-3,1 Z " fill="#2D5F92" transform="translate(338,268)"/>
<path d="M0,0 L1,0 L2,10 L6,12 L12,19 L20,22 L16,23 L14,22 L13,28 L11,28 L6,37 L3,39 L5,35 L9,27 L9,19 L4,15 L2,16 L0,7 Z " fill="#4F7390" transform="translate(402,156)"/>
<path d="M0,0 L2,1 L2,4 L0,4 L-2,9 L-8,15 L-11,15 L-11,17 L-17,19 L-31,19 L-31,17 L-18,15 L-9,11 L-4,6 Z " fill="#9DC6F0" transform="translate(218,140)"/>
<path d="M0,0 L8,6 L10,10 L8,16 L5,16 L1,12 L1,10 L-1,10 L-1,3 Z " fill="#5B99DD" transform="translate(378,303)"/>
<path d="M0,0 L4,1 L1,2 L1,4 L7,4 L10,3 L10,5 L8,6 L0,6 L-2,5 L-4,9 L-10,12 L-13,19 L-17,23 L-21,34 L-24,37 L-22,31 L-19,22 L-13,15 L-18,13 L-15,11 L-5,7 Z " fill="#2C6097" transform="translate(210,280)"/>
<path d="M0,0 L1,2 L4,3 L2,7 L6,8 L6,16 L4,17 L-2,17 L-1,10 L-2,11 L-3,11 L-4,5 L-2,5 L-2,1 Z " fill="#C5DFEF" transform="translate(380,185)"/>
<path d="M0,0 L2,0 L1,5 L-13,45 L-15,41 L-3,8 Z " fill="#78A7D9" transform="translate(244,247)"/>
<path d="M0,0 L4,1 L4,6 L0,7 L-3,6 L-4,8 L-9,8 L-12,9 L-13,8 L-13,3 L-10,1 L-4,1 L-1,1 Z " fill="#AFD5F1" transform="translate(288,166)"/>
<path d="M0,0 L6,1 L13,5 L11,9 L13,14 L7,12 L2,7 L-1,4 Z " fill="#ABD1F4" transform="translate(245,267)"/>
<path d="M0,0 L10,6 L20,8 L19,13 L12,13 L7,11 L7,9 L5,9 L5,7 L1,5 Z " fill="#8FBEED" transform="translate(187,199)"/>
<path d="M0,0 L8,0 L21,2 L64,4 L64,5 L29,5 L8,4 L0,1 Z " fill="#1E5899" transform="translate(342,371)"/>
<path d="M0,0 L2,0 L3,2 L9,2 L9,3 L-11,7 L-11,20 L-14,20 L-14,22 L-12,24 L-15,25 L-15,31 L-19,30 L-17,20 L-14,16 L-14,7 L-10,4 L-1,2 Z " fill="#7B97AA" transform="translate(281,155)"/>
<path d="M0,0 L5,4 L6,9 L9,9 L10,11 L14,13 L14,16 L17,17 L13,21 L11,15 L3,15 L1,6 L-1,1 Z " fill="#437CBA" transform="translate(392,78)"/>
<path d="M0,0 L7,1 L5,3 L-1,5 L-5,6 L-5,8 L-10,9 L-11,12 L-17,12 L-22,16 L-24,15 L-18,10 L-4,2 Z M-8,6 Z " fill="#83B6EE" transform="translate(164,276)"/>
<path d="M0,0 L8,0 L29,7 L33,10 L28,9 L4,1 L4,12 L3,21 L-2,26 L0,17 L3,2 L0,1 Z " fill="#28598D" transform="translate(391,260)"/>
<path d="M0,0 L2,1 L1,9 L4,12 L-1,16 L-2,14 L-8,13 L-9,9 L-7,5 L-4,6 L-3,2 Z M0,10 Z " fill="#99C4F1" transform="translate(180,166)"/>
<path d="M0,0 L0,3 L-1,7 L-4,9 L-5,16 L-9,20 L-10,21 L-12,22 L-12,32 L-13,32 L-13,20 L-9,10 L-5,5 Z " fill="#356CAB" transform="translate(157,153)"/>
<path d="M0,0 L10,1 L26,1 L25,8 L21,5 L0,4 Z " fill="#E3F4FB" transform="translate(262,224)"/>
<path d="M0,0 L5,1 L9,5 L10,11 L5,12 L5,8 L0,7 L-2,6 L-1,1 Z " fill="#88BDF0" transform="translate(187,222)"/>
<path d="M0,0 L4,5 L8,7 L6,11 L2,12 L-6,6 L-5,2 L-3,4 Z " fill="#B5D8F3" transform="translate(376,285)"/>
<path d="M0,0 L16,0 L13,2 L13,4 L-1,5 L-6,7 L-10,6 Z " fill="#5F9CDD" transform="translate(144,219)"/>
<path d="M0,0 L1,4 L0,14 L-2,16 L-4,29 L-6,29 L-5,17 L-3,2 Z " fill="#35659B" transform="translate(119,403)"/>
<path d="M0,0 L9,6 L21,9 L21,21 L23,20 L24,11 L26,12 L25,21 L21,27 L20,23 L19,14 L20,10 L10,9 L1,3 Z " fill="#3D6A9A" transform="translate(187,197)"/>
<path d="M0,0 L4,1 L13,1 L14,6 L18,8 L6,8 L0,3 Z " fill="#6CA3DF" transform="translate(255,298)"/>
<path d="M0,0 L4,2 L6,3 L5,11 L3,17 L0,18 L0,15 L-2,14 L0,7 Z " fill="#ACD1F0" transform="translate(378,257)"/>
<path d="M0,0 L2,0 L4,7 L9,10 L12,22 L14,34 L14,39 L12,36 L9,20 L7,14 L3,17 L3,14 L6,11 L1,8 Z " fill="#6A8AA4" transform="translate(314,155)"/>
<path d="M0,0 L2,1 L5,19 L8,29 L8,31 L5,30 L1,17 L0,11 Z " fill="#CAE6FA" transform="translate(348,127)"/>
<path d="M0,0 L0,3 L-3,6 L-1,8 L-10,14 L-15,14 L-17,11 L-17,8 L-24,8 L-20,6 L-17,5 L-15,9 L-15,12 L-9,9 Z " fill="#4C79A6" transform="translate(404,195)"/>
<path d="M0,0 L2,4 L4,5 L3,8 L4,15 L7,15 L6,23 L5,23 L5,18 L2,17 L-1,10 L-1,1 Z " fill="#608FBD" transform="translate(316,347)"/>
<path d="M0,0 L2,3 L2,13 L0,18 L-2,18 L-2,25 L-3,25 L-3,19 L-6,21 L-10,20 L-5,17 L-3,12 L0,11 Z " fill="#487DBE" transform="translate(462,347)"/>
<path d="M0,0 L26,0 L22,4 L7,4 L-1,2 Z " fill="#A0C8EF" transform="translate(349,107)"/>
<path d="M0,0 L2,0 L1,6 L-2,7 L-4,6 L-5,9 L-12,11 L-16,10 L-11,7 L-6,5 L-6,2 Z " fill="#9DC9EF" transform="translate(356,181)"/>
<path d="M0,0 L1,2 L4,3 L6,9 L10,10 L12,13 L11,17 L7,15 L0,7 Z " fill="#81B5E7" transform="translate(283,272)"/>
<path d="M0,0 L3,1 L0,9 L-6,10 L-6,13 L-8,13 L-8,6 Z " fill="#88BBEC" transform="translate(181,270)"/>
<path d="M0,0 L4,2 L10,8 L14,7 L18,4 L16,8 L11,13 L10,16 L4,16 L3,18 L4,14 L7,13 L5,6 Z " fill="#5F8DBC" transform="translate(189,220)"/>
<path d="M0,0 L3,1 L3,3 L1,3 L1,5 L4,6 L0,9 L-3,11 L-5,15 L-4,18 L-6,20 L-8,14 Z " fill="#ACD3F5" transform="translate(308,219)"/>
<path d="M0,0 L8,0 L10,2 L10,6 L3,7 L0,6 L-2,2 Z " fill="#99C6EF" transform="translate(192,175)"/>
<path d="M0,0 L7,0 L8,5 L4,6 L3,8 L1,7 L-4,7 L-4,5 L-2,5 L-3,3 L-5,2 Z " fill="#B0D4F3" transform="translate(299,164)"/>
<path d="M0,0 L7,0 L10,4 L10,12 L6,10 L5,6 L7,4 L3,5 L0,6 L0,4 L-2,4 Z " fill="#8ABAE8" transform="translate(402,122)"/>
<path d="M0,0 L16,4 L19,6 L13,7 L2,3 L0,14 L-1,21 L-2,21 L-2,5 L0,5 Z " fill="#2F639B" transform="translate(322,365)"/>
<path d="M0,0 L1,2 L0,4 L2,4 L2,6 L0,6 L-1,10 L-5,12 L-10,27 L-12,28 L-9,17 L-4,5 Z " fill="#28598F" transform="translate(170,125)"/>
<path d="M0,0 L5,2 L3,3 L1,9 L-3,13 L-5,16 L-7,14 L-6,9 L-1,3 Z " fill="#6EA8E2" transform="translate(199,293)"/>
<path d="M0,0 L12,5 L13,7 L9,7 L8,6 L5,8 L0,8 L0,5 L-10,3 L-10,2 L0,3 Z M8,7 Z " fill="#82B7EC" transform="translate(432,183)"/>
<path d="M0,0 L5,5 L6,6 L6,14 L1,13 L0,8 L-2,3 Z " fill="#C5E1F5" transform="translate(406,169)"/>
<path d="M0,0 L6,2 L9,5 L-8,8 L-5,3 Z " fill="#C2E3F8" transform="translate(290,150)"/>
<path d="M0,0 L5,2 L9,4 L20,4 L24,3 L21,6 L18,7 L10,7 L6,5 L5,8 L3,6 L1,13 L0,13 L1,5 L2,2 L-2,1 Z " fill="#326096" transform="translate(249,293)"/>
<path d="M0,0 L3,1 L-2,5 L-3,13 L-3,15 L-7,16 L-7,23 L-3,28 L-4,31 L-10,22 L-10,16 L-7,13 L-5,13 L-5,6 Z " fill="#4C7598" transform="translate(346,74)"/>
<path d="M0,0 L0,3 L-2,7 L-1,13 L1,13 L1,16 L3,17 L4,22 L0,18 L-4,14 L-4,4 L-6,4 L-11,6 L-6,1 Z " fill="#3A6793" transform="translate(186,268)"/>
<path d="M0,0 L2,2 L4,12 L1,13 L-1,12 L-4,13 L-8,10 L-1,6 Z " fill="#8EBCEC" transform="translate(296,227)"/>
<path d="M0,0 L2,0 L5,8 L5,19 L3,18 L2,11 L-2,9 L-1,4 Z " fill="#76A7D9" transform="translate(234,174)"/>
<path d="M0,0 L4,1 L-7,6 L-14,7 L-16,6 L-23,6 L-23,5 Z " fill="#2D65A1" transform="translate(244,373)"/>
<path d="M0,0 L1,4 L3,5 L2,9 L2,12 L1,14 L0,21 L-2,22 L-2,8 Z " fill="#6AA4E3" transform="translate(100,285)"/>
<path d="M0,0 L4,1 L11,6 L15,8 L13,9 L9,8 L5,10 L0,4 Z " fill="#5C87B4" transform="translate(244,283)"/>
<path d="M0,0 L5,1 L16,8 L21,10 L22,5 L24,0 L25,3 L23,12 L18,11 L10,7 L4,3 L-1,2 L-2,5 L-2,1 Z " fill="#38648E" transform="translate(253,257)"/>
<path d="M0,0 L4,2 L18,11 L30,17 L31,19 L25,17 L9,8 L1,4 Z " fill="#245EA4" transform="translate(394,315)"/>
<path d="M0,0 L2,0 L4,3 L13,6 L9,9 L2,10 Z " fill="#5994D4" transform="translate(297,301)"/>
<path d="M0,0 L1,0 L1,15 L-3,22 L-2,35 L-4,32 L-6,23 L-8,22 L-3,17 L-1,13 Z " fill="#3B6B98" transform="translate(256,350)"/>
<path d="M0,0 L2,2 L-4,9 L-11,8 L-13,7 L-13,5 L-8,3 L-8,5 L-3,4 L-2,1 Z " fill="#CDE9F9" transform="translate(303,182)"/>
<path d="M0,0 L1,2 L-4,18 L-9,19 L-5,9 L-2,1 Z " fill="#467AB9" transform="translate(167,135)"/>
<path d="M0,0 L1,0 L2,9 L8,15 L7,17 L4,14 L2,15 L1,12 L-3,21 L-7,26 L-9,25 L-5,20 L-1,10 Z " fill="#38638C" transform="translate(282,270)"/>
<path d="M0,0 L4,1 L2,1 L3,9 L13,14 L18,19 L13,17 L6,13 L1,11 L1,13 L-1,13 Z " fill="#486A8A" transform="translate(224,207)"/>
<path d="M0,0 L5,0 L1,2 L-3,3 L-11,15 L-16,23 L-17,21 L-14,14 L-9,6 L-4,1 Z " fill="#799BB5" transform="translate(320,204)"/>
<path d="M0,0 L2,1 L-3,5 L-10,6 L-13,7 L-31,7 L-32,10 L-33,5 L-15,5 Z M-6,5 L-4,6 Z " fill="#235BA0" transform="translate(154,344)"/>
<path d="M0,0 L2,2 L3,11 L12,8 L16,5 L18,6 L15,10 L7,13 L3,13 L3,21 L2,21 Z " fill="#40709D" transform="translate(296,300)"/>
<path d="M0,0 L1,0 L2,13 L3,13 L5,24 L7,30 L5,30 L1,22 L0,22 L-1,12 Z " fill="#4F84BE" transform="translate(97,303)"/>
<path d="M0,0 L5,2 L14,6 L20,11 L18,13 L16,9 L10,8 L0,3 Z " fill="#68A2DF" transform="translate(163,216)"/>
<path d="M0,0 L2,4 L4,9 L4,14 L-2,13 L-3,11 L-1,5 Z " fill="#C2E0F4" transform="translate(268,210)"/>
<path d="M0,0 L9,0 L10,5 L8,5 L9,7 L1,9 L2,4 Z " fill="#A1C9EB" transform="translate(318,196)"/>
<path d="M0,0 L0,3 L-8,11 L-17,16 L-19,15 L-14,12 L-13,8 L-9,6 L-9,8 L-1,1 Z " fill="#6589AB" transform="translate(403,172)"/>
<path d="M0,0 L6,1 L9,3 L10,6 L12,8 L10,8 L9,10 L7,6 L5,6 L4,9 L1,10 L1,3 L-1,1 Z " fill="#BDE0FA" transform="translate(369,122)"/>
<path d="M0,0 L2,4 L3,15 L7,20 L6,23 L3,20 L3,18 L1,18 L-1,12 Z " fill="#5F93C4" transform="translate(121,350)"/>
<path d="M0,0 L2,2 L4,12 L1,15 L-2,16 Z " fill="#6EA3DD" transform="translate(154,265)"/>
<path d="M0,0 L4,5 L6,11 L0,16 Z " fill="#89BBE7" transform="translate(191,245)"/>
<path d="M0,0 L3,0 L3,7 L0,7 L1,9 L3,10 L3,13 L-3,11 L-2,3 Z " fill="#94C1F1" transform="translate(178,200)"/>
<path d="M0,0 L7,2 L3,3 L1,2 L0,8 L-2,8 L-7,17 L-10,19 L-8,15 L-4,7 L-3,1 Z " fill="#507BA6" transform="translate(415,176)"/>
<path d="M0,0 L6,2 L11,5 L8,8 L2,8 L2,4 L-1,3 Z " fill="#98C6EE" transform="translate(209,277)"/>
<path d="M0,0 L20,2 L16,4 L-1,4 L-2,1 Z " fill="#255DA1" transform="translate(148,376)"/>
<path d="M0,0 L2,0 L1,5 L-5,22 L-7,23 L-6,16 Z " fill="#88B6E5" transform="translate(244,247)"/>
<path d="M0,0 L3,0 L4,2 L5,1 L5,0 L16,0 L13,4 L8,5 L0,4 Z " fill="#CAE6FA" transform="translate(209,248)"/>
<path d="M0,0 L11,0 L15,4 L10,2 L2,2 L9,5 L9,7 L-1,4 L-8,2 L-8,1 Z " fill="#436A8F" transform="translate(352,236)"/>
<path d="M0,0 L5,1 L14,6 L19,8 L20,10 L16,10 L11,8 L2,3 L0,2 Z " fill="#679EDB" transform="translate(169,210)"/>
<path d="M0,0 L1,0 L2,10 L1,14 L-1,14 L-1,16 L-4,16 L-2,10 L-1,10 Z M-6,16 L-4,17 L-5,21 L-8,22 Z " fill="#5783B3" transform="translate(239,182)"/>
<path d="M0,0 L3,0 L5,8 L0,9 L-1,19 L-2,19 L-3,13 L-3,5 L-1,5 L-3,3 Z " fill="#98B9D3" transform="translate(268,173)"/>
<path d="M0,0 L11,0 L11,1 L4,2 L4,7 L-1,6 L-1,8 L-4,9 L-5,7 L-3,6 L-1,1 Z " fill="#A6CEF3" transform="translate(187,159)"/>
<path d="M0,0 L32,0 L32,1 L3,2 L0,6 L-2,6 L-1,1 Z " fill="#AACFF5" transform="translate(251,230)"/>
<path d="M0,0 L3,1 L2,4 L-3,9 L-6,15 L-12,20 L-14,18 L-9,13 L-2,4 Z " fill="#88BEF0" transform="translate(412,188)"/>
<path d="M0,0 L5,0 L3,2 L-3,4 L-19,5 L-18,3 Z " fill="#1E569B" transform="translate(451,368)"/>
<path d="M0,0 L5,3 L10,7 L11,12 L8,12 L5,12 L4,7 L0,2 Z " fill="#B9DCF6" transform="translate(236,223)"/>
<path d="M0,0 L13,1 L13,4 L8,5 L1,4 Z M5,2 Z " fill="#8CBFEE" transform="translate(371,203)"/>
<path d="M0,0 L1,2 L0,5 L2,6 L-1,13 L-5,12 L-4,5 L-2,5 Z " fill="#A5D3F6" transform="translate(262,246)"/>
<path d="M0,0 L1,4 L0,6 L2,8 L-5,10 L-7,11 L-7,6 L-2,1 Z " fill="#AFD8F6" transform="translate(342,248)"/>
<path d="M0,0 L5,2 L8,4 L9,12 L7,18 L5,18 L5,6 Z " fill="#779BBE" transform="translate(241,226)"/>
<path d="M0,0 L8,0 L9,8 L7,13 L5,13 L5,1 L0,1 Z " fill="#5990CD" transform="translate(203,205)"/>
<path d="M0,0 L2,0 L2,5 L-5,9 L-9,11 L-12,10 L-6,6 Z " fill="#D0E8FA" transform="translate(403,174)"/>
<path d="M0,0 L2,4 L4,22 L0,22 Z " fill="#356A9F" transform="translate(465,410)"/>
<path d="M0,0 L5,2 L9,3 L12,1 L10,5 L7,8 L13,15 L9,13 L4,8 L3,3 Z " fill="#2B5C95" transform="translate(372,293)"/>
<path d="M0,0 L5,4 L10,15 L10,18 L8,18 L4,8 L1,7 Z " fill="#A0CDF7" transform="translate(285,283)"/>
<path d="M0,0 L1,3 L-4,12 L-10,19 L-13,18 L-5,9 Z " fill="#71A2D8" transform="translate(413,183)"/>
<path d="M0,0 L2,1 L1,4 L-2,5 L-16,5 L-16,3 L-3,1 Z " fill="#8CBBE9" transform="translate(203,154)"/>
<path d="M0,0 L3,1 L2,19 L0,18 L-1,1 Z " fill="#608FC5" transform="translate(344,105)"/>
<path d="M0,0 L2,3 L1,7 L3,8 L0,14 L-3,17 L-2,4 Z M0,7 Z " fill="#2C609D" transform="translate(123,384)"/>
<path d="M0,0 L6,0 L6,2 L11,3 L27,3 L25,5 L7,5 L0,2 Z " fill="#4A78A7" transform="translate(255,342)"/>
<path d="M0,0 L3,1 L5,5 L7,5 L8,8 L4,9 L4,7 L-2,8 L-2,5 Z " fill="#95C5F2" transform="translate(221,285)"/>
<path d="M0,0 L4,1 L4,4 L9,9 L7,12 L2,7 L-1,4 Z " fill="#A0C8F0" transform="translate(245,267)"/>
<path d="M0,0 L6,2 L3,3 L0,17 L-3,21 L-1,12 L1,4 L-3,2 Z " fill="#476C8A" transform="translate(383,256)"/>
<path d="M0,0 L3,1 L3,2 L9,4 L9,7 L-2,4 L-5,3 L-5,1 Z " fill="#3973B2" transform="translate(341,370)"/>
<path d="M0,0 L9,0 L11,2 L12,8 L8,7 L8,3 L0,3 Z " fill="#467AB0" transform="translate(360,285)"/>
<path d="M0,0 L5,0 L7,3 L7,9 L3,7 L-2,2 L0,2 Z " fill="#B4D7F3" transform="translate(220,259)"/>
<path d="M0,0 L10,0 L9,3 L6,4 L2,4 L-2,10 L-3,7 Z " fill="#6498CF" transform="translate(253,233)"/>
<path d="M0,0 L2,0 L1,6 L-9,4 L-13,2 L-10,1 L-2,1 Z " fill="#4D83C5" transform="translate(173,203)"/>
<path d="M0,0 L1,0 L2,6 L0,21 L-2,19 L-2,5 Z " fill="#79A8D8" transform="translate(235,152)"/>
<path d="M0,0 L6,2 L11,10 L16,12 L16,14 L10,15 L12,14 L12,12 L9,12 L6,6 L0,1 Z " fill="#3E6B9B" transform="translate(389,75)"/>
<path d="M0,0 L4,0 L4,4 L-7,4 L-7,2 L-12,2 L-12,1 Z " fill="#5693DE" transform="translate(396,370)"/>
<path d="M0,0 L7,6 L16,12 L13,13 L1,7 L4,6 L0,2 Z " fill="#325D8E" transform="translate(252,263)"/>
<path d="M0,0 L1,4 L-2,13 L-1,14 L-1,29 L-2,29 L-2,15 L-4,15 L-5,17 L-4,10 Z " fill="#285687" transform="translate(283,240)"/>
<path d="M0,0 L0,3 L-6,9 L-6,19 L-7,19 L-8,11 L-13,12 L-13,10 L-10,8 L-9,6 L-6,6 Z " fill="#4574A2" transform="translate(220,223)"/>
<path d="M0,0 L1,0 L2,7 L8,9 L8,10 L-2,9 L-2,13 L-5,12 L-3,12 L-3,4 L0,3 Z " fill="#A3BBCE" transform="translate(264,215)"/>
<path d="M0,0 L1,0 L4,16 L3,20 L3,18 L1,18 L-1,10 L-1,3 Z " fill="#B7D7F5" transform="translate(266,192)"/>
<path d="M0,0 L4,4 L6,6 L7,8 L6,10 L2,8 L-2,5 L-1,1 Z " fill="#84B5E4" transform="translate(466,209)"/>
<path d="M0,0 L1,0 L0,8 L-5,18 L-8,18 L-6,15 L-4,8 L-2,8 Z " fill="#3C70A9" transform="translate(485,311)"/>
<path d="M0,0 L5,1 L7,5 L7,10 L5,7 L0,7 L-1,3 Z " fill="#5E89BA" transform="translate(170,165)"/>
<path d="M0,0 L3,3 L1,4 L4,11 L6,14 L1,14 L-1,11 L-1,5 Z " fill="#23578D" transform="translate(243,279)"/>
<path d="M0,0 L4,1 L24,1 L23,3 L8,3 L10,7 L6,5 L0,2 Z " fill="#5D809E" transform="translate(215,252)"/>
<path d="M0,0 L2,2 L1,7 L-1,11 L-6,9 L-7,7 L-3,6 L-2,3 L0,3 Z " fill="#B2D6F2" transform="translate(243,238)"/>
<path d="M0,0 L5,5 L6,7 L2,5 L-2,6 L-7,12 L-10,16 L-9,11 L-2,3 L0,3 Z " fill="#215089" transform="translate(147,192)"/>
<path d="M0,0 L2,2 L0,6 L-1,9 L-4,9 L-9,10 L-9,8 L-6,7 L-5,4 L-2,4 Z " fill="#568ECF" transform="translate(478,324)"/>
<path d="M0,0 L8,0 L6,5 L3,8 L0,3 Z " fill="#BBD2E8" transform="translate(296,223)"/>
<path d="M0,0 L2,0 L3,9 L-3,8 L-2,3 Z " fill="#B1D0F0" transform="translate(374,193)"/>
<path d="M0,0 L10,0 L12,2 L9,4 L8,3 L2,3 L-2,5 L-2,1 Z " fill="#C9E4F8" transform="translate(276,165)"/>
<path d="M0,0 L2,1 L2,9 L1,10 L3,12 L-1,11 L-2,10 L-2,1 Z " fill="#659BCD" transform="translate(342,90)"/>
<path d="M0,0 L6,1 L9,3 L10,7 L6,7 L0,2 Z " fill="#B4DBFA" transform="translate(189,218)"/>
<path d="M0,0 L0,3 L0,7 L-1,11 L-5,8 L-10,11 L-13,10 L-3,4 Z " fill="#3B6591" transform="translate(224,195)"/>
<path d="M0,0 L4,1 L3,3 L1,3 L2,7 L-3,7 L-4,9 L-3,3 Z " fill="#5889B9" transform="translate(406,125)"/>
<path d="M0,0 L2,1 L1,12 L-4,17 L-2,8 Z " fill="#537CA3" transform="translate(393,269)"/>
<path d="M0,0 L1,2 L11,1 L6,6 L0,4 L-1,2 Z " fill="#A7D0F4" transform="translate(270,212)"/>
<path d="M0,0 L2,3 L1,12 L-2,14 L-3,11 Z " fill="#5688C1" transform="translate(230,183)"/>
<path d="M0,0 L1,2 L4,3 L3,5 L0,5 L-2,11 L-3,11 L-4,5 L-2,5 L-2,1 Z " fill="#A6C5DE" transform="translate(380,185)"/>
<path d="M0,0 L1,4 L0,11 L3,12 L4,15 L-1,15 L-2,8 Z " fill="#6589AA" transform="translate(362,128)"/>
<path d="M0,0 L1,0 L2,6 L2,17 L0,13 L-3,13 L-1,7 Z " fill="#7BAFDA" transform="translate(260,411)"/>
<path d="M0,0 L2,0 L2,2 L0,2 L0,8 L-2,5 L-2,3 L-15,3 L-15,2 Z " fill="#2761A3" transform="translate(462,338)"/>
<path d="M0,0 L4,0 L3,4 L-2,7 L-2,4 Z M-4,6 L-3,8 L-5,10 L-5,7 Z " fill="#87BAED" transform="translate(284,296)"/>
<path d="M0,0 L7,1 L5,3 L-1,5 L-5,5 L-4,2 Z " fill="#91C2F3" transform="translate(164,276)"/>
<path d="M0,0 L6,0 L3,2 L-5,4 L-8,9 L-11,8 L-8,5 L-8,2 Z " fill="#6381A5" transform="translate(304,207)"/>
<path d="M0,0 L6,0 L5,6 L1,5 L-1,1 Z " fill="#A4C9ED" transform="translate(222,179)"/>
<path d="M0,0 L1,0 L3,17 L0,13 L-1,8 L-1,1 Z " fill="#4C769A" transform="translate(342,106)"/>
<path d="M0,0 L1,0 L1,9 L-2,15 L-3,11 Z " fill="#5580B0" transform="translate(120,390)"/>
<path d="M0,0 L1,0 L1,6 L-3,12 L-4,8 L-2,8 L-3,2 Z " fill="#6D95BD" transform="translate(379,274)"/>
<path d="M0,0 L3,1 L1,3 L-4,8 L-6,8 L-6,10 L-10,12 L-8,8 Z " fill="#C5E9FD" transform="translate(203,251)"/>
<path d="M0,0 L4,1 L4,6 L0,7 L-1,6 L-1,1 Z " fill="#88AECA" transform="translate(288,166)"/>
<path d="M0,0 L5,5 L5,14 L3,12 L3,6 L1,6 Z " fill="#B0D6FB" transform="translate(219,202)"/>
<path d="M0,0 L6,3 L4,6 L2,6 L2,11 L-2,13 L0,10 Z " fill="#9ABCD7" transform="translate(315,163)"/>
<path d="M0,0 L3,1 L1,8 L-1,6 L-5,7 L-3,2 Z " fill="#95C4F0" transform="translate(181,270)"/>
<path d="M0,0 L3,0 L5,8 L5,12 L3,12 Z " fill="#89B8E4" transform="translate(209,234)"/>
<path d="M0,0 L4,0 L2,4 L-5,5 L-4,2 Z " fill="#89BAEB" transform="translate(371,150)"/>
<path d="M0,0 L2,0 L2,2 L4,3 L3,13 L1,15 L1,5 L-3,3 L0,1 Z " fill="#437BB7" transform="translate(388,97)"/>
<path d="M0,0 L3,4 L3,8 L-2,9 L-1,2 Z " fill="#75A9E0" transform="translate(252,297)"/>
<path d="M0,0 L2,1 L1,3 L3,4 L2,11 L-1,12 L-1,4 Z " fill="#427AB7" transform="translate(239,270)"/>
<path d="M0,0 L4,2 L-5,7 L-4,2 Z " fill="#87B9EB" transform="translate(181,265)"/>
<path d="M0,0 L1,2 L3,3 L5,7 L7,10 L-1,8 L-1,6 L1,6 Z " fill="#4472AA" transform="translate(250,260)"/>
<path d="M0,0 L2,1 L-7,9 L-9,6 L-9,4 L-7,4 L-6,2 L-6,4 Z " fill="#608AAF" transform="translate(205,248)"/>
<path d="M0,0 L3,1 L2,6 L-3,6 L-2,1 Z " fill="#6096C7" transform="translate(265,245)"/>
<path d="M0,0 L1,3 L4,4 L1,5 L-1,9 L-5,8 L-3,8 L-1,2 Z " fill="#4C75A2" transform="translate(370,198)"/>
<path d="M0,0 L7,2 L11,5 L15,7 L7,6 L-1,2 Z " fill="#235AA0" transform="translate(153,198)"/>
<path d="M0,0 L1,4 L0,7 L-3,8 L-6,3 L-2,2 Z " fill="#669CD1" transform="translate(230,144)"/>
<path d="M0,0 L1,0 L0,9 L-4,13 L-6,12 L-3,7 L-1,7 L-1,1 Z " fill="#5980A5" transform="translate(413,127)"/>
<path d="M0,0 L5,0 L1,4 L-6,4 L-4,1 Z " fill="#9EC9F2" transform="translate(370,107)"/>
<path d="M0,0 L1,4 L0,10 L-2,10 L-3,2 Z " fill="#376CA3" transform="translate(119,403)"/>
<path d="M0,0 L1,2 L-1,7 L-1,10 L-4,13 L-6,13 L-4,6 Z " fill="#5382B4" transform="translate(388,286)"/>
<path d="M0,0 L4,1 L1,3 L-2,3 L-2,5 L-7,6 L-4,1 Z " fill="#C2E4FA" transform="translate(321,205)"/>
<path d="M0,0 L7,0 L6,4 L1,5 Z " fill="#BEE0FB" transform="translate(369,177)"/>
<path d="M0,0 L8,0 L10,2 L5,4 L-1,2 Z " fill="#B1D7F4" transform="translate(354,237)"/>
<path d="M0,0 L1,3 L-5,10 L-10,11 L-5,7 L-3,2 L0,2 Z " fill="#3A6292" transform="translate(238,196)"/>
<path d="M0,0 L2,0 L2,3 L4,3 L4,6 L9,6 L6,9 L3,9 Z " fill="#D0E4F6" transform="translate(386,198)"/>
<path d="M0,0 L2,1 L-5,7 L-7,7 L-6,2 Z " fill="#CBEBFB" transform="translate(336,191)"/>
<path d="M0,0 L2,1 L5,4 L2,5 L2,11 L-2,10 Z " fill="#6F8FAB" transform="translate(264,175)"/>
<path d="M0,0 L2,2 L9,2 L9,7 L5,6 L5,4 L0,5 L0,3 L-2,2 Z " fill="#C3E4FB" transform="translate(197,162)"/>
<path d="M0,0 L4,2 L4,5 L7,6 L3,10 L0,3 Z " fill="#3474B8" transform="translate(402,89)"/>
<path d="M0,0 L1,0 L1,15 L0,15 L0,7 L-2,7 L-1,1 Z " fill="#639ADE" transform="translate(486,289)"/>
<path d="M0,0 L8,0 L13,2 L13,4 L0,1 Z " fill="#9EC6ED" transform="translate(325,242)"/>
<path d="M0,0 L5,1 L5,3 L-4,4 L-3,1 Z " fill="#84B7EC" transform="translate(350,233)"/>
<path d="M0,0 L2,1 L-2,5 L-4,5 L-4,7 L-6,7 L-8,11 L-8,6 Z " fill="#B2D5F2" transform="translate(337,192)"/>
<path d="M0,0 L2,0 L7,6 L3,8 L0,4 Z " fill="#83B2E4" transform="translate(244,283)"/>
<path d="M0,0 L1,0 L1,7 L-1,8 L-3,7 L-2,1 Z " fill="#C7E5FC" transform="translate(279,260)"/>
<path d="M0,0 L5,0 L5,5 L2,6 L0,3 Z " fill="#B4DAF3" transform="translate(252,259)"/>
<path d="M0,0 L2,1 L3,3 L0,7 L-2,8 L-3,4 Z " fill="#6099CD" transform="translate(233,193)"/>
<path d="M0,0 L1,3 L0,5 L2,6 L-1,6 L-2,13 L-3,13 L-3,5 Z " fill="#D0E5F4" transform="translate(362,177)"/>
<path d="M0,0 L2,3 L4,14 L1,11 L-1,3 Z " fill="#506D89" transform="translate(366,169)"/>
<path d="M0,0 L0,3 L-1,7 L-4,9 L-7,9 L-5,5 Z " fill="#1E4B7F" transform="translate(157,153)"/>
<path d="M0,0 L4,0 L2,5 L-3,9 L-5,8 L-2,6 Z " fill="#3B6CA2" transform="translate(212,143)"/>
<path d="M0,0 L0,3 L-2,9 L-6,7 L-4,7 L-3,3 Z " fill="#3268A4" transform="translate(213,407)"/>
<path d="M0,0 L1,0 L2,10 L0,10 L0,18 L-1,18 L-1,8 Z " fill="#7FABD8" transform="translate(318,393)"/>
<path d="M0,0 L5,1 L5,4 L7,5 L8,10 L4,6 L0,2 Z " fill="#5E8BB9" transform="translate(182,280)"/>
<path d="M0,0 L2,4 L1,7 L4,6 L3,10 L0,12 Z " fill="#97C4F3" transform="translate(191,249)"/>
<path d="M0,0 L5,2 L1,6 L-2,7 Z M1,1 Z " fill="#87B8EC" transform="translate(283,244)"/>
<path d="M0,0 L2,2 L-2,7 L-7,9 L-1,1 Z " fill="#70A4DE" transform="translate(126,233)"/>
<path d="M0,0 L1,0 L1,7 L0,12 L-2,11 L-1,4 L-4,3 Z " fill="#D9F0F9" transform="translate(293,220)"/>
<path d="M0,0 L1,4 L-3,9 L-5,8 L-3,3 L-1,3 Z " fill="#A5D1F7" transform="translate(221,217)"/>
<path d="M0,0 L5,3 L2,6 L2,4 L-1,4 L-1,6 L-3,6 L-1,1 Z " fill="#D0ECFC" transform="translate(303,187)"/>
<path d="M0,0 L3,1 L3,5 L1,5 L0,8 L-2,3 Z " fill="#C2E1F5" transform="translate(226,166)"/>
<path d="M0,0 L3,0 L2,6 L-3,7 Z " fill="#3970B0" transform="translate(161,147)"/>
<path d="M0,0 L1,2 L-3,3 L-3,10 L-5,9 L-5,2 Z " fill="#80B1DA" transform="translate(343,88)"/>
<path d="M0,0 L8,0 L11,2 L3,3 L-2,2 Z " fill="#326EB7" transform="translate(440,338)"/>
<path d="M0,0 L1,3 L-6,7 L-9,6 L-5,5 L-4,2 Z " fill="#3D72A7" transform="translate(475,331)"/>
<path d="M0,0 L7,0 L7,2 L10,2 L9,5 L0,1 Z " fill="#96C2EC" transform="translate(341,274)"/>
<path d="M0,0 L1,3 L-1,12 L-5,11 L-3,10 L-2,5 Z " fill="#3E6C94" transform="translate(277,257)"/>
<path d="M0,0 L5,0 L3,4 L-1,6 Z " fill="#7FB1E1" transform="translate(334,247)"/>
<path d="M0,0 L2,4 L2,8 L0,10 L-2,4 Z " fill="#98C5F0" transform="translate(302,229)"/>
<path d="M0,0 L7,3 L5,4 L7,5 L7,7 L4,7 L4,5 L0,5 Z M7,2 Z " fill="#89BEF2" transform="translate(385,208)"/>
<path d="M0,0 L8,0 L7,6 L5,8 L5,1 L0,1 Z " fill="#6899CC" transform="translate(203,205)"/>
<path d="M0,0 L2,0 L2,3 L-5,5 L-6,2 Z " fill="#ABD3F7" transform="translate(356,181)"/>
<path d="M0,0 L4,1 L3,6 L-1,4 L-1,2 L-3,1 Z " fill="#85B6EA" transform="translate(385,102)"/>
<path d="M0,0 L6,0 L11,5 L2,4 L2,2 Z " fill="#5F95CE" transform="translate(379,75)"/>
<path d="M0,0 L5,1 L4,9 L3,9 L3,4 L0,3 Z " fill="#5B8BBF" transform="translate(318,361)"/>
<path d="M0,0 L5,1 L1,5 L-4,6 L-2,5 L-2,3 L0,1 Z " fill="#649FC6" transform="translate(284,341)"/>
<path d="M0,0 L1,0 L1,6 L-1,3 L-5,7 L-7,6 L-3,1 Z " fill="#7DA6CA" transform="translate(319,301)"/>
<path d="M0,0 L3,2 L5,1 L6,4 L4,7 L0,4 Z " fill="#9FC9E8" transform="translate(370,287)"/>
<path d="M0,0 L1,4 L3,5 L1,5 L0,10 L-2,12 L-1,3 Z " fill="#659BD5" transform="translate(100,285)"/>
<path d="M0,0 L3,1 L-2,8 L-4,8 L-2,4 Z " fill="#8AB9E6" transform="translate(207,280)"/>
<path d="M0,0 L2,0 L2,11 L1,11 L0,6 L-2,5 Z " fill="#A6CAE9" transform="translate(279,255)"/>
<path d="M0,0 L5,0 L5,2 L7,3 L3,5 L0,2 Z " fill="#ACD2F0" transform="translate(223,255)"/>
<path d="M0,0 L4,1 L3,7 L-1,5 Z " fill="#8DBEF0" transform="translate(314,234)"/>
<path d="M0,0 L3,1 L0,5 L-3,4 L-3,2 L-5,1 Z " fill="#A3C4DC" transform="translate(313,205)"/>
<path d="M0,0 L2,2 L-1,5 L-8,4 L-8,3 L-2,1 Z " fill="#2D62A9" transform="translate(172,200)"/>
<path d="M0,0 L2,2 L-1,8 L-2,5 L-4,4 Z " fill="#E9F4F9" transform="translate(390,193)"/>
<path d="M0,0 L2,2 L3,5 L8,6 L8,7 L1,7 L0,9 Z " fill="#9AC4EA" transform="translate(368,170)"/>
<path d="M0,0 L4,5 L8,11 L4,9 L0,4 Z " fill="#94C0E9" transform="translate(220,144)"/>
<path d="M0,0 L2,0 L2,6 L1,3 L-8,4 L-5,2 Z " fill="#34618D" transform="translate(375,145)"/>
<path d="M0,0 L5,1 L3,3 L-3,5 L-2,1 Z " fill="#89B8E4" transform="translate(348,75)"/>
<path d="M0,0 L4,5 L6,7 L5,10 L2,7 L2,5 L0,5 Z " fill="#4574AB" transform="translate(122,363)"/>
<path d="M0,0 L3,2 L4,6 L2,8 L0,5 Z M3,1 L5,2 Z " fill="#93C0EB" transform="translate(337,271)"/>
<path d="M0,0 L5,1 L11,3 L11,4 L3,4 L3,2 L0,1 Z " fill="#74A4CF" transform="translate(386,256)"/>
<path d="M0,0 L2,1 L1,6 L-1,8 L-3,7 L-1,2 Z " fill="#699FD8" transform="translate(115,247)"/>
<path d="M0,0 L2,0 L0,5 L-3,10 L-4,8 L-1,1 Z " fill="#67839E" transform="translate(307,217)"/>
<path d="M0,0 L3,4 L3,8 L0,9 L-1,5 Z " fill="#869EBC" transform="translate(383,193)"/>
<path d="M0,0 L2,0 L2,2 L6,4 L8,7 L4,8 L2,4 Z " fill="#8EBBE7" transform="translate(454,196)"/>
<path d="M0,0 L1,0 L1,10 L-3,8 L-2,4 Z " fill="#3C71AB" transform="translate(180,186)"/>
<path d="M0,0 L1,4 L-1,5 L-3,8 L-5,2 L-2,1 Z " fill="#396DAF" transform="translate(150,184)"/>
<path d="M0,0 L4,1 L4,6 L0,6 Z " fill="#739FC6" transform="translate(280,168)"/>
<path d="M0,0 L5,1 L7,4 L4,5 L2,4 L2,2 L-1,3 Z " fill="#669ACF" transform="translate(209,119)"/>
<path d="M0,0 L3,1 L1,7 L-1,7 Z M3,0 Z " fill="#35679C" transform="translate(126,374)"/>
<path d="M0,0 L3,1 L2,6 L-3,3 Z " fill="#91C0EC" transform="translate(251,282)"/>
<path d="M0,0 L2,3 L8,4 L5,6 L-1,6 Z " fill="#A5CCF3" transform="translate(336,261)"/>
<path d="M0,0 L7,2 L8,4 L4,4 L-1,2 Z " fill="#5A8EC9" transform="translate(181,216)"/>
<path d="M0,0 L2,0 L0,4 L-2,8 L-4,8 L-2,2 Z " fill="#C8E7FD" transform="translate(313,212)"/>
<path d="M0,0 L3,1 L4,4 L-3,5 Z " fill="#ABD3F6" transform="translate(276,208)"/>
<path d="M0,0 L9,1 L9,4 L-3,2 Z " fill="#6897C8" transform="translate(378,202)"/>
<path d="M0,0 L7,1 L8,3 L1,4 Z " fill="#8CC2F5" transform="translate(432,187)"/>
<path d="M0,0 L2,3 L2,7 L-2,8 L-1,2 Z " fill="#B4D4EC" transform="translate(323,175)"/>
<path d="M0,0 L3,0 L2,6 L-3,4 Z " fill="#A9CEEE" transform="translate(268,173)"/>
<path d="M0,0 L4,5 L2,5 L1,7 L-2,5 Z " fill="#BADBF5" transform="translate(406,169)"/>
<path d="M0,0 L4,1 L4,6 L0,6 L0,4 L2,4 L1,2 L-1,1 Z " fill="#7EA0BC" transform="translate(295,165)"/>
<path d="M0,0 L4,0 L5,5 L3,5 L3,3 L1,3 L0,5 L-1,1 Z " fill="#779FC1" transform="translate(302,164)"/>
<path d="M0,0 L2,1 L0,5 L-5,7 L-3,3 Z " fill="#95B5C6" transform="translate(288,148)"/>
<path d="M0,0 L2,1 L2,4 L0,4 L-1,7 L-4,6 Z " fill="#94BDE8" transform="translate(218,140)"/>
<path d="M0,0 L3,4 L3,6 L6,7 L5,9 L2,8 L0,5 Z " fill="#8DBCED" transform="translate(388,109)"/>
<path d="M0,0 L10,0 L8,3 L4,3 L4,1 Z " fill="#8CB8E4" transform="translate(356,108)"/>
<path d="M0,0 L2,2 L2,13 L1,13 L0,6 L-1,4 Z " fill="#2A5D94" transform="translate(463,395)"/>
<path d="M0,0 L4,1 L3,5 L-2,6 Z " fill="#517DB7" transform="translate(123,382)"/>
<path d="M0,0 L3,1 L2,5 L-2,4 L-2,1 Z " fill="#9EC8F3" transform="translate(253,290)"/>
<path d="M0,0 L0,3 L-2,6 L-6,5 L-4,4 L-5,2 Z " fill="#78ACDC" transform="translate(188,263)"/>
<path d="M0,0 Z M-1,1 L1,5 L0,8 L-4,2 Z " fill="#83B6E8" transform="translate(374,240)"/>
<path d="M0,0 L7,0 L6,3 L3,4 L0,2 Z " fill="#6B9FD7" transform="translate(256,233)"/>
<path d="M0,0 L3,1 L-1,7 L-3,5 Z " fill="#C9E3F5" transform="translate(406,188)"/>
<path d="M0,0 L11,2 L11,3 L2,4 Z " fill="#CCE2F2" transform="translate(275,174)"/>
<path d="M0,0 L2,1 L-2,9 L-4,5 Z " fill="#74A0C8" transform="translate(389,161)"/>
<path d="M0,0 L4,0 L5,4 L1,6 Z M0,6 Z " fill="#3B79BA" transform="translate(156,156)"/>
<path d="M0,0 L7,1 L8,4 L1,2 Z " fill="#89B4E4" transform="translate(219,124)"/>
<path d="M0,0 L2,0 L0,7 L-3,5 L-1,1 Z " fill="#548FCF" transform="translate(483,312)"/>
<path d="M0,0 L9,5 L6,6 L0,3 Z " fill="#375D80" transform="translate(259,270)"/>
<path d="M0,0 L5,1 L4,5 L1,6 L1,3 L-1,2 Z " fill="#A1C9EE" transform="translate(377,269)"/>
<path d="M0,0 L5,1 L5,5 L1,3 Z " fill="#B5DAF8" transform="translate(247,268)"/>
<path d="M0,0 L2,1 L-8,5 L-9,2 Z " fill="#6891B9" transform="translate(344,265)"/>
<path d="M0,0 L4,2 L-1,7 L-2,5 Z " fill="#6AA3DF" transform="translate(106,266)"/>
<path d="M0,0 L8,1 L3,5 L1,4 L3,1 Z " fill="#38648B" transform="translate(336,246)"/>
<path d="M0,0 L3,1 L2,5 L-1,5 Z " fill="#21538E" transform="translate(256,235)"/>
<path d="M0,0 L2,1 L-2,7 L-3,7 L-3,1 Z " fill="#C0DDF3" transform="translate(302,224)"/>
<path d="M0,0 L2,1 L2,7 L0,7 L0,4 L-2,4 L-1,1 Z " fill="#CCE5FB" transform="translate(270,217)"/>
<path d="M0,0 L2,0 L1,4 L-2,8 L-2,4 Z " fill="#89A2B6" transform="translate(311,210)"/>
<path d="M0,0 L2,0 L3,6 L-1,5 L-1,2 Z " fill="#B9D9F2" transform="translate(374,196)"/>
<path d="M0,0 L5,0 L6,5 L0,2 Z " fill="#ADD6F7" transform="translate(322,196)"/>
<path d="M0,0 L5,2 L4,6 L1,5 L1,3 L-1,1 Z " fill="#D0E9FA" transform="translate(406,181)"/>
<path d="M0,0 L2,0 L2,6 L-1,6 L-1,1 Z " fill="#38587D" transform="translate(223,170)"/>
<path d="M0,0 L3,1 L2,5 L-2,4 Z " fill="#BFDFF9" transform="translate(378,162)"/>
<path d="M0,0 L2,0 L4,7 L6,9 L1,8 Z " fill="#677B91" transform="translate(314,155)"/>
<path d="M0,0 L3,3 L0,5 L-3,5 L-1,1 Z " fill="#4C83BC" transform="translate(208,146)"/>
<path d="M0,0 L4,1 L3,5 L0,4 Z " fill="#375A7C" transform="translate(353,129)"/>
<path d="M0,0 L3,1 L3,5 L-1,4 Z " fill="#3E6383" transform="translate(374,127)"/>
<path d="M0,0 L3,4 L4,7 L2,8 L0,5 L-2,4 Z " fill="#A2CCF5" transform="translate(387,111)"/>
<path d="M0,0 L7,0 L3,3 L-3,3 L0,2 Z " fill="#70A3D6" transform="translate(376,76)"/>
</svg>
