<?xml version="1.0" encoding="UTF-8"?>
<svg version="1.1" xmlns="http://www.w3.org/2000/svg" width="351" height="264">
<path d="M0,0 L270,1 L275,5 L276,7 L276,191 L271,196 L262,197 L91,197 L91,223 L73,226 L61,227 L46,227 L32,226 L13,222 L13,212 L14,209 L5,206 L-1,199 L-1,197 L-24,197 L-29,195 L-32,192 L-33,189 L-33,8 L-29,2 L-27,1 Z " fill="#FAFCFC" transform="translate(50,34)"/>
<path d="M0,0 L270,1 L275,5 L276,7 L276,191 L271,196 L262,197 L91,197 L91,223 L73,226 L61,227 L46,227 L32,226 L13,222 L13,212 L14,209 L5,206 L-1,199 L-1,197 L-24,197 L-29,195 L-32,192 L-33,189 L-33,8 L-29,2 L-27,1 Z M-30,22 L-30,191 L-27,194 L-2,194 L1,182 L3,172 L1,172 L7,160 L14,150 L23,140 L32,134 L35,132 L47,129 L47,125 L41,122 L35,115 L26,104 L24,99 L24,88 L27,82 L27,74 L32,73 L34,68 L36,64 L42,62 L53,61 L56,58 L60,57 L70,57 L73,61 L82,64 L87,70 L87,77 L84,80 L86,91 L89,96 L91,98 L90,103 L89,104 L88,115 L84,123 L81,125 L72,126 L71,131 L83,134 L90,137 L113,145 L121,145 L131,134 L139,123 L138,116 L114,115 L114,114 L136,114 L136,102 L141,104 L144,109 L148,107 L154,99 L154,81 L153,80 L114,80 L114,79 L154,79 L155,80 L156,95 L160,95 L160,102 L163,106 L206,105 L206,136 L205,137 L165,137 L164,123 L160,125 L154,132 L146,150 L137,164 L129,171 L122,173 L110,174 L108,177 L91,177 L91,194 L270,194 L274,191 L274,22 Z " fill="#4372A1" transform="translate(50,34)"/>
<path d="M0,0 L304,0 L304,169 L300,172 L121,172 L121,164 L292,163 L295,162 L295,10 L294,9 L84,9 L83,10 L83,35 L85,37 L83,39 L72,40 L66,42 L64,46 L61,52 L57,52 L57,60 L54,66 L54,77 L58,85 L66,94 L72,101 L77,103 L77,107 L65,110 L54,117 L46,125 L39,135 L32,147 L31,150 L33,150 L31,160 L28,172 L3,172 L0,169 Z " fill="#C5E0F7" transform="translate(20,56)"/>
<path d="M0,0 L243,0 L248,4 L249,6 L249,190 L244,195 L64,194 L64,193 L243,192 L246,190 L247,20 L-57,20 L-57,10 L-55,12 L-52,12 L-50,7 L-41,6 L-41,4 L-47,3 L-47,2 L0,2 Z " fill="#3C6B99" transform="translate(77,35)"/>
<path d="M0,0 L40,0 L42,2 L42,17 L46,17 L47,24 L49,27 L92,27 L93,29 L93,58 L91,60 L51,60 L50,59 L50,45 L45,50 L41,54 L33,72 L24,86 L15,94 L8,96 L-4,97 L-6,100 L-16,100 L-23,99 L-23,117 L156,117 L156,118 L148,119 L32,119 L-24,118 L-24,144 L-25,144 L-26,131 L-26,116 L-30,114 L-33,112 L-33,108 L-35,108 L-37,100 L-37,91 L-36,90 L-27,90 L-15,91 L-8,91 L-6,90 L-4,91 L-3,67 L-12,65 L-13,63 L-3,65 L-1,66 L7,66 L16,56 L24,45 L24,38 L0,38 L-2,36 L-2,4 L-1,4 L0,35 L22,36 L22,24 L27,25 L30,30 L34,28 L39,21 L39,3 L-1,3 Z " fill="#3B618A" transform="translate(164,112)"/>
<path d="M0,0 L10,0 L13,3 L13,5 L21,6 L28,14 L28,21 L26,24 L24,24 L28,38 L32,42 L31,47 L30,48 L29,59 L25,67 L21,70 L12,71 L11,75 L18,76 L20,78 L13,77 L10,76 L-15,76 L-26,79 L-37,86 L-44,94 L-48,101 L-50,101 L-52,106 L-56,113 L-57,109 L-48,95 L-37,83 L-28,77 L-25,75 L-13,73 L-13,69 L-18,68 L-26,59 L-35,48 L-37,43 L-37,32 L-34,26 L-33,18 L-29,17 L-27,12 L-22,7 L-18,5 L-7,4 L-4,1 Z " fill="#214771" transform="translate(110,90)"/>
<path d="M0,0 L50,0 L50,53 L48,55 L48,53 L46,53 L46,51 L3,52 L1,49 L0,39 Z " fill="#FCFDFD" transform="translate(210,88)"/>
<path d="M0,0 L16,0 L26,1 L27,150 L28,152 L28,157 L32,156 L32,147 L33,147 L33,164 L29,167 L-150,167 L-150,159 L21,158 L24,157 L24,5 L23,4 L-185,3 L-185,2 L-139,1 Z " fill="#C5E1F7" transform="translate(291,61)"/>
<path d="M0,0 L25,0 L27,1 L27,3 L-14,4 L-14,8 L-23,8 L-24,13 L-28,14 L-29,13 L-30,21 L274,21 L274,22 L-30,22 L-29,191 L-27,193 L-2,194 L-1,184 L2,175 L2,170 L8,173 L8,175 L13,177 L18,179 L19,168 L21,161 L23,161 L21,173 L18,194 L15,221 L14,221 L14,209 L5,206 L-1,199 L-1,197 L-24,197 L-29,195 L-32,192 L-33,189 L-33,8 L-29,2 L-27,1 Z " fill="#5D7D9D" transform="translate(50,34)"/>
<path d="M0,0 L42,0 L42,35 L40,37 L0,37 L-1,36 L-1,1 Z " fill="#84B2D9" transform="translate(266,164)"/>
<path d="M0,0 L41,0 L42,1 L42,35 L40,37 L-1,37 L-1,1 Z " fill="#C4DEF5" transform="translate(266,97)"/>
<path d="M0,0 L2,0 L1,6 L0,9 L3,7 L2,14 L1,16 L3,16 L4,12 L6,12 L6,18 L7,21 L1,29 L-2,32 L-4,32 L-7,42 L-15,58 L-22,68 L-30,74 L-46,75 L-45,69 L-44,50 L-35,49 L-26,39 L-17,26 L-18,21 L-20,7 L-16,9 L-14,14 L-9,12 Z " fill="#A6CAEA" transform="translate(207,131)"/>
<path d="M0,0 L41,0 L42,2 L42,31 L40,33 L0,33 L-1,32 L-2,17 L0,13 L-1,3 L-2,1 Z " fill="#406B97" transform="translate(215,139)"/>
<path d="M0,0 L50,0 L50,40 L47,40 L46,26 L45,25 L5,25 L1,26 Z " fill="#FCFDFC" transform="translate(159,88)"/>
<path d="M0,0 L41,0 L42,1 L42,19 L35,28 L31,28 L28,23 L24,22 L24,34 L2,34 L1,33 Z " fill="#8AB4DA" transform="translate(162,114)"/>
<path d="M0,0 L61,0 L63,2 L63,11 L58,14 L56,14 L55,17 L-2,16 L-3,13 L-3,2 Z " fill="#89B4DA" transform="translate(30,84)"/>
<path d="M0,0 L2,0 L7,16 L10,19 L8,28 L0,28 L0,30 L7,30 L6,38 L2,43 L-9,45 L-10,50 L-32,49 L-31,45 L-23,44 L-15,38 L-11,28 L-17,28 L-21,23 L-21,18 L-19,16 L-14,17 L-10,19 L-10,8 L-9,5 L-1,4 Z " fill="#A7CAEB" transform="translate(130,114)"/>
<path d="M0,0 L18,0 L18,44 L17,46 L7,47 L6,49 L-3,46 L-15,43 L-14,38 L-5,37 L0,32 L2,27 L3,16 L5,14 L4,9 L1,6 Z " fill="#C6DFF5" transform="translate(136,122)"/>
<path d="M0,0 L60,0 L63,2 L63,9 L61,12 L1,12 L-3,9 L-3,2 Z " fill="#92BEE4" transform="translate(30,65)"/>
<path d="M0,0 L40,0 L42,2 L42,17 L46,17 L47,24 L51,30 L52,40 L48,46 L44,51 L41,54 L33,72 L24,86 L15,94 L12,95 L5,95 L5,94 L15,91 L22,85 L31,70 L36,58 L39,51 L46,45 L49,40 L48,35 L49,31 L47,31 L46,35 L44,35 L45,27 L41,31 L43,25 L45,19 L40,24 L33,33 L29,33 L25,27 L23,26 L26,40 L27,45 L16,60 L8,69 L-1,69 L-1,85 L-2,85 L-3,68 L-13,64 L-10,63 L-1,66 L7,66 L16,56 L24,45 L24,38 L0,38 L-2,36 L-2,4 L-1,4 L0,35 L22,36 L22,24 L27,25 L30,30 L34,28 L39,21 L39,3 L-1,3 Z " fill="#3E5978" transform="translate(164,112)"/>
<path d="M0,0 L16,0 L26,1 L26,156 L25,156 L24,5 L23,4 L-185,3 L-185,2 L-139,1 Z " fill="#D2E6F3" transform="translate(291,61)"/>
<path d="M0,0 L41,0 L42,2 L42,31 L41,31 L40,8 L38,8 L37,10 L5,12 L4,14 L19,14 L18,17 L7,16 L3,19 L1,19 L1,17 L-1,17 L0,9 L-2,1 Z M7,16 Z " fill="#416388" transform="translate(215,139)"/>
<path d="M0,0 L5,2 L13,7 L12,20 L11,29 L10,31 L4,30 L0,27 L-4,26 L-5,22 L-28,22 L-28,21 L-4,21 L-4,11 Z " fill="#B1D2EF" transform="translate(54,209)"/>
<path d="M0,0 L197,0 L197,1 L149,2 L99,1 L100,49 L99,49 L99,42 L95,41 L98,41 L98,1 L48,1 L48,89 L52,90 L50,91 L43,89 L47,88 L47,1 L13,2 L11,6 L9,4 L-3,4 Z " fill="#D1DDE4" transform="translate(111,87)"/>
<path d="M0,0 L1,0 L2,170 L-3,175 L-183,174 L-183,173 L-4,172 L-1,170 Z " fill="#4F6F92" transform="translate(324,55)"/>
<path d="M0,0 L2,0 L2,83 L4,83 L4,76 L5,76 L5,110 L4,110 L3,105 L2,124 L0,124 Z " fill="#DFE8EE" transform="translate(260,89)"/>
<path d="M0,0 L22,0 L22,87 L12,86 L5,82 L7,80 L17,80 L18,37 L19,40 L21,40 L21,1 L0,1 Z " fill="#EEF6F9" transform="translate(136,88)"/>
<path d="M0,0 L26,0 L29,3 L28,8 L26,10 L0,10 L-2,7 L-1,1 Z " fill="#A4C3DD" transform="translate(171,72)"/>
<path d="M0,0 L26,0 L28,2 L28,10 L0,10 L-2,7 L-2,2 Z " fill="#BBD4E8" transform="translate(222,72)"/>
<path d="M0,0 L26,0 L28,4 L28,8 L26,8 L26,10 L-1,10 L-2,9 L-2,1 Z " fill="#C6DFF5" transform="translate(120,72)"/>
<path d="M0,0 L2,0 L3,14 L43,15 L43,16 L3,16 L2,18 L0,16 L-1,56 L-4,56 L-5,14 L-4,10 L-6,10 L-8,15 L-10,16 L-7,7 L-2,2 Z " fill="#E3ECF1" transform="translate(212,157)"/>
<path d="M0,0 L26,0 L29,1 L29,7 L27,9 L1,9 L-2,8 L-2,2 Z " fill="#C9E2F5" transform="translate(273,72)"/>
<path d="M0,0 L1,2 L-7,17 L-14,26 L-21,31 L-37,32 L-36,26 L-35,7 L-34,7 L-33,20 L-31,24 L-31,26 L-19,24 L-15,19 L-13,19 L-13,17 L-11,17 L-11,15 L-9,15 L-7,10 L-4,4 Z " fill="#7DA7D2" transform="translate(198,174)"/>
<path d="M0,0 L2,1 L1,7 L-3,14 L-6,16 L-15,17 L-16,21 L-9,22 L-7,24 L-14,23 L-17,22 L-42,22 L-53,25 L-64,32 L-71,40 L-75,47 L-77,47 L-79,52 L-83,59 L-84,55 L-75,41 L-64,29 L-55,23 L-52,21 L-41,19 L-20,19 L-17,20 L-17,15 L-16,14 L-5,12 L-2,8 L-2,4 L0,4 Z " fill="#305279" transform="translate(137,144)"/>
<path d="M0,0 L4,1 L6,4 L6,185 L5,185 L4,18 L3,5 L2,2 L0,2 Z " fill="#1B3F67" transform="translate(320,37)"/>
<path d="M0,0 L54,0 L52,7 L47,8 L46,12 L14,11 L14,8 L44,8 L45,2 L0,1 Z " fill="#B1CDE6" transform="translate(30,100)"/>
<path d="M0,0 L6,1 L4,2 L4,4 L36,5 L36,7 L4,8 L4,11 L2,11 L1,9 L1,35 L40,36 L40,37 L0,37 L-1,36 L-1,1 Z " fill="#A1C2DF" transform="translate(266,164)"/>
<path d="M0,0 L1,0 L1,21 L3,21 L4,55 L5,56 L29,57 L30,64 L28,65 L28,58 L3,59 L2,60 L1,74 L0,74 Z " fill="#E3EFF5" transform="translate(159,93)"/>
<path d="M0,0 L170,0 L170,1 L3,1 L1,7 L-1,6 Z " fill="#C6DCEB" transform="translate(142,221)"/>
<path d="M0,0 L41,0 L41,1 L9,2 L17,3 L17,4 L35,5 L35,8 L3,8 L0,6 L-2,1 Z " fill="#84A2BF" transform="translate(215,139)"/>
<path d="M0,0 L31,0 L31,1 L39,2 L39,4 L41,5 L38,6 L38,4 L5,5 L3,6 L2,33 L1,33 Z " fill="#7DA4CC" transform="translate(162,114)"/>
<path d="M0,0 L22,0 L23,4 L21,6 L-1,6 L-3,5 L-3,1 Z " fill="#A3CCEE" transform="translate(225,74)"/>
<path d="M0,0 L2,0 L7,16 L10,19 L8,28 L7,28 L7,21 L5,21 L4,17 L0,16 L-1,14 L-4,15 L-4,7 L-9,7 L-9,5 L-1,4 Z M-5,7 Z " fill="#96B9DD" transform="translate(130,114)"/>
<path d="M0,0 L19,0 L21,1 L20,6 L-3,6 L-4,2 Z " fill="#88B9E2" transform="translate(176,74)"/>
<path d="M0,0 L38,0 L36,4 L21,5 L8,5 L2,4 L2,2 Z " fill="#80A6CA" transform="translate(268,164)"/>
<path d="M0,0 L2,3 L4,9 L3,14 L-7,28 L-15,37 L-24,37 L-24,53 L-25,53 L-26,36 L-36,32 L-33,31 L-24,34 L-16,34 L-7,24 L1,13 Z " fill="#304764" transform="translate(187,144)"/>
<path d="M0,0 L1,0 L1,34 L-1,36 L-42,36 L-42,2 L-41,2 L-40,30 L-39,34 L-3,34 L-2,31 L0,31 L-1,7 Z " fill="#D4E5F2" transform="translate(307,98)"/>
<path d="M0,0 L3,1 L15,2 L15,6 L6,6 L5,11 L1,12 L0,11 L-1,20 L-2,20 L-3,4 Z " fill="#3C6A98" transform="translate(21,36)"/>
<path d="M0,0 L6,0 L7,6 L5,8 L2,8 L2,10 L1,11 L10,11 L10,13 L-7,13 L-7,3 L-5,5 L-2,5 Z " fill="#44709D" transform="translate(27,42)"/>
<path d="M0,0 L3,0 L4,2 L36,3 L36,4 L5,6 L4,8 L19,8 L18,11 L7,10 L3,13 L1,13 L1,11 L-1,11 L0,3 Z M7,10 Z " fill="#355D8B" transform="translate(215,145)"/>
<path d="M0,0 L40,0 L42,2 L42,17 L46,18 L40,19 L39,3 L-1,3 Z " fill="#5B7598" transform="translate(164,112)"/>
<path d="M0,0 L1,0 L1,9 L12,9 L17,10 L21,12 L59,12 L59,13 L48,15 L33,15 L19,14 L0,10 Z " fill="#6285A5" transform="translate(63,246)"/>
<path d="M0,0 L50,0 L50,40 L47,40 L47,26 L49,26 L49,1 L0,1 Z " fill="#ECF6F9" transform="translate(159,88)"/>
<path d="M0,0 L1,2 L-7,17 L-14,26 L-18,29 L-21,28 L-22,25 L-17,22 L-15,19 L-13,19 L-13,17 L-11,17 L-11,15 L-9,15 L-7,10 L-4,4 Z " fill="#88ABD0" transform="translate(198,174)"/>
<path d="M0,0 L4,2 L3,15 L2,24 L1,26 L-5,25 L-8,22 L-3,21 L-2,14 L-1,13 Z " fill="#8EB4D9" transform="translate(63,214)"/>
<path d="M0,0 L61,0 L61,1 L10,2 L11,9 L14,10 L10,11 L8,5 L2,5 L-1,5 L-3,5 L-2,1 Z " fill="#A3C6E3" transform="translate(30,84)"/>
<path d="M0,0 L2,4 L2,19 L1,23 L8,24 L36,24 L39,23 L39,13 L41,12 L41,26 L1,26 L0,25 Z " fill="#86AACE" transform="translate(266,174)"/>
<path d="M0,0 L2,0 L3,7 L1,9 L0,9 L0,23 L2,25 L2,30 L4,30 L6,35 L2,33 L-3,26 L-4,23 L-4,12 L-1,6 Z " fill="#1E3D64" transform="translate(77,110)"/>
<path d="M0,0 L1,0 L0,7 L-1,17 L-29,17 L-33,13 L-33,7 L-31,10 L-28,14 L-3,15 L-2,5 Z " fill="#2F4561" transform="translate(51,213)"/>
<path d="M0,0 L3,0 L3,32 L-2,31 L-1,29 Z " fill="#EBF7FC" transform="translate(257,141)"/>
<path d="M0,0 L1,0 L1,12 L-2,12 L-1,17 L-8,19 L-11,15 L-11,10 L-9,8 L-4,9 L0,11 Z " fill="#9BBDDD" transform="translate(120,122)"/>
<path d="M0,0 L4,1 L6,4 L6,67 L5,67 L4,18 L3,5 L2,2 L0,2 Z " fill="#1B3D62" transform="translate(320,37)"/>
<path d="M0,0 L2,4 L0,24 L-1,33 L-2,33 L-2,21 L-11,18 L-14,15 L-14,13 L-10,15 L-2,18 Z " fill="#264872" transform="translate(66,222)"/>
<path d="M0,0 L2,3 L-1,7 L-1,10 L-18,10 L-18,7 L-10,6 L-7,4 L-3,3 Z " fill="#ABCDEF" transform="translate(117,152)"/>
<path d="M0,0 L8,1 L9,5 L13,3 L19,4 L19,7 L11,8 L10,11 L24,11 L24,12 L8,12 L9,7 L4,6 L0,2 Z M9,2 Z " fill="#1B3A60" transform="translate(88,152)"/>
<path d="M0,0 L26,0 L26,1 L2,1 L2,8 L26,9 L26,10 L-1,10 L-2,9 L-2,1 Z " fill="#E1EEF9" transform="translate(120,72)"/>
<path d="M0,0 L1,0 L1,34 L0,34 L-1,29 L-2,29 L-2,7 L0,7 Z " fill="#E6F4F9" transform="translate(264,165)"/>
<path d="M0,0 L54,0 L52,7 L51,5 L47,4 L47,2 L0,1 Z " fill="#B5D4EF" transform="translate(30,100)"/>
<path d="M0,0 L2,1 L-4,6 L-13,17 L-14,20 L-16,20 L-18,25 L-22,32 L-23,28 L-14,14 L-3,2 Z " fill="#244569" transform="translate(76,171)"/>
<path d="M0,0 L14,0 L17,2 L15,2 L13,6 L13,3 L-17,3 L-17,2 Z " fill="#3C6794" transform="translate(237,141)"/>
<path d="M0,0 L2,0 L6,13 L10,17 L9,22 L8,23 L7,30 L-2,29 L-2,27 L6,27 L6,21 L6,17 L3,13 L0,3 Z " fill="#355071" transform="translate(132,115)"/>
<path d="M0,0 L5,2 L10,7 L9,18 L8,18 L7,10 L3,7 L-2,9 Z " fill="#91B7DE" transform="translate(54,209)"/>
<path d="M0,0 L2,0 L3,14 L43,15 L43,16 L3,16 L2,18 L0,14 L0,3 L-2,2 Z M-1,15 Z " fill="#D9E6EE" transform="translate(212,157)"/>
<path d="M0,0 L1,0 L1,21 L3,21 L3,54 L2,54 L1,31 L0,31 Z " fill="#DBE8F2" transform="translate(159,93)"/>
<path d="M0,0 L32,0 L32,1 L19,2 L17,4 L2,3 Z " fill="#83A8CE" transform="translate(168,121)"/>
<path d="M0,0 L1,0 L2,20 L0,26 L13,25 L11,28 L-2,28 L-1,20 Z " fill="#37577F" transform="translate(161,180)"/>
<path d="M0,0 L18,0 L17,2 L16,6 L13,7 L12,6 L5,5 L6,2 L0,1 Z " fill="#CFE4F6" transform="translate(136,122)"/>
<path d="M0,0 L5,2 L4,6 L6,8 L6,13 L3,12 L2,10 L-1,11 L-1,3 L-6,3 L-6,1 Z M-2,3 Z " fill="#6087AC" transform="translate(127,118)"/>
<path d="M0,0 L6,0 L7,1 L7,8 L0,8 L-1,7 L-1,1 Z " fill="#4471A0" transform="translate(32,88)"/>
<path d="M0,0 L23,1 L23,3 L-2,3 L-4,1 Z " fill="#76A7D6" transform="translate(281,165)"/>
<path d="M0,0 L2,0 L3,5 L44,6 L44,7 L2,8 L0,5 Z " fill="#EBF6FB" transform="translate(211,132)"/>
<path d="M0,0 L1,0 L1,9 L12,9 L17,10 L21,12 L27,13 L27,14 L19,14 L0,10 Z " fill="#7192AF" transform="translate(63,246)"/>
<path d="M0,0 L8,0 L8,7 L1,7 L0,6 Z " fill="#A0C0E2" transform="translate(31,140)"/>
<path d="M0,0 L11,0 L7,2 L-3,4 L-4,10 L-8,13 L-8,7 L-4,2 Z " fill="#1B3D62" transform="translate(90,96)"/>
<path d="M0,0 L8,0 L8,6 L7,7 L1,7 L0,6 Z " fill="#8EB4D7" transform="translate(31,106)"/>
<path d="M0,0 L1,4 L-5,11 L-8,14 L-12,24 L-14,23 L-11,13 L-6,8 Z " fill="#3E5471" transform="translate(213,152)"/>
<path d="M0,0 L6,0 L6,3 L12,4 L12,7 L4,8 L1,5 Z " fill="#C0DBF3" transform="translate(136,123)"/>
<path d="M0,0 L10,0 L12,1 L13,8 L16,9 L12,10 L10,4 L4,4 L1,4 L-1,4 Z " fill="#98BFE3" transform="translate(28,85)"/>
<path d="M0,0 L7,0 L7,6 L6,7 L0,7 L-1,1 Z " fill="#91B8DB" transform="translate(32,123)"/>
<path d="M0,0 L1,0 L2,24 L4,26 L-1,27 L-6,27 L-4,23 L0,22 Z " fill="#D5E6F5" transform="translate(101,67)"/>
<path d="M0,0 L2,0 L3,3 L2,8 L-20,7 L-19,4 L-19,6 L-2,6 L-3,2 Z " fill="#83A5C8" transform="translate(118,156)"/>
<path d="M0,0 L2,1 L1,7 L-3,14 L-6,16 L-16,15 L-16,14 L-5,12 L-2,8 L-2,4 L0,4 Z " fill="#475D77" transform="translate(137,144)"/>
<path d="M0,0 L1,3 L-1,14 L-6,13 L-11,9 L-5,10 Z " fill="#355F8D" transform="translate(69,199)"/>
<path d="M0,0 L3,0 L3,3 L7,2 L6,5 L0,5 L-2,14 L-5,11 L-5,6 L-4,8 L-2,8 Z " fill="#163961" transform="translate(121,114)"/>
<path d="M0,0 L1,0 L2,11 L3,15 L0,15 L-1,11 L-24,11 L-24,10 L0,10 Z " fill="#899DB2" transform="translate(50,220)"/>
<path d="M0,0 L3,1 L0,2 Z M-2,2 L0,3 L0,8 L-5,12 L-8,11 L-9,8 L-4,5 Z " fill="#88ABD7" transform="translate(185,191)"/>
<path d="M0,0 L2,0 L3,4 L5,2 L5,11 L0,12 Z " fill="#D1E6F7" transform="translate(139,138)"/>
<path d="M0,0 L2,3 L5,7 L30,8 L30,9 L4,10 L0,6 Z " fill="#526880" transform="translate(18,220)"/>
<path d="M0,0 L2,0 L1,6 L-1,12 L-4,13 L-4,10 L-3,8 L-5,8 L-3,4 Z " fill="#9ABAD8" transform="translate(207,131)"/>
<path d="M0,0 L1,0 L2,28 L3,32 L7,33 L1,33 L0,32 Z " fill="#CFDFEC" transform="translate(265,100)"/>
<path d="M0,0 L10,0 L12,2 L11,6 L10,4 L-4,4 Z " fill="#243C5C" transform="translate(110,90)"/>
<path d="M0,0 L4,1 L6,4 L6,19 L4,18 L3,5 L2,2 L0,2 Z " fill="#2A4E76" transform="translate(320,37)"/>
<path d="M0,0 L1,0 L1,12 L-2,12 L-1,17 L-6,17 L-5,13 L-8,13 L-8,11 L-2,10 L0,11 Z " fill="#87A7CB" transform="translate(120,122)"/>
<path d="M0,0 L2,1 L2,16 L6,17 L0,18 L-1,1 Z " fill="#577391" transform="translate(204,113)"/>
<path d="M0,0 L9,2 L19,6 L15,7 L0,2 Z " fill="#294566" transform="translate(131,168)"/>
<path d="M0,0 L4,2 L6,7 L9,8 L1,9 Z " fill="#99BBDE" transform="translate(187,138)"/>
<path d="M0,0 L2,0 L4,6 L4,13 L0,10 L2,6 L-2,5 Z " fill="#9EBFE5" transform="translate(130,114)"/>
<path d="M0,0 L9,3 L9,7 L2,8 L2,6 L8,6 L8,4 L4,5 L-1,3 Z " fill="#B1CDE9" transform="translate(88,156)"/>
<path d="M0,0 L17,1 L16,4 L2,3 L0,2 Z M5,3 Z " fill="#3A6188" transform="translate(217,152)"/>
<path d="M0,0 L5,0 L6,4 L4,6 L-1,5 Z " fill="#9FC9EE" transform="translate(52,43)"/>
<path d="M0,0 L4,1 L8,6 L8,13 L6,13 L3,4 Z " fill="#2B405C" transform="translate(130,98)"/>
<path d="M0,0 L5,0 L6,5 L1,6 L0,5 Z " fill="#7EACE0" transform="translate(28,43)"/>
<path d="M0,0 L5,1 L6,3 L2,5 L1,19 L0,19 Z M1,1 L2,3 Z " fill="#ECF5F7" transform="translate(159,148)"/>
<path d="M0,0 L5,0 L6,4 L4,6 L0,5 Z " fill="#8DB9E7" transform="translate(40,43)"/>
<path d="M0,0 L4,2 L12,5 L12,8 L3,5 L0,2 Z " fill="#51687F" transform="translate(52,235)"/>
<path d="M0,0 L2,3 L4,12 L0,13 Z " fill="#92BCE1" transform="translate(164,185)"/>
<path d="M0,0 L3,1 L2,6 L-3,12 L-4,8 L-2,7 Z " fill="#8DA9CC" transform="translate(211,148)"/>
<path d="M0,0 L6,3 L5,7 L2,5 L1,11 L0,11 Z " fill="#29486F" transform="translate(52,204)"/>
<path d="M0,0 L3,0 L5,4 L3,5 L-3,5 L-3,1 Z " fill="#74A0D0" transform="translate(174,200)"/>
<path d="M0,0 L1,0 L1,12 L-1,13 L-2,3 L-2,1 Z " fill="#F1FAFD" transform="translate(212,159)"/>
<path d="M0,0 L2,1 L3,11 L1,13 L-1,9 Z " fill="#204271" transform="translate(213,141)"/>
<path d="M0,0 L5,0 L4,5 L0,6 Z " fill="#94BAE1" transform="translate(32,141)"/>
<path d="M0,0 L3,0 L2,4 L-3,8 L-3,4 Z " fill="#B3D0EC" transform="translate(189,159)"/>
<path d="M0,0 L7,0 L7,4 L4,5 L0,1 Z " fill="#849AB4" transform="translate(130,144)"/>
<path d="M0,0 L2,0 L1,6 L-5,5 Z " fill="#80A6CF" transform="translate(63,234)"/>
<path d="M0,0 L10,0 L10,1 L3,1 L1,7 L-1,6 Z " fill="#CCE2F2" transform="translate(142,221)"/>
<path d="M0,0 L3,0 L1,10 L-1,12 L-1,6 L1,6 L-2,2 L0,2 Z " fill="#A7C2DC" transform="translate(50,206)"/>
<path d="M0,0 L3,0 L3,3 L6,4 L-2,6 L-1,1 Z " fill="#BDD9F4" transform="translate(84,161)"/>
<path d="M0,0 L4,4 L2,11 L1,9 L-1,8 L0,2 Z " fill="#BDD8EF" transform="translate(82,146)"/>
<path d="M0,0 L2,2 L0,5 L-2,3 L-14,3 L-13,1 Z " fill="#C8D9E3" transform="translate(122,88)"/>
<path d="M0,0 L2,0 L2,6 L0,8 L-12,8 L-12,7 L-2,6 L1,5 Z " fill="#D4E5F2" transform="translate(300,73)"/>
<path d="M0,0 L4,0 L4,8 L0,6 Z " fill="#D3E4F0" transform="translate(118,73)"/>
<path d="M0,0 L2,1 L-4,6 L-8,10 L-8,7 Z " fill="#204066" transform="translate(76,171)"/>
<path d="M0,0 L4,2 L4,8 L1,7 Z " fill="#86ABD6" transform="translate(63,214)"/>
<path d="M0,0 L4,4 L3,6 L-2,8 L-1,1 Z " fill="#A1C3E7" transform="translate(54,210)"/>
<path d="M0,0 L1,2 L-5,10 L-8,8 L-3,4 Z " fill="#284D73" transform="translate(202,135)"/>
<path d="M0,0 L0,3 L-1,17 L-2,17 L-3,1 Z " fill="#365B82" transform="translate(21,39)"/>
<path d="M0,0 L2,0 L1,6 L-3,6 L-1,1 Z " fill="#A6C2DF" transform="translate(207,131)"/>
<path d="M0,0 L4,1 L3,3 L-7,2 L-7,1 Z " fill="#6481A0" transform="translate(128,157)"/>
<path d="M0,0 L10,0 L10,2 L2,3 Z " fill="#99B9DB" transform="translate(138,128)"/>
<path d="M0,0 L5,1 L6,4 L0,4 Z " fill="#BBD6EC" transform="translate(121,161)"/>
<path d="M0,0 L5,2 L7,6 L2,6 L3,2 L0,2 Z " fill="#355779" transform="translate(112,133)"/>
<path d="M0,0 L5,0 L5,3 L2,3 L2,5 L0,5 Z " fill="#305F8E" transform="translate(32,89)"/>
<path d="M0,0 L2,1 L1,7 L-2,4 L-4,3 Z " fill="#D9E4EB" transform="translate(209,161)"/>
<path d="M0,0 L2,0 L1,5 L-2,8 L-3,5 Z " fill="#A2C1E4" transform="translate(211,143)"/>
<path d="M0,0 L2,1 L2,4 L0,5 L-1,3 L-6,3 L-6,1 Z M-2,3 Z " fill="#779BC0" transform="translate(127,118)"/>
<path d="M0,0 L3,1 L0,2 Z M-2,2 L0,3 L0,7 L-4,5 Z " fill="#92B7DF" transform="translate(185,191)"/>
<path d="M0,0 L3,1 L-2,6 L-3,3 Z " fill="#E9EDF4" transform="translate(175,170)"/>
</svg>
