<?xml version="1.0" standalone="no"?>
<!DOCTYPE svg PUBLIC "-//W3C//DTD SVG 20010904//EN"
 "http://www.w3.org/TR/2001/REC-SVG-20010904/DTD/svg10.dtd">
<svg version="1.0" xmlns="http://www.w3.org/2000/svg"
 width="300.000000pt" height="283.000000pt" viewBox="0 0 300.000000 283.000000"
 preserveAspectRatio="xMidYMid meet">
<metadata>
Created by potrace 1.10, written by Peter Selinger 2001-2011
</metadata>
<g transform="translate(0.000000,283.000000) scale(0.100000,-0.100000)"
fill="#A8C5E6" stroke="none">
<path d="M255 2586 c-57 -26 -106 -73 -132 -125 -17 -34 -18 -98 -21 -1051 -2
-931 -1 -1019 14 -1059 25 -66 86 -126 150 -151 54 -20 72 -20 1238 -20 1312
0 1243 -3 1325 67 24 20 54 60 67 87 l24 51 0 1010 c0 994 -1 1011 -21 1055
-27 60 -74 107 -134 136 l-50 24 -1205 0 -1205 0 -50 -24z m2497 -84 c20 -13
47 -40 60 -60 l23 -37 3 -990 c3 -1100 6 -1043 -63 -1104 -19 -16 -51 -35 -72
-40 -26 -7 -420 -11 -1203 -11 -1105 0 -1167 1 -1205 19 -51 23 -102 81 -110
123 -3 18 -4 477 -3 1019 l3 985 27 41 c15 23 44 49 70 62 l43 21 1195 -2
1195 -3 37 -23z"/>
<path d="M377 2273 c-11 -11 -8 -48 5 -61 9 -9 189 -12 750 -12 727 0 737 0
748 20 8 14 8 26 0 40 -11 20 -21 20 -754 20 -408 0 -746 -3 -749 -7z"/>
<path d="M2474 2118 c-91 -90 -169 -164 -173 -166 -5 -1 -35 26 -67 61 -33 35
-65 67 -72 71 -18 11 -52 -12 -52 -37 0 -28 166 -197 195 -197 21 0 395 365
395 386 0 14 -33 44 -49 44 -7 0 -87 -73 -177 -162z m-134 -197 c-13 -24 -30
-31 -52 -19 -25 12 -23 31 2 23 11 -3 28 -2 37 4 24 14 25 14 13 -8z"/>
<path d="M388 1949 c-24 -13 -23 -56 1 -69 27 -14 1165 -14 1192 0 24 13 25
42 1 63 -17 15 -73 17 -598 17 -375 -1 -585 -4 -596 -11z"/>
<path d="M1100 1702 c-20 -17 -20 -22 -18 -417 l3 -400 247 -112 247 -112 233
106 c128 58 241 113 251 121 16 14 17 46 17 399 0 246 -4 391 -10 404 -6 11
-21 19 -35 19 -23 0 -195 -70 -377 -153 l-78 -36 -181 80 c-279 123 -274 121
-299 101z m65 -43 c4 -6 -3 -21 -16 -35 -25 -27 -39 -18 -31 22 5 25 35 34 47
13z m873 -12 c2 -10 1 -25 -2 -34 -6 -14 -10 -13 -31 7 -19 18 -22 26 -13 37
15 18 42 12 46 -10z m-500 -538 c2 -272 0 -340 -10 -336 -7 3 -92 42 -188 86
l-175 81 -3 339 -2 339 187 -84 188 -83 3 -342z m457 167 l0 -335 -150 -67
c-82 -36 -165 -75 -183 -85 -18 -11 -35 -19 -38 -19 -2 0 -3 154 -2 341 l3
341 175 78 c96 43 180 78 185 79 6 1 10 -116 10 -333z m-375 214 c0 -4 -11
-17 -24 -29 l-24 -22 -16 22 c-22 32 -21 34 24 34 22 1 40 -2 40 -5z m-11
-730 c19 -17 21 -23 11 -35 -15 -18 -53 -20 -82 -4 -20 11 -20 11 3 35 27 29
37 29 68 4z"/>
<path d="M376 1614 c-9 -8 -16 -21 -16 -28 0 -32 24 -36 222 -36 182 0 198 1
207 18 7 14 6 25 -5 40 -15 21 -22 22 -204 22 -158 0 -191 -3 -204 -16z"/>
<path d="M896 1484 c-14 -13 -16 -61 -16 -368 0 -271 3 -356 13 -363 13 -11
586 -266 652 -290 l40 -15 343 152 342 153 -2 365 c-3 335 -4 366 -20 376 -13
8 -23 8 -35 0 -17 -10 -18 -40 -21 -350 l-3 -339 -137 -59 c-75 -33 -213 -95
-307 -137 -141 -64 -173 -75 -190 -66 -11 6 -147 68 -303 137 l-283 126 -5
334 c-3 213 -9 339 -16 347 -14 17 -33 16 -52 -3z"/>
<path d="M372 1288 c-6 -6 -12 -20 -12 -29 0 -34 24 -40 165 -37 119 3 139 5
149 21 8 12 8 22 0 35 -10 15 -31 17 -150 20 -100 2 -143 -1 -152 -10z"/>
</g>
</svg>
