<?xml version="1.0" encoding="UTF-8"?>
<svg version="1.1" xmlns="http://www.w3.org/2000/svg" width="552" height="445">
<path d="M0,0 L9,0 L28,3 L45,9 L62,18 L64,20 L69,19 L82,14 L95,12 L105,12 L122,15 L135,20 L147,27 L156,35 L165,47 L172,62 L191,65 L206,70 L219,78 L229,87 L238,98 L247,114 L253,130 L258,151 L260,165 L261,178 L261,209 L259,234 L259,241 L271,264 L280,287 L287,310 L292,337 L293,346 L293,372 L290,387 L285,400 L277,411 L272,416 L296,417 L296,420 L291,421 L265,421 L253,426 L242,428 L226,427 L213,423 L209,421 L79,421 L74,429 L68,432 L-63,432 L-71,427 L-73,424 L-73,420 L-83,421 L-154,421 L-168,430 L-182,436 L-192,439 L-199,440 L-209,440 L-222,436 L-232,427 L-235,422 L-235,420 L-252,420 L-252,417 L-237,417 L-239,408 L-239,391 L-235,372 L-230,359 L-231,356 L-235,353 L-234,346 L-224,328 L-222,325 L-223,319 L-231,305 L-237,287 L-240,272 L-241,262 L-241,242 L-238,223 L-233,207 L-225,191 L-218,181 L-209,171 L-198,160 L-184,150 L-164,137 L-142,122 L-131,113 L-123,106 L-114,95 L-104,81 L-91,61 L-80,45 L-67,30 L-57,21 L-44,13 L-29,6 L-14,2 Z M19,102 L16,109 L14,120 L8,128 L1,131 L-8,134 L-13,139 L-20,138 L-24,146 L-30,151 L-28,155 L-22,164 L-18,174 L-18,185 L-19,187 L-24,186 L-26,197 L-31,207 L-34,211 L-34,248 L-38,261 L-45,271 L-52,278 L-60,283 L-57,285 L-41,293 L-29,304 L-27,305 L-21,305 L-16,295 L-7,275 L1,259 L9,244 L19,229 L28,218 L39,209 L56,199 L80,189 L88,186 L88,185 L75,183 L64,177 L54,167 L46,152 L41,137 L38,125 L28,115 L20,102 Z M90,150 L79,155 L72,157 L72,159 L74,160 L82,160 L89,156 L92,150 Z M144,168 L148,176 L159,178 L164,178 L159,173 L155,170 Z M-138,253 L-146,256 L-148,264 L-148,271 L-143,273 L-133,272 L-131,270 L-130,261 L-135,253 Z M-83,253 L-83,255 L-77,257 L-63,257 L-61,254 Z " fill="#224A76" transform="translate(256,1)"/>
<path d="M0,0 L2,0 L8,9 L13,15 L27,24 L32,27 L39,30 L57,36 L73,39 L76,41 L78,47 L80,48 L81,41 L86,35 L88,34 L97,34 L103,41 L103,55 L100,62 L96,66 L93,67 L84,67 L86,94 L91,110 L94,114 L93,119 L85,135 L73,153 L65,163 L56,173 L54,175 L50,174 L46,170 L48,174 L48,177 L54,177 L62,170 L64,167 L66,167 L68,162 L70,162 L72,157 L76,152 L80,148 L84,140 L86,140 L87,135 L89,135 L89,131 L91,131 L93,126 L96,116 L103,117 L123,122 L145,129 L149,131 L148,129 L138,125 L120,119 L114,117 L114,115 L110,113 L103,108 L104,106 L117,104 L131,97 L139,88 L144,76 L145,72 L145,54 L143,46 L138,37 L127,29 L122,27 L121,10 L119,0 L128,0 L146,4 L158,9 L171,18 L180,27 L189,40 L197,56 L203,74 L207,94 L209,115 L209,146 L207,171 L206,176 L203,175 L192,159 L183,149 L169,139 L150,130 L150,133 L156,134 L167,140 L180,149 L185,154 L193,163 L194,168 L196,168 L200,175 L203,178 L213,196 L218,206 L224,223 L227,230 L232,248 L237,273 L238,284 L238,314 L234,325 L230,334 L228,337 L226,337 L225,342 L223,342 L223,344 L218,349 L213,354 L210,355 L210,357 L199,361 L195,362 L178,362 L173,361 L173,358 L162,357 L153,352 L150,350 L150,348 L145,346 L144,343 L139,341 L134,336 L134,334 L129,332 L126,327 L126,325 L124,325 L124,322 L121,321 L115,314 L112,308 L103,294 L98,283 L113,280 L116,277 L118,277 L120,273 L125,269 L133,258 L135,254 L137,240 L141,242 L152,251 L163,260 L177,272 L192,285 L196,289 L199,290 L194,285 L185,276 L174,267 L172,264 L167,261 L162,238 L157,222 L157,219 L155,219 L159,234 L163,250 L163,256 L158,254 L147,245 L147,243 L142,241 L136,236 L129,235 L126,230 L126,228 L123,227 L123,225 L121,225 L113,214 L110,211 L110,209 L106,207 L99,201 L96,198 L86,194 L81,192 L72,192 L65,194 L57,198 L38,197 L38,199 L36,200 L36,208 L37,211 L29,217 L28,219 L26,219 L24,223 L23,230 L33,230 L26,228 L27,222 L38,212 L53,202 L66,195 L70,194 L84,194 L97,202 L107,211 L116,220 L129,238 L133,244 L133,252 L126,265 L119,272 L115,275 L112,275 L108,267 L99,262 L96,259 L96,248 L95,244 L90,248 L89,251 L92,251 L92,249 L95,250 L94,255 L92,257 L83,257 L77,254 L76,252 L76,244 L82,235 L84,235 L86,231 L88,228 L85,229 L76,241 L74,250 L69,250 L69,252 L75,254 L80,259 L82,260 L93,260 L97,264 L95,269 L93,275 L93,281 L100,294 L103,299 L109,308 L110,311 L114,315 L119,323 L125,331 L130,337 L130,339 L134,341 L140,345 L146,353 L27,353 L29,344 L40,342 L43,338 L44,332 L47,330 L48,326 L50,326 L51,318 L54,314 L53,304 L54,302 L54,293 L48,286 L50,273 L53,262 L53,250 L48,245 L44,243 L-15,242 L-15,226 L-9,208 L-12,211 L-17,228 L-18,242 L-69,242 L-68,237 L-63,225 L-59,217 L-52,201 L-50,198 L-48,198 L-47,193 L-44,186 L-42,186 L-41,181 L-39,181 L-37,176 L-32,170 L-30,165 L-19,153 L-13,149 L-11,149 L-11,147 L2,140 L6,137 L11,135 L20,131 L31,127 L36,127 L38,147 L41,158 L44,167 L44,169 L46,169 L39,144 L38,142 L38,131 L41,131 L39,125 L39,120 L52,115 L63,107 L65,104 L67,104 L69,100 L70,96 L68,96 L66,101 L57,110 L49,115 L38,119 L25,119 L14,113 L3,102 L-2,92 L-5,84 L-10,67 L-15,44 L-16,38 L-16,28 L-11,16 L-4,5 Z M38,87 L27,92 L20,94 L20,96 L22,97 L30,97 L37,93 L40,87 Z " fill="#3F6E9E" transform="translate(308,64)"/>
<path d="M0,0 L9,0 L28,3 L45,9 L62,18 L64,20 L63,24 L54,31 L51,36 L37,43 L28,51 L22,61 L19,70 L19,95 L20,102 L17,109 L15,120 L9,128 L1,132 L-8,134 L-10,138 L-13,140 L-18,139 L-21,138 L-22,136 L-39,135 L-52,131 L-59,127 L-76,121 L-82,119 L-109,119 L-119,122 L-130,129 L-136,134 L-137,136 L-139,136 L-141,129 L-146,130 L-150,136 L-151,143 L-160,144 L-164,147 L-163,152 L-158,154 L-158,156 L-164,161 L-168,168 L-170,173 L-170,195 L-167,207 L-163,216 L-162,221 L-164,225 L-164,237 L-157,248 L-151,252 L-146,254 L-145,256 L-147,264 L-147,271 L-146,274 L-162,277 L-177,282 L-192,291 L-207,306 L-219,322 L-222,321 L-231,305 L-237,287 L-240,272 L-241,262 L-241,242 L-238,223 L-233,207 L-225,191 L-218,181 L-209,171 L-198,160 L-184,150 L-164,137 L-142,122 L-131,113 L-123,106 L-114,95 L-104,81 L-91,61 L-80,45 L-67,30 L-57,21 L-44,13 L-29,6 L-14,2 Z " fill="#B4D6F6" transform="translate(256,1)"/>
<path d="M0,0 L4,1 L2,2 L15,1 L18,0 L28,0 L31,11 L32,15 L34,15 L36,19 L40,22 L40,24 L45,26 L55,31 L59,32 L70,32 L80,27 L82,27 L83,21 L85,21 L85,11 L86,10 L102,10 L118,18 L122,20 L122,22 L126,24 L126,26 L130,28 L127,30 L121,33 L117,41 L113,59 L106,83 L103,94 L101,101 L91,140 L90,141 L14,141 L14,139 L24,131 L26,131 L26,129 L30,125 L25,128 L15,136 L1,146 L-14,154 L-23,158 L-36,161 L-49,161 L-59,157 L-65,152 L-72,141 L-74,131 L-74,112 L-73,111 L-71,99 L-65,83 L-59,84 L-49,89 L-35,94 L-22,98 L-16,99 L-17,101 L-29,105 L-38,109 L-39,111 L-30,108 L-19,103 L3,94 L10,91 L29,83 L39,74 L51,64 L62,59 L70,57 L92,57 L104,58 L93,55 L74,55 L63,57 L53,61 L43,68 L32,78 L29,78 L29,80 L20,85 L11,89 L-5,95 L-9,96 L-8,90 L-6,90 L-5,83 L-3,80 L0,71 L2,66 L-1,66 L-2,72 L-7,85 L-10,93 L-12,93 L-12,96 L-22,96 L-42,90 L-47,87 L-60,82 L-70,75 L-68,69 L-63,60 L-61,56 L-59,56 L-58,52 L-55,46 L-59,47 L-53,39 L-42,26 L-30,14 L-15,5 Z " fill="#4372A0" transform="translate(94,277)"/>
<path d="M0,0 L134,0 L136,1 L136,3 L7,3 L7,5 L134,5 L140,7 L142,13 L143,17 L139,31 L138,36 L140,37 L138,37 L139,42 L144,48 L144,57 L143,62 L144,70 L141,73 L140,77 L139,81 L137,81 L136,86 L133,87 L133,93 L129,98 L125,99 L118,99 L115,97 L114,104 L113,111 L107,119 L105,120 L105,121 L-23,121 L-23,119 L-25,119 L-25,117 L-27,117 L-27,114 L-29,114 L-29,118 L-32,118 L-33,109 L-25,79 L-23,74 L-21,65 L-19,59 L-15,43 L-7,13 L-4,4 Z " fill="#244D79" transform="translate(219,309)"/>
<path d="M0,0 L10,0 L27,3 L40,8 L52,15 L61,23 L70,35 L77,51 L79,61 L79,78 L85,80 L96,88 L102,99 L103,105 L103,123 L99,135 L93,144 L85,151 L74,156 L61,158 L50,157 L53,163 L71,166 L72,168 L89,173 L99,176 L106,180 L106,182 L102,181 L73,172 L60,169 L53,167 L51,177 L48,182 L46,182 L46,186 L44,186 L43,191 L41,191 L39,196 L35,203 L33,203 L31,207 L27,213 L25,213 L23,218 L18,223 L11,229 L5,228 L3,221 L7,223 L8,225 L12,224 L19,217 L29,204 L43,183 L50,169 L49,164 L46,159 L42,145 L41,136 L41,118 L53,116 L56,115 L59,106 L59,92 L54,86 L45,86 L40,91 L37,99 L34,98 L32,92 L19,89 L4,85 L-6,81 L-20,74 L-32,65 L-40,55 L-41,51 L-46,56 L-53,67 L-58,79 L-58,89 L-54,109 L-52,118 L-53,122 L-55,111 L-59,109 L-64,104 L-68,98 L-68,96 L-70,96 L-72,92 L-73,95 L-75,91 L-77,83 L-77,58 L-72,45 L-65,36 L-55,28 L-47,24 L-44,24 L-42,19 L-34,12 L-31,9 L-16,3 Z " fill="#234D78" transform="translate(351,13)"/>
<path d="M0,0 L2,0 L8,9 L13,15 L27,24 L32,27 L39,30 L57,36 L73,39 L76,41 L78,47 L80,48 L81,41 L86,35 L88,34 L97,34 L103,41 L103,55 L100,62 L96,66 L93,67 L84,67 L86,94 L91,110 L94,114 L93,119 L85,135 L73,153 L65,163 L56,173 L54,175 L50,174 L44,162 L38,142 L38,131 L41,131 L39,125 L39,120 L52,115 L63,107 L65,104 L67,104 L69,100 L70,96 L68,96 L66,101 L57,110 L49,115 L38,119 L25,119 L14,113 L3,102 L-2,92 L-5,84 L-10,67 L-15,44 L-16,38 L-16,28 L-11,16 L-4,5 Z M38,87 L27,92 L20,94 L20,96 L22,97 L30,97 L37,93 L40,87 Z " fill="#A5CBEC" transform="translate(308,64)"/>
<path d="M0,0 Z M-2,1 L0,1 L1,3 L5,1 L5,4 L3,6 L4,11 L9,13 L9,15 L3,20 L-1,27 L-3,32 L-3,54 L0,66 L4,75 L5,80 L3,84 L3,96 L10,107 L16,111 L21,113 L22,115 L20,123 L20,130 L21,133 L5,136 L-10,141 L-25,150 L-40,165 L-52,181 L-55,180 L-64,164 L-70,146 L-73,131 L-74,121 L-74,101 L-71,82 L-66,66 L-58,50 L-51,40 L-42,30 L-31,19 L-17,9 L-14,7 L-10,6 L-8,4 L-3,2 Z " fill="#C7E1F9" transform="translate(89,142)"/>
<path d="M0,0 L2,0 L6,10 L7,15 L8,52 L8,72 L3,85 L-1,91 L-8,99 L-16,104 L-25,107 L-42,107 L-54,104 L-66,98 L-71,94 L-67,99 L-57,105 L-44,109 L-37,110 L-38,123 L-43,128 L-45,130 L-60,130 L-69,126 L-75,122 L-80,117 L-86,108 L-87,99 L-84,93 L-84,83 L-90,74 L-90,72 L-95,75 L-105,75 L-111,71 L-117,63 L-118,61 L-118,49 L-111,41 L-102,41 L-96,45 L-91,50 L-91,52 L-87,50 L-84,39 L-83,25 L-73,21 L-66,15 L-64,12 L-62,12 L-64,21 L-52,20 L-36,14 L-27,8 L-28,13 L-30,13 L-30,17 L-20,16 L-7,9 Z M-39,77 L-39,79 L-33,81 L-19,81 L-17,78 Z " fill="#A7CBEB" transform="translate(212,177)"/>
<path d="M0,0 L9,0 L27,4 L39,9 L52,18 L61,27 L70,40 L78,56 L84,74 L88,94 L90,115 L90,146 L88,171 L87,176 L84,175 L73,159 L64,149 L50,139 L31,129 L24,127 L16,124 L1,119 L-5,117 L-5,115 L-9,113 L-16,108 L-15,106 L-2,104 L12,97 L20,88 L25,76 L26,72 L26,54 L24,46 L19,37 L8,29 L3,27 L2,10 Z " fill="#BBDAF6" transform="translate(427,64)"/>
<path d="M0,0 L2,2 L3,8 L5,8 L10,16 L15,21 L19,25 L21,34 L25,44 L28,54 L32,61 L36,67 L44,75 L55,81 L68,81 L81,76 L90,69 L97,61 L98,59 L100,59 L99,64 L91,73 L80,80 L73,83 L69,83 L71,94 L68,94 L69,105 L76,128 L76,132 L74,132 L68,115 L66,104 L66,90 L55,93 L46,97 L41,99 L33,103 L28,106 L21,110 L19,110 L19,112 L10,118 L0,129 L-2,134 L-8,142 L-9,144 L-11,144 L-12,149 L-14,149 L-15,154 L-18,161 L-20,161 L-22,167 L-29,181 L-32,188 L-37,200 L-39,205 L12,205 L12,191 L17,174 L19,171 L21,171 L19,179 L16,189 L15,205 L74,205 L83,211 L84,213 L84,221 L82,224 L80,215 L75,214 L-52,213 L-52,211 L77,211 L77,209 L-59,209 L-63,214 L-71,244 L-76,261 L-78,272 L-80,276 L-82,284 L-88,305 L-91,317 L-91,326 L-88,326 L-88,322 L-86,322 L-86,325 L-84,325 L-84,327 L-82,327 L-82,329 L45,328 L47,326 L51,322 L53,317 L56,305 L65,305 L65,306 L59,306 L59,313 L58,315 L175,315 L169,308 L163,304 L158,299 L151,291 L148,286 L142,277 L142,275 L139,274 L135,267 L130,258 L127,253 L122,244 L123,235 L126,229 L126,227 L123,225 L123,223 L119,224 L112,224 L106,220 L104,217 L99,215 L99,213 L104,213 L105,204 L112,195 L115,191 L118,191 L116,195 L114,198 L112,198 L110,203 L107,207 L107,215 L110,218 L113,219 L122,219 L124,217 L124,213 L122,212 L122,214 L119,214 L120,210 L123,207 L125,207 L127,211 L127,222 L132,226 L138,229 L140,231 L142,238 L149,234 L157,225 L162,215 L162,207 L150,190 L142,180 L130,168 L114,158 L100,158 L90,162 L75,171 L61,182 L57,187 L57,191 L64,192 L63,194 L56,194 L53,193 L53,186 L56,182 L58,182 L59,179 L65,174 L67,174 L65,171 L65,163 L68,162 L68,160 L87,160 L96,155 L102,154 L111,154 L122,159 L127,161 L127,163 L132,165 L137,170 L141,174 L141,176 L145,178 L151,186 L151,188 L153,188 L157,193 L159,197 L166,198 L177,206 L182,211 L193,219 L187,193 L185,186 L185,182 L187,182 L191,193 L196,215 L198,224 L204,228 L209,233 L224,247 L229,251 L229,253 L225,252 L218,245 L207,236 L196,226 L182,215 L169,204 L167,203 L166,217 L160,227 L152,236 L146,241 L144,241 L143,245 L143,243 L139,245 L129,247 L136,260 L141,267 L147,279 L154,285 L154,288 L156,288 L159,294 L164,297 L170,304 L174,306 L178,310 L180,311 L180,313 L184,315 L192,319 L204,320 L203,324 L225,324 L238,320 L240,320 L240,318 L247,313 L247,311 L251,307 L253,307 L253,305 L255,305 L256,300 L260,296 L266,279 L267,277 L267,247 L265,230 L261,211 L258,199 L255,191 L249,175 L243,160 L236,149 L232,141 L232,139 L229,138 L226,133 L226,131 L224,131 L221,125 L213,116 L205,109 L190,100 L180,96 L180,93 L185,94 L202,103 L215,113 L224,123 L234,138 L237,141 L249,164 L258,187 L265,210 L270,237 L271,246 L271,272 L268,287 L263,300 L255,311 L250,316 L274,317 L274,320 L269,321 L243,321 L231,326 L220,328 L204,327 L191,323 L187,321 L57,321 L52,329 L46,332 L-85,332 L-93,327 L-95,324 L-95,320 L-105,321 L-176,321 L-190,330 L-204,336 L-214,339 L-221,340 L-231,340 L-244,336 L-254,327 L-257,322 L-257,320 L-274,320 L-274,317 L-259,317 L-261,308 L-261,291 L-257,272 L-252,259 L-253,256 L-257,253 L-256,246 L-246,228 L-243,223 L-238,221 L-240,226 L-243,232 L-245,232 L-247,239 L-253,249 L-252,252 L-242,258 L-231,262 L-226,265 L-206,271 L-196,272 L-196,269 L-194,269 L-193,262 L-188,250 L-185,242 L-182,242 L-183,247 L-187,257 L-190,266 L-192,266 L-193,272 L-182,267 L-166,261 L-158,257 L-155,256 L-155,254 L-150,251 L-139,241 L-129,235 L-118,231 L-110,230 L-91,230 L-80,233 L-79,235 L-92,234 L-114,234 L-125,237 L-134,242 L-145,251 L-152,258 L-166,265 L-176,269 L-188,274 L-203,280 L-214,285 L-223,287 L-222,284 L-208,278 L-201,276 L-217,272 L-230,267 L-242,262 L-249,259 L-252,269 L-255,278 L-256,287 L-257,288 L-257,307 L-254,319 L-246,330 L-237,335 L-233,336 L-220,336 L-205,332 L-188,324 L-173,314 L-163,306 L-157,301 L-152,300 L-156,305 L-158,305 L-158,307 L-167,314 L-170,315 L-170,317 L-94,316 L-84,277 L-82,270 L-73,237 L-69,222 L-66,213 L-63,208 L-55,204 L-62,198 L-62,196 L-67,194 L-82,187 L-94,185 L-90,183 L-79,179 L-74,174 L-66,165 L-62,157 L-59,148 L-58,90 L-56,92 L-56,105 L-54,105 L-53,98 L-50,93 L-49,79 L-47,79 L-47,81 L-44,82 L-44,70 L-50,59 L-51,56 L-54,56 L-57,51 L-49,47 L-45,40 L-44,40 L-44,45 L-50,51 L-52,51 L-44,62 L-39,74 L-39,85 L-41,88 L-45,87 L-48,99 L-52,107 L-55,111 L-55,148 L-59,161 L-66,171 L-74,179 L-81,183 L-65,191 L-56,198 L-49,204 L-43,204 L-31,177 L-23,161 L-14,144 L-4,129 L5,118 L14,110 L27,102 L43,94 L64,86 L53,84 L42,78 L31,67 L23,52 L18,37 L15,25 L5,15 L1,9 Z " fill="#13345A" transform="translate(278,101)"/>
<path d="M0,0 L22,0 L35,3 L34,8 L31,9 L19,10 L6,10 L3,9 L6,12 L14,18 L17,21 L17,31 L14,32 L11,27 L4,21 L1,20 L6,25 L13,32 L13,40 L9,44 L7,38 L3,36 L-3,32 L-3,34 L1,36 L6,41 L6,50 L1,54 L-7,54 L-8,50 L-4,49 L-4,47 L-10,49 L-14,54 L-21,57 L-31,58 L-47,73 L-55,79 L-69,89 L-84,97 L-93,101 L-106,104 L-119,104 L-129,100 L-135,95 L-142,84 L-144,74 L-144,55 L-143,54 L-141,42 L-135,26 L-129,27 L-119,32 L-105,37 L-92,41 L-86,42 L-87,44 L-99,48 L-108,52 L-109,54 L-100,51 L-89,46 L-67,37 L-60,34 L-41,26 L-31,17 L-19,7 L-8,2 Z " fill="#A6CCED" transform="translate(164,334)"/>
<path d="M0,0 L12,1 L20,4 L29,12 L33,20 L34,24 L34,35 L30,48 L24,58 L15,68 L7,75 L-5,82 L-18,86 L-25,87 L-33,87 L-46,83 L-55,75 L-59,66 L-60,61 L-59,48 L-54,36 L-47,26 L-38,16 L-24,7 L-12,2 Z " fill="#B6D7F5" transform="translate(109,29)"/>
<path d="M0,0 L14,0 L27,8 L37,17 L46,26 L59,44 L63,50 L63,58 L56,71 L49,78 L45,81 L42,81 L38,73 L29,68 L26,65 L26,54 L25,50 L20,54 L19,57 L22,57 L22,55 L25,56 L24,61 L22,63 L13,63 L7,60 L6,58 L6,50 L12,41 L14,41 L16,37 L18,34 L15,35 L6,47 L3,55 L-2,54 L-5,51 L-5,42 L2,31 L7,24 L1,29 L-5,38 L-8,46 L-12,45 L-15,41 L-15,34 L-10,25 L-3,17 L-2,14 L-8,19 L-11,22 L-34,33 L-37,34 L-44,34 L-43,28 L-32,18 L-17,8 L-4,1 Z " fill="#A6CBEC" transform="translate(378,258)"/>
<path d="M0,0 L9,0 L20,5 L25,7 L25,9 L30,11 L35,16 L39,20 L39,22 L43,24 L49,32 L49,34 L51,34 L55,39 L57,43 L64,44 L75,52 L80,57 L91,65 L85,39 L83,32 L83,28 L85,28 L89,39 L94,61 L96,70 L102,74 L107,79 L122,93 L127,97 L127,99 L123,98 L116,91 L105,82 L94,72 L80,61 L67,50 L65,49 L64,63 L58,73 L50,82 L44,87 L42,87 L41,91 L41,89 L37,91 L27,93 L34,106 L39,113 L45,125 L52,131 L52,134 L54,134 L57,140 L62,143 L68,150 L72,152 L76,156 L78,157 L78,159 L82,161 L90,165 L102,166 L101,169 L89,167 L85,165 L-48,165 L-49,163 L-46,151 L-37,151 L-37,152 L-43,152 L-43,159 L-44,161 L73,161 L67,154 L61,150 L56,145 L49,137 L46,132 L40,123 L40,121 L37,120 L33,113 L28,104 L25,99 L20,90 L21,81 L24,75 L24,73 L21,71 L21,69 L17,70 L10,70 L4,66 L2,63 L-3,61 L-3,59 L2,59 L3,50 L10,41 L13,37 L16,37 L14,41 L12,44 L10,44 L8,49 L5,53 L5,61 L8,64 L11,65 L20,65 L22,63 L22,59 L20,58 L20,60 L17,60 L18,56 L21,53 L23,53 L25,57 L25,68 L30,72 L36,75 L38,77 L40,84 L47,80 L55,71 L60,61 L60,53 L48,36 L40,26 L28,14 L12,4 L-2,4 L-12,8 L-27,17 L-41,28 L-45,33 L-45,37 L-38,38 L-39,40 L-46,40 L-49,39 L-49,32 L-46,28 L-44,28 L-43,25 L-37,20 L-35,20 L-37,17 L-37,9 L-34,8 L-34,6 L-15,6 L-6,1 Z " fill="#1B416C" transform="translate(380,255)"/>
<path d="M0,0 L5,1 L22,10 L35,20 L44,30 L54,45 L57,48 L69,71 L78,94 L85,117 L90,144 L91,153 L91,179 L88,194 L83,207 L75,218 L70,223 L94,224 L94,227 L89,228 L63,228 L51,233 L40,235 L24,234 L11,230 L7,228 L-123,228 L-128,236 L-134,239 L-265,239 L-273,234 L-275,231 L-275,227 L-273,227 L-271,232 L-268,233 L-268,229 L-266,229 L-266,232 L-264,232 L-264,234 L-262,234 L-262,236 L-135,235 L-133,233 L-129,229 L-125,225 L7,225 L15,228 L28,231 L45,231 L58,227 L60,227 L60,225 L67,220 L67,218 L71,214 L73,214 L73,212 L75,212 L76,207 L80,203 L86,186 L87,184 L87,154 L85,137 L81,118 L78,106 L75,98 L69,82 L63,67 L56,56 L52,48 L52,46 L49,45 L46,40 L46,38 L44,38 L41,32 L33,23 L25,16 L10,7 L0,3 Z " fill="#112D52" transform="translate(458,194)"/>
<path d="M0,0 L2,1 L1,6 L-5,10 L-12,11 L-22,11 L-18,16 L-16,22 L-17,30 L-20,39 L-21,42 L-27,46 L-31,52 L-35,55 L-47,54 L-49,56 L-59,59 L-60,61 L-62,61 L-64,68 L-48,72 L-35,72 L-23,69 L-15,66 L-12,66 L-14,77 L-16,82 L-92,82 L-92,80 L-82,72 L-80,72 L-80,70 L-76,66 L-78,65 L-67,55 L-54,53 L-49,50 L-45,45 L-40,45 L-40,47 L-43,48 L-43,51 L-35,51 L-31,48 L-31,39 L-39,32 L-39,30 L-34,32 L-29,36 L-26,41 L-24,38 L-24,30 L-35,20 L-35,18 L-31,19 L-22,27 L-22,30 L-20,29 L-20,19 L-28,12 L-33,9 L-33,7 L-17,7 L-5,6 L-1,4 Z " fill="#326395" transform="translate(200,336)"/>
<path d="M0,0 L5,1 L7,2 L7,5 L10,6 L10,8 L16,6 L14,10 L11,12 L3,12 L2,8 L6,7 L6,5 L0,7 L-4,12 L-11,15 L-21,16 L-37,31 L-45,37 L-59,47 L-74,55 L-83,59 L-96,62 L-109,62 L-119,58 L-125,53 L-132,42 L-133,35 L-131,35 L-127,43 L-124,45 L-124,47 L-115,50 L-110,51 L-93,51 L-88,49 L-81,47 L-74,44 L-63,39 L-55,34 L-50,32 L-50,30 L-42,25 L-40,25 L-39,22 L-35,19 L-33,19 L-32,16 L-30,16 L-30,14 L-28,14 L-28,12 L-26,12 L-26,10 L-23,8 L-8,7 L-8,5 Z M10,5 Z " fill="#8CB6DE" transform="translate(154,376)"/>
<path d="M0,0 L134,0 L136,1 L136,3 L7,4 L2,6 L-1,11 L-4,20 L-5,28 L-7,35 L-12,51 L-19,77 L-27,105 L-29,118 L-32,118 L-33,109 L-25,79 L-23,74 L-21,65 L-19,59 L-15,43 L-7,13 L-4,4 Z " fill="#7EA1C5" transform="translate(219,309)"/>
<path d="M0,0 L5,1 L22,10 L35,20 L44,30 L54,45 L57,48 L69,71 L78,94 L85,117 L90,144 L91,153 L91,179 L88,194 L83,207 L76,217 L73,217 L68,220 L67,218 L71,214 L73,214 L73,212 L75,212 L76,207 L80,203 L86,186 L87,184 L87,154 L85,137 L81,118 L78,106 L75,98 L69,82 L63,67 L56,56 L52,48 L52,46 L49,45 L46,40 L46,38 L44,38 L41,32 L33,23 L25,16 L10,7 L0,3 Z " fill="#173255" transform="translate(458,194)"/>
<path d="M0,0 L2,3 L3,5 L3,23 L-1,35 L-7,44 L-15,51 L-26,56 L-39,58 L-50,57 L-47,63 L-29,66 L-28,68 L-11,73 L-1,76 L6,80 L6,82 L2,81 L-27,72 L-40,69 L-47,67 L-49,77 L-52,82 L-54,82 L-54,86 L-56,86 L-57,91 L-59,91 L-61,96 L-65,103 L-67,103 L-69,107 L-73,113 L-75,113 L-77,118 L-82,123 L-89,129 L-95,128 L-97,121 L-93,123 L-92,125 L-88,124 L-81,117 L-71,104 L-57,83 L-50,69 L-51,64 L-53,61 L-53,55 L-52,53 L-27,53 L-27,48 L-23,49 L-23,51 L-16,47 L-14,47 L-14,45 L-11,42 L-8,42 L-7,37 L-5,36 L-2,28 L-2,13 L-1,10 L-2,6 Z " fill="#1E3E63" transform="translate(451,113)"/>
<path d="M0,0 L1,0 L1,5 L-5,11 L-7,11 L1,22 L6,34 L6,45 L4,48 L0,47 L-3,59 L-7,67 L-10,71 L-10,108 L-14,121 L-21,131 L-29,139 L-36,143 L-20,151 L-11,158 L-6,163 L-7,165 L-9,163 L-13,162 L-17,158 L-17,156 L-22,154 L-37,147 L-49,145 L-45,143 L-34,139 L-29,134 L-21,125 L-17,117 L-14,108 L-13,50 L-11,52 L-11,65 L-9,65 L-8,58 L-5,53 L-4,39 L-2,39 L-2,41 L1,42 L1,30 L-5,19 L-6,16 L-9,16 L-12,11 L-4,7 Z " fill="#1A3A60" transform="translate(233,141)"/>
<path d="M0,0 L19,0 L30,3 L31,5 L18,4 L-4,4 L-15,7 L-24,12 L-35,21 L-42,28 L-56,35 L-66,39 L-78,44 L-93,50 L-104,55 L-113,57 L-112,54 L-98,48 L-91,46 L-107,42 L-120,37 L-132,32 L-139,29 L-139,28 L-132,28 L-121,32 L-116,35 L-96,41 L-86,42 L-86,39 L-84,39 L-83,32 L-78,20 L-75,12 L-72,12 L-73,17 L-77,27 L-80,36 L-82,36 L-83,42 L-72,37 L-56,31 L-48,27 L-45,26 L-45,24 L-40,21 L-29,11 L-19,5 L-8,1 Z " fill="#143860" transform="translate(168,331)"/>
<path d="M0,0 L2,1 L1,6 L-5,10 L-12,11 L-22,11 L-18,16 L-16,22 L-17,30 L-20,39 L-21,42 L-27,46 L-31,52 L-35,55 L-47,54 L-49,56 L-56,58 L-67,59 L-72,64 L-74,64 L-72,60 L-67,55 L-54,53 L-49,50 L-45,45 L-40,45 L-40,47 L-43,48 L-43,51 L-35,51 L-31,48 L-31,39 L-39,32 L-39,30 L-34,32 L-29,36 L-26,41 L-24,38 L-24,30 L-35,20 L-35,18 L-31,19 L-22,27 L-22,30 L-20,29 L-20,19 L-28,12 L-33,9 L-33,7 L-17,7 L-5,6 L-1,4 Z " fill="#24476E" transform="translate(200,336)"/>
<path d="M0,0 L10,1 L14,2 L31,3 L32,8 L27,16 L22,21 L9,21 L4,17 L-1,9 L-1,1 Z M5,5 L5,7 L11,9 L25,9 L27,6 Z " fill="#34557C" transform="translate(168,249)"/>
<path d="M0,0 L9,0 L20,5 L25,7 L25,9 L30,11 L35,16 L39,20 L37,23 L28,14 L12,4 L-2,4 L-12,8 L-27,17 L-41,28 L-45,33 L-45,37 L-38,38 L-39,40 L-46,40 L-49,39 L-49,32 L-46,28 L-44,28 L-43,25 L-37,20 L-35,20 L-37,17 L-37,9 L-34,8 L-34,6 L-15,6 L-6,1 Z " fill="#21466D" transform="translate(380,255)"/>
<path d="M0,0 L6,0 L10,3 L10,5 L12,5 L13,14 L7,22 L2,25 L-5,25 L-9,20 L-10,10 L-6,4 L-3,1 Z " fill="#729DC6" transform="translate(279,360)"/>
<path d="M0,0 L134,0 L136,1 L136,3 L7,4 L0,6 L-1,1 Z " fill="#8BACD1" transform="translate(219,309)"/>
<path d="M0,0 L10,0 L27,3 L40,8 L52,15 L61,23 L70,35 L75,46 L75,53 L73,50 L67,38 L64,33 L64,31 L61,30 L59,26 L54,21 L45,15 L40,12 L28,8 L23,6 L17,5 L-3,5 L-13,6 L-24,10 L-27,9 L-24,6 L-13,2 Z " fill="#18365D" transform="translate(351,13)"/>
<path d="M0,0 L5,2 L7,3 L6,4 L130,5 L130,6 L-3,7 L-7,12 L-15,42 L-20,59 L-22,70 L-24,74 L-25,80 L-28,79 L-27,69 L-24,60 L-17,35 L-13,20 L-10,11 L-7,6 L1,2 Z " fill="#32567C" transform="translate(222,303)"/>
<path d="M0,0 L3,1 L3,4 L6,5 L13,14 L24,19 L25,20 L33,21 L30,26 L21,34 L18,34 L14,26 L5,21 L2,18 L2,7 L0,3 Z " fill="#8BB6DC" transform="translate(402,305)"/>
<path d="M0,0 L2,2 L1,9 L-1,13 L-3,13 L-3,15 L-5,15 L-7,19 L-8,21 L-10,21 L-12,25 L-18,29 L-22,31 L-27,30 L-29,24 L-29,19 L-16,14 L-5,6 L-3,3 L-1,3 Z " fill="#8AB4DD" transform="translate(376,165)"/>
<path d="M0,0 L11,7 L17,10 L27,13 L34,14 L33,27 L30,27 L19,23 L8,16 L3,11 L-1,2 Z " fill="#89B4DC" transform="translate(141,273)"/>
<path d="M0,0 L6,1 L16,6 L30,11 L43,15 L49,16 L48,18 L38,21 L38,18 L31,18 L9,13 L-1,10 L-4,15 L-5,13 Z " fill="#91BADE" transform="translate(29,360)"/>
<path d="M0,0 L1,0 L0,9 L-8,39 L-8,47 L-10,46 L-10,42 L-22,43 L-41,43 L-42,41 L-94,40 L-89,35 L-76,25 L-71,22 L-69,23 L-73,27 L-75,27 L-75,29 L-84,36 L-87,37 L-87,39 L-11,38 L-2,3 L0,3 Z " fill="#183C68" transform="translate(195,379)"/>
<path d="M0,0 L7,1 L12,4 L19,7 L37,13 L53,16 L56,18 L55,20 L54,21 L40,20 L29,18 L25,16 L21,16 L21,14 L10,16 L6,17 L8,13 L11,10 L8,8 L4,6 L3,4 L0,3 Z " fill="#83AFDA" transform="translate(328,87)"/>
<path d="M0,0 L4,1 L7,5 L7,12 L3,17 L-3,19 L-19,19 L-21,17 L-20,13 L-17,10 L-5,7 L-1,7 L-1,1 Z " fill="#A5C8E6" transform="translate(353,352)"/>
<path d="M0,0 L2,2 L3,8 L5,8 L10,16 L15,21 L19,25 L21,34 L25,44 L28,54 L32,61 L36,67 L44,75 L58,82 L66,83 L66,84 L53,84 L42,78 L31,67 L23,52 L18,37 L15,25 L5,15 L1,9 Z " fill="#143055" transform="translate(278,101)"/>
<path d="M0,0 L2,0 L1,4 L-5,11 L-10,20 L-10,27 L-7,31 L-4,32 L-3,28 L0,21 L7,12 L11,10 L9,15 L3,23 L0,28 L0,39 L-4,38 L-4,36 L-10,37 L-13,29 L-13,18 L-11,14 L-21,19 L-27,21 L-31,20 L-26,18 L-23,15 L-7,7 L-5,7 L-3,3 Z " fill="#22456B" transform="translate(374,272)"/>
<path d="M0,0 L3,0 L3,7 L-1,11 L-5,13 L-18,13 L-26,11 L-27,6 L-23,2 L-5,2 Z " fill="#AACDED" transform="translate(355,371)"/>
<path d="M0,0 L1,2 L-4,11 L-6,11 L-8,18 L-14,28 L-13,31 L-5,36 L-5,37 L-10,37 L-11,42 L-16,57 L-17,66 L-18,67 L-19,84 L-22,87 L-22,70 L-18,51 L-13,38 L-14,35 L-18,32 L-17,25 L-7,7 L-4,2 Z " fill="#162F51" transform="translate(39,322)"/>
<path d="M0,0 L2,0 L9,11 L9,21 L6,27 L7,36 L13,46 L11,46 L10,48 L8,43 L6,43 L2,33 L2,28 L-19,31 L-27,31 L-24,29 L-21,27 L-10,26 L-10,24 L-1,24 L4,22 L5,13 L1,7 L1,5 L-7,6 L-7,4 L-3,4 L-3,2 Z " fill="#27486F" transform="translate(120,249)"/>
<path d="M0,0 L1,4 L0,6 L-3,7 L-4,10 L-14,16 L-24,19 L-32,19 L-30,13 L-36,18 L-46,22 L-51,21 L-51,19 L-60,19 L-60,18 L-47,16 L-34,11 L-25,5 L-26,10 L-28,10 L-28,14 L-18,13 L-5,6 Z " fill="#88B3D8" transform="translate(210,180)"/>
<path d="M0,0 L3,1 L1,1 L5,16 L9,32 L9,38 L4,36 L-7,27 L-5,26 L-1,8 Z " fill="#376494" transform="translate(462,282)"/>
<path d="M0,0 L2,3 L0,9 L-2,13 L-4,13 L-4,17 L-6,17 L-7,22 L-9,22 L-11,27 L-15,34 L-17,34 L-19,38 L-23,44 L-25,44 L-27,49 L-32,54 L-39,60 L-45,59 L-47,52 L-43,54 L-42,56 L-38,55 L-31,48 L-21,35 L-7,14 Z " fill="#254A72" transform="translate(401,182)"/>
<path d="M0,0 L19,0 L30,3 L31,5 L18,4 L-4,4 L-15,7 L-24,12 L-35,21 L-42,28 L-46,29 L-46,27 L-41,22 L-29,11 L-19,5 L-8,1 Z " fill="#1A3E66" transform="translate(168,331)"/>
<path d="M0,0 L24,1 L23,7 L19,13 L16,16 L8,17 L12,16 L9,13 L1,9 L-4,8 L-2,7 L-2,5 L17,5 L17,4 L1,2 Z " fill="#16355B" transform="translate(176,252)"/>
<path d="M0,0 L5,1 L22,10 L35,20 L44,30 L54,45 L57,48 L58,52 L55,53 L52,48 L52,46 L49,45 L46,40 L46,38 L44,38 L41,32 L33,23 L25,16 L10,7 L0,3 Z " fill="#28486C" transform="translate(458,194)"/>
<path d="M0,0 L5,2 L10,6 L12,16 L8,22 L4,25 L-8,24 L-10,26 L-17,28 L-28,29 L-33,34 L-35,34 L-33,30 L-28,25 L-15,23 L-10,20 L-6,15 L-1,15 L-1,17 L-4,18 L-4,21 L4,21 L8,18 L8,9 L0,2 Z " fill="#244975" transform="translate(161,366)"/>
<path d="M0,0 L2,0 L1,7 L0,11 L-1,25 L-52,25 L-51,22 L-51,24 L-13,23 L-8,13 Z " fill="#376393" transform="translate(291,281)"/>
<path d="M0,0 L9,0 L15,7 L15,21 L13,23 L14,14 L10,17 L9,13 L9,6 L2,8 L-2,15 L-4,17 L-7,14 L-7,7 L-2,1 Z " fill="#AACDEE" transform="translate(396,98)"/>
<path d="M0,0 L7,0 L14,8 L14,11 L16,11 L16,19 L7,19 L4,16 L0,9 L1,4 L0,3 Z " fill="#8CB1D6" transform="translate(102,226)"/>
<path d="M0,0 L2,1 L4,1 L2,11 L2,14 L9,14 L9,12 L21,11 L21,9 L25,8 L26,6 L28,7 L29,4 L31,4 L29,8 L21,13 L9,17 L-3,17 L-2,10 L-1,8 L-6,13 L-14,19 L-16,20 L-22,20 L-22,18 L-13,16 L-13,14 L-10,14 L-8,10 L-2,3 Z M-1,14 Z M26,5 Z " fill="#183C65" transform="translate(151,181)"/>
<path d="M0,0 L8,0 L15,5 L15,10 L12,12 L-1,12 L-6,7 L-5,3 Z " fill="#8CB6DE" transform="translate(150,233)"/>
<path d="M0,0 L6,0 L7,8 L3,19 L1,21 L-4,21 L-6,18 L-6,9 L-2,2 Z " fill="#7EAAD4" transform="translate(399,104)"/>
<path d="M0,0 L25,0 L24,5 L18,9 L3,9 L-1,5 Z " fill="#A6C8E7" transform="translate(329,386)"/>
<path d="M0,0 L9,0 L9,1 L3,1 L3,8 L1,12 L125,11 L125,13 L-2,14 L-3,12 Z " fill="#18406C" transform="translate(334,406)"/>
<path d="M0,0 L4,2 L12,7 L25,11 L29,12 L46,12 L57,8 L59,9 L50,13 L47,14 L52,15 L52,16 L39,17 L38,27 L37,27 L36,19 L34,19 L34,16 L27,16 L14,12 L3,5 L0,2 Z " fill="#41648A" transform="translate(141,271)"/>
<path d="M0,0 L1,4 L2,23 L4,24 L-9,29 L-11,29 L-10,23 L-8,23 L-7,16 L-5,13 L-2,4 Z " fill="#366393" transform="translate(96,344)"/>
<path d="M0,0 L4,0 L4,6 L-1,13 L-9,17 L-18,17 L-19,13 L-9,13 L-2,9 L-1,5 L-12,10 L-22,12 L-22,8 L-18,7 L-10,7 L-10,5 Z " fill="#162F50" transform="translate(347,147)"/>
<path d="M0,0 L2,0 L4,5 L9,8 L11,9 L140,10 L140,11 L10,12 L2,7 L0,4 Z " fill="#052448" transform="translate(183,421)"/>
<path d="M0,0 L3,0 L7,2 L8,4 L11,5 L8,8 L-4,13 L-11,13 L-10,7 L-7,4 Z " fill="#B2D3F1" transform="translate(345,279)"/>
<path d="M0,0 L2,0 L2,8 L-1,19 L1,20 L-1,20 L0,25 L5,31 L5,40 L3,40 L0,29 L-2,27 L-5,27 L-6,32 L-11,32 L-8,31 L-7,21 Z " fill="#12365E" transform="translate(358,326)"/>
<path d="M0,0 L22,0 L35,3 L34,8 L31,9 L15,9 L17,4 L20,4 L20,2 L-4,2 Z " fill="#9EC4E4" transform="translate(164,334)"/>
<path d="M0,0 L108,1 L108,2 L0,3 L-1,11 L-5,13 L-5,7 L-1,1 Z " fill="#1F456E" transform="translate(222,313)"/>
<path d="M0,0 L7,6 L8,7 L8,15 L4,19 L2,13 L-2,11 L-8,7 L-8,9 L-6,10 L-9,10 L-9,6 L-5,6 L-3,1 Z " fill="#A0C5E8" transform="translate(169,359)"/>
<path d="M0,0 L7,0 L18,4 L23,7 L43,13 L53,14 L54,11 L54,15 L47,17 L39,16 L24,11 L14,7 L3,2 Z " fill="#224A71" transform="translate(29,359)"/>
<path d="M0,0 L1,4 L0,7 L9,7 L9,5 L11,5 L12,3 L14,5 L12,9 L15,9 L15,7 L18,8 L17,13 L15,15 L6,15 L0,12 L-1,10 L-1,2 Z " fill="#86B0D6" transform="translate(385,306)"/>
<path d="M0,0 L8,0 L6,2 L-3,6 L-5,8 L-4,12 L-2,13 L11,14 L10,16 L-6,16 L-9,19 L-9,23 L-7,25 L-10,25 L-11,27 L-13,22 L-13,17 L-10,14 L-8,14 L-9,6 L-4,2 Z " fill="#183A61" transform="translate(338,358)"/>
<path d="M0,0 L11,1 L12,3 L29,8 L39,11 L46,15 L46,17 L42,16 L13,7 L0,4 L4,3 L6,4 L6,2 L0,1 Z " fill="#26486D" transform="translate(411,178)"/>
<path d="M0,0 L2,0 L3,6 L1,6 L2,29 L2,33 L1,37 L-1,36 L-3,26 L-3,4 Z M1,4 Z " fill="#16355A" transform="translate(88,170)"/>
<path d="M0,0 L5,1 L7,2 L7,5 L10,6 L10,8 L16,6 L14,10 L11,12 L3,12 L2,8 L6,7 L6,5 L0,7 L-2,10 L-8,9 L-8,5 Z M10,5 Z " fill="#9FC0E3" transform="translate(154,376)"/>
<path d="M0,0 L55,0 L67,5 L67,6 L59,5 L55,3 L1,3 Z " fill="#072246" transform="translate(410,419)"/>
<path d="M0,0 L1,0 L0,9 L-8,39 L-8,47 L-10,46 L-10,42 L-25,43 L-25,40 L-11,40 L-7,23 L-2,3 L0,3 Z " fill="#1B4069" transform="translate(195,379)"/>
<path d="M0,0 L10,0 L10,1 L0,2 L0,10 L5,10 L0,15 L-10,24 L-11,30 L-4,31 L-5,33 L-12,33 L-15,32 L-15,25 L-12,21 L-10,21 L-9,18 L-3,13 L-1,13 L-3,10 L-3,2 Z " fill="#183B64" transform="translate(346,262)"/>
<path d="M0,0 L1,2 L3,3 L1,6 L1,18 L7,27 L13,31 L23,32 L19,33 L19,35 L21,36 L16,36 L6,31 L0,23 L-3,18 L-3,6 Z " fill="#34526F" transform="translate(94,220)"/>
<path d="M0,0 L2,0 L0,9 L-8,16 L-19,20 L-19,13 L-9,9 L-2,3 Z " fill="#8CB8DF" transform="translate(148,189)"/>
<path d="M0,0 L7,1 L12,4 L19,7 L15,10 L23,13 L24,15 L13,15 L9,17 L6,17 L8,13 L11,10 L8,8 L4,6 L3,4 L0,3 Z " fill="#89B1D6" transform="translate(328,87)"/>
<path d="M0,0 L1,0 L1,12 L-4,22 L-7,26 L-9,26 L-9,44 L-10,44 L-10,5 L-8,7 L-8,20 L-6,20 L-5,13 L-1,7 Z " fill="#0E2C54" transform="translate(230,186)"/>
<path d="M0,0 L5,1 L14,9 L23,21 L28,32 L28,39 L26,36 L20,24 L17,19 L17,17 L14,16 L12,12 L7,7 L0,1 Z " fill="#122E51" transform="translate(398,27)"/>
<path d="M0,0 L2,3 L3,5 L3,23 L-1,35 L-3,38 L-5,38 L-2,28 L-2,13 L-1,10 L-2,6 Z " fill="#16375C" transform="translate(451,113)"/>
<path d="M0,0 L55,1 L51,4 L-1,4 L-4,5 L-2,1 Z " fill="#062448" transform="translate(103,418)"/>
<path d="M0,0 L1,4 L-4,19 L-12,31 L-15,31 L-20,34 L-21,32 L-17,28 L-15,28 L-15,26 L-13,26 L-12,21 L-8,17 L-3,2 L-2,6 Z " fill="#183353" transform="translate(546,380)"/>
<path d="M0,0 L3,0 L1,4 L-1,7 L-3,7 L-5,12 L-8,16 L-8,24 L-5,27 L5,29 L5,30 L-1,31 L4,32 L4,33 L-3,33 L-9,29 L-11,26 L-16,24 L-16,22 L-11,22 L-10,13 L-3,4 Z " fill="#22446A" transform="translate(393,292)"/>
<path d="M0,0 L1,4 L0,6 L-3,7 L-4,10 L-14,16 L-24,19 L-32,19 L-30,15 L-28,14 L-18,13 L-5,6 Z " fill="#86ADD3" transform="translate(210,180)"/>
<path d="M0,0 L2,2 L3,8 L5,8 L10,16 L15,21 L19,25 L23,42 L24,47 L21,47 L17,33 L15,25 L5,15 L1,9 Z " fill="#0E294E" transform="translate(278,101)"/>
<path d="M0,0 L8,2 L8,4 L10,4 L10,2 L12,2 L11,6 L13,9 L-4,9 L-11,7 L-9,6 L-9,4 L0,3 Z " fill="#B2D5F1" transform="translate(186,243)"/>
<path d="M0,0 L6,0 L8,1 L8,10 L-3,10 L-5,8 L-5,3 Z " fill="#8BB7E0" transform="translate(210,234)"/>
<path d="M0,0 L18,1 L17,5 L14,8 L4,8 L-1,4 Z " fill="#ABCDEB" transform="translate(330,397)"/>
<path d="M0,0 L6,2 L6,3 L-4,5 L-9,10 L-12,18 L-15,17 L-17,11 L-23,8 L-18,4 L-16,5 L-15,9 L-11,10 L-10,5 L-7,1 Z M-15,6 Z " fill="#1B3D67" transform="translate(400,94)"/>
<path d="M0,0 L2,4 L2,6 L-1,6 L0,17 L7,40 L7,44 L5,44 L-1,27 L-3,16 L-3,2 L-1,4 Z " fill="#1C4169" transform="translate(347,189)"/>
<path d="M0,0 L7,1 L20,8 L32,19 L31,21 L29,19 L25,18 L21,14 L21,12 L16,10 L-1,2 Z " fill="#0F2E53" transform="translate(195,285)"/>
<path d="M0,0 L1,2 L-7,16 L-10,24 L-10,34 L-9,40 L-9,48 L-12,45 L-12,20 L-9,12 L-7,12 L-6,7 L-5,4 L-3,4 L-2,1 Z " fill="#0F345B" transform="translate(303,68)"/>
<path d="M0,0 L1,0 L1,7 L-1,16 L-3,16 L-5,30 L-9,38 L-10,38 L-9,28 L-5,16 L-3,9 Z " fill="#13355D" transform="translate(216,328)"/>
<path d="M0,0 L10,1 L20,2 L20,6 L18,6 L18,8 L11,9 L4,10 L-4,8 L-2,7 L-2,5 L17,5 L17,4 L1,2 Z " fill="#142549" transform="translate(176,252)"/>
<path d="M0,0 L2,1 L-2,8 L50,9 L50,10 L-10,10 L-10,8 Z " fill="#2D5886" transform="translate(118,408)"/>
<path d="M0,0 L5,1 L22,10 L34,19 L30,20 L20,13 L10,7 L0,3 Z " fill="#1C3F62" transform="translate(458,194)"/>
<path d="M0,0 L1,0 L1,5 L-5,11 L-7,11 L1,22 L3,26 L3,31 L-1,27 L-5,19 L-6,16 L-9,16 L-12,11 L-4,7 Z " fill="#0A2A4F" transform="translate(233,141)"/>
<path d="M0,0 L1,2 L0,4 L-2,4 L-4,9 L-9,14 L-16,20 L-22,19 L-24,12 L-20,14 L-19,16 L-15,15 L-8,8 L-2,1 Z " fill="#1B406A" transform="translate(378,222)"/>
<path d="M0,0 L2,0 L1,5 L-7,14 L-18,21 L-23,23 L-26,23 L-25,20 L-16,16 L-8,10 L-1,2 Z " fill="#284B72" transform="translate(376,160)"/>
<path d="M0,0 L1,4 L-1,12 L1,12 L-2,31 L-5,31 L-6,22 Z " fill="#7FA0C5" transform="translate(192,396)"/>
<path d="M0,0 L8,0 L10,2 L0,5 L-10,9 L-15,12 L-17,12 L-17,14 L-19,14 L-17,9 L-5,2 Z " fill="#224364" transform="translate(84,280)"/>
<path d="M0,0 L6,1 L6,3 L10,2 L14,7 L14,8 L9,8 L4,5 L-5,5 L-8,8 L-11,8 L-12,3 L-8,2 L-8,4 L-4,3 L-4,1 Z " fill="#1B3D64" transform="translate(106,214)"/>
<path d="M0,0 L8,1 L17,4 L17,6 L15,8 L15,10 L11,9 L4,8 L6,6 L-3,3 Z " fill="#8BB4D7" transform="translate(345,95)"/>
<path d="M0,0 L2,0 L1,8 L-6,22 L-17,34 L-23,39 L-25,38 L-13,27 L-9,18 L-5,16 L-2,10 Z " fill="#B3CDE8" transform="translate(140,64)"/>
<path d="M0,0 L2,0 L0,8 L-3,18 L-4,34 L-7,34 L-7,20 L-2,3 Z " fill="#1B4470" transform="translate(297,272)"/>
<path d="M0,0 L2,0 L2,18 L-1,25 L-5,26 L-7,21 L-2,18 Z " fill="#163964" transform="translate(126,203)"/>
<path d="M0,0 L5,2 L10,6 L12,16 L8,22 L4,25 L-2,25 L-4,23 L3,22 L8,18 L8,9 L0,2 Z " fill="#153963" transform="translate(161,366)"/>
<path d="M0,0 L1,0 L2,7 L-1,21 L-3,25 L-4,31 L-7,30 L-6,20 L-3,11 Z " fill="#1F446D" transform="translate(201,352)"/>
<path d="M0,0 L27,0 L28,3 L5,3 L-5,5 L-9,4 Z " fill="#1A3C60" transform="translate(147,119)"/>
<path d="M0,0 L5,0 L1,2 L1,4 L-1,4 L-2,8 L4,8 L5,11 L-3,11 L-3,18 L-6,18 L-6,9 L-2,2 Z " fill="#2F537A" transform="translate(399,104)"/>
<path d="M0,0 L2,0 L2,18 L9,21 L9,23 L2,23 L-2,19 L-2,10 Z " fill="#3C5D82" transform="translate(321,121)"/>
<path d="M0,0 L10,1 L14,2 L31,3 L31,4 L9,4 L5,6 L1,5 L-1,9 L-1,1 Z " fill="#5B7495" transform="translate(168,249)"/>
<path d="M0,0 L1,0 L0,14 L-4,21 L-7,20 L-5,14 L-4,12 L-4,4 L-5,2 Z " fill="#1F436A" transform="translate(444,304)"/>
<path d="M0,0 L1,3 L-1,14 L-3,16 L-5,24 L-7,27 L-7,19 L-3,4 Z " fill="#1D4167" transform="translate(206,367)"/>
<path d="M0,0 L5,1 L9,5 L7,5 L6,9 L4,9 L3,11 L-1,6 L-3,5 L-3,3 Z " fill="#AECDE8" transform="translate(168,347)"/>
<path d="M0,0 L4,1 L10,18 L9,23 L8,27 L6,18 L3,10 Z " fill="#1A385C" transform="translate(530,282)"/>
<path d="M0,0 L4,2 L12,7 L27,13 L27,14 L17,13 L6,7 L0,2 Z " fill="#25486F" transform="translate(141,271)"/>
<path d="M0,0 L2,0 L5,5 L8,12 L8,20 L6,18 L4,11 L1,7 L1,5 L-7,6 L-7,4 L-3,4 L-3,2 Z " fill="#153157" transform="translate(120,249)"/>
<path d="M0,0 L7,0 L14,8 L15,15 L13,15 L12,10 L8,11 L7,14 L5,14 L6,9 L10,8 L6,3 L0,2 Z " fill="#26496F" transform="translate(102,226)"/>
<path d="M0,0 L2,0 L8,12 L14,16 L13,18 L8,16 L2,8 L2,6 L-2,9 L-4,9 L-3,5 Z " fill="#153963" transform="translate(308,58)"/>
<path d="M0,0 L13,0 L9,4 L3,8 L0,8 L-1,2 Z " fill="#92B5DD" transform="translate(346,264)"/>
<path d="M0,0 L1,2 L0,12 L-1,14 L-3,14 L-3,8 L-21,8 L-21,7 L-10,6 L-1,3 Z " fill="#284A71" transform="translate(357,378)"/>
<path d="M0,0 L4,0 L4,2 L-9,7 L-16,10 L-19,10 L-18,7 L-4,1 Z " fill="#294B6C" transform="translate(74,378)"/>
<path d="M0,0 L4,1 L2,5 L-3,6 L-8,9 L-14,11 L-18,10 L-13,8 L-10,5 Z " fill="#294D76" transform="translate(361,282)"/>
<path d="M0,0 L1,0 L0,18 L-2,17 L-2,13 L-17,14 L-17,11 L-3,11 L-1,1 Z " fill="#183459" transform="translate(187,408)"/>
<path d="M0,0 L2,0 L2,8 L-1,19 L1,20 L-1,20 L-3,24 L-3,15 L-5,18 L-4,12 Z " fill="#214874" transform="translate(358,326)"/>
<path d="M0,0 L2,3 L7,19 L11,26 L12,29 L10,29 L8,24 L6,25 L1,14 L1,12 L3,12 L0,4 Z " fill="#2E4B72" transform="translate(299,136)"/>
<path d="M0,0 L13,0 L15,5 L13,8 L7,12 L5,12 L7,7 L9,2 L0,1 Z " fill="#2D507B" transform="translate(221,136)"/>
<path d="M0,0 L5,2 L15,8 L19,9 L18,13 L12,11 L2,4 Z " fill="#173A66" transform="translate(321,77)"/>
<path d="M0,0 L3,0 L2,5 L-2,15 L-5,24 L-8,22 L-5,13 Z " fill="#18426E" transform="translate(93,343)"/>
<path d="M0,0 L2,3 L3,5 L3,37 L2,37 L1,18 L0,15 Z " fill="#0A2649" transform="translate(545,333)"/>
<path d="M0,0 L3,1 L1,1 L1,3 L-7,10 L-14,17 L-19,23 L-20,27 L-25,30 L-23,25 L-14,14 Z " fill="#BBD0EB" transform="translate(57,162)"/>
<path d="M0,0 L3,1 L-8,5 L-12,6 L-29,6 L-34,5 L-30,3 L-24,4 L-13,4 L-10,2 L-10,1 Z " fill="#294B77" transform="translate(515,420)"/>
<path d="M0,0 L3,2 L3,7 L2,8 L1,25 L-2,28 L-2,11 Z " fill="#1D3554" transform="translate(19,381)"/>
<path d="M0,0 L11,1 L13,5 L-1,6 L-1,2 Z " fill="#92BCDF" transform="translate(148,198)"/>
<path d="M0,0 L3,0 L1,9 L-2,14 L-4,14 L-4,11 L-7,12 L-5,7 L-3,7 L-1,3 Z " fill="#143863" transform="translate(190,173)"/>
<path d="M0,0 L4,2 L9,8 L13,16 L12,18 L8,14 L6,9 L3,8 L0,3 Z " fill="#174170" transform="translate(414,367)"/>
<path d="M0,0 L2,4 L7,4 L6,8 L3,9 L-4,9 L-3,3 Z " fill="#A5C8E9" transform="translate(338,283)"/>
<path d="M0,0 L3,3 L1,7 L-1,9 L1,13 L-8,7 L-8,9 L-6,10 L-9,10 L-9,6 L-5,6 L-3,1 Z " fill="#94B8DA" transform="translate(169,359)"/>
<path d="M0,0 L11,1 L12,3 L19,5 L19,7 L9,6 L0,4 L4,3 L6,4 L6,2 L0,1 Z " fill="#2D4C72" transform="translate(411,178)"/>
<path d="M0,0 L1,0 L3,20 L5,24 L2,24 L-1,21 L-1,2 Z " fill="#12365D" transform="translate(427,71)"/>
<path d="M0,0 L2,0 L2,3 L4,3 L4,5 L6,5 L6,7 L34,7 L34,8 L4,8 L-2,5 L0,4 Z " fill="#143661" transform="translate(190,423)"/>
<path d="M0,0 L13,0 L12,4 L9,7 L-1,7 L-1,6 L4,5 L4,2 Z " fill="#A2C5E4" transform="translate(335,398)"/>
<path d="M0,0 L3,1 L2,5 L-9,7 L-17,7 L-14,5 L-11,3 L0,2 Z " fill="#4B718E" transform="translate(110,273)"/>
<path d="M0,0 L2,0 L1,5 L-4,16 L-8,20 L-7,14 Z " fill="#153057" transform="translate(256,260)"/>
<path d="M0,0 L3,1 L7,7 L7,13 L3,17 L-1,17 L0,14 L4,13 L2,6 L0,3 Z " fill="#26496D" transform="translate(190,227)"/>
<path d="M0,0 L6,1 L21,3 L21,4 L4,5 L3,10 L1,10 L0,3 Z " fill="#13365B" transform="translate(326,393)"/>
<path d="M0,0 L7,4 L9,7 L9,15 L7,18 L5,9 L0,8 L3,3 L-1,2 Z " fill="#12345D" transform="translate(353,307)"/>
<path d="M0,0 L7,0 L14,4 L14,6 L4,6 L0,2 Z " fill="#6C90B9" transform="translate(173,261)"/>
<path d="M0,0 L1,0 L0,13 L-4,18 L-4,6 L-3,2 Z " fill="#80A3C6" transform="translate(214,324)"/>
<path d="M0,0 L1,2 L-4,11 L-6,11 L-8,18 L-10,19 L-10,12 L-4,2 Z " fill="#1A375A" transform="translate(39,322)"/>
<path d="M0,0 L2,1 L-1,6 L-10,11 L-10,9 L-17,11 L-16,9 L-4,3 Z " fill="#213B61" transform="translate(99,419)"/>
<path d="M0,0 L2,0 L2,2 L8,2 L4,4 L0,9 L-6,8 L-6,4 Z " fill="#9BBFE3" transform="translate(152,377)"/>
<path d="M0,0 L1,0 L2,18 L2,37 L1,37 L0,32 L-1,32 L-1,18 Z " fill="#244269" transform="translate(221,212)"/>
<path d="M0,0 L5,2 L10,13 L10,20 L8,17 L2,5 Z " fill="#163359" transform="translate(416,46)"/>
<path d="M0,0 L2,0 L4,4 L4,12 L2,15 L1,13 L-1,12 L1,10 L1,6 L-1,5 L-1,7 L-4,7 L-3,3 Z " fill="#224971" transform="translate(401,308)"/>
<path d="M0,0 L9,0 L23,7 L24,9 L19,8 L10,3 L-1,2 Z " fill="#173D66" transform="translate(380,255)"/>
<path d="M0,0 L1,2 L-1,6 L-6,10 L-9,15 L-11,15 L-10,10 L-3,1 Z " fill="#254564" transform="translate(52,305)"/>
<path d="M0,0 L1,2 L0,9 L7,10 L5,16 L1,15 L-2,11 L-2,4 Z " fill="#83A8CD" transform="translate(365,288)"/>
<path d="M0,0 L3,2 L1,21 L-4,23 L-3,17 L-1,17 Z " fill="#13355D" transform="translate(412,106)"/>
<path d="M0,0 L1,4 L-6,6 L-14,5 L-21,3 L-18,1 L0,3 Z " fill="#254E78" transform="translate(82,370)"/>
<path d="M0,0 L4,3 L4,5 L8,4 L7,7 L1,9 L0,8 L-2,10 L-4,6 L-1,6 L-2,3 Z " fill="#94BBDF" transform="translate(117,224)"/>
<path d="M0,0 L11,2 L11,3 L4,4 L3,7 L0,6 L-1,15 L-2,15 L-2,2 Z " fill="#ADD0F1" transform="translate(97,222)"/>
<path d="M0,0 L0,3 L-3,8 L-4,16 L-6,16 L-6,14 L-15,14 L-15,13 L-6,13 L-6,6 L-4,2 Z " fill="#2D4C71" transform="translate(111,131)"/>
<path d="M0,0 L20,0 L19,2 L15,3 L5,3 L0,2 Z " fill="#0C2143" transform="translate(42,438)"/>
<path d="M0,0 L9,0 L19,1 L22,4 L5,4 L0,2 Z " fill="#355578" transform="translate(328,383)"/>
<path d="M0,0 L2,2 L2,10 L0,14 L-2,14 L-3,5 L-2,2 L0,2 Z " fill="#193A62" transform="translate(176,288)"/>
<path d="M0,0 L10,0 L11,3 L-1,5 L-5,6 L-3,2 Z " fill="#1F4164" transform="translate(161,207)"/>
<path d="M0,0 L1,0 L0,25 L-2,23 L-2,2 L0,2 Z " fill="#16385E" transform="translate(276,69)"/>
<path d="M0,0 L5,2 L9,5 L8,9 L3,12 L1,11 L2,8 L4,8 L2,2 L0,2 Z " fill="#A6C9EF" transform="translate(311,16)"/>
<path d="M0,0 L5,0 L5,2 L2,3 L2,6 L9,7 L9,8 L-2,9 L-4,11 L-7,10 L-2,6 L-1,1 Z " fill="#31557E" transform="translate(155,381)"/>
<path d="M0,0 L3,0 L3,7 L-1,6 L-1,4 L-6,5 L-19,4 L-19,3 L-5,2 Z " fill="#9ABADA" transform="translate(355,371)"/>
<path d="M0,0 L3,1 L3,4 L6,5 L8,9 L5,10 L5,18 L2,18 L2,7 L0,3 Z " fill="#82AAD0" transform="translate(402,305)"/>
<path d="M0,0 L5,1 L5,8 L0,9 L-1,7 L-1,1 Z " fill="#24456E" transform="translate(205,221)"/>
<path d="M0,0 L1,0 L2,8 L0,10 L-7,8 L-6,4 L-4,4 L-4,2 Z " fill="#8BB1D6" transform="translate(404,104)"/>
<path d="M0,0 L9,0 L9,4 L6,7 L1,4 Z " fill="#113154" transform="translate(436,300)"/>
<path d="M0,0 L9,5 L12,9 L6,10 L1,5 L-1,1 Z " fill="#82AAD6" transform="translate(320,79)"/>
<path d="M0,0 L9,0 L18,3 L19,6 L10,5 L0,1 Z " fill="#153554" transform="translate(369,16)"/>
<path d="M0,0 L2,0 L6,8 L10,12 L7,15 L4,12 L1,7 Z " fill="#89B0D6" transform="translate(21,411)"/>
<path d="M0,0 L10,0 L10,3 L0,4 L-2,6 L-5,6 L-3,2 Z " fill="#2E5174" transform="translate(301,106)"/>
<path d="M0,0 L1,4 L-1,12 L0,15 L-2,21 L-4,21 L-6,24 L-5,17 Z " fill="#30547B" transform="translate(198,390)"/>
<path d="M0,0 L2,0 L0,4 L-8,12 L-12,13 L-12,11 L-7,6 Z " fill="#153A60" transform="translate(134,347)"/>
<path d="M0,0 L1,0 L2,6 L3,10 L1,15 L-1,13 L-3,18 L-4,14 Z " fill="#7698BC" transform="translate(209,334)"/>
<path d="M0,0 L1,0 L1,21 L0,25 L-3,26 Z " fill="#07204A" transform="translate(221,232)"/>
<path d="M0,0 L5,1 L6,2 L6,8 L2,9 L0,6 Z " fill="#13325B" transform="translate(342,115)"/>
<path d="M0,0 L9,0 L9,3 L8,6 L2,7 L1,3 L-2,1 Z " fill="#A3C4E6" transform="translate(396,98)"/>
<path d="M0,0 L5,0 L1,2 L-12,7 L-15,6 L-12,3 L-7,1 Z " fill="#102F56" transform="translate(339,16)"/>
<path d="M0,0 L2,1 L0,5 L-7,6 L-8,3 L-17,3 L-17,2 L-3,1 Z " fill="#85B0D8" transform="translate(167,196)"/>
<path d="M0,0 L1,2 L3,2 L3,13 L1,16 L-2,16 L-2,14 L0,14 Z " fill="#153058" transform="translate(236,173)"/>
<path d="M0,0 L2,1 L3,6 L7,8 L13,15 L8,14 L1,6 Z " fill="#223E64" transform="translate(306,159)"/>
<path d="M0,0 L1,2 L-7,16 L-10,16 L-9,12 L-7,12 L-6,7 L-5,4 L-3,4 L-2,1 Z " fill="#1A3E68" transform="translate(303,68)"/>
<path d="M0,0 L5,2 L15,4 L15,5 L9,6 L14,7 L14,8 L7,8 L1,4 Z " fill="#284D75" transform="translate(383,317)"/>
<path d="M0,0 L5,0 L5,1 L19,2 L19,3 L-3,4 L-4,3 L-8,2 Z " fill="#1C3E67" transform="translate(343,14)"/>
<path d="M0,0 L4,1 L13,9 L12,11 L8,9 L0,2 Z " fill="#38587A" transform="translate(165,354)"/>
<path d="M0,0 L5,1 L5,8 L1,9 L0,8 Z " fill="#153760" transform="translate(165,222)"/>
<path d="M0,0 L8,1 L8,4 L4,5 L-4,5 L-2,1 Z " fill="#8FBBDE" transform="translate(182,194)"/>
<path d="M0,0 L5,1 L1,2 L1,7 L-4,6 L-4,5 L-11,4 L-10,1 Z " fill="#223E64" transform="translate(346,182)"/>
<path d="M0,0 L2,1 L3,3 L-3,6 L-7,10 L-11,11 L-6,4 L-3,1 Z " fill="#1F4068" transform="translate(323,21)"/>
<path d="M0,0 L8,0 L7,3 L5,3 L5,5 L-2,5 L-5,5 Z " fill="#315B8B" transform="translate(133,394)"/>
<path d="M0,0 L2,3 L-1,4 L-1,8 L-5,11 L-7,10 L-6,7 L-9,6 L-3,1 L-3,3 L-1,3 Z " fill="#436B97" transform="translate(44,317)"/>
<path d="M0,0 L1,2 L3,3 L1,6 L0,15 L-1,17 L-2,20 L-3,18 L-3,6 Z " fill="#496785" transform="translate(94,220)"/>
<path d="M0,0 L1,0 L3,18 L3,25 L1,22 L0,19 Z " fill="#0F3157" transform="translate(393,135)"/>
<path d="M0,0 L1,0 L0,9 L-3,18 L-4,18 L-4,10 L-2,3 L0,3 Z " fill="#16385F" transform="translate(206,339)"/>
<path d="M0,0 L8,0 L13,3 L13,5 L-1,3 Z " fill="#2B4D71" transform="translate(203,206)"/>
<path d="M0,0 L7,0 L8,2 L-1,5 L-5,4 L-4,1 Z " fill="#1E3A5C" transform="translate(329,154)"/>
<path d="M0,0 L7,1 L18,6 L18,8 L8,5 L0,1 Z " fill="#193C61" transform="translate(193,128)"/>
<path d="M0,0 L9,0 L12,3 L1,3 L-3,5 L-6,5 L-4,1 Z " fill="#2B4F72" transform="translate(340,99)"/>
<path d="M0,0 L6,1 L12,6 L13,10 L7,8 L8,5 L4,4 L0,2 Z " fill="#143459" transform="translate(433,94)"/>
<path d="M0,0 L5,1 L15,5 L12,7 L6,6 L0,2 Z " fill="#11264B" transform="translate(30,432)"/>
<path d="M0,0 L9,0 L9,1 L3,2 L0,11 L-1,14 L-3,12 Z " fill="#103762" transform="translate(334,406)"/>
<path d="M0,0 L3,1 L2,6 L0,15 L-3,14 L-2,4 Z " fill="#20466D" transform="translate(197,368)"/>
<path d="M0,0 L5,2 L2,5 L-5,7 L-14,7 L-13,4 L-8,5 L-2,4 Z " fill="#0C2B51" transform="translate(418,338)"/>
<path d="M0,0 L8,0 L10,2 L-2,5 L-6,3 Z " fill="#315475" transform="translate(84,280)"/>
<path d="M0,0 L1,4 L2,8 L-2,16 L-5,15 L-3,9 Z " fill="#274567" transform="translate(218,251)"/>
<path d="M0,0 L1,2 L8,4 L6,5 L6,7 L4,7 L2,11 L0,8 Z " fill="#264366" transform="translate(168,252)"/>
<path d="M0,0 L2,0 L0,4 L-9,9 L-12,8 L-11,6 L-7,4 L-4,4 L-3,1 Z " fill="#193D66" transform="translate(205,183)"/>
<path d="M0,0 L2,0 L2,6 L-1,6 L-3,11 L-6,11 L-4,6 Z " fill="#153963" transform="translate(213,170)"/>
<path d="M0,0 L4,0 L5,2 L5,8 L1,8 L0,7 Z " fill="#11345B" transform="translate(306,121)"/>
<path d="M0,0 L10,2 L15,4 L15,6 L7,5 L0,1 Z " fill="#173F69" transform="translate(49,366)"/>
<path d="M0,0 L1,0 L0,9 L-2,14 L-4,14 L-3,6 L-1,1 Z " fill="#95B7DC" transform="translate(195,394)"/>
<path d="M0,0 L1,4 L2,9 L-2,17 L-3,17 L-2,7 Z " fill="#1D4268" transform="translate(209,349)"/>
<path d="M0,0 L3,3 L5,10 L5,18 L3,16 L0,4 Z " fill="#0C2549" transform="translate(538,301)"/>
<path d="M0,0 L19,0 L19,1 L5,2 L1,5 L-1,5 L-2,1 Z " fill="#A2C5E9" transform="translate(220,310)"/>
<path d="M0,0 L2,0 L0,8 L-3,16 L-4,16 L-4,9 Z " fill="#133C66" transform="translate(297,272)"/>
<path d="M0,0 L2,1 L-4,6 L-7,9 L-12,10 L-12,12 L-14,12 L-13,9 L-3,2 Z " fill="#B9D5EC" transform="translate(75,149)"/>
<path d="M0,0 L2,0 L1,3 L-10,8 L-13,8 L-13,6 Z " fill="#0C2245" transform="translate(87,428)"/>
<path d="M0,0 L6,2 L7,3 L19,4 L18,7 L6,5 L0,2 Z " fill="#274C7B" transform="translate(463,417)"/>
<path d="M0,0 L5,2 L10,6 L11,10 L10,16 L9,16 L8,9 L0,2 Z " fill="#214368" transform="translate(161,366)"/>
<path d="M0,0 L2,1 L2,5 L-5,6 L-5,4 L-12,5 L-9,3 Z " fill="#74A0CA" transform="translate(172,193)"/>
<path d="M0,0 L6,1 L4,5 L-4,6 L-2,1 Z " fill="#ACD0F4" transform="translate(400,125)"/>
<path d="M0,0 L15,0 L11,3 L2,3 L-1,1 Z " fill="#092B5A" transform="translate(143,419)"/>
<path d="M0,0 L4,2 L16,12 L13,13 L6,7 L1,2 Z " fill="#0C3360" transform="translate(441,402)"/>
<path d="M0,0 L3,0 L1,5 L-5,11 L-7,10 L-4,5 Z " fill="#152F52" transform="translate(212,266)"/>
<path d="M0,0 L2,0 L1,6 L-4,11 L-7,11 L-6,8 L-2,4 Z " fill="#102B4C" transform="translate(348,150)"/>
<path d="M0,0 L6,0 L4,1 L3,4 L-2,6 L-3,8 L-4,3 Z " fill="#B0D3F2" transform="translate(335,96)"/>
<path d="M0,0 L7,1 L11,4 L10,6 L4,5 L0,3 Z " fill="#7AA7D2" transform="translate(328,87)"/>
<path d="M0,0 L2,0 L4,7 L4,24 L3,24 L2,10 L0,6 Z " fill="#48678B" transform="translate(426,67)"/>
<path d="M0,0 L1,3 L3,3 L3,5 L-1,6 L-6,10 L-11,15 L-9,11 Z " fill="#ACC9E7" transform="translate(187,33)"/>
<path d="M0,0 L2,1 L-2,5 L-9,7 L-12,9 L-15,8 Z " fill="#AFCAE8" transform="translate(222,9)"/>
<path d="M0,0 L16,1 L14,4 L7,4 L4,2 L3,4 L0,3 Z " fill="#20456E" transform="translate(330,404)"/>
<path d="M0,0 L3,1 L2,6 L-1,9 L-4,5 L-1,4 L-2,1 Z " fill="#ABCEEF" transform="translate(171,362)"/>
<path d="M0,0 L5,1 L7,4 L5,4 L4,8 L1,8 Z " fill="#B3D3EE" transform="translate(170,348)"/>
<path d="M0,0 L2,0 L2,9 L0,18 L-1,18 L-1,5 Z " fill="#204066" transform="translate(321,121)"/>
<path d="M0,0 L3,1 L8,7 L7,15 L6,15 L4,7 L-1,1 Z " fill="#123158" transform="translate(289,119)"/>
<path d="M0,0 L4,2 L12,9 L14,13 L11,12 L6,6 L1,4 Z " fill="#ACCBE6" transform="translate(472,78)"/>
<path d="M0,0 L2,0 L4,5 L9,8 L11,9 L10,12 L2,7 L0,4 Z " fill="#0C2047" transform="translate(183,421)"/>
<path d="M0,0 L10,1 L10,2 L1,3 L-5,9 L-7,9 L-5,5 Z " fill="#113763" transform="translate(133,391)"/>
<path d="M0,0 L3,1 L4,3 L4,12 L2,12 L0,3 Z " fill="#1B426D" transform="translate(359,354)"/>
<path d="M0,0 L2,2 L2,8 L-3,6 L-6,2 L-1,1 Z " fill="#345986" transform="translate(469,312)"/>
<path d="M0,0 L3,0 L1,4 L-4,9 L-6,9 L-5,5 Z " fill="#224464" transform="translate(60,295)"/>
<path d="M0,0 L4,0 L4,2 L-2,4 L-11,4 L-7,3 L-7,1 Z " fill="#1E4163" transform="translate(119,273)"/>
<path d="M0,0 L4,5 L3,10 L0,11 L0,9 L-2,8 L-1,4 Z " fill="#BDD8F3" transform="translate(90,214)"/>
<path d="M0,0 L2,0 L3,3 L-6,7 L-8,6 L-9,4 Z " fill="#1B3A61" transform="translate(333,190)"/>
<path d="M0,0 L2,0 L3,3 L-1,8 L-3,8 L-3,5 L-7,6 L-3,2 Z " fill="#B6CDEC" transform="translate(108,127)"/>
<path d="M0,0 L4,2 L3,8 L0,8 L-1,4 L-4,2 Z " fill="#B4D7F3" transform="translate(405,100)"/>
<path d="M0,0 L1,0 L1,5 L-4,5 L-5,8 L-8,7 L-9,2 L-6,1 L-4,3 L0,4 Z " fill="#355A88" transform="translate(381,309)"/>
<path d="M0,0 L7,1 L11,3 L11,5 L4,4 L-1,2 Z " fill="#102C50" transform="translate(195,285)"/>
<path d="M0,0 L2,4 L2,6 L-1,6 L-1,13 L-3,16 L-3,2 L-1,4 Z " fill="#264E75" transform="translate(347,189)"/>
<path d="M0,0 L11,0 L10,2 L-6,3 L-3,1 Z " fill="#C5E1FC" transform="translate(150,116)"/>
<path d="M0,0 L8,0 L4,2 L0,4 L-10,3 L-6,1 Z " fill="#ADCBE8" transform="translate(248,2)"/>
<path d="M0,0 L2,1 L-1,11 L-4,12 L-5,9 Z " fill="#3A6796" transform="translate(541,384)"/>
<path d="M0,0 L1,0 L0,9 L-2,15 L-3,15 L-3,6 L-2,3 L0,3 Z " fill="#153960" transform="translate(195,379)"/>
<path d="M0,0 L1,2 L4,3 L-1,9 L-3,13 L-4,11 Z " fill="#81A5C9" transform="translate(28,362)"/>
<path d="M0,0 L6,2 L9,5 L7,5 L6,7 L-3,2 Z " fill="#1B3963" transform="translate(206,289)"/>
<path d="M0,0 L16,1 L16,2 L-3,4 Z " fill="#2B4F77" transform="translate(374,256)"/>
<path d="M0,0 L14,0 L13,6 L10,6 L10,1 L0,1 Z " fill="#28446A" transform="translate(186,253)"/>
<path d="M0,0 L2,2 L1,7 L-3,9 L-3,7 L-6,7 L-3,3 L-1,3 Z " fill="#7BA3D0" transform="translate(376,165)"/>
<path d="M0,0 L6,2 L6,3 L-7,5 L-5,1 Z " fill="#13355C" transform="translate(400,94)"/>
<path d="M0,0 L1,4 L-5,11 L-7,15 L-9,15 L-7,10 Z " fill="#AFCBE9" transform="translate(156,76)"/>
<path d="M0,0 L2,3 L0,14 L-3,14 L-2,8 Z " fill="#22456C" transform="translate(208,328)"/>
<path d="M0,0 L1,4 L-3,11 L-6,10 L-4,4 L-2,2 L-1,3 Z " fill="#30547C" transform="translate(443,314)"/>
<path d="M0,0 L2,1 L3,7 L5,6 L6,14 L3,16 Z " fill="#1E3B5F" transform="translate(539,310)"/>
<path d="M0,0 L1,0 L2,6 L6,7 L6,11 L3,12 L0,9 Z " fill="#7EA2C9" transform="translate(373,300)"/>
<path d="M0,0 L3,4 L2,9 L-2,7 L-1,1 Z " fill="#B0D3F2" transform="translate(367,287)"/>
<path d="M0,0 L3,0 L2,6 L-1,12 L-3,13 L-4,9 L2,1 Z " fill="#8FB4D5" transform="translate(383,281)"/>
<path d="M0,0 L2,0 L1,4 L-4,10 L-5,8 L-7,7 L-5,7 L-3,3 Z " fill="#2A4B6F" transform="translate(374,272)"/>
<path d="M0,0 L5,1 L12,5 L12,6 L7,6 L0,3 Z " fill="#17385F" transform="translate(458,194)"/>
<path d="M0,0 L6,1 L17,3 L17,4 L4,4 L0,2 Z " fill="#0F2549" transform="translate(327,181)"/>
<path d="M0,0 L3,4 L7,13 L5,13 L3,8 L1,9 L-2,2 L0,2 Z " fill="#26456C" transform="translate(304,152)"/>
<path d="M0,0 L1,0 L2,8 L-1,11 L-2,15 L-4,19 L-4,11 L-1,7 Z " fill="#2C5685" transform="translate(361,371)"/>
<path d="M0,0 L3,1 L1,1 L1,6 L-1,9 L-4,8 L-3,3 Z " fill="#94B5D6" transform="translate(332,373)"/>
<path d="M0,0 L3,4 L1,9 L-2,8 L-2,2 Z " fill="#8BADD1" transform="translate(217,311)"/>
<path d="M0,0 L2,0 L4,5 L4,13 L1,9 Z " fill="#123A65" transform="translate(463,283)"/>
<path d="M0,0 L3,1 L8,10 L7,14 L2,5 L0,3 Z " fill="#0F2B4A" transform="translate(514,245)"/>
<path d="M0,0 L1,0 L3,10 L5,14 L4,18 L1,13 L0,9 Z " fill="#1E3D5B" transform="translate(92,228)"/>
<path d="M0,0 L10,5 L6,7 L-2,2 Z " fill="#214669" transform="translate(470,199)"/>
<path d="M0,0 L3,1 L3,5 L-8,6 L-8,4 L-1,3 Z " fill="#ADD2F4" transform="translate(168,201)"/>
<path d="M0,0 L2,0 L2,3 L-2,6 L-4,9 L-5,7 L-7,6 Z M-5,9 Z " fill="#AFCBEB" transform="translate(202,20)"/>
<path d="M0,0 L13,0 L12,4 L10,6 L10,4 L8,3 L8,2 L0,1 Z " fill="#95B9D9" transform="translate(335,398)"/>
<path d="M0,0 L1,4 L-4,14 L-8,17 L-7,12 L-3,8 Z " fill="#284C78" transform="translate(541,389)"/>
<path d="M0,0 L1,0 L1,7 L-1,10 L-4,10 L-4,6 L-2,6 L-1,1 Z " fill="#88AAD0" transform="translate(197,386)"/>
<path d="M0,0 L4,0 L3,3 L-14,3 L-14,2 L-3,1 Z " fill="#143459" transform="translate(350,383)"/>
<path d="M0,0 L5,1 L8,1 L10,4 L8,4 L7,9 L6,5 L3,3 L3,1 Z " fill="#284F7A" transform="translate(398,323)"/>
<path d="M0,0 L2,1 L-3,4 L-3,2 Z M-6,1 L-4,2 L-5,4 L-3,5 L-6,8 L-8,7 L-7,5 L-9,4 Z " fill="#385D81" transform="translate(70,290)"/>
<path d="M0,0 L5,1 L3,2 L3,4 L5,4 L4,7 L1,9 Z " fill="#7FA8D2" transform="translate(347,184)"/>
<path d="M0,0 L1,2 L-6,7 L-8,10 L-10,10 L-11,7 L-8,6 L-7,3 Z " fill="#183A62" transform="translate(126,132)"/>
<path d="M0,0 L3,3 L4,8 L3,10 L2,13 L0,9 Z " fill="#224072" transform="translate(276,95)"/>
<path d="M0,0 L1,4 L-3,10 L-7,12 L-5,7 Z " fill="#B1CBE9" transform="translate(164,64)"/>
<path d="M0,0 L11,0 L13,2 L0,3 Z " fill="#082250" transform="translate(170,419)"/>
<path d="M0,0 L5,1 L7,2 L7,8 L3,7 L6,7 L6,5 L2,4 L0,3 Z " fill="#8BAFD2" transform="translate(154,376)"/>
<path d="M0,0 L2,0 L1,3 L-1,3 L0,6 L-6,8 L-9,6 L-2,2 L0,2 Z " fill="#254C74" transform="translate(123,355)"/>
<path d="M0,0 L2,1 L1,6 L-3,9 L-11,9 L-11,8 L-4,7 L-1,4 Z " fill="#0D3056" transform="translate(200,336)"/>
<path d="M0,0 L14,1 L14,3 L3,3 Z " fill="#123960" transform="translate(150,307)"/>
<path d="M0,0 L2,0 L2,13 L0,13 L-2,8 Z " fill="#12355D" transform="translate(372,298)"/>
<path d="M0,0 L3,0 L1,4 L-2,8 L-4,8 L-5,3 L0,2 Z " fill="#D0E8F8" transform="translate(48,303)"/>
<path d="M0,0 L2,1 L2,3 L-6,7 L-9,6 Z " fill="#1B3F68" transform="translate(370,258)"/>
<path d="M0,0 L3,1 L2,11 L0,11 Z M3,0 L7,1 Z " fill="#B0D3F4" transform="translate(347,197)"/>
<path d="M0,0 L2,0 L0,8 L-5,9 L-5,6 Z " fill="#7DA2C9" transform="translate(148,189)"/>
<path d="M0,0 L2,3 L1,4 L0,23 L-1,23 L-1,1 Z " fill="#2B4865" transform="translate(86,173)"/>
<path d="M0,0 L2,1 L-5,7 L-9,6 Z M-11,7 L-9,8 L-12,11 L-12,8 Z " fill="#B8CFED" transform="translate(90,139)"/>
<path d="M0,0 L2,1 L3,2 L4,4 L0,6 L-3,6 L-7,7 L-2,2 Z M-2,6 L0,7 Z " fill="#2E4F76" transform="translate(127,128)"/>
<path d="M0,0 L3,1 L0,7 L-2,9 L-7,9 L-2,5 Z " fill="#0B1D41" transform="translate(331,422)"/>
<path d="M0,0 L3,1 L-6,4 L-10,3 L-10,1 Z " fill="#2F568C" transform="translate(515,420)"/>
<path d="M0,0 L7,1 L6,6 L4,4 L0,4 L-3,2 Z " fill="#9BC1E3" transform="translate(192,336)"/>
<path d="M0,0 L5,4 L5,6 L7,7 L2,8 L-1,2 Z " fill="#95B9E0" transform="translate(141,273)"/>
<path d="M0,0 L11,0 L7,1 L7,3 L9,4 L4,4 Z " fill="#264266" transform="translate(106,252)"/>
<path d="M0,0 L9,0 L9,1 L1,2 L4,3 L1,6 L-3,4 Z " fill="#95B9DE" transform="translate(101,218)"/>
<path d="M0,0 L7,1 L11,3 L11,5 L7,4 L0,2 Z " fill="#183C61" transform="translate(446,190)"/>
<path d="M0,0 L3,1 L1,1 L-1,5 L-4,7 L-9,6 L-12,4 L-3,4 Z " fill="#AFC9EC" transform="translate(247,134)"/>
<path d="M0,0 L9,1 L10,4 L3,4 L0,1 Z " fill="#AFCFEC" transform="translate(203,129)"/>
<path d="M0,0 L1,2 L-2,8 L-4,10 L-8,9 L-6,7 L-2,3 Z " fill="#173561" transform="translate(331,420)"/>
<path d="M0,0 L1,3 L-4,8 L-7,8 L-7,5 L-1,1 Z " fill="#082244" transform="translate(532,409)"/>
<path d="M0,0 L9,0 L8,2 L-2,5 L-2,3 L0,1 Z " fill="#90B4D8" transform="translate(69,376)"/>
<path d="M0,0 L3,0 L2,8 L-1,7 Z " fill="#91B4D9" transform="translate(200,370)"/>
<path d="M0,0 L1,0 L1,8 L-3,12 L-4,8 L-1,5 Z " fill="#92B4D8" transform="translate(176,366)"/>
<path d="M0,0 L2,0 L2,2 L4,3 L-2,4 L-2,3 L-14,2 L-14,1 Z " fill="#446486" transform="translate(350,370)"/>
<path d="M0,0 L1,3 L-7,11 L-10,10 L-4,5 Z " fill="#39608D" transform="translate(437,328)"/>
<path d="M0,0 L12,0 L9,1 L8,5 L6,5 L6,2 L0,1 Z " fill="#22446D" transform="translate(169,285)"/>
<path d="M0,0 L9,0 L10,2 L5,3 L-2,3 L-3,1 Z " fill="#D1ECFC" transform="translate(99,273)"/>
<path d="M0,0 L1,0 L1,6 L-1,9 L0,11 L-3,11 L-3,5 L-1,5 Z " fill="#10325B" transform="translate(152,186)"/>
<path d="M0,0 L6,1 L6,4 L-3,3 Z " fill="#99C1E4" transform="translate(345,95)"/>
<path d="M0,0 L4,0 L4,2 L0,3 L-1,6 L-5,4 Z " fill="#20446D" transform="translate(296,41)"/>
<path d="M0,0 L8,1 L9,4 L1,4 Z " fill="#96B9DE" transform="translate(156,384)"/>
<path d="M0,0 L4,0 L3,7 L1,4 L-1,9 L-2,5 Z " fill="#7799BE" transform="translate(196,383)"/>
<path d="M0,0 L3,1 L1,6 L-3,7 L-4,4 L-2,4 L-2,2 L0,2 Z " fill="#ABCFF1" transform="translate(353,363)"/>
<path d="M0,0 L3,4 L10,5 L9,7 L2,7 L0,5 Z " fill="#0F345C" transform="translate(332,288)"/>
<path d="M0,0 L8,0 L6,2 L3,3 L-5,3 L-2,1 Z " fill="#16385A" transform="translate(98,277)"/>
<path d="M0,0 L2,0 L1,5 L-1,9 L-4,8 Z " fill="#0C284A" transform="translate(256,260)"/>
<path d="M0,0 L1,0 L2,7 L-1,9 L-5,9 L-4,6 L0,5 Z " fill="#53789D" transform="translate(194,235)"/>
<path d="M0,0 L3,1 L11,1 L11,2 L1,4 L-3,5 L-1,1 Z " fill="#436587" transform="translate(159,208)"/>
<path d="M0,0 L7,0 L13,2 L13,4 L2,2 Z " fill="#103058" transform="translate(404,178)"/>
<path d="M0,0 L3,2 L-3,7 L-4,5 L-6,4 L-2,3 L-2,1 Z " fill="#22446A" transform="translate(439,157)"/>
<path d="M0,0 L1,2 L0,4 L-2,4 L-4,8 L-6,8 L-5,3 Z " fill="#1C3F68" transform="translate(288,49)"/>
<path d="M0,0 L5,5 L7,10 L4,9 L0,3 Z " fill="#0D3464" transform="translate(420,375)"/>
<path d="M0,0 L1,2 L3,2 L3,4 L-3,7 L-4,2 L-1,2 Z " fill="#284A73" transform="translate(176,374)"/>
<path d="M0,0 L4,2 L5,6 L0,5 L-1,1 Z " fill="#9FC0E2" transform="translate(333,365)"/>
<path d="M0,0 L7,4 L7,5 L2,5 L1,8 L-1,3 Z " fill="#17395F" transform="translate(27,354)"/>
<path d="M0,0 L7,0 L7,4 L2,3 L0,2 Z " fill="#224667" transform="translate(170,345)"/>
<path d="M0,0 L1,0 L1,7 L-2,11 L-2,3 Z " fill="#9BBCE0" transform="translate(212,331)"/>
<path d="M0,0 L2,2 L1,9 L-1,10 L-2,1 Z " fill="#B3D4F2" transform="translate(437,313)"/>
<path d="M0,0 L4,0 L3,5 L1,6 L-2,4 L-2,2 L0,2 Z " fill="#1D3C61" transform="translate(194,258)"/>
<path d="M0,0 L3,1 L5,4 L5,12 L3,10 L1,3 Z " fill="#0C2649" transform="translate(123,257)"/>
<path d="M0,0 L2,3 L2,6 L5,7 L5,12 L3,12 L0,4 Z " fill="#2F5075" transform="translate(393,154)"/>
<path d="M0,0 L5,1 L5,8 L3,5 L3,2 L-3,4 Z " fill="#204066" transform="translate(111,129)"/>
<path d="M0,0 L2,1 L0,6 L-4,10 L-3,4 Z " fill="#1A3C65" transform="translate(393,95)"/>
<path d="M0,0 L2,0 L0,5 L-5,8 L-6,6 L-2,2 L0,2 Z " fill="#244873" transform="translate(531,406)"/>
<path d="M0,0 L2,4 L4,11 L0,9 Z " fill="#1E4168" transform="translate(123,276)"/>
<path d="M0,0 L2,1 L2,3 L4,4 L3,7 L-3,6 Z " fill="#B0D2EF" transform="translate(195,271)"/>
<path d="M0,0 L5,0 L5,2 L8,3 L3,4 L-2,3 L0,2 Z " fill="#1C345D" transform="translate(174,257)"/>
<path d="M0,0 L5,3 L6,8 L3,8 L0,2 Z " fill="#204265" transform="translate(499,224)"/>
<path d="M0,0 L6,1 L5,3 L-4,3 L-4,1 Z " fill="#0E2F57" transform="translate(106,214)"/>
<path d="M0,0 L2,0 L0,4 L-2,7 L-5,7 L-4,3 L0,2 Z " fill="#1D3E65" transform="translate(99,155)"/>
<path d="M0,0 L5,3 L6,6 L3,6 L-1,2 Z " fill="#95B8DE" transform="translate(320,79)"/>
<path d="M0,0 L8,0 L5,1 L5,3 L3,3 L3,5 L1,5 Z " fill="#A6C3E3" transform="translate(427,64)"/>
<path d="M0,0 L6,2 L8,4 L0,4 L-4,2 Z " fill="#1E3D60" transform="translate(387,20)"/>
<path d="M0,0 L2,4 L-4,8 L-7,7 L-1,2 Z " fill="#1A3E66" transform="translate(152,384)"/>
<path d="M0,0 L1,0 L2,8 L0,15 L-1,15 L-1,9 L-3,8 L-1,7 Z " fill="#33557E" transform="translate(181,358)"/>
<path d="M0,0 L4,1 L8,5 L5,6 L0,2 Z " fill="#305170" transform="translate(165,354)"/>
<path d="M0,0 L2,0 L1,7 L-1,10 L-2,6 Z " fill="#0E3463" transform="translate(358,326)"/>
<path d="M0,0 L2,2 L1,6 L-5,7 Z " fill="#95BBDF" transform="translate(197,261)"/>
<path d="M0,0 L1,2 L-3,6 L-7,4 Z M-4,6 L-2,8 L-4,8 Z " fill="#79A4CD" transform="translate(140,197)"/>
<path d="M0,0 L1,2 L0,5 L-2,5 L-2,10 L-4,7 L-3,2 Z " fill="#81A6CF" transform="translate(184,185)"/>
<path d="M0,0 L7,0 L4,3 L2,3 L1,8 L0,8 Z " fill="#1B3961" transform="translate(402,177)"/>
<path d="M0,0 L5,0 L5,3 L1,3 L1,6 L-1,6 Z " fill="#123259" transform="translate(399,166)"/>
<path d="M0,0 L2,1 L3,5 L2,7 L0,7 L-3,2 Z " fill="#153864" transform="translate(224,150)"/>
<path d="M0,0 L6,2 L7,5 L2,4 L-1,1 Z " fill="#133963" transform="translate(342,89)"/>
<path d="M0,0 L7,0 L6,3 L-1,3 Z " fill="#1C3655" transform="translate(492,426)"/>
<path d="M0,0 L1,2 L3,2 L3,4 L-6,5 L-1,1 Z " fill="#1A3A67" transform="translate(524,415)"/>
<path d="M0,0 L1,2 L-2,9 L-4,9 L-3,4 Z " fill="#2C4B6A" transform="translate(45,311)"/>
<path d="M0,0 L2,0 L0,4 L-4,6 L-4,3 Z " fill="#1C436C" transform="translate(218,307)"/>
<path d="M0,0 L3,0 L1,4 L-2,7 L-4,5 Z " fill="#274C71" transform="translate(393,292)"/>
<path d="M0,0 L3,1 L3,3 L8,5 L4,7 L0,3 Z " fill="#2A5077" transform="translate(402,261)"/>
<path d="M0,0 L1,0 L2,15 L0,14 L-1,10 Z " fill="#B9DAF9" transform="translate(217,220)"/>
<path d="M0,0 L2,1 L3,6 L6,7 L6,9 L3,9 L0,4 Z " fill="#0C294F" transform="translate(306,159)"/>
<path d="M0,0 L5,5 L7,8 L3,7 L3,5 L0,4 Z " fill="#8AAED3" transform="translate(313,71)"/>
<path d="M0,0 L2,1 L0,5 L-6,8 L-4,4 Z " fill="#ADC6E2" transform="translate(70,46)"/>
<path d="M0,0 L4,1 L-6,6 L-5,3 Z " fill="#ADCFF3" transform="translate(301,36)"/>
<path d="M0,0 L5,0 L2,3 L-5,3 L-4,1 Z " fill="#0B2344" transform="translate(503,425)"/>
<path d="M0,0 L3,2 L3,7 L-1,9 Z " fill="#31496A" transform="translate(19,381)"/>
<path d="M0,0 L3,1 L2,6 L-1,5 L-2,9 L-2,4 Z " fill="#335B82" transform="translate(197,368)"/>
<path d="M0,0 L4,2 L3,5 L-1,6 Z " fill="#355B86" transform="translate(86,367)"/>
<path d="M0,0 L1,3 L3,3 L2,8 L-3,7 Z " fill="#3D6188" transform="translate(202,337)"/>
<path d="M0,0 L2,1 L1,5 L-3,6 L-5,3 Z " fill="#20446D" transform="translate(425,336)"/>
<path d="M0,0 L4,1 L-4,6 L-3,2 Z " fill="#173C63" transform="translate(147,337)"/>
<path d="M0,0 L2,0 L1,8 L-1,8 L-1,2 Z " fill="#153860" transform="translate(218,318)"/>
<path d="M0,0 L2,4 L1,7 L-1,6 L-2,6 L-5,5 Z " fill="#3F5D7D" transform="translate(40,318)"/>
<path d="M0,0 L1,2 L3,2 L3,4 L-5,6 Z " fill="#264B72" transform="translate(173,300)"/>
<path d="M0,0 L3,1 L2,8 L-1,9 Z " fill="#122C50" transform="translate(219,249)"/>
<path d="M0,0 L7,2 L4,4 L-3,2 Z " fill="#ABD0E6" transform="translate(186,248)"/>
<path d="M0,0 L5,0 L5,2 L3,3 L-3,3 L-3,1 Z " fill="#10335D" transform="translate(132,198)"/>
<path d="M0,0 L4,1 L5,8 L1,4 Z " fill="#0F3159" transform="translate(231,164)"/>
<path d="M0,0 L2,1 L-2,5 L-11,3 L-11,2 Z " fill="#84A4C8" transform="translate(341,162)"/>
<path d="M0,0 L2,3 L0,3 L-1,8 L-4,7 L-2,2 Z " fill="#2F4F72" transform="translate(93,160)"/>
<path d="M0,0 L2,3 L-1,5 L-7,6 L-2,2 Z M2,1 Z " fill="#B2D1ED" transform="translate(441,159)"/>
<path d="M0,0 L1,2 L6,3 L7,5 L1,5 Z " fill="#16375C" transform="translate(92,149)"/>
<path d="M0,0 L3,4 L3,5 L-2,5 L-4,2 Z " fill="#1D426D" transform="translate(377,98)"/>
<path d="M0,0 L3,2 L4,5 L7,7 L6,10 L1,4 Z " fill="#B3CEE5" transform="translate(52,98)"/>
<path d="M0,0 L1,0 L0,10 L-2,8 L-1,1 Z " fill="#133862" transform="translate(187,408)"/>
<path d="M0,0 L4,2 L3,3 L5,5 L-1,5 Z " fill="#B2D7F1" transform="translate(337,399)"/>
<path d="M0,0 L1,0 L0,7 L-2,10 L-2,2 L0,2 Z " fill="#13365B" transform="translate(201,384)"/>
<path d="M0,0 L1,2 L0,5 L-5,6 L-3,2 Z " fill="#3E648F" transform="translate(177,378)"/>
<path d="M0,0 L5,3 L6,6 L1,5 L-1,1 Z " fill="#0B2846" transform="translate(22,351)"/>
<path d="M0,0 L5,0 L3,4 L-2,2 Z " fill="#99BEE4" transform="translate(430,326)"/>
<path d="M0,0 L2,1 L1,6 L0,9 L-2,9 L-2,2 Z " fill="#254A74" transform="translate(333,285)"/>
<path d="M0,0 L1,3 L6,2 L4,6 L1,6 Z " fill="#8CACD3" transform="translate(345,266)"/>
<path d="M0,0 L4,1 L1,4 L-4,5 Z " fill="#224770" transform="translate(367,233)"/>
<path d="M0,0 L3,1 L5,6 L0,5 Z " fill="#15365D" transform="translate(91,209)"/>
<path d="M0,0 L7,1 L7,3 L1,4 Z " fill="#2B496F" transform="translate(328,160)"/>
<path d="M0,0 L2,0 L6,5 L6,7 L2,5 L0,3 Z " fill="#051E44" transform="translate(283,113)"/>
<path d="M0,0 L2,0 L2,3 L4,3 L6,7 L2,6 L0,3 Z " fill="#092243" transform="translate(22,422)"/>
<path d="M0,0 L0,3 L-4,5 L-10,5 L-10,4 L-1,1 Z " fill="#2E5784" transform="translate(286,381)"/>
<path d="M0,0 L2,1 L0,5 L-7,4 L-5,2 Z " fill="#244971" transform="translate(101,366)"/>
<path d="M0,0 L1,0 L1,6 L-1,8 L-2,3 Z " fill="#96B6DC" transform="translate(204,360)"/>
<path d="M0,0 L12,1 L12,2 L1,3 Z " fill="#567999" transform="translate(167,343)"/>
<path d="M0,0 L2,3 L2,8 L0,5 L-3,5 L-1,1 Z " fill="#214571" transform="translate(473,316)"/>
<path d="M0,0 L2,3 L-1,7 L-3,6 L-1,1 Z " fill="#2E5172" transform="translate(375,292)"/>
<path d="M0,0 L4,2 L5,4 L0,6 Z " fill="#99BBDD" transform="translate(419,281)"/>
<path d="M0,0 L2,0 L4,6 L2,8 L0,5 Z " fill="#0C2543" transform="translate(530,277)"/>
<path d="M0,0 L4,1 L5,3 L0,4 Z " fill="#294970" transform="translate(325,155)"/>
<path d="M0,0 L4,0 L4,6 L3,3 L0,4 L-1,1 Z " fill="#2D5070" transform="translate(347,147)"/>
<path d="M0,0 L4,0 L5,2 L5,8 L4,5 L2,5 L2,2 Z " fill="#274A71" transform="translate(306,121)"/>
<path d="M0,0 L1,0 L3,7 L6,9 L1,9 L0,8 Z " fill="#85A6CD" transform="translate(341,116)"/>
<path d="M0,0 L1,0 L1,6 L-3,7 L-2,2 Z " fill="#335178" transform="translate(347,117)"/>
<path d="M0,0 L4,2 L5,6 L-1,4 Z " fill="#0E2D54" transform="translate(441,98)"/>
<path d="M0,0 L9,1 L9,3 L2,2 Z " fill="#91BBE3" transform="translate(353,98)"/>
<path d="M0,0 L5,1 L8,5 L4,5 Z " fill="#112D4F" transform="translate(398,27)"/>
<path d="M0,0 L1,4 L-3,8 L-3,3 Z " fill="#ADCEF1" transform="translate(310,27)"/>
<path d="M0,0 L7,0 L11,3 L5,3 L0,1 Z " fill="#0B2A51" transform="translate(369,16)"/>
</svg>
