<svg version="1.2" xmlns="http://www.w3.org/2000/svg" viewBox="0 0 552 445" width="552" height="445">
	<g id="Background">
		<path id="Path 0" fill-rule="evenodd" fill="#19395b" opacity=".28" d="m411 179l-2-1 4 1zm-67 7l-3-1h3zm-113 5v-5l3 2zm4 116l-6-1h7zm290 112l6-7-3 6 22 1zm-521 0l16-1 1 3h-17zm44 22v-1h8v1z"/>
		<path id="Path 1" fill="#b9d9f7" opacity=".32" d="m109 258v-3h1 1z"/>
		<path id="Path 2" fill="#1c3054" opacity=".71" d="m411 180v-1h2l7 1v3zm-191 45l1-1 1 7h-2zm-111 28v-1l6 1 1 1-5 1h-1zm17 15l-2-10h2l3 8zm67 14l5-2 1 1-4 3 3 2-4 1zm353 67l-3-29 3 15 1 1 1 13zm-2 35l2-13h2l-3 14zm-526 10l4-18 1 1-3 17zm97 26l25-1 22 1 20 1h-68zm404 1l6-2h25l1 2zm-431 6l11-6 2 1-12 7zm100 2l-5-8h3l2 6zm-148 9l-8-3-9-11h2l15 12zm22 1v-2h3v1z"/>
		<path id="Path 3" fill="#bbdaf7" opacity=".72" d="m413 171h2l6 6z"/>
		<path id="Path 4" fill="#dd395d" opacity=".97" d="m271 237l7-10-2 6zm147 183l5-2 1 2h-5zm-50 1l-5-2h7v2zm-287 10l7-4 1 2-7 3z"/>
		<path id="Path 5" fill="#939eb9" opacity=".99" d="m266 311v-2h2 4l4 1v1zm-50 11l-2-1 2-4 2 1zm-6 25h-2l2-16 6-7-5 21zm-24 74l4-4h1v8l-3 2z"/>
		<path id="Path 6" fill="#7cacd5" opacity="1" d="m216 317v-5l6-3h6v2l-10 7zm60-7l13-1 3 3h-10l-6-1zm21 2l2-2v1 1zm-25 71l-3-12 5-8 10-3 7 6v9l-6 8-4 2zm-75-4l6-9-3 13h-3z"/>
		<path id="Path 7" fill="#b5d7f6" opacity="1" d="m242 4l9-1h19l9 1 3 1 18 5 20 13-15 15-9 3-12 10-7 11-2 10-2 18 3 12-4 8-1 5-3 10-9 6-3 1-10 5-2 2h-5l-2-1-2 1-1-3h-16l-20-7-17-8-16-2-26 2-11 6-9 10-2-6-6-2v-2l28-25 33-50 24-27 27-16 16-4zm187 71l-1-10 17 1 18 6 26 21 16 28 7 29-38-1-22-6 1-30-10-16-13-6zm-333 148l2-1 4 4 2 2v7l3 1v4l-7 6-5-7-1-2v-4zm250 67l-11 2-1-3 5-7 10-6 6 9zm-200 52l17-7 27 1v7l-12 1h-11l9 6 5 11-3 4-8-10-6-2-4-8h-12zm206 17l1-6 3-1 3 5-1 8zm-4 28l5-1v5l-4 2zm-19 12l17-1 1 5-11 2z"/>
		<path id="Path 8" fill="#1c3855" opacity="1" d="m336 185l1-2h7 2v2h-2-3zm-212 73l-2-4h1l3 4zm114 44l13-28-9 25-1 3zm199 1l-1-4h8l2 5-2 7h-3zm-138 9l1 14 4 3-2 6-10-2-12-9 2-12h10 5zm123 31l-20 3 1-13 6-5 6 1 7 10zm-246 7l-9-6h11zm-150 6l-4-2 4-10-2 8 3 3zm520 15v-22h2v22zm-524 5l5-14 1 1-2 8-3 6zm-3 37l-1-13h2l1 13zm46 24l13-6 1 2-14 5z"/>
		<path id="Path 9" fill="#617a9e" opacity="1" d="m102 226l5-1 5 5-1 2-7-4zm47 54l-5-3v-4l17 9-1 2zm18 92l-7-5 1-2 8 6zm23 45l-1-8 3 2-1 6z"/>
		<path id="Path 10" fill="#c5e0f9" opacity="1" d="m18 231l7-27 19-29 24-21 43-27v2l-5 6-1 9h-9l-5 4v5l7 2-5 6-8 14v22l9 25-3 11 1 4 1 3 7 11 8 3 1 1v3l-2 14 3 2-9 3-10 2-12 4-15 8-28 32-11-18-6-23-1-3-1-10-1-5 1-30zm397-60l24-9 7-6 6-13 22 6 38 1 2 13 1 4v4l1 8v34l-1 9v5l-1 3-1 10-13-17-2-2-11-11-11-9-14-6-39-14-1-1-1-3z"/>
		<path id="Path 11" fill-rule="evenodd" fill="#396a9c" opacity="1" d="m420 180h2l1 1-3 3zm-327 60l-1-3h2l1 2zm264 45l5-3 5 4-3 4zm-85 24v-10h19l9 6v4l-3 3h-5l-3-3-13 1zm84-1v-5l8-3 6 3h4l3 10h4l1-4h2v6l4 5 10 1 6 2 5 5-6 5-1 13 20-3 7 7 7 16 12 5 10 12 29 16h29l25-3-10 16-6 7-6 2-6 3-23 4-4-1-22-7-23-21-11 1-6 5-1 13-5 2h-2l-12 1h-34v-2h-7l5 2h-16l-4-5-1-13-1-5v-3l3-2 4-2v-8l5-5-2-7-1-2 3-4 1-8 5-6v-8l-4-1v-13l2-15zm116 5l-4 4h-6l-2-14h8l4 3zm-361 98l22-21 15-1 4 8h8l-2 10h-15l-3 3v9l-25 1zm51 9l1-9 10-6h13l3 4 1 8-4 4h-4z"/>
		<path id="Path 12" fill="#404969" opacity="1" d="m295 126l1-1 9 29-1 1zm41 59l-12-4-6-6h1l18 8zm10-2l6-2 1 2-6 2h-1zm-186 25l5-1v2l-9 4zm-68 29l-1-4h3v4zm1 3l2-1 5 7 9 6v1l-1 1-8-3zm105 40l11-9 9-14h1l-6 13-14 11zm151-9l6-3 1 2-6 4zm18 9l10-9-9 12zm-276-1l10-2-2 3-8 1zm131 30l-1-9 8 6 6 1v2h-7zm112 62l21-2 1 2-11 4-11-2zm-167 1l2-1 3 5-2 1zm-106 14l-6 2 6-4zm18 47l-1-2h3l1 1zm-39 5v-2l22 1v2l-6 1h-8z"/>
		<path id="Path 13" fill="#9dc6e9" opacity="1" d="m337 100l-3-11 41 14v5l-13 9-10-2-2-12 2-2-6-3zm59 22l1-7h8 7l-4 12-6 3zm-34 56l11-8 1 8-4 7-13 12-8-2-2-10 6-2zm-18 5v-6l8-5 10-1 1 3-1 2-10 5-6 2zm-163 4h4l-2 7-3 5-9 4v4h-6l-5 1-1-4-9-1-21 5 1-6 8-2 10-10 1 8h11l18-7zm-74 49l-3-1v-7l7 4zm112 9l-10-1-1-7 12-2zm-69 60l-1-25 11 4 13 3 2 3-2 6 1 4-7 6zm224-2v-1l8 5v2l-1 4h-4zm-146 8v-2h7 31v2h-28zm71-1l1-1h14 2v2h-17zm34 1v-2h1 9l1 3zm72 1l16 1 6 11 7 3-6 8-6 4-7-10-6-1-5-5 1-9zm-377 51l2-3 6 2 22 10-2 6-11 1-9-7-10-1zm-3 58h18l35-6 4-10 6-5 10-1 4-5 7-1 19-12h22l2 3-4 5-15 1-22 21-12 10-11 6-7 4h-3l-13 6h-3l-22-1-15-12z"/>
		<path id="Path 14" fill-rule="evenodd" fill="#a7cced" opacity="1" d="m306 67l3-3 8 11 17 14 3 11-2 4 6-3 9 2 2 12 10 2 13-9v-5h6l7 9 4-11 12-3 7 8 1 9h-7l-7-3v-3l6-4-1-2-7 5-3 14h3l6 8-10 2v18l4 19 6 11-20 36-12 15-11 7-11-26-1-5-1-10 3-2 8 2 13-12 4-7-1-8 5-7-2-3v3l-13 11-1-3-10 1-8 5v6h-7l-18-8-14-21-9-29-2-16-1-18zm30 88l-9 4 2 2 7 1 4-1 6-4 3-7-5 1zm-144 38l12-5 8-11 5 7 2 36 1 5v10l-12 2 1 7 10 1-1 12-9 14-11 9-5 2-15 3-5-1-12-2-17-9v4l5 3 1 25-9-3-11-10-5-16 4-10-3-8-3-4-1-5-7 4-6-1-9-6 7-6 6-4 4 5-5-11-5-5-5 1-4-4 4-4h8l14 12 5-22 21-5 9 1 1 4-4 5 9-4 7 1-1-3v-4l9-4 3-5zm-11 66l13-1 1-2-10-2h-5l-3 1 1 3zm193 1l9-2 12 2 15 10 27 33 4 8-7 16-7-3-6-11-16-1-2-4-6 4v3l6-1-1 5-4 2-10-1-4-5v-6l4-6 8-11-4 1-6 9-4 5-8-5v-3l2-4 9-13-7 5-8 16-6-3v-10l3-4 1-3 9-12-10 9-5 2-5 3h-2l-6-9 1-2 15-10zm-25 11l-4-5 5-2h6l-1 4zm-33 40v-2h17v2zm-126 32v-7l8 1 1 3zm-73 20l11-5 18-16 2 3h12l4 8 12 12v11h-4l-3-5-8-6-1 2 7 5 3 5-2 9-11 2-1-3 4-2-1-3-6 4h-1l-2-3h-22l-19 12-7 1-4 5-10 1-6 5-4 10-35 6h-18l-4-8-1-13v-6l3-17 3-6 10 1 9 7 11-1 2-6 14 3 3 3-5 2-9 4-6 4 6-2 40-16zm218 0l17-4 6 6-3 4-21 2-2-5zm-1 10l11 2 11-4 2 7-5 5-7 1h-7l-11-4zm12 22h-12l-7-5 2-4 10 1h9l1 6z"/>
		<path id="Path 15" fill="#3c729c" opacity="1" d="m420 184l3-3 39 14-2 6h-14l-5-6h-6l-9 7h-6l-4-4v-9zm-312 70l1-1 1 2h-1zm352 49l-6-2v-5l12-3 2 10zm-120 0l6-6h18v3l-8 3v5l-2 4h-10l-1-3zm-99-1l1-3h30v10h-4l-1-3-25-1zm71 3v-4l22 2v6h-1-17-2zm110 34l6-4 11 14 9 22-12-5-7-16-7-7zm94 60l1-4 14-3 5-7 8-1 1 1-4 11zm-356-2l16-2h14l5 5-1 10-2 1-3-2-3-4h-13l-10 6-1 9-22-1v-9l3-3h15z"/>
		<path id="Path 16" fill="#2a5785" opacity="1" d="m346 15l4-1h12l5 1 15 3 16 9-3 19-8 8-23 11-21 4-2 3-20-1-4 4-8-11-3 3-7-2-9 4-2 4-13-1 2-10 7-11 12-10 9-3 15-15zm50 107h-3l3-14 2 1v3l7 3h-8zm-198 7v8l-8 5-2 5-20 2-11-6h-13l-2-9 14-3 9-12 16 2zm106 26l1-1 14 21h-1l-8-7zm-213 78l3-11 2 1-2 10zm69 51l1-2 12 2v3zm226 18l6-9 4-1-8 11zm-16 1l2-4h2v3 1zm-36 6v-6h6l3 6zm-34 0v-4h12l2 4zm103 5l-6 1v-3l6-4 2 4v2zm-185 4l10-7h10v8l-4 5 1 13 9 2v44h-6l-3 4-5-2-4-33-4-5h-8l-3-2 5-21v-2zm138 34v-9l4-1 4 1v8l-5 6zm-203 32l6-4 1 3-4 2zm270 34l1-13 6-5 11-1 23 21h-45 5zm-87-13l11-2 1 13 4 5h-16zm-237 16l12-10 4 9-1 1-13 1z"/>
		<path id="Path 17" fill-rule="evenodd" fill="#1d416c" opacity="1" d="m404 98l1-5 8-3 5-12 11-3 1 16 13 6 10 16-1 30-6 13-7 6-24 9h-2l-14-3 5 9 3 1h2l2 1v1h-9l-6-11-4-19v-18l10-2 6-3 4-12-1-9zm-67 2l9-2 6 3-2 2-9-2-6 3zm44 3l3-4 8 2-4 11zm-98 10l4-4h7l2 16-1 1zm-189 109l-9-25v-22l8-14 29 13 56 6 3 7-3 4-18 7h-11l-1-8-10 10-8 2-1 6-5 22-14-12h-8l-4 4-2 1zm123-38l11-6 10-1v9l-4 2-3-2v5l-4 14-6 6v9h-2zm-34 10l2-7 7 6zm-18 15v-2h6l1 3zm55 26v-4h2v18l-3 8h-1l1-12zm-105 18l7-4 1 5h-7zm11 15l3-2-4 10-2-2zm236 14l5-2 1 3-1 3zm10 17l2-4h2l-2 4zm-33 88v-3h7v3zm-321 13v-6h2v6zm174 11l2-1h4l2 9h16l2 4 10 4 1 5h-36l-5-3v-2l3-2v-8z"/>
		<path id="Path 18" fill-rule="evenodd" fill="#44709e" opacity="1" d="m396 108l7-5 1 2-6 4zm-33 66l13-11v-3l2 3-5 7-11 8v-2zm19 42l20-36h9l9 3v1l-4 5v9l4 4-1 5-5 3-2 11-11 11h-11l-2-11zm-54-22l11-4 7 7 1 10h-7zm132 7l2-6 14 6 11 9-1 3h-8l-9-9zm-182 26l9-11 10-6 3 4-2 69 14 18v4h-12l-9-6h-19v-9l8-5v-49l-4-3zm72 37v-9l-7-4v-20l-5-4v-13l10-2 11 26 11-7 11 18 2 9-9 2v-5l-6-6h-6l-1 10 4 5-9 6-1-2 1-4zm-130-39l-1-5h2v4zm314 62h-7l-4-4-1-11-8-7v-8l-9-8v-10l-7-4 2-12 13 17zm-433-10l9-3h13l2 2 5 16 11 10 9 3 17 1 7-6-1-4h5v-11l15-3 1 5 4-1 19 9 4 5 1 9-6 3v5l-2 4 2 1v2l-6 7-2 16h2l-6 20h-5l-2-4-16-2-5-11 2-6 12-1 9-3-1-3-8-1-27-1-17 7-18 16-11 5-3-13 3-2 1-16-9-5 1-27-5-11-5-2-1-7zm343 22l2-9 8-7h10l2 10-12 3v5l6 2 2 14h6l4-4h6l7 11v8l-3 3h-8l-3-4h-9l-2-8-11-12h-5l2-7zm-98-9l9-5h2l7 5v7h-18zm36 17l4-5 2 1-4 6h-2zm-310 68l3-17 6-7 15 1 5 18-30 12-1-2 5-2zm104-10l-12-12 6 2 8 10zm0 30v-6l5-7 5-3h11v4h3l-5 17-5-5z"/>
		<path id="Path 19" fill="#224c78" opacity="1" d="m317 75l4-4 20 1 2-3 21-4 23-11 8-8 3-19 18 15 12 23 1 10-11 3-5 12-8 3-1 5-12 3-8-2-3 4h-6l-41-14zm-42-3l13 1 2-4 9-4 7 2-13 24 1 18h-7l-4 4-7-11-3-12zm-164 57l6 2 2 6 9-10 11-6 26-2-9 12-14 3 2 9h13l11 6 20-2 2-5 8-5v-8l20 7h16l1 3-2 7-8 8 10 12 3 11-10 1-11 6-5-7-8 11-12 5-7-6h-4l-3-7-56-6-29-13 5-6-7-2v-5l5-4h9l1-9zm0 103l1-2 5 11-4-5-6 4v-4zm133 107l-9-2-1-13 4-5 6 2zm91 24l-1-7 6-5v-23l11-3 9 4v13l-4 1v9l-3 1-1 6zm-137 47l6-7v-7l8-17 2-32h8l4 5 4 33 5 2 3-4h6 6l4 9h7l11-9 9 2 4-2 6-8v-9l15 1 9 30 14 2 7 6v16h-3l-2 7-7 4h-80-11-4l-1-5-10-4-2-4h-16z"/>
		<path id="Path 20" fill="#4272a0" opacity="1" d="m352 181l10-5v2l-9 5zm-55 29l5-5 26-11 12 13h7l1 5-10 2v13l5 4v20l7 4v9l-5 2 4 5 1 3-1 2-10 6-5 7 1 3 11-2v7l-6 6h-6l-22-2-14-18 2-69zm123-8h6l9-7h6l5 6h14l9 3 9 9h8l12 8 2 2-2 12 7 4v10l9 8v8l8 7 1 11 4 4h7l9 33 3 29v22l-2 13-8 1-5 7-14 3-1 4h-29l-29-16-10-12-9-22-11-14 6-8 7-16h3 5l11 12 2 8h9l3 4h8l3-3v-8l-7-11h-6v-7l-4-3-2-10-2-10h-10l-8 7-2 9h-8l1 4-27-33-15-10-12-2-2-9-11-18 12-15 6 5 2 11h11l11-11 2-11 5-3zm-149 35l5-4 4 3v49l-8 5v9h-30l9-25zm94 27l-4-5 1-10h6l6 6v5zm-274 17l8-1 1 7 5 2 5 11-1 27 9 5-1 16-3 2 3 13-16 7-5-18-15-1-6 7-3 17-14-3-22-10-1-4-8-3-3-3 2-8 10-21 28-32 15-8 4 2zm87 84l3-4 16 2 2 4h5l-1 3-6 9h-11l-5 3-5 7v6l-16 2h-8l-4-8 4-5h1l3 1 1 3 11-2 2-9 2-1h4v-11z"/>
		<path id="Path 21" fill-rule="evenodd" fill="#264d73" opacity="1" d="m344 186v-1h3l2 10-3 2-7-7zm142 27l1-3 11 11zm-407 70l12-4v2l-8 4zm295 12l4-8 7-5-9 13zm-201-8v-3l5 1v11h-5l2-6zm63 19l2-4h3l1 3 25 1 1 3h-33v-2zm108 6h10l2-4 6 6-2 15-9-4-11 3v23l-6 5 1 7-3 3 2 5v2l-6 7 11 4v3l-10-1-2 4 7 5h12v3l-17 1-14-2-9-30-15-1-7-6-10 3-5 8 3 12-11 9h-7l-4-9h-6v-62l-6-2v-8h38l6 1-2 12 12 9 10 2 2-6-4-3-1-14v-1h34zm54 9l4-2 1-5h2l-1 9zm-188 26l1-2 3 2-2 32-8 17v7l-6 7h-4l1-10 5-17 3-13 1-3zm-184 9l1-1 8 3 1 4-6-2-2 3-1-1zm35 28l9-4 1 2-10 4zm285 0l7-1 v3l-5 1h-2zm-326 34l-1-5h2l4 8v3h-2l-2-3z"/>
		<path id="Path 22" fill="#19395b" opacity=".28" d="m178 258l-5-1-1-5 8 2-3 1zm0 1v-1l3 1zm368 76h1v1h-1z"/>
		<path id="Path 23" fill="#1c3054" opacity=".71" d="m336 162l4-1v2h-1zm-151 92v-1h11l-1 3z"/>
		<path id="Path 24" fill="#dd395d" opacity=".97" d="m336 153l7-2h1l-8 4z"/>
		<path id="Path 25" fill="#7cacd5" opacity="1" d="m173 264v-3h5l8 4-4 2z"/>
		<path id="Path 26" fill="#b5d7f6" opacity="1" d="m85 115l-16-1-11-6-7-11-1-17 6-16 17-20 19-11 12-2h15l11 3 10 11 2 21-3 10-11 17-10 9-13 8-16 4z"/>
		<path id="Path 27" fill="#1c3855" opacity="1" d="m327 159l-1-4 10-2v2zm-132 97l1-3 4 3-3 5-3-3z"/>
		<path id="Path 28" fill="#617a9e" opacity="1" d="m320 128l1-6 2 5zm-130 100l7 6v7l-3 2v-8zm-18 37l1-1 9 3-2 3z"/>
		<path id="Path 29" fill="#404969" opacity="1" d="m342 115l5 1 1 6-5 1zm-35 6l4 2v7l-5-2zm13 7l3-1-2 12 8 5-9-2zm23 23l8-4v6l-4 4h-1l3-7-5 1zm-4 12l-7 2-4-2 1-2 7 1zm-133 58l4 3v5l-5 1zm-34 44l-5-9 1-6 17 3v1h-5l-8-2 1 5 5 1v1 2h-5v3z"/>
		<path id="Path 30" fill="#9dc6e9" opacity="1" d="m147 231h6l5 4v8l-4 4-9-2-1-8z"/>
		<path id="Path 31" fill="#3c729c" opacity="1" d="m166 222l5 2v5l-5 3-2-4z"/>
		<path id="Path 32" fill-rule="evenodd" fill="#2a5785" opacity="1" d="m305 105l5 1v3l-5-1-9 4zm-101 101l13 4-14-1z"/>
		<path id="Path 33" fill="#44709e" opacity="1" d="m340 161l6-4h1l-7 6z"/>
		<path id="Path 34" fill="#224c78" opacity="1" d="m313 324l11 4v17l-6 6-9-6-1-14z"/>
		<path id="Path 35" fill="#264d73" opacity="1" d="m181 259l13-1 3 3-5 7-12 2 2-3 4-2-8-4v-2z"/>
	</g>
</svg>
